M48
;Layer_Color=9474304
;FILE_FORMAT=4:4
METRIC,LZ
;TYPE=PLATED
T01F00S00C0.4000
%
T01
X0003Y00048
Y00105
X00069Y0013
X00107Y00106
X00155Y00056
X00299Y00027
X00365Y0006
X00441Y00031
X0048Y0006
X00546Y00034
X0061Y0008
X00679Y0004
X00657Y00287
X00679Y00331
X00518Y00337
X00158Y00325059
X00107Y00277
Y0022
X00068Y00213
X0003Y00219
Y00162
X00107Y00163
X0003Y00276
Y00333
M30
