G04*
G04 #@! TF.GenerationSoftware,Altium Limited,Altium Designer,24.7.2 (38)*
G04*
G04 Layer_Physical_Order=1*
G04 Layer_Color=255*
%FSLAX44Y44*%
%MOMM*%
G71*
G04*
G04 #@! TF.SameCoordinates,215FB70B-008C-4E37-827B-1868BD4F42A1*
G04*
G04*
G04 #@! TF.FilePolarity,Positive*
G04*
G01*
G75*
%ADD10C,4.0000*%
%ADD11C,1.2000*%
%ADD15C,0.2000*%
%ADD16C,0.6000*%
G36*
X323446Y80354D02*
X323260Y80443D01*
X323065Y80494D01*
X322861Y80507D01*
X322648Y80482D01*
X322427Y80420D01*
X322197Y80320D01*
X321958Y80182D01*
X321710Y80007D01*
X321454Y79794D01*
X321188Y79543D01*
X319901Y81084D01*
X320154Y81350D01*
X320371Y81609D01*
X320555Y81860D01*
X320704Y82105D01*
X320819Y82342D01*
X320900Y82572D01*
X320946Y82795D01*
X320958Y83011D01*
X320935Y83220D01*
X320878Y83422D01*
X323446Y80354D01*
D02*
G37*
G36*
X273446D02*
X273260Y80443D01*
X273065Y80494D01*
X272861Y80507D01*
X272648Y80482D01*
X272427Y80420D01*
X272197Y80320D01*
X271958Y80182D01*
X271710Y80007D01*
X271454Y79794D01*
X271188Y79543D01*
X269901Y81084D01*
X270154Y81350D01*
X270371Y81609D01*
X270555Y81860D01*
X270704Y82105D01*
X270819Y82342D01*
X270900Y82572D01*
X270946Y82795D01*
X270958Y83011D01*
X270935Y83220D01*
X270878Y83422D01*
X273446Y80354D01*
D02*
G37*
G36*
X248446D02*
X248260Y80443D01*
X248065Y80494D01*
X247861Y80507D01*
X247648Y80482D01*
X247427Y80420D01*
X247197Y80320D01*
X246958Y80182D01*
X246710Y80007D01*
X246454Y79794D01*
X246188Y79543D01*
X244901Y81084D01*
X245154Y81350D01*
X245371Y81609D01*
X245555Y81860D01*
X245704Y82105D01*
X245819Y82342D01*
X245900Y82572D01*
X245946Y82795D01*
X245958Y83011D01*
X245935Y83220D01*
X245878Y83422D01*
X248446Y80354D01*
D02*
G37*
G36*
X198446D02*
X198260Y80443D01*
X198065Y80494D01*
X197861Y80507D01*
X197648Y80482D01*
X197427Y80420D01*
X197197Y80320D01*
X196958Y80182D01*
X196710Y80007D01*
X196454Y79794D01*
X196188Y79543D01*
X194901Y81084D01*
X195154Y81350D01*
X195371Y81609D01*
X195555Y81860D01*
X195704Y82105D01*
X195819Y82342D01*
X195900Y82572D01*
X195946Y82795D01*
X195958Y83011D01*
X195935Y83220D01*
X195878Y83422D01*
X198446Y80354D01*
D02*
G37*
G36*
X148446D02*
X148260Y80443D01*
X148065Y80494D01*
X147861Y80507D01*
X147648Y80482D01*
X147427Y80420D01*
X147197Y80320D01*
X146958Y80182D01*
X146710Y80007D01*
X146454Y79794D01*
X146188Y79543D01*
X144901Y81084D01*
X145154Y81350D01*
X145371Y81609D01*
X145555Y81860D01*
X145704Y82105D01*
X145819Y82342D01*
X145899Y82572D01*
X145946Y82795D01*
X145958Y83011D01*
X145935Y83220D01*
X145878Y83422D01*
X148446Y80354D01*
D02*
G37*
G36*
X298446Y80354D02*
X298260Y80443D01*
X298065Y80494D01*
X297861Y80507D01*
X297649Y80482D01*
X297427Y80420D01*
X297197Y80320D01*
X296958Y80182D01*
X296710Y80007D01*
X296454Y79794D01*
X296188Y79543D01*
X294901Y81084D01*
X295154Y81350D01*
X295371Y81609D01*
X295555Y81860D01*
X295704Y82105D01*
X295819Y82342D01*
X295900Y82572D01*
X295946Y82795D01*
X295958Y83011D01*
X295935Y83220D01*
X295879Y83422D01*
X298446Y80354D01*
D02*
G37*
G36*
X223446D02*
X223260Y80443D01*
X223065Y80494D01*
X222861Y80507D01*
X222648Y80482D01*
X222427Y80420D01*
X222197Y80320D01*
X221958Y80182D01*
X221710Y80007D01*
X221454Y79794D01*
X221188Y79543D01*
X219901Y81084D01*
X220154Y81350D01*
X220371Y81609D01*
X220555Y81860D01*
X220704Y82105D01*
X220819Y82342D01*
X220900Y82572D01*
X220946Y82795D01*
X220958Y83011D01*
X220935Y83220D01*
X220879Y83422D01*
X223446Y80354D01*
D02*
G37*
G36*
X173446D02*
X173260Y80443D01*
X173065Y80494D01*
X172861Y80507D01*
X172648Y80482D01*
X172427Y80420D01*
X172197Y80320D01*
X171958Y80182D01*
X171710Y80007D01*
X171454Y79794D01*
X171188Y79543D01*
X169901Y81084D01*
X170154Y81350D01*
X170371Y81609D01*
X170555Y81860D01*
X170704Y82105D01*
X170819Y82342D01*
X170900Y82572D01*
X170946Y82795D01*
X170958Y83011D01*
X170935Y83220D01*
X170878Y83422D01*
X173446Y80354D01*
D02*
G37*
G36*
X123446D02*
X123260Y80443D01*
X123065Y80494D01*
X122861Y80507D01*
X122648Y80482D01*
X122427Y80420D01*
X122197Y80320D01*
X121958Y80182D01*
X121710Y80007D01*
X121454Y79794D01*
X121188Y79543D01*
X119901Y81084D01*
X120154Y81350D01*
X120371Y81609D01*
X120555Y81860D01*
X120704Y82105D01*
X120819Y82342D01*
X120899Y82572D01*
X120946Y82795D01*
X120958Y83011D01*
X120935Y83220D01*
X120878Y83422D01*
X123446Y80354D01*
D02*
G37*
G36*
X98446D02*
X98260Y80443D01*
X98065Y80494D01*
X97861Y80507D01*
X97648Y80482D01*
X97427Y80420D01*
X97197Y80320D01*
X96958Y80182D01*
X96710Y80007D01*
X96454Y79794D01*
X96188Y79543D01*
X94901Y81084D01*
X95154Y81350D01*
X95371Y81609D01*
X95555Y81860D01*
X95704Y82105D01*
X95819Y82342D01*
X95899Y82572D01*
X95946Y82795D01*
X95958Y83011D01*
X95935Y83220D01*
X95878Y83422D01*
X98446Y80354D01*
D02*
G37*
G36*
X73446D02*
X73260Y80443D01*
X73065Y80494D01*
X72861Y80507D01*
X72648Y80482D01*
X72427Y80420D01*
X72197Y80320D01*
X71958Y80182D01*
X71710Y80007D01*
X71454Y79794D01*
X71188Y79543D01*
X69901Y81084D01*
X70154Y81350D01*
X70371Y81609D01*
X70555Y81860D01*
X70704Y82105D01*
X70819Y82342D01*
X70900Y82572D01*
X70946Y82795D01*
X70958Y83011D01*
X70935Y83220D01*
X70878Y83422D01*
X73446Y80354D01*
D02*
G37*
G36*
X318179Y76534D02*
X317995Y76336D01*
X317824Y76127D01*
X317667Y75905D01*
X317524Y75672D01*
X317395Y75426D01*
X317280Y75169D01*
X317179Y74899D01*
X317091Y74617D01*
X317018Y74324D01*
X316958Y74018D01*
X314560Y77466D01*
X314845Y77424D01*
X315122Y77408D01*
X315391Y77418D01*
X315651Y77455D01*
X315903Y77517D01*
X316146Y77605D01*
X316381Y77719D01*
X316608Y77860D01*
X316826Y78026D01*
X317036Y78219D01*
X318179Y76534D01*
D02*
G37*
G36*
X268179D02*
X267995Y76336D01*
X267824Y76127D01*
X267667Y75905D01*
X267524Y75672D01*
X267395Y75426D01*
X267280Y75169D01*
X267179Y74899D01*
X267091Y74617D01*
X267018Y74324D01*
X266958Y74018D01*
X264560Y77466D01*
X264845Y77424D01*
X265122Y77408D01*
X265391Y77418D01*
X265651Y77455D01*
X265903Y77517D01*
X266146Y77605D01*
X266381Y77719D01*
X266608Y77860D01*
X266826Y78026D01*
X267036Y78219D01*
X268179Y76534D01*
D02*
G37*
G36*
X243179D02*
X242995Y76336D01*
X242824Y76127D01*
X242667Y75905D01*
X242524Y75672D01*
X242395Y75426D01*
X242280Y75169D01*
X242179Y74899D01*
X242091Y74617D01*
X242018Y74324D01*
X241958Y74018D01*
X239560Y77466D01*
X239845Y77424D01*
X240122Y77408D01*
X240391Y77418D01*
X240651Y77455D01*
X240903Y77517D01*
X241146Y77605D01*
X241381Y77719D01*
X241608Y77860D01*
X241826Y78026D01*
X242036Y78219D01*
X243179Y76534D01*
D02*
G37*
G36*
X193179D02*
X192995Y76336D01*
X192824Y76127D01*
X192667Y75905D01*
X192524Y75672D01*
X192395Y75426D01*
X192280Y75169D01*
X192179Y74899D01*
X192091Y74617D01*
X192018Y74324D01*
X191958Y74018D01*
X189560Y77466D01*
X189845Y77424D01*
X190122Y77408D01*
X190391Y77418D01*
X190651Y77455D01*
X190903Y77517D01*
X191146Y77605D01*
X191381Y77719D01*
X191608Y77860D01*
X191826Y78026D01*
X192036Y78219D01*
X193179Y76534D01*
D02*
G37*
G36*
X143180D02*
X142995Y76336D01*
X142824Y76127D01*
X142667Y75905D01*
X142524Y75672D01*
X142395Y75426D01*
X142280Y75169D01*
X142179Y74899D01*
X142091Y74617D01*
X142018Y74324D01*
X141958Y74018D01*
X139560Y77466D01*
X139845Y77424D01*
X140122Y77408D01*
X140391Y77418D01*
X140651Y77455D01*
X140903Y77517D01*
X141146Y77605D01*
X141381Y77719D01*
X141608Y77860D01*
X141826Y78026D01*
X142036Y78219D01*
X143180Y76534D01*
D02*
G37*
G36*
X293179Y76534D02*
X292995Y76336D01*
X292824Y76127D01*
X292667Y75905D01*
X292524Y75672D01*
X292395Y75426D01*
X292280Y75168D01*
X292179Y74899D01*
X292091Y74617D01*
X292018Y74324D01*
X291958Y74018D01*
X289560Y77466D01*
X289845Y77424D01*
X290122Y77408D01*
X290391Y77418D01*
X290651Y77455D01*
X290903Y77517D01*
X291146Y77605D01*
X291381Y77719D01*
X291608Y77860D01*
X291826Y78026D01*
X292036Y78219D01*
X293179Y76534D01*
D02*
G37*
G36*
X218179D02*
X217995Y76336D01*
X217824Y76127D01*
X217667Y75905D01*
X217524Y75672D01*
X217395Y75426D01*
X217280Y75168D01*
X217179Y74899D01*
X217091Y74617D01*
X217018Y74324D01*
X216958Y74018D01*
X214560Y77466D01*
X214845Y77424D01*
X215122Y77408D01*
X215391Y77418D01*
X215651Y77455D01*
X215903Y77517D01*
X216146Y77605D01*
X216381Y77719D01*
X216608Y77860D01*
X216826Y78026D01*
X217036Y78219D01*
X218179Y76534D01*
D02*
G37*
G36*
X168179D02*
X167995Y76336D01*
X167824Y76127D01*
X167667Y75905D01*
X167524Y75672D01*
X167395Y75426D01*
X167280Y75168D01*
X167179Y74899D01*
X167091Y74617D01*
X167018Y74324D01*
X166958Y74018D01*
X164560Y77466D01*
X164845Y77424D01*
X165122Y77408D01*
X165391Y77418D01*
X165651Y77455D01*
X165903Y77517D01*
X166146Y77605D01*
X166381Y77719D01*
X166608Y77860D01*
X166826Y78026D01*
X167036Y78219D01*
X168179Y76534D01*
D02*
G37*
G36*
X118180D02*
X117995Y76336D01*
X117824Y76127D01*
X117667Y75905D01*
X117524Y75672D01*
X117395Y75426D01*
X117280Y75168D01*
X117179Y74899D01*
X117091Y74617D01*
X117018Y74324D01*
X116958Y74018D01*
X114560Y77466D01*
X114845Y77424D01*
X115122Y77408D01*
X115391Y77418D01*
X115651Y77455D01*
X115903Y77517D01*
X116146Y77605D01*
X116381Y77719D01*
X116608Y77860D01*
X116826Y78026D01*
X117036Y78219D01*
X118180Y76534D01*
D02*
G37*
G36*
X93180D02*
X92995Y76336D01*
X92824Y76127D01*
X92667Y75905D01*
X92524Y75672D01*
X92395Y75426D01*
X92280Y75168D01*
X92179Y74899D01*
X92091Y74617D01*
X92018Y74324D01*
X91958Y74018D01*
X89560Y77466D01*
X89845Y77424D01*
X90122Y77408D01*
X90391Y77418D01*
X90651Y77455D01*
X90903Y77517D01*
X91146Y77605D01*
X91381Y77719D01*
X91608Y77860D01*
X91826Y78026D01*
X92036Y78219D01*
X93180Y76534D01*
D02*
G37*
G36*
X68179D02*
X67995Y76336D01*
X67824Y76127D01*
X67667Y75905D01*
X67524Y75672D01*
X67395Y75426D01*
X67280Y75168D01*
X67179Y74899D01*
X67091Y74617D01*
X67018Y74324D01*
X66958Y74018D01*
X64560Y77466D01*
X64845Y77424D01*
X65122Y77408D01*
X65391Y77418D01*
X65651Y77455D01*
X65903Y77517D01*
X66146Y77605D01*
X66381Y77719D01*
X66608Y77860D01*
X66826Y78026D01*
X67036Y78219D01*
X68179Y76534D01*
D02*
G37*
G36*
X220636Y54558D02*
X220454Y54365D01*
X220283Y54159D01*
X220122Y53941D01*
X219973Y53712D01*
X219835Y53470D01*
X219708Y53216D01*
X219591Y52951D01*
X219392Y52384D01*
X219308Y52082D01*
X217194Y55712D01*
X217468Y55650D01*
X217735Y55616D01*
X217995Y55611D01*
X218248Y55635D01*
X218494Y55686D01*
X218734Y55767D01*
X218966Y55876D01*
X219191Y56013D01*
X219410Y56178D01*
X219622Y56372D01*
X220636Y54558D01*
D02*
G37*
G36*
X223105Y55572D02*
X222927Y55671D01*
X222740Y55731D01*
X222543Y55752D01*
X222337Y55735D01*
X222120Y55678D01*
X221894Y55583D01*
X221658Y55449D01*
X221412Y55276D01*
X221157Y55065D01*
X220892Y54814D01*
X219703Y56454D01*
X219956Y56719D01*
X220176Y56979D01*
X220363Y57231D01*
X220517Y57476D01*
X220638Y57715D01*
X220726Y57946D01*
X220781Y58171D01*
X220804Y58389D01*
X220793Y58601D01*
X220750Y58805D01*
X223105Y55572D01*
D02*
G37*
G36*
X323914Y55105D02*
X323719Y55178D01*
X323516Y55215D01*
X323305Y55216D01*
X323086Y55181D01*
X322859Y55111D01*
X322625Y55003D01*
X322383Y54860D01*
X322133Y54681D01*
X321875Y54466D01*
X321610Y54214D01*
X320195Y55628D01*
X320447Y55894D01*
X320662Y56152D01*
X320841Y56402D01*
X320985Y56644D01*
X321092Y56878D01*
X321163Y57105D01*
X321198Y57324D01*
X321197Y57534D01*
X321159Y57738D01*
X321086Y57933D01*
X323914Y55105D01*
D02*
G37*
G36*
X273914D02*
X273719Y55178D01*
X273516Y55215D01*
X273305Y55216D01*
X273086Y55181D01*
X272859Y55111D01*
X272625Y55003D01*
X272383Y54860D01*
X272133Y54681D01*
X271875Y54466D01*
X271610Y54214D01*
X270195Y55628D01*
X270447Y55894D01*
X270662Y56152D01*
X270842Y56402D01*
X270985Y56644D01*
X271092Y56878D01*
X271163Y57105D01*
X271198Y57324D01*
X271196Y57534D01*
X271159Y57738D01*
X271086Y57933D01*
X273914Y55105D01*
D02*
G37*
G36*
X250263Y54648D02*
X250058Y54675D01*
X249846Y54670D01*
X249628Y54635D01*
X249403Y54568D01*
X249171Y54470D01*
X248932Y54341D01*
X248686Y54181D01*
X248434Y53990D01*
X248175Y53767D01*
X247909Y53513D01*
X246146Y54579D01*
X246397Y54844D01*
X246607Y55098D01*
X246777Y55340D01*
X246907Y55572D01*
X246998Y55793D01*
X247048Y56002D01*
X247058Y56201D01*
X247028Y56388D01*
X246958Y56564D01*
X246848Y56730D01*
X250263Y54648D01*
D02*
G37*
G36*
X131841Y57738D02*
X131804Y57535D01*
X131802Y57324D01*
X131837Y57105D01*
X131908Y56878D01*
X132015Y56644D01*
X132159Y56402D01*
X132338Y56152D01*
X132553Y55894D01*
X132805Y55628D01*
X131390Y54214D01*
X131125Y54466D01*
X130867Y54681D01*
X130617Y54860D01*
X130375Y55003D01*
X130140Y55111D01*
X129914Y55181D01*
X129695Y55216D01*
X129484Y55215D01*
X129281Y55178D01*
X129086Y55105D01*
X131914Y57933D01*
X131841Y57738D01*
D02*
G37*
G36*
X56841Y57738D02*
X56804Y57534D01*
X56802Y57324D01*
X56837Y57105D01*
X56908Y56878D01*
X57015Y56644D01*
X57159Y56402D01*
X57338Y56152D01*
X57553Y55894D01*
X57805Y55628D01*
X56390Y54214D01*
X56125Y54466D01*
X55867Y54681D01*
X55617Y54860D01*
X55375Y55003D01*
X55141Y55111D01*
X54914Y55181D01*
X54695Y55216D01*
X54484Y55215D01*
X54281Y55178D01*
X54086Y55105D01*
X56914Y57933D01*
X56841Y57738D01*
D02*
G37*
G36*
X181841D02*
X181803Y57534D01*
X181802Y57324D01*
X181837Y57105D01*
X181908Y56878D01*
X182015Y56644D01*
X182159Y56402D01*
X182338Y56152D01*
X182553Y55894D01*
X182805Y55628D01*
X181390Y54214D01*
X181125Y54466D01*
X180867Y54681D01*
X180617Y54860D01*
X180375Y55003D01*
X180140Y55111D01*
X179914Y55181D01*
X179695Y55216D01*
X179484Y55215D01*
X179281Y55178D01*
X179086Y55105D01*
X181914Y57933D01*
X181841Y57738D01*
D02*
G37*
G36*
X156669Y57429D02*
X156622Y57231D01*
X156613Y57025D01*
X156641Y56810D01*
X156706Y56587D01*
X156808Y56355D01*
X156948Y56115D01*
X157124Y55866D01*
X157338Y55609D01*
X157589Y55344D01*
X156090Y54014D01*
X155825Y54266D01*
X155566Y54483D01*
X155315Y54665D01*
X155071Y54812D01*
X154835Y54925D01*
X154606Y55002D01*
X154384Y55044D01*
X154169Y55051D01*
X153962Y55024D01*
X153762Y54962D01*
X156752Y57618D01*
X156669Y57429D01*
D02*
G37*
G36*
X183867Y53918D02*
X183895Y53509D01*
X183919Y53338D01*
X183949Y53188D01*
X183987Y53060D01*
X184031Y52954D01*
X184083Y52869D01*
X184141Y52807D01*
X184206Y52766D01*
X181550Y52645D01*
X181610Y52691D01*
X181663Y52761D01*
X181710Y52854D01*
X181751Y52970D01*
X181786Y53109D01*
X181814Y53272D01*
X181836Y53458D01*
X181861Y53899D01*
X181864Y54155D01*
X183864D01*
X183867Y53918D01*
D02*
G37*
G36*
X303310Y54776D02*
X303140Y54658D01*
X302990Y54510D01*
X302860Y54331D01*
X302750Y54120D01*
X302660Y53879D01*
X302590Y53606D01*
X302540Y53303D01*
X302510Y52968D01*
X302500Y52603D01*
X300500D01*
X300490Y52968D01*
X300460Y53303D01*
X300410Y53606D01*
X300340Y53879D01*
X300250Y54120D01*
X300140Y54331D01*
X300010Y54510D01*
X299860Y54658D01*
X299690Y54776D01*
X299500Y54862D01*
X303500D01*
X303310Y54776D01*
D02*
G37*
G36*
X203310D02*
X203140Y54658D01*
X202990Y54510D01*
X202860Y54331D01*
X202750Y54120D01*
X202660Y53879D01*
X202590Y53606D01*
X202540Y53303D01*
X202510Y52968D01*
X202500Y52603D01*
X200500D01*
X200490Y52968D01*
X200460Y53303D01*
X200410Y53606D01*
X200340Y53879D01*
X200250Y54120D01*
X200140Y54331D01*
X200010Y54510D01*
X199860Y54658D01*
X199690Y54776D01*
X199500Y54862D01*
X203500D01*
X203310Y54776D01*
D02*
G37*
G36*
X78310D02*
X78140Y54658D01*
X77990Y54510D01*
X77860Y54331D01*
X77750Y54120D01*
X77660Y53879D01*
X77590Y53606D01*
X77540Y53303D01*
X77510Y52968D01*
X77500Y52603D01*
X75500D01*
X75490Y52968D01*
X75460Y53303D01*
X75410Y53606D01*
X75340Y53879D01*
X75250Y54120D01*
X75140Y54331D01*
X75010Y54510D01*
X74860Y54658D01*
X74690Y54776D01*
X74500Y54862D01*
X78500D01*
X78310Y54776D01*
D02*
G37*
G36*
X264361Y53910D02*
X264587Y53723D01*
X264819Y53558D01*
X265058Y53415D01*
X265303Y53294D01*
X265555Y53195D01*
X265813Y53118D01*
X266078Y53063D01*
X266350Y53030D01*
X266628Y53019D01*
Y51019D01*
X266350Y51008D01*
X266078Y50975D01*
X265813Y50920D01*
X265555Y50843D01*
X265303Y50744D01*
X265058Y50623D01*
X264819Y50480D01*
X264587Y50315D01*
X264361Y50128D01*
X264142Y49919D01*
Y54119D01*
X264361Y53910D01*
D02*
G37*
G36*
X302511Y51869D02*
X302544Y51597D01*
X302599Y51332D01*
X302676Y51074D01*
X302775Y50822D01*
X302896Y50577D01*
X303039Y50338D01*
X303204Y50106D01*
X303391Y49880D01*
X303600Y49661D01*
X299400D01*
X299609Y49880D01*
X299796Y50106D01*
X299961Y50338D01*
X300104Y50577D01*
X300225Y50822D01*
X300324Y51074D01*
X300401Y51332D01*
X300456Y51597D01*
X300489Y51869D01*
X300500Y52147D01*
X302500D01*
X302511Y51869D01*
D02*
G37*
G36*
X77511D02*
X77544Y51597D01*
X77599Y51332D01*
X77676Y51074D01*
X77775Y50822D01*
X77896Y50577D01*
X78039Y50338D01*
X78204Y50106D01*
X78391Y49880D01*
X78600Y49661D01*
X74400D01*
X74609Y49880D01*
X74796Y50106D01*
X74961Y50338D01*
X75104Y50577D01*
X75225Y50822D01*
X75324Y51074D01*
X75401Y51332D01*
X75456Y51597D01*
X75489Y51869D01*
X75500Y52147D01*
X77500D01*
X77511Y51869D01*
D02*
G37*
G36*
X135034Y53416D02*
X135253Y53250D01*
X135479Y53113D01*
X135712Y53002D01*
X135952Y52920D01*
X136200Y52866D01*
X136455Y52839D01*
X136717Y52841D01*
X136987Y52870D01*
X137264Y52927D01*
X135078Y49341D01*
X135000Y49644D01*
X134810Y50213D01*
X134697Y50480D01*
X134573Y50735D01*
X134437Y50978D01*
X134289Y51209D01*
X134130Y51427D01*
X133959Y51634D01*
X133776Y51829D01*
X134823Y53610D01*
X135034Y53416D01*
D02*
G37*
G36*
X245980Y51585D02*
X245791Y51380D01*
X245622Y51164D01*
X245474Y50938D01*
X245345Y50701D01*
X245237Y50453D01*
X245149Y50194D01*
X245082Y49924D01*
X245034Y49643D01*
X245007Y49351D01*
X245000Y49049D01*
X242030Y52019D01*
X242333Y52026D01*
X242624Y52053D01*
X242905Y52100D01*
X243175Y52168D01*
X243434Y52256D01*
X243682Y52364D01*
X243919Y52492D01*
X244146Y52641D01*
X244361Y52810D01*
X244566Y52999D01*
X245980Y51585D01*
D02*
G37*
G36*
X201953Y50557D02*
X201763Y50352D01*
X201595Y50136D01*
X201447Y49910D01*
X201320Y49672D01*
X201215Y49425D01*
X201130Y49166D01*
X201066Y48897D01*
X201022Y48617D01*
X201000Y48326D01*
X200999Y48025D01*
X197972Y50936D01*
X198275Y50949D01*
X198568Y50981D01*
X198850Y51033D01*
X199120Y51104D01*
X199379Y51195D01*
X199627Y51305D01*
X199865Y51435D01*
X200091Y51585D01*
X200306Y51754D01*
X200509Y51942D01*
X201953Y50557D01*
D02*
G37*
G36*
X110639Y48810D02*
X110854Y48641D01*
X111081Y48492D01*
X111318Y48364D01*
X111566Y48256D01*
X111825Y48168D01*
X112095Y48100D01*
X112376Y48053D01*
X112667Y48026D01*
X112970Y48019D01*
X110000Y45049D01*
X109993Y45351D01*
X109966Y45643D01*
X109918Y45924D01*
X109851Y46194D01*
X109763Y46453D01*
X109655Y46701D01*
X109526Y46938D01*
X109378Y47165D01*
X109209Y47380D01*
X109020Y47585D01*
X110434Y48999D01*
X110639Y48810D01*
D02*
G37*
G36*
X308011Y14369D02*
X308044Y14097D01*
X308099Y13832D01*
X308176Y13573D01*
X308275Y13322D01*
X308396Y13076D01*
X308539Y12838D01*
X308704Y12606D01*
X308891Y12380D01*
X309100Y12161D01*
X304900D01*
X305109Y12380D01*
X305296Y12606D01*
X305461Y12838D01*
X305604Y13076D01*
X305725Y13322D01*
X305824Y13573D01*
X305901Y13832D01*
X305956Y14097D01*
X305989Y14369D01*
X306000Y14647D01*
X308000D01*
X308011Y14369D01*
D02*
G37*
G36*
X82011Y13369D02*
X82044Y13097D01*
X82099Y12832D01*
X82176Y12573D01*
X82275Y12322D01*
X82396Y12076D01*
X82539Y11838D01*
X82704Y11605D01*
X82891Y11380D01*
X83100Y11161D01*
X78900D01*
X79109Y11380D01*
X79296Y11605D01*
X79461Y11838D01*
X79604Y12076D01*
X79725Y12322D01*
X79824Y12573D01*
X79901Y12832D01*
X79956Y13097D01*
X79989Y13369D01*
X80000Y13647D01*
X82000D01*
X82011Y13369D01*
D02*
G37*
D10*
X30000Y32000D02*
D03*
X349000D02*
D03*
D11*
X51500Y60519D02*
D03*
Y85519D02*
D03*
X76500D02*
D03*
Y60519D02*
D03*
X101500D02*
D03*
Y85519D02*
D03*
X126500D02*
D03*
Y60519D02*
D03*
X151500D02*
D03*
Y85519D02*
D03*
X176500D02*
D03*
Y60519D02*
D03*
X201500D02*
D03*
Y85519D02*
D03*
X226500D02*
D03*
Y60519D02*
D03*
X251500D02*
D03*
Y85519D02*
D03*
X276500D02*
D03*
Y60519D02*
D03*
X301500Y85519D02*
D03*
Y60519D02*
D03*
X326500D02*
D03*
Y85519D02*
D03*
D15*
X39000Y59000D02*
X70000Y28000D01*
X39000Y59000D02*
Y73019D01*
X51500Y85519D01*
X70000Y19019D02*
Y28000D01*
X81000Y9019D02*
Y31019D01*
X51500Y60519D02*
X81000Y31019D01*
X307000Y10019D02*
Y41019D01*
X326500Y60519D01*
X198000Y47936D02*
Y48019D01*
X201500Y51519D01*
Y60519D01*
X217482Y52819D02*
X225182Y60519D01*
X216400Y52819D02*
X217482D01*
X225182Y60519D02*
X226500D01*
X268000Y52019D02*
X276500Y60519D01*
X262000Y52019D02*
X268000D01*
X242000Y49019D02*
X251500Y58519D01*
Y60519D01*
X182864Y50155D02*
Y54155D01*
X176500Y60519D02*
X182864Y54155D01*
Y50155D02*
X183000Y50019D01*
X126500Y60519D02*
X137000Y50019D01*
X126500Y60519D02*
X126500D01*
X137000Y50019D02*
X138000D01*
X151500Y60019D02*
Y60519D01*
X159735Y51784D02*
X162235D01*
X151500Y60019D02*
X159735Y51784D01*
X162235D02*
X163000Y51019D01*
X101500Y60519D02*
X103413Y58605D01*
Y54605D02*
Y58605D01*
Y54605D02*
X113000Y45019D01*
X239000Y74519D02*
X239750D01*
X264000D02*
X264750D01*
X225750Y85519D02*
X226500D01*
X250750D02*
X251500D01*
X275750D02*
X276500D01*
X289000Y74519D02*
X289750D01*
X300750Y85519D01*
X214750Y74519D02*
X225750Y85519D01*
X239750Y74519D02*
X250750Y85519D01*
X264750Y74519D02*
X275750Y85519D01*
X200750D02*
X201500D01*
X189000Y74519D02*
X189750D01*
X200750Y85519D01*
X214000Y74519D02*
X214750D01*
X139000D02*
X139750D01*
X150750Y85519D01*
X151500D01*
X164750Y74519D02*
X175750Y85519D01*
X176500D01*
X164000Y74519D02*
X164750D01*
X300750Y85519D02*
X301500D01*
X325750D02*
X326500D01*
X314000Y74519D02*
X314750D01*
X325750Y85519D01*
X301500Y47519D02*
Y60519D01*
X76500Y47519D02*
Y60519D01*
X125750Y85519D02*
X126500D01*
X114750Y74519D02*
X125750Y85519D01*
X64000Y74519D02*
X64750D01*
X75750Y85519D02*
X76500D01*
X64750Y74519D02*
X75750Y85519D01*
X89000Y74519D02*
X89750D01*
X100750Y85519D01*
X101500D01*
X114000Y74519D02*
X114750D01*
D16*
X70000Y19019D02*
D03*
X81000Y9019D02*
D03*
X307000Y10019D02*
D03*
X198000Y47936D02*
D03*
X216400Y52819D02*
D03*
X262000Y52019D02*
D03*
X242000Y49019D02*
D03*
X183000Y50019D02*
D03*
X138000D02*
D03*
X163000Y51019D02*
D03*
X113000Y45019D02*
D03*
X64000Y74519D02*
D03*
X76500Y47519D02*
D03*
X89000Y74519D02*
D03*
X114000D02*
D03*
X139000D02*
D03*
X164000D02*
D03*
X189000D02*
D03*
X214000D02*
D03*
X239000D02*
D03*
X264000D02*
D03*
X289000D02*
D03*
X301500Y47519D02*
D03*
X314000Y74519D02*
D03*
M02*
