G04*
G04 #@! TF.GenerationSoftware,Altium Limited,Altium Designer,24.7.2 (38)*
G04*
G04 Layer_Color=128*
%FSLAX44Y44*%
%MOMM*%
G71*
G04*
G04 #@! TF.SameCoordinates,215FB70B-008C-4E37-827B-1868BD4F42A1*
G04*
G04*
G04 #@! TF.FilePolarity,Positive*
G04*
G01*
G75*
%ADD27C,0.1270*%
D27*
X68500Y19019D02*
X71500D01*
X70000Y17519D02*
Y20519D01*
X79500Y9019D02*
X82500D01*
X81000Y7519D02*
Y10519D01*
X305500Y10019D02*
X308500D01*
X307000Y8519D02*
Y11519D01*
X196500Y47936D02*
X199500D01*
X198000Y46436D02*
Y49436D01*
X214900Y52819D02*
X217900D01*
X216400Y51319D02*
Y54319D01*
X260500Y52019D02*
X263500D01*
X262000Y50519D02*
Y53519D01*
X240500Y49019D02*
X243500D01*
X242000Y47519D02*
Y50519D01*
X181500Y50019D02*
X184500D01*
X183000Y48519D02*
Y51519D01*
X136500Y50019D02*
X139500D01*
X138000Y48519D02*
Y51519D01*
X161500Y51019D02*
X164500D01*
X163000Y49519D02*
Y52519D01*
X111500Y45019D02*
X114500D01*
X113000Y43519D02*
Y46519D01*
X62500Y74519D02*
X65500D01*
X64000Y73019D02*
Y76019D01*
X75000Y47519D02*
X78000D01*
X76500Y46019D02*
Y49019D01*
X87500Y74519D02*
X90500D01*
X89000Y73019D02*
Y76019D01*
X112500Y74519D02*
X115500D01*
X114000Y73019D02*
Y76019D01*
X137500Y74519D02*
X140500D01*
X139000Y73019D02*
Y76019D01*
X162500Y74519D02*
X165500D01*
X164000Y73019D02*
Y76019D01*
X187500Y74519D02*
X190500D01*
X189000Y73019D02*
Y76019D01*
X212500Y74519D02*
X215500D01*
X214000Y73019D02*
Y76019D01*
X237500Y74519D02*
X240500D01*
X239000Y73019D02*
Y76019D01*
X262500Y74519D02*
X265500D01*
X264000Y73019D02*
Y76019D01*
X287500Y74519D02*
X290500D01*
X289000Y73019D02*
Y76019D01*
X300000Y47519D02*
X303000D01*
X301500Y46019D02*
Y49019D01*
X312500Y74519D02*
X315500D01*
X314000Y73019D02*
Y76019D01*
M02*
