G04*
G04 #@! TF.GenerationSoftware,Altium Limited,Altium Designer,24.7.2 (38)*
G04*
G04 Layer_Color=8388736*
%FSLAX44Y44*%
%MOMM*%
G71*
G04*
G04 #@! TF.SameCoordinates,215FB70B-008C-4E37-827B-1868BD4F42A1*
G04*
G04*
G04 #@! TF.FilePolarity,Positive*
G04*
G01*
G75*
%ADD24C,0.2540*%
G36*
X-54322Y83258D02*
X-54153D01*
X-53970Y83244D01*
X-53773Y83229D01*
X-53321Y83187D01*
X-52856Y83117D01*
X-52405Y83032D01*
X-52194Y82976D01*
X-51982Y82905D01*
X-51968D01*
X-51940Y82891D01*
X-51884Y82863D01*
X-51813Y82835D01*
X-51714Y82807D01*
X-51616Y82750D01*
X-51376Y82637D01*
X-51122Y82496D01*
X-50840Y82313D01*
X-50587Y82102D01*
X-50347Y81848D01*
Y81834D01*
X-50319Y81820D01*
X-50290Y81777D01*
X-50262Y81721D01*
X-50220Y81651D01*
X-50164Y81580D01*
X-50065Y81369D01*
X-49966Y81115D01*
X-49868Y80819D01*
X-49811Y80466D01*
X-49783Y80086D01*
Y79945D01*
X-49797Y79846D01*
X-49811Y79733D01*
X-49839Y79592D01*
X-49868Y79437D01*
X-49910Y79268D01*
X-49966Y79099D01*
X-50023Y78916D01*
X-50107Y78733D01*
X-50206Y78549D01*
X-50319Y78366D01*
X-50460Y78183D01*
X-50615Y78014D01*
X-50784Y77859D01*
X-50798Y77844D01*
X-50840Y77816D01*
X-50911Y77774D01*
X-51024Y77703D01*
X-51150Y77633D01*
X-51320Y77562D01*
X-51517Y77464D01*
X-51743Y77379D01*
X-51996Y77295D01*
X-52292Y77210D01*
X-52617Y77125D01*
X-52983Y77055D01*
X-53378Y76985D01*
X-53801Y76942D01*
X-54266Y76914D01*
X-54759Y76900D01*
X-54773D01*
X-54830D01*
X-54928D01*
X-55041D01*
X-55196Y76914D01*
X-55365D01*
X-55549Y76928D01*
X-55760Y76942D01*
X-56197Y76985D01*
X-56662Y77055D01*
X-57128Y77140D01*
X-57339Y77196D01*
X-57551Y77252D01*
X-57565D01*
X-57593Y77266D01*
X-57649Y77295D01*
X-57720Y77323D01*
X-57818Y77351D01*
X-57917Y77407D01*
X-58157Y77520D01*
X-58410Y77661D01*
X-58678Y77844D01*
X-58946Y78056D01*
X-59172Y78310D01*
Y78324D01*
X-59200Y78338D01*
X-59228Y78380D01*
X-59256Y78436D01*
X-59313Y78507D01*
X-59355Y78591D01*
X-59468Y78803D01*
X-59566Y79057D01*
X-59665Y79353D01*
X-59721Y79705D01*
X-59750Y80086D01*
Y80213D01*
X-59735Y80368D01*
X-59707Y80551D01*
X-59665Y80763D01*
X-59609Y80988D01*
X-59538Y81228D01*
X-59425Y81453D01*
Y81467D01*
X-59411Y81481D01*
X-59369Y81552D01*
X-59299Y81665D01*
X-59200Y81806D01*
X-59059Y81961D01*
X-58904Y82130D01*
X-58720Y82285D01*
X-58509Y82440D01*
X-58481Y82454D01*
X-58410Y82510D01*
X-58284Y82567D01*
X-58100Y82666D01*
X-57889Y82750D01*
X-57649Y82863D01*
X-57367Y82962D01*
X-57057Y83046D01*
X-57043D01*
X-57015Y83060D01*
X-56972Y83074D01*
X-56902Y83089D01*
X-56817Y83103D01*
X-56719Y83117D01*
X-56592Y83145D01*
X-56451Y83159D01*
X-56296Y83187D01*
X-56127Y83201D01*
X-55929Y83215D01*
X-55732Y83244D01*
X-55506Y83258D01*
X-55281D01*
X-55027Y83272D01*
X-54759D01*
X-54745D01*
X-54689D01*
X-54590D01*
X-54477D01*
X-54322Y83258D01*
D02*
G37*
G36*
X-53025Y75772D02*
X-52913Y75758D01*
X-52786Y75744D01*
X-52631Y75716D01*
X-52476Y75688D01*
X-52109Y75603D01*
X-51728Y75462D01*
X-51531Y75377D01*
X-51348Y75265D01*
X-51150Y75152D01*
X-50967Y75011D01*
X-50953Y74997D01*
X-50911Y74969D01*
X-50854Y74912D01*
X-50784Y74842D01*
X-50699Y74743D01*
X-50587Y74630D01*
X-50488Y74489D01*
X-50375Y74334D01*
X-50262Y74165D01*
X-50164Y73968D01*
X-50065Y73756D01*
X-49966Y73531D01*
X-49896Y73291D01*
X-49839Y73023D01*
X-49797Y72741D01*
X-49783Y72445D01*
Y72318D01*
X-49797Y72220D01*
X-49811Y72107D01*
X-49825Y71980D01*
X-49839Y71825D01*
X-49882Y71670D01*
X-49966Y71318D01*
X-50093Y70965D01*
X-50178Y70782D01*
X-50276Y70599D01*
X-50389Y70429D01*
X-50516Y70260D01*
X-50530Y70246D01*
X-50544Y70218D01*
X-50601Y70190D01*
X-50657Y70133D01*
X-50728Y70063D01*
X-50812Y69992D01*
X-50925Y69908D01*
X-51052Y69837D01*
X-51179Y69753D01*
X-51334Y69668D01*
X-51672Y69513D01*
X-52067Y69386D01*
X-52278Y69344D01*
X-52504Y69316D01*
X-52602Y70570D01*
X-52588D01*
X-52560D01*
X-52518Y70584D01*
X-52447Y70599D01*
X-52292Y70641D01*
X-52081Y70697D01*
X-51869Y70782D01*
X-51630Y70895D01*
X-51418Y71035D01*
X-51221Y71205D01*
X-51207Y71233D01*
X-51150Y71289D01*
X-51080Y71402D01*
X-50995Y71557D01*
X-50911Y71726D01*
X-50840Y71938D01*
X-50784Y72177D01*
X-50770Y72445D01*
Y72530D01*
X-50784Y72586D01*
X-50798Y72755D01*
X-50854Y72953D01*
X-50925Y73192D01*
X-51038Y73432D01*
X-51207Y73686D01*
X-51305Y73799D01*
X-51418Y73911D01*
X-51432Y73925D01*
X-51446Y73939D01*
X-51489Y73968D01*
X-51531Y74010D01*
X-51686Y74109D01*
X-51884Y74222D01*
X-52123Y74320D01*
X-52419Y74419D01*
X-52772Y74489D01*
X-52955Y74517D01*
X-53152D01*
X-53166D01*
X-53194D01*
X-53251D01*
X-53321Y74503D01*
X-53406D01*
X-53505Y74489D01*
X-53730Y74447D01*
X-53998Y74377D01*
X-54266Y74278D01*
X-54520Y74137D01*
X-54759Y73939D01*
X-54773D01*
X-54788Y73911D01*
X-54858Y73841D01*
X-54957Y73714D01*
X-55069Y73545D01*
X-55168Y73319D01*
X-55267Y73066D01*
X-55337Y72769D01*
X-55365Y72600D01*
Y72333D01*
X-55351Y72220D01*
X-55337Y72079D01*
X-55295Y71910D01*
X-55253Y71740D01*
X-55182Y71557D01*
X-55098Y71374D01*
X-55083Y71360D01*
X-55055Y71303D01*
X-54985Y71219D01*
X-54914Y71106D01*
X-54816Y70993D01*
X-54689Y70880D01*
X-54562Y70754D01*
X-54407Y70655D01*
X-54562Y69527D01*
X-59580Y70472D01*
Y75321D01*
X-58439D01*
Y71416D01*
X-55802Y70895D01*
X-55817Y70909D01*
X-55831Y70937D01*
X-55859Y70979D01*
X-55901Y71050D01*
X-55943Y71134D01*
X-56000Y71233D01*
X-56113Y71459D01*
X-56225Y71740D01*
X-56324Y72050D01*
X-56395Y72389D01*
X-56423Y72558D01*
Y72868D01*
X-56409Y72953D01*
X-56395Y73066D01*
X-56380Y73192D01*
X-56352Y73333D01*
X-56310Y73488D01*
X-56211Y73827D01*
X-56141Y74010D01*
X-56042Y74193D01*
X-55943Y74377D01*
X-55831Y74560D01*
X-55690Y74729D01*
X-55535Y74898D01*
X-55521Y74912D01*
X-55492Y74940D01*
X-55450Y74983D01*
X-55380Y75039D01*
X-55281Y75110D01*
X-55182Y75180D01*
X-55055Y75265D01*
X-54914Y75349D01*
X-54759Y75420D01*
X-54590Y75504D01*
X-54393Y75575D01*
X-54195Y75645D01*
X-53984Y75702D01*
X-53744Y75744D01*
X-53505Y75772D01*
X-53251Y75786D01*
X-53237D01*
X-53194D01*
X-53124D01*
X-53025Y75772D01*
D02*
G37*
G36*
X-49952Y66200D02*
X-51320D01*
Y67568D01*
X-49952D01*
Y66200D01*
D02*
G37*
G36*
Y57770D02*
X-49966D01*
X-50023D01*
X-50107D01*
X-50220Y57784D01*
X-50347Y57799D01*
X-50488Y57827D01*
X-50629Y57855D01*
X-50784Y57911D01*
X-50798D01*
X-50812Y57925D01*
X-50897Y57954D01*
X-51024Y58010D01*
X-51193Y58095D01*
X-51390Y58207D01*
X-51616Y58348D01*
X-51841Y58503D01*
X-52081Y58701D01*
X-52095D01*
X-52109Y58729D01*
X-52194Y58799D01*
X-52320Y58926D01*
X-52504Y59110D01*
X-52715Y59321D01*
X-52969Y59589D01*
X-53251Y59913D01*
X-53547Y60265D01*
X-53561Y60279D01*
X-53603Y60336D01*
X-53674Y60420D01*
X-53758Y60519D01*
X-53871Y60646D01*
X-53998Y60801D01*
X-54139Y60956D01*
X-54294Y61139D01*
X-54632Y61492D01*
X-54971Y61844D01*
X-55140Y62014D01*
X-55309Y62168D01*
X-55464Y62309D01*
X-55619Y62422D01*
X-55633D01*
X-55647Y62450D01*
X-55690Y62479D01*
X-55746Y62507D01*
X-55901Y62606D01*
X-56084Y62718D01*
X-56310Y62817D01*
X-56550Y62916D01*
X-56817Y62972D01*
X-57071Y63000D01*
X-57085D01*
X-57099D01*
X-57184Y62986D01*
X-57325Y62972D01*
X-57480Y62930D01*
X-57677Y62873D01*
X-57875Y62775D01*
X-58072Y62648D01*
X-58269Y62479D01*
X-58298Y62450D01*
X-58354Y62380D01*
X-58425Y62281D01*
X-58523Y62126D01*
X-58608Y61929D01*
X-58692Y61703D01*
X-58749Y61435D01*
X-58763Y61139D01*
Y61055D01*
X-58749Y60999D01*
X-58735Y60829D01*
X-58692Y60632D01*
X-58636Y60420D01*
X-58537Y60181D01*
X-58410Y59955D01*
X-58241Y59744D01*
X-58213Y59716D01*
X-58143Y59659D01*
X-58030Y59575D01*
X-57861Y59490D01*
X-57663Y59391D01*
X-57410Y59307D01*
X-57128Y59250D01*
X-56803Y59222D01*
X-56930Y57996D01*
X-56944D01*
X-56987Y58010D01*
X-57057D01*
X-57156Y58024D01*
X-57269Y58052D01*
X-57395Y58080D01*
X-57551Y58123D01*
X-57705Y58165D01*
X-58044Y58278D01*
X-58382Y58447D01*
X-58551Y58546D01*
X-58720Y58672D01*
X-58876Y58799D01*
X-59017Y58940D01*
X-59031Y58954D01*
X-59045Y58983D01*
X-59087Y59025D01*
X-59129Y59095D01*
X-59186Y59180D01*
X-59242Y59279D01*
X-59313Y59391D01*
X-59383Y59532D01*
X-59454Y59688D01*
X-59524Y59857D01*
X-59580Y60040D01*
X-59637Y60237D01*
X-59679Y60449D01*
X-59721Y60674D01*
X-59735Y60914D01*
X-59750Y61168D01*
Y61309D01*
X-59735Y61407D01*
X-59721Y61520D01*
X-59707Y61661D01*
X-59679Y61816D01*
X-59651Y61971D01*
X-59552Y62338D01*
X-59411Y62704D01*
X-59327Y62888D01*
X-59228Y63071D01*
X-59101Y63240D01*
X-58960Y63395D01*
X-58946Y63409D01*
X-58932Y63437D01*
X-58876Y63465D01*
X-58819Y63522D01*
X-58749Y63592D01*
X-58650Y63663D01*
X-58551Y63733D01*
X-58425Y63818D01*
X-58157Y63959D01*
X-57818Y64100D01*
X-57649Y64156D01*
X-57452Y64184D01*
X-57254Y64213D01*
X-57043Y64227D01*
X-57015D01*
X-56944D01*
X-56831Y64213D01*
X-56677Y64198D01*
X-56507Y64170D01*
X-56310Y64114D01*
X-56098Y64057D01*
X-55887Y63973D01*
X-55859Y63959D01*
X-55788Y63931D01*
X-55676Y63874D01*
X-55521Y63790D01*
X-55351Y63677D01*
X-55140Y63536D01*
X-54928Y63367D01*
X-54689Y63169D01*
X-54661Y63141D01*
X-54576Y63071D01*
X-54506Y63000D01*
X-54435Y62930D01*
X-54351Y62845D01*
X-54238Y62732D01*
X-54125Y62620D01*
X-53998Y62479D01*
X-53857Y62338D01*
X-53702Y62168D01*
X-53547Y61985D01*
X-53364Y61788D01*
X-53180Y61562D01*
X-52983Y61337D01*
X-52969Y61323D01*
X-52941Y61294D01*
X-52899Y61238D01*
X-52842Y61168D01*
X-52758Y61083D01*
X-52673Y60984D01*
X-52490Y60759D01*
X-52278Y60519D01*
X-52067Y60294D01*
X-51884Y60096D01*
X-51813Y60012D01*
X-51743Y59941D01*
X-51728Y59927D01*
X-51686Y59885D01*
X-51630Y59828D01*
X-51545Y59758D01*
X-51446Y59688D01*
X-51348Y59603D01*
X-51108Y59434D01*
Y64241D01*
X-49952D01*
Y57770D01*
D02*
G37*
G36*
X173850Y-76191D02*
X174033Y-76219D01*
X174259Y-76262D01*
X174512Y-76332D01*
X174766Y-76417D01*
X175020Y-76529D01*
X175034D01*
X175048Y-76544D01*
X175133Y-76586D01*
X175259Y-76670D01*
X175401Y-76769D01*
X175570Y-76910D01*
X175739Y-77065D01*
X175908Y-77249D01*
X176049Y-77460D01*
X176063Y-77488D01*
X176105Y-77559D01*
X176162Y-77685D01*
X176232Y-77840D01*
X176303Y-78024D01*
X176359Y-78235D01*
X176401Y-78475D01*
X176416Y-78714D01*
Y-78743D01*
Y-78827D01*
X176401Y-78940D01*
X176373Y-79095D01*
X176331Y-79278D01*
X176260Y-79476D01*
X176176Y-79673D01*
X176063Y-79871D01*
X176049Y-79899D01*
X176007Y-79955D01*
X175922Y-80054D01*
X175809Y-80167D01*
X175668Y-80293D01*
X175499Y-80434D01*
X175302Y-80561D01*
X175062Y-80688D01*
X175076D01*
X175105Y-80702D01*
X175147Y-80716D01*
X175203Y-80730D01*
X175358Y-80787D01*
X175556Y-80871D01*
X175781Y-80984D01*
X176007Y-81125D01*
X176218Y-81308D01*
X176416Y-81520D01*
X176430Y-81548D01*
X176486Y-81633D01*
X176570Y-81774D01*
X176655Y-81957D01*
X176740Y-82182D01*
X176824Y-82450D01*
X176881Y-82760D01*
X176895Y-83099D01*
Y-83113D01*
Y-83155D01*
Y-83226D01*
X176881Y-83310D01*
X176867Y-83423D01*
X176838Y-83550D01*
X176810Y-83691D01*
X176782Y-83846D01*
X176669Y-84184D01*
X176585Y-84367D01*
X176500Y-84537D01*
X176387Y-84720D01*
X176260Y-84903D01*
X176119Y-85086D01*
X175950Y-85256D01*
X175936Y-85270D01*
X175908Y-85298D01*
X175852Y-85340D01*
X175781Y-85396D01*
X175697Y-85467D01*
X175584Y-85538D01*
X175457Y-85622D01*
X175302Y-85693D01*
X175147Y-85777D01*
X174963Y-85862D01*
X174780Y-85932D01*
X174569Y-86003D01*
X174343Y-86059D01*
X174104Y-86101D01*
X173864Y-86130D01*
X173596Y-86144D01*
X173469D01*
X173385Y-86130D01*
X173272Y-86116D01*
X173145Y-86101D01*
X173004Y-86073D01*
X172849Y-86045D01*
X172511Y-85960D01*
X172158Y-85819D01*
X171975Y-85735D01*
X171806Y-85636D01*
X171637Y-85509D01*
X171467Y-85382D01*
X171453Y-85368D01*
X171425Y-85340D01*
X171383Y-85298D01*
X171341Y-85241D01*
X171270Y-85171D01*
X171200Y-85072D01*
X171115Y-84974D01*
X171030Y-84847D01*
X170946Y-84706D01*
X170861Y-84565D01*
X170706Y-84227D01*
X170579Y-83832D01*
X170537Y-83620D01*
X170509Y-83395D01*
X171707Y-83240D01*
Y-83254D01*
X171721Y-83282D01*
X171735Y-83338D01*
X171749Y-83409D01*
X171763Y-83493D01*
X171792Y-83592D01*
X171862Y-83804D01*
X171961Y-84057D01*
X172088Y-84297D01*
X172229Y-84522D01*
X172398Y-84720D01*
X172426Y-84734D01*
X172482Y-84790D01*
X172595Y-84861D01*
X172736Y-84931D01*
X172905Y-85016D01*
X173117Y-85086D01*
X173356Y-85143D01*
X173610Y-85157D01*
X173695D01*
X173751Y-85143D01*
X173906Y-85129D01*
X174104Y-85086D01*
X174329Y-85016D01*
X174569Y-84917D01*
X174808Y-84776D01*
X175034Y-84579D01*
X175062Y-84551D01*
X175133Y-84466D01*
X175217Y-84339D01*
X175330Y-84170D01*
X175443Y-83959D01*
X175527Y-83719D01*
X175598Y-83437D01*
X175626Y-83127D01*
Y-83113D01*
Y-83085D01*
Y-83042D01*
X175612Y-82986D01*
X175598Y-82831D01*
X175556Y-82648D01*
X175499Y-82422D01*
X175401Y-82197D01*
X175259Y-81971D01*
X175076Y-81760D01*
X175048Y-81731D01*
X174978Y-81675D01*
X174865Y-81590D01*
X174710Y-81492D01*
X174512Y-81393D01*
X174273Y-81308D01*
X174005Y-81252D01*
X173709Y-81224D01*
X173582D01*
X173483Y-81238D01*
X173356Y-81252D01*
X173216Y-81280D01*
X173046Y-81308D01*
X172863Y-81351D01*
X173004Y-80293D01*
X173074D01*
X173131Y-80308D01*
X173314D01*
X173469Y-80279D01*
X173652Y-80251D01*
X173864Y-80209D01*
X174104Y-80138D01*
X174329Y-80040D01*
X174569Y-79913D01*
X174583D01*
X174597Y-79899D01*
X174667Y-79842D01*
X174766Y-79744D01*
X174879Y-79617D01*
X174992Y-79433D01*
X175090Y-79222D01*
X175161Y-78982D01*
X175189Y-78841D01*
Y-78686D01*
Y-78672D01*
Y-78658D01*
Y-78574D01*
X175161Y-78461D01*
X175133Y-78306D01*
X175076Y-78137D01*
X175006Y-77953D01*
X174893Y-77770D01*
X174738Y-77601D01*
X174724Y-77587D01*
X174653Y-77530D01*
X174555Y-77460D01*
X174428Y-77375D01*
X174259Y-77305D01*
X174061Y-77234D01*
X173836Y-77178D01*
X173582Y-77164D01*
X173469D01*
X173342Y-77192D01*
X173173Y-77220D01*
X172990Y-77277D01*
X172807Y-77347D01*
X172609Y-77460D01*
X172426Y-77601D01*
X172412Y-77615D01*
X172355Y-77685D01*
X172271Y-77784D01*
X172172Y-77925D01*
X172074Y-78108D01*
X171975Y-78334D01*
X171890Y-78602D01*
X171834Y-78912D01*
X170636Y-78700D01*
Y-78686D01*
X170650Y-78644D01*
X170664Y-78588D01*
X170678Y-78503D01*
X170706Y-78404D01*
X170749Y-78292D01*
X170833Y-78024D01*
X170974Y-77714D01*
X171143Y-77403D01*
X171355Y-77108D01*
X171623Y-76840D01*
X171637Y-76826D01*
X171665Y-76811D01*
X171707Y-76783D01*
X171763Y-76741D01*
X171834Y-76685D01*
X171933Y-76628D01*
X172031Y-76572D01*
X172158Y-76501D01*
X172440Y-76389D01*
X172764Y-76276D01*
X173145Y-76205D01*
X173342Y-76177D01*
X173695D01*
X173850Y-76191D01*
D02*
G37*
G36*
X192683D02*
X192754D01*
X192853Y-76205D01*
X193092Y-76248D01*
X193360Y-76304D01*
X193656Y-76403D01*
X193952Y-76529D01*
X194248Y-76699D01*
X194262D01*
X194276Y-76727D01*
X194319Y-76755D01*
X194375Y-76797D01*
X194516Y-76910D01*
X194699Y-77065D01*
X194883Y-77277D01*
X195094Y-77530D01*
X195277Y-77826D01*
X195446Y-78165D01*
Y-78179D01*
X195460Y-78207D01*
X195489Y-78263D01*
X195517Y-78334D01*
X195545Y-78433D01*
X195587Y-78559D01*
X195616Y-78700D01*
X195658Y-78856D01*
X195700Y-79039D01*
X195742Y-79250D01*
X195771Y-79476D01*
X195799Y-79715D01*
X195827Y-79983D01*
X195855Y-80265D01*
X195869Y-80575D01*
Y-80900D01*
Y-80914D01*
Y-80984D01*
Y-81083D01*
Y-81210D01*
X195855Y-81365D01*
Y-81548D01*
X195841Y-81760D01*
X195813Y-81971D01*
X195771Y-82450D01*
X195700Y-82958D01*
X195602Y-83437D01*
X195531Y-83677D01*
X195460Y-83888D01*
Y-83902D01*
X195446Y-83930D01*
X195418Y-83987D01*
X195390Y-84071D01*
X195348Y-84156D01*
X195291Y-84269D01*
X195150Y-84508D01*
X194981Y-84776D01*
X194784Y-85058D01*
X194530Y-85326D01*
X194248Y-85566D01*
X194234D01*
X194206Y-85594D01*
X194164Y-85622D01*
X194107Y-85650D01*
X194023Y-85693D01*
X193938Y-85749D01*
X193825Y-85805D01*
X193713Y-85848D01*
X193445Y-85960D01*
X193120Y-86059D01*
X192768Y-86116D01*
X192373Y-86144D01*
X192260D01*
X192190Y-86130D01*
X192091D01*
X191979Y-86116D01*
X191711Y-86059D01*
X191415Y-85989D01*
X191105Y-85876D01*
X190794Y-85721D01*
X190639Y-85622D01*
X190498Y-85509D01*
X190484Y-85495D01*
X190470Y-85481D01*
X190428Y-85439D01*
X190386Y-85396D01*
X190329Y-85326D01*
X190259Y-85241D01*
X190118Y-85044D01*
X189977Y-84790D01*
X189836Y-84480D01*
X189723Y-84128D01*
X189639Y-83719D01*
X190794Y-83620D01*
Y-83634D01*
X190809Y-83663D01*
Y-83691D01*
X190823Y-83747D01*
X190865Y-83902D01*
X190921Y-84071D01*
X190992Y-84269D01*
X191090Y-84466D01*
X191203Y-84649D01*
X191344Y-84804D01*
X191358Y-84819D01*
X191415Y-84861D01*
X191513Y-84917D01*
X191626Y-84974D01*
X191781Y-85044D01*
X191964Y-85100D01*
X192176Y-85143D01*
X192402Y-85157D01*
X192500D01*
X192599Y-85143D01*
X192726Y-85129D01*
X192881Y-85100D01*
X193036Y-85058D01*
X193205Y-85002D01*
X193360Y-84917D01*
X193374Y-84903D01*
X193431Y-84875D01*
X193515Y-84819D01*
X193600Y-84734D01*
X193713Y-84635D01*
X193825Y-84522D01*
X193938Y-84396D01*
X194051Y-84241D01*
X194065Y-84227D01*
X194093Y-84156D01*
X194149Y-84057D01*
X194206Y-83930D01*
X194276Y-83761D01*
X194347Y-83564D01*
X194417Y-83338D01*
X194488Y-83085D01*
Y-83070D01*
X194502Y-83056D01*
Y-83014D01*
X194516Y-82958D01*
X194544Y-82817D01*
X194587Y-82633D01*
X194615Y-82408D01*
X194643Y-82168D01*
X194657Y-81901D01*
X194671Y-81618D01*
Y-81604D01*
Y-81562D01*
Y-81492D01*
Y-81379D01*
X194657Y-81407D01*
X194601Y-81478D01*
X194516Y-81576D01*
X194417Y-81717D01*
X194276Y-81858D01*
X194107Y-82013D01*
X193910Y-82168D01*
X193684Y-82309D01*
X193656Y-82323D01*
X193571Y-82366D01*
X193445Y-82422D01*
X193290Y-82478D01*
X193078Y-82549D01*
X192853Y-82605D01*
X192599Y-82648D01*
X192331Y-82662D01*
X192218D01*
X192134Y-82648D01*
X192021Y-82633D01*
X191908Y-82619D01*
X191767Y-82591D01*
X191626Y-82549D01*
X191302Y-82450D01*
X191133Y-82380D01*
X190964Y-82295D01*
X190780Y-82197D01*
X190611Y-82070D01*
X190442Y-81943D01*
X190287Y-81788D01*
X190273Y-81774D01*
X190245Y-81745D01*
X190216Y-81703D01*
X190160Y-81633D01*
X190090Y-81534D01*
X190019Y-81435D01*
X189949Y-81308D01*
X189878Y-81167D01*
X189793Y-81012D01*
X189723Y-80843D01*
X189653Y-80646D01*
X189582Y-80449D01*
X189526Y-80223D01*
X189498Y-79983D01*
X189469Y-79744D01*
X189455Y-79476D01*
Y-79462D01*
Y-79405D01*
Y-79335D01*
X189469Y-79236D01*
X189483Y-79109D01*
X189498Y-78954D01*
X189526Y-78799D01*
X189568Y-78616D01*
X189667Y-78249D01*
X189737Y-78052D01*
X189822Y-77840D01*
X189920Y-77643D01*
X190047Y-77460D01*
X190174Y-77263D01*
X190329Y-77093D01*
X190343Y-77079D01*
X190371Y-77051D01*
X190414Y-77009D01*
X190484Y-76952D01*
X190569Y-76882D01*
X190682Y-76797D01*
X190794Y-76727D01*
X190935Y-76628D01*
X191076Y-76544D01*
X191245Y-76473D01*
X191626Y-76318D01*
X191824Y-76262D01*
X192049Y-76219D01*
X192275Y-76191D01*
X192514Y-76177D01*
X192613D01*
X192683Y-76191D01*
D02*
G37*
G36*
X187707Y-85975D02*
X186340D01*
Y-84607D01*
X187707D01*
Y-85975D01*
D02*
G37*
G36*
X184479Y-77291D02*
X184465Y-77305D01*
X184437Y-77333D01*
X184380Y-77389D01*
X184324Y-77474D01*
X184239Y-77573D01*
X184126Y-77685D01*
X184014Y-77826D01*
X183887Y-77996D01*
X183760Y-78165D01*
X183605Y-78362D01*
X183450Y-78588D01*
X183295Y-78813D01*
X183126Y-79067D01*
X182957Y-79335D01*
X182787Y-79631D01*
X182618Y-79927D01*
X182604Y-79941D01*
X182576Y-79997D01*
X182534Y-80082D01*
X182463Y-80209D01*
X182393Y-80364D01*
X182308Y-80533D01*
X182209Y-80730D01*
X182111Y-80956D01*
X181998Y-81210D01*
X181871Y-81463D01*
X181758Y-81745D01*
X181646Y-82041D01*
X181420Y-82648D01*
X181208Y-83296D01*
Y-83310D01*
X181194Y-83352D01*
X181180Y-83423D01*
X181152Y-83507D01*
X181124Y-83620D01*
X181096Y-83761D01*
X181053Y-83916D01*
X181025Y-84086D01*
X180983Y-84283D01*
X180941Y-84494D01*
X180870Y-84945D01*
X180800Y-85439D01*
X180757Y-85975D01*
X179531D01*
Y-85960D01*
Y-85918D01*
Y-85862D01*
X179545Y-85777D01*
Y-85664D01*
X179559Y-85523D01*
X179573Y-85368D01*
X179587Y-85199D01*
X179615Y-85002D01*
X179644Y-84804D01*
X179686Y-84565D01*
X179728Y-84325D01*
X179771Y-84071D01*
X179827Y-83790D01*
X179968Y-83211D01*
Y-83197D01*
X179982Y-83141D01*
X180010Y-83056D01*
X180053Y-82930D01*
X180095Y-82789D01*
X180151Y-82619D01*
X180208Y-82422D01*
X180292Y-82211D01*
X180377Y-81971D01*
X180461Y-81731D01*
X180673Y-81196D01*
X180926Y-80632D01*
X181208Y-80068D01*
X181222Y-80054D01*
X181251Y-79997D01*
X181293Y-79927D01*
X181349Y-79814D01*
X181420Y-79687D01*
X181519Y-79532D01*
X181617Y-79363D01*
X181730Y-79180D01*
X181998Y-78771D01*
X182280Y-78348D01*
X182604Y-77911D01*
X182942Y-77502D01*
X178164D01*
Y-76346D01*
X184479D01*
Y-77291D01*
D02*
G37*
G36*
X200507Y-76191D02*
X200690Y-76219D01*
X200902Y-76262D01*
X201127Y-76318D01*
X201367Y-76389D01*
X201593Y-76501D01*
X201607D01*
X201621Y-76515D01*
X201691Y-76558D01*
X201804Y-76628D01*
X201945Y-76727D01*
X202100Y-76868D01*
X202269Y-77023D01*
X202424Y-77206D01*
X202579Y-77418D01*
X202594Y-77446D01*
X202650Y-77516D01*
X202706Y-77643D01*
X202805Y-77826D01*
X202890Y-78038D01*
X203002Y-78278D01*
X203101Y-78559D01*
X203186Y-78870D01*
Y-78884D01*
X203200Y-78912D01*
X203214Y-78954D01*
X203228Y-79025D01*
X203242Y-79109D01*
X203256Y-79208D01*
X203284Y-79335D01*
X203298Y-79476D01*
X203327Y-79631D01*
X203341Y-79800D01*
X203355Y-79997D01*
X203383Y-80195D01*
X203397Y-80420D01*
Y-80646D01*
X203411Y-80900D01*
Y-81167D01*
Y-81181D01*
Y-81238D01*
Y-81337D01*
Y-81449D01*
X203397Y-81604D01*
Y-81774D01*
X203383Y-81957D01*
X203369Y-82154D01*
X203327Y-82605D01*
X203256Y-83070D01*
X203172Y-83522D01*
X203115Y-83733D01*
X203045Y-83945D01*
Y-83959D01*
X203031Y-83987D01*
X203002Y-84043D01*
X202974Y-84114D01*
X202946Y-84212D01*
X202890Y-84311D01*
X202777Y-84551D01*
X202636Y-84804D01*
X202453Y-85086D01*
X202241Y-85340D01*
X201987Y-85580D01*
X201973D01*
X201959Y-85608D01*
X201917Y-85636D01*
X201861Y-85664D01*
X201790Y-85707D01*
X201720Y-85763D01*
X201508Y-85862D01*
X201254Y-85960D01*
X200958Y-86059D01*
X200606Y-86116D01*
X200225Y-86144D01*
X200084D01*
X199986Y-86130D01*
X199873Y-86116D01*
X199732Y-86087D01*
X199577Y-86059D01*
X199408Y-86017D01*
X199238Y-85960D01*
X199055Y-85904D01*
X198872Y-85819D01*
X198689Y-85721D01*
X198505Y-85608D01*
X198322Y-85467D01*
X198153Y-85312D01*
X197998Y-85143D01*
X197984Y-85129D01*
X197956Y-85086D01*
X197913Y-85016D01*
X197843Y-84903D01*
X197772Y-84776D01*
X197702Y-84607D01*
X197603Y-84410D01*
X197519Y-84184D01*
X197434Y-83930D01*
X197349Y-83634D01*
X197265Y-83310D01*
X197194Y-82944D01*
X197124Y-82549D01*
X197082Y-82126D01*
X197054Y-81661D01*
X197039Y-81167D01*
Y-81153D01*
Y-81097D01*
Y-80998D01*
Y-80885D01*
X197054Y-80730D01*
Y-80561D01*
X197068Y-80378D01*
X197082Y-80167D01*
X197124Y-79729D01*
X197194Y-79264D01*
X197279Y-78799D01*
X197335Y-78588D01*
X197392Y-78376D01*
Y-78362D01*
X197406Y-78334D01*
X197434Y-78278D01*
X197462Y-78207D01*
X197491Y-78108D01*
X197547Y-78010D01*
X197660Y-77770D01*
X197801Y-77516D01*
X197984Y-77249D01*
X198195Y-76981D01*
X198449Y-76755D01*
X198463D01*
X198477Y-76727D01*
X198520Y-76699D01*
X198576Y-76670D01*
X198646Y-76614D01*
X198731Y-76572D01*
X198943Y-76459D01*
X199196Y-76360D01*
X199492Y-76262D01*
X199845Y-76205D01*
X200225Y-76177D01*
X200352D01*
X200507Y-76191D01*
D02*
G37*
G36*
X173799Y181640D02*
X173925Y181626D01*
X174052Y181612D01*
X174207Y181584D01*
X174363Y181541D01*
X174715Y181443D01*
X174898Y181372D01*
X175096Y181274D01*
X175279Y181175D01*
X175448Y181062D01*
X175631Y180921D01*
X175786Y180766D01*
X175800Y180752D01*
X175814Y180738D01*
X175857Y180696D01*
X175899Y180639D01*
X176012Y180498D01*
X176139Y180301D01*
X176266Y180061D01*
X176364Y179779D01*
X176449Y179469D01*
X176463Y179314D01*
X176477Y179145D01*
Y179131D01*
Y179088D01*
X176463Y179018D01*
X176449Y178933D01*
X176435Y178821D01*
X176407Y178694D01*
X176364Y178553D01*
X176308Y178398D01*
X176223Y178243D01*
X176139Y178074D01*
X176026Y177904D01*
X175885Y177735D01*
X175716Y177566D01*
X175533Y177397D01*
X175321Y177242D01*
X175067Y177087D01*
X175082D01*
X175110Y177073D01*
X175152D01*
X175208Y177045D01*
X175363Y177002D01*
X175547Y176918D01*
X175758Y176805D01*
X175984Y176664D01*
X176209Y176481D01*
X176407Y176269D01*
X176435Y176241D01*
X176491Y176156D01*
X176562Y176029D01*
X176660Y175846D01*
X176759Y175635D01*
X176829Y175367D01*
X176886Y175085D01*
X176914Y174761D01*
Y174747D01*
Y174704D01*
Y174634D01*
X176900Y174549D01*
X176886Y174436D01*
X176858Y174310D01*
X176829Y174155D01*
X176801Y174000D01*
X176688Y173661D01*
X176604Y173478D01*
X176519Y173281D01*
X176407Y173097D01*
X176280Y172914D01*
X176139Y172731D01*
X175970Y172562D01*
X175956Y172547D01*
X175927Y172519D01*
X175871Y172477D01*
X175800Y172421D01*
X175702Y172350D01*
X175603Y172280D01*
X175462Y172195D01*
X175321Y172111D01*
X175166Y172026D01*
X174983Y171941D01*
X174785Y171871D01*
X174588Y171800D01*
X174363Y171744D01*
X174137Y171702D01*
X173883Y171674D01*
X173629Y171659D01*
X173503D01*
X173404Y171674D01*
X173291Y171688D01*
X173164Y171702D01*
X173023Y171730D01*
X172854Y171758D01*
X172516Y171843D01*
X172149Y171984D01*
X171952Y172068D01*
X171783Y172167D01*
X171600Y172294D01*
X171430Y172421D01*
X171416Y172435D01*
X171388Y172463D01*
X171346Y172505D01*
X171289Y172562D01*
X171219Y172632D01*
X171148Y172731D01*
X171064Y172829D01*
X170979Y172956D01*
X170895Y173097D01*
X170796Y173238D01*
X170641Y173577D01*
X170514Y173971D01*
X170458Y174183D01*
X170429Y174408D01*
X172234Y174634D01*
Y174620D01*
Y174606D01*
X172248Y174521D01*
X172276Y174394D01*
X172318Y174239D01*
X172389Y174070D01*
X172459Y173887D01*
X172572Y173718D01*
X172699Y173563D01*
X172713Y173548D01*
X172770Y173506D01*
X172854Y173450D01*
X172953Y173393D01*
X173094Y173323D01*
X173249Y173267D01*
X173418Y173224D01*
X173615Y173210D01*
X173644D01*
X173714Y173224D01*
X173813Y173238D01*
X173954Y173267D01*
X174109Y173323D01*
X174264Y173393D01*
X174433Y173506D01*
X174588Y173647D01*
X174602Y173661D01*
X174659Y173732D01*
X174715Y173830D01*
X174799Y173957D01*
X174870Y174126D01*
X174940Y174338D01*
X174983Y174578D01*
X174997Y174845D01*
Y174859D01*
Y174874D01*
Y174958D01*
X174983Y175085D01*
X174955Y175254D01*
X174898Y175437D01*
X174828Y175621D01*
X174729Y175804D01*
X174602Y175973D01*
X174588Y175987D01*
X174532Y176044D01*
X174447Y176114D01*
X174348Y176185D01*
X174207Y176269D01*
X174052Y176325D01*
X173883Y176382D01*
X173686Y176396D01*
X173545D01*
X173446Y176382D01*
X173319Y176368D01*
X173164Y176340D01*
X173009Y176297D01*
X172826Y176255D01*
X173023Y177763D01*
X173150D01*
X173291Y177778D01*
X173460Y177792D01*
X173644Y177834D01*
X173841Y177890D01*
X174024Y177975D01*
X174193Y178088D01*
X174207Y178102D01*
X174264Y178158D01*
X174320Y178229D01*
X174405Y178341D01*
X174475Y178468D01*
X174546Y178623D01*
X174588Y178807D01*
X174602Y179018D01*
Y179046D01*
Y179103D01*
X174588Y179187D01*
X174560Y179300D01*
X174532Y179427D01*
X174475Y179554D01*
X174405Y179695D01*
X174306Y179807D01*
X174292Y179822D01*
X174250Y179850D01*
X174193Y179906D01*
X174095Y179963D01*
X173982Y180005D01*
X173855Y180061D01*
X173686Y180089D01*
X173517Y180103D01*
X173432D01*
X173347Y180089D01*
X173235Y180061D01*
X173108Y180019D01*
X172967Y179963D01*
X172826Y179878D01*
X172699Y179765D01*
X172685Y179751D01*
X172643Y179709D01*
X172586Y179624D01*
X172516Y179511D01*
X172445Y179385D01*
X172389Y179215D01*
X172332Y179018D01*
X172290Y178792D01*
X170570Y179074D01*
Y179088D01*
X170585Y179117D01*
Y179159D01*
X170599Y179230D01*
X170641Y179385D01*
X170697Y179596D01*
X170782Y179822D01*
X170867Y180061D01*
X170979Y180287D01*
X171106Y180498D01*
X171120Y180526D01*
X171177Y180583D01*
X171261Y180681D01*
X171374Y180808D01*
X171515Y180935D01*
X171684Y181076D01*
X171896Y181217D01*
X172121Y181344D01*
X172135D01*
X172149Y181358D01*
X172234Y181386D01*
X172375Y181443D01*
X172544Y181499D01*
X172756Y181556D01*
X173009Y181612D01*
X173277Y181640D01*
X173573Y181654D01*
X173700D01*
X173799Y181640D01*
D02*
G37*
G36*
X187938Y171843D02*
X186063D01*
Y173718D01*
X187938D01*
Y171843D01*
D02*
G37*
G36*
X181538Y181640D02*
X181665Y181626D01*
X181806Y181612D01*
X181961Y181584D01*
X182130Y181556D01*
X182496Y181457D01*
X182863Y181316D01*
X183060Y181231D01*
X183230Y181133D01*
X183413Y181006D01*
X183568Y180865D01*
X183582Y180851D01*
X183610Y180837D01*
X183638Y180780D01*
X183695Y180724D01*
X183765Y180653D01*
X183836Y180555D01*
X183906Y180456D01*
X183991Y180329D01*
X184132Y180047D01*
X184273Y179723D01*
X184329Y179540D01*
X184357Y179342D01*
X184386Y179131D01*
X184400Y178919D01*
Y178891D01*
Y178807D01*
X184386Y178680D01*
X184371Y178525D01*
X184343Y178327D01*
X184301Y178116D01*
X184244Y177890D01*
X184160Y177665D01*
X184146Y177637D01*
X184118Y177566D01*
X184061Y177439D01*
X183977Y177284D01*
X183878Y177101D01*
X183751Y176889D01*
X183596Y176664D01*
X183413Y176424D01*
X183399Y176410D01*
X183342Y176340D01*
X183258Y176241D01*
X183131Y176100D01*
X182962Y175931D01*
X182750Y175705D01*
X182496Y175466D01*
X182186Y175170D01*
X182172Y175156D01*
X182144Y175141D01*
X182102Y175099D01*
X182045Y175043D01*
X181890Y174902D01*
X181707Y174732D01*
X181524Y174549D01*
X181341Y174366D01*
X181171Y174211D01*
X181115Y174140D01*
X181059Y174084D01*
X181045Y174070D01*
X181016Y174042D01*
X180974Y173985D01*
X180918Y173915D01*
X180791Y173760D01*
X180678Y173577D01*
X184400D01*
Y171843D01*
X177845D01*
Y171857D01*
Y171885D01*
X177859Y171941D01*
X177873Y172012D01*
X177887Y172096D01*
X177901Y172195D01*
X177957Y172449D01*
X178042Y172731D01*
X178155Y173041D01*
X178296Y173379D01*
X178479Y173703D01*
Y173718D01*
X178507Y173746D01*
X178535Y173802D01*
X178592Y173859D01*
X178648Y173957D01*
X178733Y174056D01*
X178831Y174183D01*
X178944Y174324D01*
X179071Y174493D01*
X179226Y174662D01*
X179395Y174859D01*
X179592Y175071D01*
X179804Y175282D01*
X180044Y175522D01*
X180297Y175776D01*
X180579Y176044D01*
X180593Y176058D01*
X180636Y176100D01*
X180692Y176156D01*
X180777Y176241D01*
X180889Y176325D01*
X181002Y176438D01*
X181256Y176692D01*
X181510Y176960D01*
X181763Y177228D01*
X181876Y177341D01*
X181989Y177467D01*
X182074Y177566D01*
X182130Y177651D01*
X182144Y177679D01*
X182186Y177749D01*
X182257Y177862D01*
X182327Y178017D01*
X182398Y178186D01*
X182468Y178384D01*
X182511Y178581D01*
X182525Y178792D01*
Y178807D01*
Y178821D01*
Y178891D01*
X182511Y179018D01*
X182482Y179159D01*
X182440Y179314D01*
X182384Y179469D01*
X182299Y179624D01*
X182186Y179765D01*
X182172Y179779D01*
X182130Y179822D01*
X182045Y179878D01*
X181947Y179934D01*
X181806Y179991D01*
X181651Y180047D01*
X181467Y180089D01*
X181256Y180103D01*
X181157D01*
X181045Y180089D01*
X180918Y180061D01*
X180763Y180019D01*
X180607Y179948D01*
X180452Y179864D01*
X180312Y179751D01*
X180297Y179737D01*
X180255Y179681D01*
X180199Y179596D01*
X180142Y179469D01*
X180072Y179314D01*
X180015Y179103D01*
X179959Y178863D01*
X179931Y178581D01*
X178070Y178764D01*
Y178778D01*
X178084Y178835D01*
Y178905D01*
X178112Y179018D01*
X178126Y179145D01*
X178169Y179286D01*
X178211Y179441D01*
X178253Y179624D01*
X178394Y179977D01*
X178563Y180343D01*
X178676Y180526D01*
X178803Y180696D01*
X178944Y180837D01*
X179099Y180977D01*
X179113Y180992D01*
X179141Y181006D01*
X179184Y181034D01*
X179254Y181090D01*
X179339Y181133D01*
X179452Y181189D01*
X179564Y181259D01*
X179705Y181316D01*
X179860Y181386D01*
X180030Y181443D01*
X180396Y181556D01*
X180833Y181626D01*
X181059Y181640D01*
X181298Y181654D01*
X181439D01*
X181538Y181640D01*
D02*
G37*
G36*
X200442D02*
X200555Y181626D01*
X200696Y181598D01*
X200837Y181570D01*
X201006Y181527D01*
X201189Y181471D01*
X201358Y181400D01*
X201542Y181330D01*
X201725Y181231D01*
X201908Y181104D01*
X202091Y180977D01*
X202260Y180822D01*
X202416Y180639D01*
X202430Y180625D01*
X202458Y180583D01*
X202500Y180512D01*
X202571Y180414D01*
X202641Y180273D01*
X202726Y180103D01*
X202810Y179920D01*
X202895Y179681D01*
X202979Y179427D01*
X203078Y179131D01*
X203149Y178807D01*
X203219Y178440D01*
X203290Y178045D01*
X203332Y177622D01*
X203360Y177157D01*
X203374Y176650D01*
Y176636D01*
Y176621D01*
Y176579D01*
Y176523D01*
Y176382D01*
X203360Y176199D01*
X203346Y175973D01*
X203318Y175705D01*
X203290Y175423D01*
X203261Y175113D01*
X203205Y174789D01*
X203134Y174451D01*
X203064Y174126D01*
X202965Y173802D01*
X202867Y173478D01*
X202726Y173182D01*
X202585Y172900D01*
X202416Y172660D01*
X202401Y172646D01*
X202373Y172618D01*
X202331Y172562D01*
X202275Y172505D01*
X202190Y172435D01*
X202091Y172350D01*
X201964Y172251D01*
X201838Y172167D01*
X201682Y172068D01*
X201527Y171970D01*
X201344Y171885D01*
X201147Y171814D01*
X200935Y171758D01*
X200696Y171702D01*
X200456Y171674D01*
X200202Y171659D01*
X200146D01*
X200061Y171674D01*
X199963D01*
X199850Y171688D01*
X199709Y171716D01*
X199554Y171744D01*
X199385Y171800D01*
X199201Y171857D01*
X199018Y171927D01*
X198821Y172012D01*
X198638Y172125D01*
X198440Y172237D01*
X198257Y172392D01*
X198074Y172547D01*
X197904Y172745D01*
X197890Y172759D01*
X197862Y172801D01*
X197820Y172872D01*
X197778Y172956D01*
X197707Y173083D01*
X197637Y173238D01*
X197552Y173436D01*
X197482Y173647D01*
X197397Y173901D01*
X197312Y174183D01*
X197242Y174507D01*
X197186Y174859D01*
X197129Y175254D01*
X197087Y175691D01*
X197059Y176156D01*
X197045Y176664D01*
Y176678D01*
Y176692D01*
Y176734D01*
Y176791D01*
Y176932D01*
X197059Y177115D01*
X197073Y177341D01*
X197101Y177608D01*
X197129Y177890D01*
X197157Y178200D01*
X197214Y178525D01*
X197270Y178849D01*
X197355Y179187D01*
X197439Y179511D01*
X197552Y179822D01*
X197679Y180118D01*
X197820Y180399D01*
X197989Y180639D01*
X198003Y180653D01*
X198031Y180681D01*
X198074Y180738D01*
X198144Y180794D01*
X198215Y180879D01*
X198313Y180963D01*
X198440Y181048D01*
X198567Y181147D01*
X198722Y181245D01*
X198877Y181330D01*
X199060Y181415D01*
X199258Y181499D01*
X199469Y181556D01*
X199709Y181612D01*
X199949Y181640D01*
X200202Y181654D01*
X200343D01*
X200442Y181640D01*
D02*
G37*
G36*
X192858D02*
X192971Y181626D01*
X193111Y181598D01*
X193253Y181570D01*
X193422Y181527D01*
X193605Y181471D01*
X193774Y181400D01*
X193957Y181330D01*
X194141Y181231D01*
X194324Y181104D01*
X194507Y180977D01*
X194676Y180822D01*
X194831Y180639D01*
X194846Y180625D01*
X194874Y180583D01*
X194916Y180512D01*
X194986Y180414D01*
X195057Y180273D01*
X195142Y180103D01*
X195226Y179920D01*
X195311Y179681D01*
X195395Y179427D01*
X195494Y179131D01*
X195564Y178807D01*
X195635Y178440D01*
X195705Y178045D01*
X195748Y177622D01*
X195776Y177157D01*
X195790Y176650D01*
Y176636D01*
Y176621D01*
Y176579D01*
Y176523D01*
Y176382D01*
X195776Y176199D01*
X195762Y175973D01*
X195734Y175705D01*
X195705Y175423D01*
X195677Y175113D01*
X195621Y174789D01*
X195550Y174451D01*
X195480Y174126D01*
X195381Y173802D01*
X195282Y173478D01*
X195142Y173182D01*
X195000Y172900D01*
X194831Y172660D01*
X194817Y172646D01*
X194789Y172618D01*
X194747Y172562D01*
X194690Y172505D01*
X194606Y172435D01*
X194507Y172350D01*
X194380Y172251D01*
X194253Y172167D01*
X194098Y172068D01*
X193943Y171970D01*
X193760Y171885D01*
X193563Y171814D01*
X193351Y171758D01*
X193111Y171702D01*
X192872Y171674D01*
X192618Y171659D01*
X192562D01*
X192477Y171674D01*
X192379D01*
X192266Y171688D01*
X192125Y171716D01*
X191970Y171744D01*
X191800Y171800D01*
X191617Y171857D01*
X191434Y171927D01*
X191237Y172012D01*
X191053Y172125D01*
X190856Y172237D01*
X190673Y172392D01*
X190490Y172547D01*
X190320Y172745D01*
X190306Y172759D01*
X190278Y172801D01*
X190236Y172872D01*
X190193Y172956D01*
X190123Y173083D01*
X190053Y173238D01*
X189968Y173436D01*
X189897Y173647D01*
X189813Y173901D01*
X189728Y174183D01*
X189658Y174507D01*
X189601Y174859D01*
X189545Y175254D01*
X189503Y175691D01*
X189475Y176156D01*
X189460Y176664D01*
Y176678D01*
Y176692D01*
Y176734D01*
Y176791D01*
Y176932D01*
X189475Y177115D01*
X189489Y177341D01*
X189517Y177608D01*
X189545Y177890D01*
X189573Y178200D01*
X189630Y178525D01*
X189686Y178849D01*
X189771Y179187D01*
X189855Y179511D01*
X189968Y179822D01*
X190095Y180118D01*
X190236Y180399D01*
X190405Y180639D01*
X190419Y180653D01*
X190447Y180681D01*
X190490Y180738D01*
X190560Y180794D01*
X190630Y180879D01*
X190729Y180963D01*
X190856Y181048D01*
X190983Y181147D01*
X191138Y181245D01*
X191293Y181330D01*
X191476Y181415D01*
X191674Y181499D01*
X191885Y181556D01*
X192125Y181612D01*
X192364Y181640D01*
X192618Y181654D01*
X192759D01*
X192858Y181640D01*
D02*
G37*
G36*
X362557Y-17096D02*
X359019D01*
X358722Y-18759D01*
X358737D01*
X358751Y-18745D01*
X358835Y-18703D01*
X358962Y-18661D01*
X359117Y-18590D01*
X359315Y-18534D01*
X359526Y-18491D01*
X359766Y-18449D01*
X360005Y-18435D01*
X360132D01*
X360217Y-18449D01*
X360316Y-18463D01*
X360442Y-18477D01*
X360583Y-18506D01*
X360738Y-18548D01*
X361063Y-18661D01*
X361246Y-18731D01*
X361415Y-18816D01*
X361598Y-18929D01*
X361782Y-19055D01*
X361951Y-19196D01*
X362120Y-19351D01*
X362134Y-19366D01*
X362162Y-19394D01*
X362205Y-19450D01*
X362261Y-19521D01*
X362317Y-19605D01*
X362402Y-19718D01*
X362472Y-19845D01*
X362557Y-19986D01*
X362641Y-20141D01*
X362712Y-20324D01*
X362797Y-20522D01*
X362853Y-20719D01*
X362909Y-20944D01*
X362952Y-21184D01*
X362980Y-21438D01*
X362994Y-21706D01*
Y-21720D01*
Y-21762D01*
Y-21818D01*
X362980Y-21903D01*
Y-22016D01*
X362952Y-22143D01*
X362938Y-22284D01*
X362909Y-22425D01*
X362825Y-22763D01*
X362698Y-23129D01*
X362613Y-23327D01*
X362529Y-23510D01*
X362416Y-23693D01*
X362289Y-23877D01*
X362275Y-23891D01*
X362247Y-23933D01*
X362190Y-23989D01*
X362120Y-24074D01*
X362021Y-24173D01*
X361894Y-24285D01*
X361753Y-24398D01*
X361598Y-24511D01*
X361415Y-24638D01*
X361218Y-24751D01*
X361006Y-24863D01*
X360767Y-24962D01*
X360513Y-25047D01*
X360245Y-25103D01*
X359949Y-25145D01*
X359639Y-25159D01*
X359512D01*
X359413Y-25145D01*
X359300Y-25131D01*
X359160Y-25117D01*
X359019Y-25103D01*
X358849Y-25075D01*
X358511Y-24990D01*
X358130Y-24849D01*
X357947Y-24779D01*
X357764Y-24680D01*
X357595Y-24567D01*
X357426Y-24440D01*
X357411Y-24426D01*
X357383Y-24412D01*
X357341Y-24370D01*
X357285Y-24314D01*
X357228Y-24229D01*
X357144Y-24144D01*
X357073Y-24046D01*
X356989Y-23933D01*
X356890Y-23792D01*
X356805Y-23651D01*
X356650Y-23313D01*
X356509Y-22932D01*
X356467Y-22721D01*
X356425Y-22495D01*
X358285Y-22298D01*
Y-22326D01*
X358300Y-22396D01*
X358328Y-22523D01*
X358370Y-22664D01*
X358427Y-22819D01*
X358511Y-22988D01*
X358624Y-23143D01*
X358751Y-23299D01*
X358765Y-23313D01*
X358821Y-23355D01*
X358906Y-23411D01*
X359019Y-23482D01*
X359146Y-23552D01*
X359300Y-23609D01*
X359484Y-23651D01*
X359667Y-23665D01*
X359695D01*
X359766Y-23651D01*
X359879Y-23637D01*
X360019Y-23609D01*
X360174Y-23552D01*
X360344Y-23468D01*
X360513Y-23341D01*
X360668Y-23186D01*
X360682Y-23158D01*
X360738Y-23101D01*
X360795Y-22988D01*
X360879Y-22819D01*
X360950Y-22622D01*
X361020Y-22382D01*
X361063Y-22086D01*
X361077Y-21748D01*
Y-21734D01*
Y-21706D01*
Y-21663D01*
Y-21593D01*
X361063Y-21438D01*
X361020Y-21240D01*
X360978Y-21015D01*
X360908Y-20789D01*
X360809Y-20578D01*
X360668Y-20395D01*
X360654Y-20380D01*
X360597Y-20324D01*
X360499Y-20254D01*
X360386Y-20155D01*
X360231Y-20070D01*
X360048Y-20000D01*
X359836Y-19943D01*
X359611Y-19929D01*
X359526D01*
X359470Y-19943D01*
X359329Y-19972D01*
X359131Y-20014D01*
X358906Y-20099D01*
X358666Y-20225D01*
X358539Y-20310D01*
X358412Y-20409D01*
X358285Y-20522D01*
X358159Y-20648D01*
X356650Y-20437D01*
X357609Y-15348D01*
X362557D01*
Y-17096D01*
D02*
G37*
G36*
X343596D02*
X340058D01*
X339762Y-18759D01*
X339776D01*
X339790Y-18745D01*
X339875Y-18703D01*
X340002Y-18661D01*
X340157Y-18590D01*
X340354Y-18534D01*
X340566Y-18491D01*
X340805Y-18449D01*
X341045Y-18435D01*
X341172D01*
X341256Y-18449D01*
X341355Y-18463D01*
X341482Y-18477D01*
X341623Y-18506D01*
X341778Y-18548D01*
X342102Y-18661D01*
X342285Y-18731D01*
X342455Y-18816D01*
X342638Y-18929D01*
X342821Y-19055D01*
X342990Y-19196D01*
X343159Y-19351D01*
X343174Y-19366D01*
X343202Y-19394D01*
X343244Y-19450D01*
X343300Y-19521D01*
X343357Y-19605D01*
X343441Y-19718D01*
X343512Y-19845D01*
X343596Y-19986D01*
X343681Y-20141D01*
X343751Y-20324D01*
X343836Y-20522D01*
X343893Y-20719D01*
X343949Y-20944D01*
X343991Y-21184D01*
X344019Y-21438D01*
X344034Y-21706D01*
Y-21720D01*
Y-21762D01*
Y-21818D01*
X344019Y-21903D01*
Y-22016D01*
X343991Y-22143D01*
X343977Y-22284D01*
X343949Y-22425D01*
X343864Y-22763D01*
X343737Y-23129D01*
X343653Y-23327D01*
X343568Y-23510D01*
X343456Y-23693D01*
X343329Y-23877D01*
X343315Y-23891D01*
X343286Y-23933D01*
X343230Y-23989D01*
X343159Y-24074D01*
X343061Y-24173D01*
X342934Y-24285D01*
X342793Y-24398D01*
X342638Y-24511D01*
X342455Y-24638D01*
X342257Y-24751D01*
X342046Y-24863D01*
X341806Y-24962D01*
X341552Y-25047D01*
X341285Y-25103D01*
X340989Y-25145D01*
X340678Y-25159D01*
X340551D01*
X340453Y-25145D01*
X340340Y-25131D01*
X340199Y-25117D01*
X340058Y-25103D01*
X339889Y-25075D01*
X339551Y-24990D01*
X339170Y-24849D01*
X338987Y-24779D01*
X338803Y-24680D01*
X338634Y-24567D01*
X338465Y-24440D01*
X338451Y-24426D01*
X338423Y-24412D01*
X338381Y-24370D01*
X338324Y-24314D01*
X338268Y-24229D01*
X338183Y-24144D01*
X338113Y-24046D01*
X338028Y-23933D01*
X337929Y-23792D01*
X337845Y-23651D01*
X337690Y-23313D01*
X337549Y-22932D01*
X337507Y-22721D01*
X337464Y-22495D01*
X339325Y-22298D01*
Y-22326D01*
X339339Y-22396D01*
X339367Y-22523D01*
X339410Y-22664D01*
X339466Y-22819D01*
X339551Y-22988D01*
X339663Y-23143D01*
X339790Y-23299D01*
X339804Y-23313D01*
X339861Y-23355D01*
X339945Y-23411D01*
X340058Y-23482D01*
X340185Y-23552D01*
X340340Y-23609D01*
X340523Y-23651D01*
X340707Y-23665D01*
X340735D01*
X340805Y-23651D01*
X340918Y-23637D01*
X341059Y-23609D01*
X341214Y-23552D01*
X341383Y-23468D01*
X341552Y-23341D01*
X341707Y-23186D01*
X341722Y-23158D01*
X341778Y-23101D01*
X341834Y-22988D01*
X341919Y-22819D01*
X341989Y-22622D01*
X342060Y-22382D01*
X342102Y-22086D01*
X342116Y-21748D01*
Y-21734D01*
Y-21706D01*
Y-21663D01*
Y-21593D01*
X342102Y-21438D01*
X342060Y-21240D01*
X342018Y-21015D01*
X341947Y-20789D01*
X341848Y-20578D01*
X341707Y-20395D01*
X341693Y-20380D01*
X341637Y-20324D01*
X341538Y-20254D01*
X341426Y-20155D01*
X341270Y-20070D01*
X341087Y-20000D01*
X340876Y-19943D01*
X340650Y-19929D01*
X340566D01*
X340509Y-19943D01*
X340368Y-19972D01*
X340171Y-20014D01*
X339945Y-20099D01*
X339706Y-20225D01*
X339579Y-20310D01*
X339452Y-20409D01*
X339325Y-20522D01*
X339198Y-20648D01*
X337690Y-20437D01*
X338648Y-15348D01*
X343596D01*
Y-17096D01*
D02*
G37*
G36*
X352266Y-15179D02*
X352393Y-15193D01*
X352534Y-15207D01*
X352689Y-15235D01*
X352858Y-15263D01*
X353225Y-15362D01*
X353591Y-15503D01*
X353789Y-15588D01*
X353958Y-15686D01*
X354141Y-15813D01*
X354296Y-15954D01*
X354310Y-15968D01*
X354338Y-15982D01*
X354367Y-16039D01*
X354423Y-16095D01*
X354493Y-16165D01*
X354564Y-16264D01*
X354634Y-16363D01*
X354719Y-16490D01*
X354860Y-16772D01*
X355001Y-17096D01*
X355057Y-17279D01*
X355085Y-17477D01*
X355114Y-17688D01*
X355128Y-17899D01*
Y-17928D01*
Y-18012D01*
X355114Y-18139D01*
X355100Y-18294D01*
X355071Y-18491D01*
X355029Y-18703D01*
X354973Y-18929D01*
X354888Y-19154D01*
X354874Y-19182D01*
X354846Y-19253D01*
X354790Y-19380D01*
X354705Y-19535D01*
X354606Y-19718D01*
X354479Y-19929D01*
X354324Y-20155D01*
X354141Y-20395D01*
X354127Y-20409D01*
X354071Y-20479D01*
X353986Y-20578D01*
X353859Y-20719D01*
X353690Y-20888D01*
X353479Y-21114D01*
X353225Y-21353D01*
X352915Y-21649D01*
X352901Y-21663D01*
X352872Y-21677D01*
X352830Y-21720D01*
X352774Y-21776D01*
X352618Y-21917D01*
X352435Y-22086D01*
X352252Y-22269D01*
X352069Y-22453D01*
X351900Y-22608D01*
X351843Y-22678D01*
X351787Y-22735D01*
X351773Y-22749D01*
X351744Y-22777D01*
X351702Y-22833D01*
X351646Y-22904D01*
X351519Y-23059D01*
X351406Y-23242D01*
X355128D01*
Y-24976D01*
X348573D01*
Y-24962D01*
Y-24934D01*
X348587Y-24877D01*
X348601Y-24807D01*
X348615Y-24722D01*
X348629Y-24624D01*
X348685Y-24370D01*
X348770Y-24088D01*
X348883Y-23778D01*
X349024Y-23440D01*
X349207Y-23115D01*
Y-23101D01*
X349235Y-23073D01*
X349263Y-23017D01*
X349320Y-22960D01*
X349376Y-22862D01*
X349461Y-22763D01*
X349560Y-22636D01*
X349672Y-22495D01*
X349799Y-22326D01*
X349954Y-22157D01*
X350123Y-21959D01*
X350321Y-21748D01*
X350532Y-21537D01*
X350772Y-21297D01*
X351026Y-21043D01*
X351307Y-20775D01*
X351322Y-20761D01*
X351364Y-20719D01*
X351420Y-20662D01*
X351505Y-20578D01*
X351618Y-20493D01*
X351730Y-20380D01*
X351984Y-20127D01*
X352238Y-19859D01*
X352492Y-19591D01*
X352604Y-19478D01*
X352717Y-19351D01*
X352802Y-19253D01*
X352858Y-19168D01*
X352872Y-19140D01*
X352915Y-19069D01*
X352985Y-18957D01*
X353056Y-18802D01*
X353126Y-18633D01*
X353196Y-18435D01*
X353239Y-18238D01*
X353253Y-18026D01*
Y-18012D01*
Y-17998D01*
Y-17928D01*
X353239Y-17801D01*
X353211Y-17660D01*
X353168Y-17505D01*
X353112Y-17350D01*
X353027Y-17195D01*
X352915Y-17054D01*
X352901Y-17040D01*
X352858Y-16997D01*
X352774Y-16941D01*
X352675Y-16884D01*
X352534Y-16828D01*
X352379Y-16772D01*
X352196Y-16729D01*
X351984Y-16715D01*
X351885D01*
X351773Y-16729D01*
X351646Y-16758D01*
X351491Y-16800D01*
X351336Y-16870D01*
X351181Y-16955D01*
X351040Y-17068D01*
X351026Y-17082D01*
X350983Y-17138D01*
X350927Y-17223D01*
X350871Y-17350D01*
X350800Y-17505D01*
X350744Y-17716D01*
X350687Y-17956D01*
X350659Y-18238D01*
X348798Y-18054D01*
Y-18040D01*
X348812Y-17984D01*
Y-17914D01*
X348841Y-17801D01*
X348855Y-17674D01*
X348897Y-17533D01*
X348939Y-17378D01*
X348982Y-17195D01*
X349123Y-16842D01*
X349292Y-16476D01*
X349404Y-16292D01*
X349531Y-16123D01*
X349672Y-15982D01*
X349827Y-15841D01*
X349841Y-15827D01*
X349870Y-15813D01*
X349912Y-15785D01*
X349982Y-15728D01*
X350067Y-15686D01*
X350180Y-15630D01*
X350293Y-15559D01*
X350434Y-15503D01*
X350589Y-15432D01*
X350758Y-15376D01*
X351124Y-15263D01*
X351561Y-15193D01*
X351787Y-15179D01*
X352026Y-15165D01*
X352167D01*
X352266Y-15179D01*
D02*
G37*
G36*
X347290Y-24976D02*
X345415D01*
Y-23101D01*
X347290D01*
Y-24976D01*
D02*
G37*
G36*
X35476Y-21601D02*
X31571D01*
X31050Y-24237D01*
X31064Y-24223D01*
X31092Y-24209D01*
X31134Y-24181D01*
X31205Y-24138D01*
X31290Y-24096D01*
X31388Y-24040D01*
X31614Y-23927D01*
X31896Y-23814D01*
X32206Y-23716D01*
X32544Y-23645D01*
X32713Y-23617D01*
X33023D01*
X33108Y-23631D01*
X33221Y-23645D01*
X33348Y-23659D01*
X33489Y-23687D01*
X33644Y-23730D01*
X33982Y-23828D01*
X34165Y-23899D01*
X34348Y-23997D01*
X34532Y-24096D01*
X34715Y-24209D01*
X34884Y-24350D01*
X35053Y-24505D01*
X35068Y-24519D01*
X35096Y-24547D01*
X35138Y-24590D01*
X35194Y-24660D01*
X35265Y-24759D01*
X35335Y-24857D01*
X35420Y-24984D01*
X35505Y-25125D01*
X35575Y-25280D01*
X35660Y-25449D01*
X35730Y-25647D01*
X35800Y-25844D01*
X35857Y-26056D01*
X35899Y-26295D01*
X35927Y-26535D01*
X35942Y-26789D01*
Y-26803D01*
Y-26845D01*
Y-26916D01*
X35927Y-27014D01*
X35913Y-27127D01*
X35899Y-27254D01*
X35871Y-27409D01*
X35843Y-27564D01*
X35758Y-27931D01*
X35617Y-28311D01*
X35533Y-28509D01*
X35420Y-28692D01*
X35307Y-28889D01*
X35166Y-29072D01*
X35152Y-29086D01*
X35124Y-29129D01*
X35068Y-29185D01*
X34997Y-29256D01*
X34898Y-29340D01*
X34786Y-29453D01*
X34645Y-29552D01*
X34490Y-29664D01*
X34320Y-29777D01*
X34123Y-29876D01*
X33911Y-29975D01*
X33686Y-30073D01*
X33446Y-30144D01*
X33179Y-30200D01*
X32897Y-30242D01*
X32601Y-30257D01*
X32474D01*
X32375Y-30242D01*
X32262Y-30228D01*
X32135Y-30214D01*
X31980Y-30200D01*
X31825Y-30158D01*
X31473Y-30073D01*
X31120Y-29946D01*
X30937Y-29862D01*
X30754Y-29763D01*
X30585Y-29650D01*
X30415Y-29523D01*
X30401Y-29509D01*
X30373Y-29495D01*
X30345Y-29439D01*
X30289Y-29383D01*
X30218Y-29312D01*
X30148Y-29227D01*
X30063Y-29115D01*
X29993Y-28988D01*
X29908Y-28861D01*
X29823Y-28706D01*
X29668Y-28368D01*
X29541Y-27973D01*
X29499Y-27761D01*
X29471Y-27536D01*
X30726Y-27437D01*
Y-27451D01*
Y-27479D01*
X30740Y-27522D01*
X30754Y-27592D01*
X30796Y-27747D01*
X30852Y-27959D01*
X30937Y-28170D01*
X31050Y-28410D01*
X31191Y-28621D01*
X31360Y-28819D01*
X31388Y-28833D01*
X31445Y-28889D01*
X31557Y-28960D01*
X31712Y-29044D01*
X31882Y-29129D01*
X32093Y-29199D01*
X32333Y-29256D01*
X32601Y-29270D01*
X32685D01*
X32741Y-29256D01*
X32911Y-29241D01*
X33108Y-29185D01*
X33348Y-29115D01*
X33587Y-29002D01*
X33841Y-28833D01*
X33954Y-28734D01*
X34067Y-28621D01*
X34081Y-28607D01*
X34095Y-28593D01*
X34123Y-28551D01*
X34165Y-28509D01*
X34264Y-28353D01*
X34377Y-28156D01*
X34475Y-27916D01*
X34574Y-27620D01*
X34645Y-27268D01*
X34673Y-27085D01*
Y-26887D01*
Y-26873D01*
Y-26845D01*
Y-26789D01*
X34659Y-26718D01*
Y-26634D01*
X34645Y-26535D01*
X34602Y-26309D01*
X34532Y-26042D01*
X34433Y-25774D01*
X34292Y-25520D01*
X34095Y-25280D01*
Y-25266D01*
X34067Y-25252D01*
X33996Y-25182D01*
X33869Y-25083D01*
X33700Y-24970D01*
X33475Y-24871D01*
X33221Y-24773D01*
X32925Y-24702D01*
X32756Y-24674D01*
X32488D01*
X32375Y-24688D01*
X32234Y-24702D01*
X32065Y-24745D01*
X31896Y-24787D01*
X31712Y-24857D01*
X31529Y-24942D01*
X31515Y-24956D01*
X31459Y-24984D01*
X31374Y-25055D01*
X31261Y-25125D01*
X31149Y-25224D01*
X31036Y-25351D01*
X30909Y-25478D01*
X30810Y-25633D01*
X29682Y-25478D01*
X30627Y-20459D01*
X35476D01*
Y-21601D01*
D02*
G37*
G36*
X16516D02*
X12611D01*
X12089Y-24237D01*
X12104Y-24223D01*
X12132Y-24209D01*
X12174Y-24181D01*
X12244Y-24138D01*
X12329Y-24096D01*
X12428Y-24040D01*
X12653Y-23927D01*
X12935Y-23814D01*
X13245Y-23716D01*
X13584Y-23645D01*
X13753Y-23617D01*
X14063D01*
X14147Y-23631D01*
X14260Y-23645D01*
X14387Y-23659D01*
X14528Y-23687D01*
X14683Y-23730D01*
X15022Y-23828D01*
X15205Y-23899D01*
X15388Y-23997D01*
X15571Y-24096D01*
X15755Y-24209D01*
X15924Y-24350D01*
X16093Y-24505D01*
X16107Y-24519D01*
X16135Y-24547D01*
X16178Y-24590D01*
X16234Y-24660D01*
X16304Y-24759D01*
X16375Y-24857D01*
X16459Y-24984D01*
X16544Y-25125D01*
X16615Y-25280D01*
X16699Y-25449D01*
X16770Y-25647D01*
X16840Y-25844D01*
X16897Y-26056D01*
X16939Y-26295D01*
X16967Y-26535D01*
X16981Y-26789D01*
Y-26803D01*
Y-26845D01*
Y-26916D01*
X16967Y-27014D01*
X16953Y-27127D01*
X16939Y-27254D01*
X16911Y-27409D01*
X16882Y-27564D01*
X16798Y-27931D01*
X16657Y-28311D01*
X16572Y-28509D01*
X16459Y-28692D01*
X16347Y-28889D01*
X16206Y-29072D01*
X16192Y-29086D01*
X16163Y-29129D01*
X16107Y-29185D01*
X16036Y-29256D01*
X15938Y-29340D01*
X15825Y-29453D01*
X15684Y-29552D01*
X15529Y-29664D01*
X15360Y-29777D01*
X15163Y-29876D01*
X14951Y-29975D01*
X14726Y-30073D01*
X14486Y-30144D01*
X14218Y-30200D01*
X13936Y-30242D01*
X13640Y-30257D01*
X13513D01*
X13414Y-30242D01*
X13302Y-30228D01*
X13175Y-30214D01*
X13020Y-30200D01*
X12865Y-30158D01*
X12512Y-30073D01*
X12160Y-29946D01*
X11977Y-29862D01*
X11793Y-29763D01*
X11624Y-29650D01*
X11455Y-29523D01*
X11441Y-29509D01*
X11413Y-29495D01*
X11385Y-29439D01*
X11328Y-29383D01*
X11258Y-29312D01*
X11187Y-29227D01*
X11103Y-29115D01*
X11032Y-28988D01*
X10948Y-28861D01*
X10863Y-28706D01*
X10708Y-28368D01*
X10581Y-27973D01*
X10539Y-27761D01*
X10510Y-27536D01*
X11765Y-27437D01*
Y-27451D01*
Y-27479D01*
X11779Y-27522D01*
X11793Y-27592D01*
X11836Y-27747D01*
X11892Y-27959D01*
X11977Y-28170D01*
X12089Y-28410D01*
X12230Y-28621D01*
X12399Y-28819D01*
X12428Y-28833D01*
X12484Y-28889D01*
X12597Y-28960D01*
X12752Y-29044D01*
X12921Y-29129D01*
X13133Y-29199D01*
X13372Y-29256D01*
X13640Y-29270D01*
X13725D01*
X13781Y-29256D01*
X13950Y-29241D01*
X14147Y-29185D01*
X14387Y-29115D01*
X14627Y-29002D01*
X14881Y-28833D01*
X14993Y-28734D01*
X15106Y-28621D01*
X15120Y-28607D01*
X15134Y-28593D01*
X15163Y-28551D01*
X15205Y-28509D01*
X15303Y-28353D01*
X15416Y-28156D01*
X15515Y-27916D01*
X15614Y-27620D01*
X15684Y-27268D01*
X15712Y-27085D01*
Y-26887D01*
Y-26873D01*
Y-26845D01*
Y-26789D01*
X15698Y-26718D01*
Y-26634D01*
X15684Y-26535D01*
X15642Y-26309D01*
X15571Y-26042D01*
X15473Y-25774D01*
X15332Y-25520D01*
X15134Y-25280D01*
Y-25266D01*
X15106Y-25252D01*
X15036Y-25182D01*
X14909Y-25083D01*
X14740Y-24970D01*
X14514Y-24871D01*
X14260Y-24773D01*
X13964Y-24702D01*
X13795Y-24674D01*
X13527D01*
X13414Y-24688D01*
X13274Y-24702D01*
X13104Y-24745D01*
X12935Y-24787D01*
X12752Y-24857D01*
X12569Y-24942D01*
X12555Y-24956D01*
X12498Y-24984D01*
X12414Y-25055D01*
X12301Y-25125D01*
X12188Y-25224D01*
X12075Y-25351D01*
X11948Y-25478D01*
X11850Y-25633D01*
X10722Y-25478D01*
X11667Y-20459D01*
X16516D01*
Y-21601D01*
D02*
G37*
G36*
X26398Y-30087D02*
X25200D01*
Y-22461D01*
X25185Y-22475D01*
X25115Y-22531D01*
X25030Y-22616D01*
X24890Y-22715D01*
X24734Y-22841D01*
X24537Y-22982D01*
X24311Y-23138D01*
X24058Y-23293D01*
X24044D01*
X24030Y-23307D01*
X23945Y-23363D01*
X23804Y-23434D01*
X23635Y-23518D01*
X23438Y-23617D01*
X23226Y-23716D01*
X23015Y-23814D01*
X22803Y-23899D01*
Y-22743D01*
X22817D01*
X22845Y-22715D01*
X22902Y-22701D01*
X22972Y-22658D01*
X23057Y-22616D01*
X23156Y-22559D01*
X23395Y-22419D01*
X23677Y-22264D01*
X23959Y-22066D01*
X24255Y-21841D01*
X24551Y-21601D01*
X24565Y-21587D01*
X24579Y-21573D01*
X24622Y-21530D01*
X24678Y-21488D01*
X24805Y-21347D01*
X24974Y-21178D01*
X25143Y-20981D01*
X25326Y-20755D01*
X25482Y-20530D01*
X25622Y-20290D01*
X26398D01*
Y-30087D01*
D02*
G37*
G36*
X20139D02*
X18771D01*
Y-28720D01*
X20139D01*
Y-30087D01*
D02*
G37*
%LPC*%
G36*
X-54322Y82045D02*
X-54759D01*
X-54773D01*
X-54788D01*
X-54858D01*
X-54985D01*
X-55154Y82031D01*
X-55337D01*
X-55563Y82017D01*
X-55802Y82003D01*
X-56070Y81975D01*
X-56606Y81904D01*
X-56874Y81862D01*
X-57128Y81806D01*
X-57367Y81749D01*
X-57593Y81665D01*
X-57790Y81580D01*
X-57959Y81481D01*
X-57973D01*
X-57987Y81453D01*
X-58030Y81425D01*
X-58086Y81383D01*
X-58213Y81256D01*
X-58368Y81101D01*
X-58509Y80889D01*
X-58636Y80650D01*
X-58692Y80523D01*
X-58735Y80382D01*
X-58749Y80227D01*
X-58763Y80072D01*
Y79987D01*
X-58749Y79931D01*
X-58720Y79776D01*
X-58678Y79592D01*
X-58594Y79381D01*
X-58467Y79155D01*
X-58382Y79043D01*
X-58298Y78930D01*
X-58185Y78831D01*
X-58058Y78733D01*
X-58044D01*
X-58016Y78704D01*
X-57959Y78676D01*
X-57889Y78634D01*
X-57776Y78591D01*
X-57649Y78535D01*
X-57494Y78493D01*
X-57311Y78436D01*
X-57099Y78380D01*
X-56860Y78324D01*
X-56592Y78267D01*
X-56296Y78225D01*
X-55957Y78183D01*
X-55591Y78155D01*
X-55196Y78140D01*
X-54759Y78126D01*
X-54731D01*
X-54661D01*
X-54534D01*
X-54365Y78140D01*
X-54181D01*
X-53956Y78155D01*
X-53716Y78169D01*
X-53462Y78197D01*
X-52913Y78267D01*
X-52645Y78310D01*
X-52391Y78366D01*
X-52151Y78422D01*
X-51926Y78507D01*
X-51728Y78591D01*
X-51559Y78690D01*
X-51545D01*
X-51531Y78718D01*
X-51432Y78789D01*
X-51305Y78916D01*
X-51164Y79071D01*
X-51024Y79282D01*
X-50897Y79522D01*
X-50798Y79790D01*
X-50784Y79931D01*
X-50770Y80086D01*
Y80170D01*
X-50784Y80227D01*
X-50812Y80368D01*
X-50869Y80565D01*
X-50967Y80777D01*
X-51108Y81016D01*
X-51193Y81129D01*
X-51305Y81242D01*
X-51418Y81355D01*
X-51559Y81467D01*
X-51573D01*
X-51602Y81496D01*
X-51644Y81524D01*
X-51714Y81552D01*
X-51813Y81608D01*
X-51940Y81651D01*
X-52081Y81707D01*
X-52250Y81763D01*
X-52462Y81806D01*
X-52687Y81862D01*
X-52955Y81918D01*
X-53237Y81961D01*
X-53575Y81989D01*
X-53928Y82017D01*
X-54322Y82045D01*
D02*
G37*
G36*
X192810Y-77164D02*
X192585D01*
X192528Y-77178D01*
X192373Y-77192D01*
X192190Y-77249D01*
X191964Y-77319D01*
X191725Y-77446D01*
X191485Y-77601D01*
X191372Y-77714D01*
X191260Y-77826D01*
Y-77840D01*
X191231Y-77855D01*
X191203Y-77897D01*
X191175Y-77939D01*
X191076Y-78080D01*
X190978Y-78278D01*
X190865Y-78517D01*
X190766Y-78813D01*
X190710Y-79152D01*
X190682Y-79518D01*
Y-79532D01*
Y-79560D01*
Y-79603D01*
X190696Y-79673D01*
Y-79758D01*
X190710Y-79842D01*
X190752Y-80054D01*
X190823Y-80293D01*
X190907Y-80547D01*
X191048Y-80801D01*
X191231Y-81026D01*
X191260Y-81055D01*
X191330Y-81111D01*
X191457Y-81210D01*
X191612Y-81308D01*
X191824Y-81421D01*
X192063Y-81520D01*
X192331Y-81576D01*
X192627Y-81604D01*
X192712D01*
X192768Y-81590D01*
X192923Y-81576D01*
X193106Y-81534D01*
X193332Y-81463D01*
X193557Y-81365D01*
X193783Y-81224D01*
X193994Y-81026D01*
X194023Y-80998D01*
X194079Y-80914D01*
X194164Y-80787D01*
X194276Y-80604D01*
X194375Y-80378D01*
X194460Y-80110D01*
X194516Y-79786D01*
X194544Y-79419D01*
Y-79405D01*
Y-79377D01*
Y-79321D01*
X194530Y-79250D01*
Y-79152D01*
X194516Y-79053D01*
X194474Y-78827D01*
X194417Y-78559D01*
X194319Y-78278D01*
X194178Y-78010D01*
X193994Y-77770D01*
Y-77756D01*
X193966Y-77742D01*
X193896Y-77671D01*
X193783Y-77573D01*
X193628Y-77460D01*
X193431Y-77361D01*
X193205Y-77263D01*
X192951Y-77192D01*
X192810Y-77164D01*
D02*
G37*
G36*
X200211D02*
X200127D01*
X200070Y-77178D01*
X199915Y-77206D01*
X199732Y-77249D01*
X199520Y-77333D01*
X199295Y-77460D01*
X199182Y-77544D01*
X199069Y-77629D01*
X198971Y-77742D01*
X198872Y-77869D01*
Y-77883D01*
X198844Y-77911D01*
X198816Y-77967D01*
X198773Y-78038D01*
X198731Y-78151D01*
X198675Y-78278D01*
X198632Y-78433D01*
X198576Y-78616D01*
X198520Y-78827D01*
X198463Y-79067D01*
X198407Y-79335D01*
X198365Y-79631D01*
X198322Y-79969D01*
X198294Y-80336D01*
X198280Y-80730D01*
X198266Y-81167D01*
Y-81196D01*
Y-81266D01*
Y-81393D01*
X198280Y-81562D01*
Y-81745D01*
X198294Y-81971D01*
X198308Y-82211D01*
X198336Y-82464D01*
X198407Y-83014D01*
X198449Y-83282D01*
X198505Y-83536D01*
X198562Y-83775D01*
X198646Y-84001D01*
X198731Y-84198D01*
X198830Y-84367D01*
Y-84382D01*
X198858Y-84396D01*
X198928Y-84494D01*
X199055Y-84621D01*
X199210Y-84762D01*
X199422Y-84903D01*
X199661Y-85030D01*
X199929Y-85129D01*
X200070Y-85143D01*
X200225Y-85157D01*
X200310D01*
X200366Y-85143D01*
X200507Y-85115D01*
X200705Y-85058D01*
X200916Y-84959D01*
X201156Y-84819D01*
X201269Y-84734D01*
X201381Y-84621D01*
X201494Y-84508D01*
X201607Y-84367D01*
Y-84353D01*
X201635Y-84325D01*
X201663Y-84283D01*
X201691Y-84212D01*
X201748Y-84114D01*
X201790Y-83987D01*
X201847Y-83846D01*
X201903Y-83677D01*
X201945Y-83465D01*
X202001Y-83240D01*
X202058Y-82972D01*
X202100Y-82690D01*
X202128Y-82352D01*
X202157Y-81999D01*
X202185Y-81604D01*
Y-81167D01*
Y-81153D01*
Y-81139D01*
Y-81069D01*
Y-80942D01*
X202171Y-80773D01*
Y-80590D01*
X202157Y-80364D01*
X202143Y-80124D01*
X202114Y-79856D01*
X202044Y-79321D01*
X202001Y-79053D01*
X201945Y-78799D01*
X201889Y-78559D01*
X201804Y-78334D01*
X201720Y-78137D01*
X201621Y-77967D01*
Y-77953D01*
X201593Y-77939D01*
X201565Y-77897D01*
X201522Y-77840D01*
X201395Y-77714D01*
X201240Y-77559D01*
X201029Y-77418D01*
X200789Y-77291D01*
X200662Y-77234D01*
X200521Y-77192D01*
X200366Y-77178D01*
X200211Y-77164D01*
D02*
G37*
G36*
X200202Y180103D02*
X200146D01*
X200075Y180089D01*
X200005Y180075D01*
X199906Y180047D01*
X199808Y180005D01*
X199695Y179948D01*
X199596Y179878D01*
X199582Y179864D01*
X199554Y179836D01*
X199512Y179779D01*
X199455Y179709D01*
X199385Y179596D01*
X199328Y179469D01*
X199258Y179300D01*
X199201Y179103D01*
Y179088D01*
X199187Y179074D01*
Y179018D01*
X199173Y178962D01*
X199159Y178877D01*
X199145Y178778D01*
X199131Y178666D01*
X199117Y178525D01*
X199089Y178356D01*
X199075Y178186D01*
X199060Y177975D01*
X199046Y177763D01*
X199032Y177510D01*
Y177256D01*
X199018Y176960D01*
Y176650D01*
Y176636D01*
Y176579D01*
Y176481D01*
Y176368D01*
Y176227D01*
X199032Y176072D01*
Y175889D01*
X199046Y175705D01*
X199060Y175310D01*
X199089Y174916D01*
X199103Y174732D01*
X199131Y174563D01*
X199159Y174408D01*
X199187Y174267D01*
X199201Y174239D01*
X199216Y174169D01*
X199258Y174056D01*
X199300Y173929D01*
X199371Y173788D01*
X199441Y173647D01*
X199526Y173520D01*
X199610Y173421D01*
X199624Y173407D01*
X199653Y173393D01*
X199709Y173351D01*
X199779Y173323D01*
X199864Y173281D01*
X199963Y173238D01*
X200075Y173224D01*
X200202Y173210D01*
X200259D01*
X200329Y173224D01*
X200400Y173238D01*
X200498Y173267D01*
X200597Y173295D01*
X200696Y173351D01*
X200794Y173421D01*
X200809Y173436D01*
X200837Y173464D01*
X200893Y173520D01*
X200949Y173605D01*
X201006Y173703D01*
X201076Y173844D01*
X201147Y174000D01*
X201203Y174197D01*
Y174211D01*
X201217Y174225D01*
Y174281D01*
X201231Y174338D01*
X201245Y174422D01*
X201260Y174521D01*
X201288Y174634D01*
X201302Y174775D01*
X201316Y174930D01*
X201344Y175113D01*
X201358Y175310D01*
X201372Y175536D01*
X201387Y175776D01*
Y176044D01*
X201401Y176340D01*
Y176650D01*
Y176664D01*
Y176720D01*
Y176819D01*
Y176932D01*
Y177073D01*
X201387Y177228D01*
Y177411D01*
X201372Y177594D01*
X201358Y177989D01*
X201330Y178370D01*
X201302Y178553D01*
X201274Y178736D01*
X201245Y178891D01*
X201217Y179018D01*
Y179032D01*
X201203Y179046D01*
X201189Y179117D01*
X201147Y179230D01*
X201105Y179370D01*
X201034Y179511D01*
X200964Y179652D01*
X200879Y179779D01*
X200794Y179878D01*
X200780Y179892D01*
X200752Y179920D01*
X200696Y179948D01*
X200625Y179991D01*
X200541Y180033D01*
X200442Y180075D01*
X200329Y180089D01*
X200202Y180103D01*
D02*
G37*
G36*
X192618D02*
X192562D01*
X192491Y180089D01*
X192421Y180075D01*
X192322Y180047D01*
X192223Y180005D01*
X192111Y179948D01*
X192012Y179878D01*
X191998Y179864D01*
X191970Y179836D01*
X191927Y179779D01*
X191871Y179709D01*
X191800Y179596D01*
X191744Y179469D01*
X191674Y179300D01*
X191617Y179103D01*
Y179088D01*
X191603Y179074D01*
Y179018D01*
X191589Y178962D01*
X191575Y178877D01*
X191561Y178778D01*
X191547Y178666D01*
X191533Y178525D01*
X191504Y178356D01*
X191490Y178186D01*
X191476Y177975D01*
X191462Y177763D01*
X191448Y177510D01*
Y177256D01*
X191434Y176960D01*
Y176650D01*
Y176636D01*
Y176579D01*
Y176481D01*
Y176368D01*
Y176227D01*
X191448Y176072D01*
Y175889D01*
X191462Y175705D01*
X191476Y175310D01*
X191504Y174916D01*
X191519Y174732D01*
X191547Y174563D01*
X191575Y174408D01*
X191603Y174267D01*
X191617Y174239D01*
X191631Y174169D01*
X191674Y174056D01*
X191716Y173929D01*
X191786Y173788D01*
X191857Y173647D01*
X191942Y173520D01*
X192026Y173421D01*
X192040Y173407D01*
X192068Y173393D01*
X192125Y173351D01*
X192195Y173323D01*
X192280Y173281D01*
X192379Y173238D01*
X192491Y173224D01*
X192618Y173210D01*
X192675D01*
X192745Y173224D01*
X192815Y173238D01*
X192914Y173267D01*
X193013Y173295D01*
X193111Y173351D01*
X193210Y173421D01*
X193224Y173436D01*
X193253Y173464D01*
X193309Y173520D01*
X193365Y173605D01*
X193422Y173703D01*
X193492Y173844D01*
X193563Y174000D01*
X193619Y174197D01*
Y174211D01*
X193633Y174225D01*
Y174281D01*
X193647Y174338D01*
X193661Y174422D01*
X193675Y174521D01*
X193704Y174634D01*
X193718Y174775D01*
X193732Y174930D01*
X193760Y175113D01*
X193774Y175310D01*
X193788Y175536D01*
X193802Y175776D01*
Y176044D01*
X193816Y176340D01*
Y176650D01*
Y176664D01*
Y176720D01*
Y176819D01*
Y176932D01*
Y177073D01*
X193802Y177228D01*
Y177411D01*
X193788Y177594D01*
X193774Y177989D01*
X193746Y178370D01*
X193718Y178553D01*
X193689Y178736D01*
X193661Y178891D01*
X193633Y179018D01*
Y179032D01*
X193619Y179046D01*
X193605Y179117D01*
X193563Y179230D01*
X193520Y179370D01*
X193450Y179511D01*
X193379Y179652D01*
X193295Y179779D01*
X193210Y179878D01*
X193196Y179892D01*
X193168Y179920D01*
X193111Y179948D01*
X193041Y179991D01*
X192957Y180033D01*
X192858Y180075D01*
X192745Y180089D01*
X192618Y180103D01*
D02*
G37*
%LPD*%
D24*
X-45080Y100759D02*
X-40000Y85519D01*
X-34920Y100759D01*
X-40000Y60519D02*
X-34920Y45279D01*
X-45080D02*
X-40000Y60519D01*
Y85519D02*
Y110919D01*
Y35119D02*
Y60519D01*
X-42540D02*
X66944D01*
X-42540Y85519D02*
X66944D01*
X0Y-80991D02*
X15240Y-75911D01*
X0Y-80991D02*
X15240Y-86071D01*
X363760D02*
X379000Y-80991D01*
X363760Y-75911D02*
X379000Y-80991D01*
X0D02*
X167969D01*
X205951D02*
X379000D01*
X0Y-83531D02*
Y1190D01*
X379000Y-83531D02*
Y1190D01*
X29440Y176819D02*
X44680Y181899D01*
X29440Y176819D02*
X44680Y171739D01*
X334160D02*
X349400Y176819D01*
X334160Y181899D02*
X349400Y176819D01*
X29440D02*
X167883D01*
X205864D02*
X349400D01*
X29440Y66249D02*
Y179359D01*
X349400Y66249D02*
Y179359D01*
X326500Y-20000D02*
X341740Y-14920D01*
X326500Y-20000D02*
X341740Y-25080D01*
X363760D02*
X379000Y-20000D01*
X363760Y-14920D02*
X379000Y-20000D01*
X326500D02*
X334918D01*
X365489D02*
X379000D01*
X326500Y-22540D02*
Y60550D01*
X379000Y-22540D02*
Y1209D01*
X0Y-25111D02*
X15240Y-20031D01*
X0Y-25111D02*
X15240Y-30191D01*
X36260D02*
X51500Y-25111D01*
X36260Y-20031D02*
X51500Y-25111D01*
X0D02*
X7964D01*
X38443D02*
X51500D01*
X0Y-27651D02*
Y1190D01*
X51500Y-27651D02*
Y60519D01*
M02*
