G04*
G04 #@! TF.GenerationSoftware,Altium Limited,Altium Designer,24.7.2 (38)*
G04*
G04 Layer_Color=65535*
%FSLAX44Y44*%
%MOMM*%
G71*
G04*
G04 #@! TF.SameCoordinates,215FB70B-008C-4E37-827B-1868BD4F42A1*
G04*
G04*
G04 #@! TF.FilePolarity,Positive*
G04*
G01*
G75*
G36*
X277308Y9613D02*
X278520D01*
Y7978D01*
X277308D01*
Y6019D01*
X275503D01*
Y7978D01*
X271500D01*
Y9599D01*
X275729Y15816D01*
X277308D01*
Y9613D01*
D02*
G37*
G36*
X267693Y15816D02*
X267820Y15802D01*
X267961Y15788D01*
X268116Y15760D01*
X268286Y15731D01*
X268652Y15633D01*
X269019Y15492D01*
X269216Y15407D01*
X269385Y15309D01*
X269568Y15182D01*
X269723Y15041D01*
X269737Y15027D01*
X269766Y15012D01*
X269794Y14956D01*
X269850Y14900D01*
X269921Y14829D01*
X269991Y14730D01*
X270062Y14632D01*
X270146Y14505D01*
X270287Y14223D01*
X270428Y13899D01*
X270485Y13715D01*
X270513Y13518D01*
X270541Y13307D01*
X270555Y13095D01*
Y13067D01*
Y12982D01*
X270541Y12856D01*
X270527Y12701D01*
X270499Y12503D01*
X270457Y12292D01*
X270400Y12066D01*
X270315Y11841D01*
X270301Y11812D01*
X270273Y11742D01*
X270217Y11615D01*
X270132Y11460D01*
X270033Y11277D01*
X269907Y11065D01*
X269752Y10840D01*
X269568Y10600D01*
X269554Y10586D01*
X269498Y10516D01*
X269413Y10417D01*
X269286Y10276D01*
X269117Y10107D01*
X268906Y9881D01*
X268652Y9642D01*
X268342Y9345D01*
X268328Y9331D01*
X268300Y9317D01*
X268257Y9275D01*
X268201Y9219D01*
X268046Y9078D01*
X267863Y8908D01*
X267679Y8725D01*
X267496Y8542D01*
X267327Y8387D01*
X267271Y8316D01*
X267214Y8260D01*
X267200Y8246D01*
X267172Y8218D01*
X267130Y8161D01*
X267073Y8091D01*
X266946Y7936D01*
X266833Y7753D01*
X270555D01*
Y6019D01*
X264000D01*
Y6033D01*
Y6061D01*
X264014Y6117D01*
X264028Y6188D01*
X264042Y6272D01*
X264056Y6371D01*
X264113Y6625D01*
X264197Y6907D01*
X264310Y7217D01*
X264451Y7555D01*
X264634Y7879D01*
Y7893D01*
X264663Y7922D01*
X264691Y7978D01*
X264747Y8034D01*
X264804Y8133D01*
X264888Y8232D01*
X264987Y8359D01*
X265100Y8500D01*
X265226Y8669D01*
X265382Y8838D01*
X265551Y9035D01*
X265748Y9247D01*
X265959Y9458D01*
X266199Y9698D01*
X266453Y9952D01*
X266735Y10220D01*
X266749Y10234D01*
X266791Y10276D01*
X266848Y10332D01*
X266932Y10417D01*
X267045Y10501D01*
X267158Y10614D01*
X267411Y10868D01*
X267665Y11136D01*
X267919Y11404D01*
X268032Y11516D01*
X268144Y11643D01*
X268229Y11742D01*
X268286Y11826D01*
X268300Y11855D01*
X268342Y11925D01*
X268412Y12038D01*
X268483Y12193D01*
X268553Y12362D01*
X268624Y12560D01*
X268666Y12757D01*
X268680Y12968D01*
Y12982D01*
Y12997D01*
Y13067D01*
X268666Y13194D01*
X268638Y13335D01*
X268596Y13490D01*
X268539Y13645D01*
X268455Y13800D01*
X268342Y13941D01*
X268328Y13955D01*
X268286Y13997D01*
X268201Y14054D01*
X268102Y14110D01*
X267961Y14167D01*
X267806Y14223D01*
X267623Y14265D01*
X267411Y14279D01*
X267313D01*
X267200Y14265D01*
X267073Y14237D01*
X266918Y14195D01*
X266763Y14124D01*
X266608Y14040D01*
X266467Y13927D01*
X266453Y13913D01*
X266411Y13857D01*
X266354Y13772D01*
X266298Y13645D01*
X266227Y13490D01*
X266171Y13278D01*
X266115Y13039D01*
X266086Y12757D01*
X264226Y12940D01*
Y12954D01*
X264240Y13011D01*
Y13081D01*
X264268Y13194D01*
X264282Y13321D01*
X264324Y13462D01*
X264367Y13617D01*
X264409Y13800D01*
X264550Y14152D01*
X264719Y14519D01*
X264832Y14702D01*
X264959Y14871D01*
X265100Y15012D01*
X265255Y15153D01*
X265269Y15167D01*
X265297Y15182D01*
X265339Y15210D01*
X265410Y15266D01*
X265494Y15309D01*
X265607Y15365D01*
X265720Y15435D01*
X265861Y15492D01*
X266016Y15562D01*
X266185Y15619D01*
X266552Y15731D01*
X266989Y15802D01*
X267214Y15816D01*
X267454Y15830D01*
X267595D01*
X267693Y15816D01*
D02*
G37*
G36*
X113286Y6019D02*
X111411D01*
Y13081D01*
X111397Y13067D01*
X111368Y13039D01*
X111312Y12997D01*
X111227Y12926D01*
X111129Y12842D01*
X111016Y12757D01*
X110875Y12658D01*
X110720Y12545D01*
X110551Y12433D01*
X110367Y12320D01*
X110170Y12193D01*
X109959Y12080D01*
X109508Y11869D01*
X109000Y11672D01*
Y13363D01*
X109014D01*
X109028Y13377D01*
X109071Y13391D01*
X109127Y13405D01*
X109268Y13476D01*
X109465Y13561D01*
X109705Y13673D01*
X109973Y13828D01*
X110269Y14026D01*
X110579Y14251D01*
X110593Y14265D01*
X110621Y14279D01*
X110663Y14322D01*
X110720Y14378D01*
X110875Y14519D01*
X111044Y14702D01*
X111241Y14928D01*
X111439Y15210D01*
X111622Y15506D01*
X111763Y15830D01*
X113286D01*
Y6019D01*
D02*
G37*
G36*
X365575Y89999D02*
X365701Y89985D01*
X365828Y89971D01*
X365983Y89943D01*
X366138Y89901D01*
X366491Y89802D01*
X366674Y89732D01*
X366872Y89633D01*
X367055Y89534D01*
X367224Y89422D01*
X367407Y89281D01*
X367562Y89125D01*
X367576Y89111D01*
X367590Y89097D01*
X367633Y89055D01*
X367675Y88999D01*
X367788Y88858D01*
X367915Y88660D01*
X368042Y88421D01*
X368140Y88139D01*
X368225Y87829D01*
X368239Y87673D01*
X368253Y87504D01*
Y87490D01*
Y87448D01*
X368239Y87377D01*
X368225Y87293D01*
X368211Y87180D01*
X368183Y87053D01*
X368140Y86912D01*
X368084Y86757D01*
X367999Y86602D01*
X367915Y86433D01*
X367802Y86264D01*
X367661Y86095D01*
X367492Y85925D01*
X367309Y85756D01*
X367097Y85601D01*
X366843Y85446D01*
X366857D01*
X366886Y85432D01*
X366928D01*
X366984Y85404D01*
X367139Y85361D01*
X367323Y85277D01*
X367534Y85164D01*
X367760Y85023D01*
X367985Y84840D01*
X368183Y84628D01*
X368211Y84600D01*
X368267Y84516D01*
X368338Y84389D01*
X368436Y84206D01*
X368535Y83994D01*
X368605Y83726D01*
X368662Y83444D01*
X368690Y83120D01*
Y83106D01*
Y83064D01*
Y82993D01*
X368676Y82909D01*
X368662Y82796D01*
X368634Y82669D01*
X368605Y82514D01*
X368577Y82359D01*
X368465Y82021D01*
X368380Y81837D01*
X368295Y81640D01*
X368183Y81457D01*
X368056Y81273D01*
X367915Y81090D01*
X367746Y80921D01*
X367732Y80907D01*
X367703Y80879D01*
X367647Y80836D01*
X367576Y80780D01*
X367478Y80709D01*
X367379Y80639D01*
X367238Y80554D01*
X367097Y80470D01*
X366942Y80385D01*
X366759Y80301D01*
X366561Y80230D01*
X366364Y80160D01*
X366138Y80103D01*
X365913Y80061D01*
X365659Y80033D01*
X365406Y80019D01*
X365279D01*
X365180Y80033D01*
X365067Y80047D01*
X364940Y80061D01*
X364799Y80089D01*
X364630Y80117D01*
X364292Y80202D01*
X363925Y80343D01*
X363728Y80428D01*
X363559Y80526D01*
X363376Y80653D01*
X363206Y80780D01*
X363192Y80794D01*
X363164Y80822D01*
X363122Y80865D01*
X363065Y80921D01*
X362995Y80991D01*
X362924Y81090D01*
X362840Y81189D01*
X362755Y81316D01*
X362671Y81457D01*
X362572Y81598D01*
X362417Y81936D01*
X362290Y82331D01*
X362234Y82542D01*
X362205Y82768D01*
X364010Y82993D01*
Y82979D01*
Y82965D01*
X364024Y82880D01*
X364052Y82754D01*
X364094Y82598D01*
X364165Y82429D01*
X364235Y82246D01*
X364348Y82077D01*
X364475Y81922D01*
X364489Y81908D01*
X364546Y81866D01*
X364630Y81809D01*
X364729Y81753D01*
X364870Y81682D01*
X365025Y81626D01*
X365194Y81583D01*
X365391Y81569D01*
X365420D01*
X365490Y81583D01*
X365589Y81598D01*
X365730Y81626D01*
X365885Y81682D01*
X366040Y81753D01*
X366209Y81866D01*
X366364Y82006D01*
X366378Y82021D01*
X366435Y82091D01*
X366491Y82190D01*
X366576Y82317D01*
X366646Y82486D01*
X366716Y82697D01*
X366759Y82937D01*
X366773Y83205D01*
Y83219D01*
Y83233D01*
Y83317D01*
X366759Y83444D01*
X366731Y83614D01*
X366674Y83797D01*
X366604Y83980D01*
X366505Y84163D01*
X366378Y84332D01*
X366364Y84347D01*
X366308Y84403D01*
X366223Y84473D01*
X366124Y84544D01*
X365983Y84628D01*
X365828Y84685D01*
X365659Y84741D01*
X365462Y84755D01*
X365321D01*
X365222Y84741D01*
X365095Y84727D01*
X364940Y84699D01*
X364785Y84657D01*
X364602Y84614D01*
X364799Y86123D01*
X364926D01*
X365067Y86137D01*
X365236Y86151D01*
X365420Y86193D01*
X365617Y86250D01*
X365800Y86334D01*
X365969Y86447D01*
X365983Y86461D01*
X366040Y86517D01*
X366096Y86588D01*
X366181Y86701D01*
X366251Y86828D01*
X366322Y86983D01*
X366364Y87166D01*
X366378Y87377D01*
Y87406D01*
Y87462D01*
X366364Y87547D01*
X366336Y87659D01*
X366308Y87786D01*
X366251Y87913D01*
X366181Y88054D01*
X366082Y88167D01*
X366068Y88181D01*
X366026Y88209D01*
X365969Y88265D01*
X365871Y88322D01*
X365758Y88364D01*
X365631Y88421D01*
X365462Y88449D01*
X365293Y88463D01*
X365208D01*
X365123Y88449D01*
X365011Y88421D01*
X364884Y88378D01*
X364743Y88322D01*
X364602Y88237D01*
X364475Y88125D01*
X364461Y88110D01*
X364419Y88068D01*
X364362Y87984D01*
X364292Y87871D01*
X364221Y87744D01*
X364165Y87575D01*
X364109Y87377D01*
X364066Y87152D01*
X362346Y87434D01*
Y87448D01*
X362360Y87476D01*
Y87518D01*
X362375Y87589D01*
X362417Y87744D01*
X362473Y87955D01*
X362558Y88181D01*
X362643Y88421D01*
X362755Y88646D01*
X362882Y88858D01*
X362896Y88886D01*
X362953Y88942D01*
X363037Y89041D01*
X363150Y89168D01*
X363291Y89295D01*
X363460Y89436D01*
X363671Y89577D01*
X363897Y89703D01*
X363911D01*
X363925Y89718D01*
X364010Y89746D01*
X364151Y89802D01*
X364320Y89859D01*
X364532Y89915D01*
X364785Y89971D01*
X365053Y89999D01*
X365349Y90014D01*
X365476D01*
X365575Y89999D01*
D02*
G37*
G36*
X358145D02*
X358272Y89985D01*
X358413Y89971D01*
X358568Y89943D01*
X358738Y89915D01*
X359104Y89816D01*
X359471Y89675D01*
X359668Y89591D01*
X359837Y89492D01*
X360020Y89365D01*
X360176Y89224D01*
X360190Y89210D01*
X360218Y89196D01*
X360246Y89139D01*
X360302Y89083D01*
X360373Y89013D01*
X360443Y88914D01*
X360514Y88815D01*
X360598Y88688D01*
X360739Y88406D01*
X360880Y88082D01*
X360937Y87899D01*
X360965Y87702D01*
X360993Y87490D01*
X361007Y87279D01*
Y87250D01*
Y87166D01*
X360993Y87039D01*
X360979Y86884D01*
X360951Y86687D01*
X360909Y86475D01*
X360852Y86250D01*
X360768Y86024D01*
X360754Y85996D01*
X360725Y85925D01*
X360669Y85799D01*
X360584Y85644D01*
X360486Y85460D01*
X360359Y85249D01*
X360204Y85023D01*
X360020Y84783D01*
X360006Y84769D01*
X359950Y84699D01*
X359865Y84600D01*
X359739Y84459D01*
X359569Y84290D01*
X359358Y84065D01*
X359104Y83825D01*
X358794Y83529D01*
X358780Y83515D01*
X358752Y83501D01*
X358709Y83458D01*
X358653Y83402D01*
X358498Y83261D01*
X358315Y83092D01*
X358131Y82909D01*
X357948Y82725D01*
X357779Y82570D01*
X357723Y82500D01*
X357666Y82443D01*
X357652Y82429D01*
X357624Y82401D01*
X357582Y82345D01*
X357525Y82274D01*
X357398Y82119D01*
X357286Y81936D01*
X361007D01*
Y80202D01*
X354452D01*
Y80216D01*
Y80244D01*
X354466Y80301D01*
X354480Y80371D01*
X354494Y80456D01*
X354509Y80554D01*
X354565Y80808D01*
X354650Y81090D01*
X354762Y81400D01*
X354903Y81739D01*
X355087Y82063D01*
Y82077D01*
X355115Y82105D01*
X355143Y82162D01*
X355199Y82218D01*
X355256Y82317D01*
X355340Y82415D01*
X355439Y82542D01*
X355552Y82683D01*
X355678Y82852D01*
X355834Y83021D01*
X356003Y83219D01*
X356200Y83430D01*
X356412Y83642D01*
X356651Y83881D01*
X356905Y84135D01*
X357187Y84403D01*
X357201Y84417D01*
X357243Y84459D01*
X357300Y84516D01*
X357384Y84600D01*
X357497Y84685D01*
X357610Y84798D01*
X357864Y85051D01*
X358117Y85319D01*
X358371Y85587D01*
X358484Y85700D01*
X358597Y85827D01*
X358681Y85925D01*
X358738Y86010D01*
X358752Y86038D01*
X358794Y86109D01*
X358865Y86221D01*
X358935Y86376D01*
X359005Y86546D01*
X359076Y86743D01*
X359118Y86940D01*
X359132Y87152D01*
Y87166D01*
Y87180D01*
Y87250D01*
X359118Y87377D01*
X359090Y87518D01*
X359048Y87673D01*
X358991Y87829D01*
X358907Y87984D01*
X358794Y88125D01*
X358780Y88139D01*
X358738Y88181D01*
X358653Y88237D01*
X358554Y88294D01*
X358413Y88350D01*
X358258Y88406D01*
X358075Y88449D01*
X357864Y88463D01*
X357765D01*
X357652Y88449D01*
X357525Y88421D01*
X357370Y88378D01*
X357215Y88308D01*
X357060Y88223D01*
X356919Y88110D01*
X356905Y88096D01*
X356863Y88040D01*
X356806Y87955D01*
X356750Y87829D01*
X356679Y87673D01*
X356623Y87462D01*
X356567Y87222D01*
X356539Y86940D01*
X354678Y87124D01*
Y87138D01*
X354692Y87194D01*
Y87265D01*
X354720Y87377D01*
X354734Y87504D01*
X354776Y87645D01*
X354819Y87800D01*
X354861Y87984D01*
X355002Y88336D01*
X355171Y88702D01*
X355284Y88886D01*
X355411Y89055D01*
X355552Y89196D01*
X355707Y89337D01*
X355721Y89351D01*
X355749Y89365D01*
X355791Y89393D01*
X355862Y89450D01*
X355946Y89492D01*
X356059Y89548D01*
X356172Y89619D01*
X356313Y89675D01*
X356468Y89746D01*
X356637Y89802D01*
X357004Y89915D01*
X357441Y89985D01*
X357666Y89999D01*
X357906Y90014D01*
X358047D01*
X358145Y89999D01*
D02*
G37*
G36*
X349772Y89943D02*
X350138D01*
X350533Y89915D01*
X350928Y89887D01*
X351097Y89873D01*
X351266Y89859D01*
X351407Y89830D01*
X351520Y89802D01*
X351534D01*
X351562Y89788D01*
X351604Y89774D01*
X351661Y89760D01*
X351816Y89689D01*
X352013Y89605D01*
X352225Y89478D01*
X352464Y89309D01*
X352690Y89097D01*
X352915Y88843D01*
Y88829D01*
X352944Y88815D01*
X352972Y88773D01*
X353000Y88717D01*
X353056Y88632D01*
X353099Y88547D01*
X353155Y88449D01*
X353212Y88336D01*
X353310Y88054D01*
X353409Y87744D01*
X353465Y87363D01*
X353493Y86954D01*
Y86940D01*
Y86912D01*
Y86870D01*
Y86799D01*
X353479Y86729D01*
Y86630D01*
X353451Y86433D01*
X353409Y86193D01*
X353353Y85925D01*
X353268Y85672D01*
X353155Y85432D01*
X353141Y85404D01*
X353099Y85333D01*
X353028Y85221D01*
X352930Y85080D01*
X352817Y84939D01*
X352662Y84769D01*
X352507Y84614D01*
X352323Y84473D01*
X352295Y84459D01*
X352239Y84417D01*
X352140Y84361D01*
X352013Y84290D01*
X351858Y84206D01*
X351689Y84135D01*
X351506Y84065D01*
X351309Y84008D01*
X351280D01*
X351238Y83994D01*
X351182D01*
X351111Y83980D01*
X351012Y83966D01*
X350914Y83952D01*
X350787D01*
X350660Y83938D01*
X350505Y83924D01*
X350336Y83910D01*
X350153Y83895D01*
X349955D01*
X349744Y83881D01*
X347996D01*
Y80202D01*
X346022D01*
Y89957D01*
X349617D01*
X349772Y89943D01*
D02*
G37*
G36*
X344739Y88308D02*
X341864D01*
Y80202D01*
X339890D01*
Y88308D01*
X337000D01*
Y89957D01*
X344739D01*
Y88308D01*
D02*
G37*
G36*
X367760Y59595D02*
X368972D01*
Y57959D01*
X367760D01*
Y56000D01*
X365955D01*
Y57959D01*
X361952D01*
Y59581D01*
X366181Y65797D01*
X367760D01*
Y59595D01*
D02*
G37*
G36*
X358145Y65797D02*
X358272Y65783D01*
X358413Y65769D01*
X358568Y65741D01*
X358738Y65713D01*
X359104Y65614D01*
X359471Y65473D01*
X359668Y65389D01*
X359837Y65290D01*
X360020Y65163D01*
X360176Y65022D01*
X360190Y65008D01*
X360218Y64994D01*
X360246Y64938D01*
X360302Y64881D01*
X360373Y64811D01*
X360443Y64712D01*
X360514Y64613D01*
X360598Y64486D01*
X360739Y64204D01*
X360880Y63880D01*
X360937Y63697D01*
X360965Y63500D01*
X360993Y63288D01*
X361007Y63077D01*
Y63049D01*
Y62964D01*
X360993Y62837D01*
X360979Y62682D01*
X360951Y62485D01*
X360909Y62273D01*
X360852Y62048D01*
X360768Y61822D01*
X360754Y61794D01*
X360725Y61723D01*
X360669Y61596D01*
X360584Y61441D01*
X360486Y61258D01*
X360359Y61047D01*
X360204Y60821D01*
X360020Y60581D01*
X360006Y60567D01*
X359950Y60497D01*
X359865Y60398D01*
X359739Y60257D01*
X359569Y60088D01*
X359358Y59863D01*
X359104Y59623D01*
X358794Y59327D01*
X358780Y59313D01*
X358752Y59299D01*
X358709Y59256D01*
X358653Y59200D01*
X358498Y59059D01*
X358315Y58890D01*
X358131Y58707D01*
X357948Y58523D01*
X357779Y58368D01*
X357723Y58298D01*
X357666Y58241D01*
X357652Y58227D01*
X357624Y58199D01*
X357582Y58143D01*
X357525Y58072D01*
X357398Y57917D01*
X357286Y57734D01*
X361007D01*
Y56000D01*
X354452D01*
Y56014D01*
Y56042D01*
X354466Y56099D01*
X354480Y56169D01*
X354494Y56254D01*
X354509Y56352D01*
X354565Y56606D01*
X354650Y56888D01*
X354762Y57198D01*
X354903Y57537D01*
X355087Y57861D01*
Y57875D01*
X355115Y57903D01*
X355143Y57959D01*
X355199Y58016D01*
X355256Y58115D01*
X355340Y58213D01*
X355439Y58340D01*
X355552Y58481D01*
X355678Y58650D01*
X355834Y58819D01*
X356003Y59017D01*
X356200Y59228D01*
X356412Y59440D01*
X356651Y59679D01*
X356905Y59933D01*
X357187Y60201D01*
X357201Y60215D01*
X357243Y60257D01*
X357300Y60314D01*
X357384Y60398D01*
X357497Y60483D01*
X357610Y60596D01*
X357864Y60849D01*
X358117Y61117D01*
X358371Y61385D01*
X358484Y61498D01*
X358597Y61625D01*
X358681Y61723D01*
X358738Y61808D01*
X358752Y61836D01*
X358794Y61907D01*
X358865Y62019D01*
X358935Y62175D01*
X359005Y62344D01*
X359076Y62541D01*
X359118Y62738D01*
X359132Y62950D01*
Y62964D01*
Y62978D01*
Y63049D01*
X359118Y63175D01*
X359090Y63316D01*
X359048Y63471D01*
X358991Y63626D01*
X358907Y63781D01*
X358794Y63923D01*
X358780Y63937D01*
X358738Y63979D01*
X358653Y64035D01*
X358554Y64092D01*
X358413Y64148D01*
X358258Y64204D01*
X358075Y64247D01*
X357864Y64261D01*
X357765D01*
X357652Y64247D01*
X357525Y64219D01*
X357370Y64176D01*
X357215Y64106D01*
X357060Y64021D01*
X356919Y63908D01*
X356905Y63894D01*
X356863Y63838D01*
X356806Y63753D01*
X356750Y63626D01*
X356679Y63471D01*
X356623Y63260D01*
X356567Y63020D01*
X356539Y62738D01*
X354678Y62922D01*
Y62936D01*
X354692Y62992D01*
Y63063D01*
X354720Y63175D01*
X354734Y63302D01*
X354776Y63443D01*
X354819Y63598D01*
X354861Y63781D01*
X355002Y64134D01*
X355171Y64500D01*
X355284Y64684D01*
X355411Y64853D01*
X355552Y64994D01*
X355707Y65135D01*
X355721Y65149D01*
X355749Y65163D01*
X355791Y65191D01*
X355862Y65248D01*
X355946Y65290D01*
X356059Y65346D01*
X356172Y65417D01*
X356313Y65473D01*
X356468Y65544D01*
X356637Y65600D01*
X357004Y65713D01*
X357441Y65783D01*
X357666Y65797D01*
X357906Y65812D01*
X358047D01*
X358145Y65797D01*
D02*
G37*
G36*
X349772Y65741D02*
X350138D01*
X350533Y65713D01*
X350928Y65685D01*
X351097Y65670D01*
X351266Y65656D01*
X351407Y65628D01*
X351520Y65600D01*
X351534D01*
X351562Y65586D01*
X351604Y65572D01*
X351661Y65558D01*
X351816Y65487D01*
X352013Y65403D01*
X352225Y65276D01*
X352464Y65107D01*
X352690Y64895D01*
X352915Y64641D01*
Y64627D01*
X352944Y64613D01*
X352972Y64571D01*
X353000Y64515D01*
X353056Y64430D01*
X353099Y64345D01*
X353155Y64247D01*
X353212Y64134D01*
X353310Y63852D01*
X353409Y63542D01*
X353465Y63161D01*
X353493Y62752D01*
Y62738D01*
Y62710D01*
Y62668D01*
Y62597D01*
X353479Y62527D01*
Y62428D01*
X353451Y62231D01*
X353409Y61991D01*
X353353Y61723D01*
X353268Y61470D01*
X353155Y61230D01*
X353141Y61202D01*
X353099Y61131D01*
X353028Y61019D01*
X352930Y60878D01*
X352817Y60737D01*
X352662Y60567D01*
X352507Y60412D01*
X352323Y60271D01*
X352295Y60257D01*
X352239Y60215D01*
X352140Y60159D01*
X352013Y60088D01*
X351858Y60003D01*
X351689Y59933D01*
X351506Y59863D01*
X351309Y59806D01*
X351280D01*
X351238Y59792D01*
X351182D01*
X351111Y59778D01*
X351012Y59764D01*
X350914Y59750D01*
X350787D01*
X350660Y59736D01*
X350505Y59722D01*
X350336Y59707D01*
X350153Y59693D01*
X349955D01*
X349744Y59679D01*
X347996D01*
Y56000D01*
X346022D01*
Y65755D01*
X349617D01*
X349772Y65741D01*
D02*
G37*
G36*
X344739Y64106D02*
X341864D01*
Y56000D01*
X339890D01*
Y64106D01*
X337000D01*
Y65755D01*
X344739D01*
Y64106D01*
D02*
G37*
G36*
X38145Y66797D02*
X38272Y66783D01*
X38413Y66769D01*
X38568Y66741D01*
X38738Y66713D01*
X39104Y66614D01*
X39471Y66473D01*
X39668Y66389D01*
X39837Y66290D01*
X40020Y66163D01*
X40175Y66022D01*
X40190Y66008D01*
X40218Y65994D01*
X40246Y65938D01*
X40302Y65881D01*
X40373Y65811D01*
X40443Y65712D01*
X40514Y65613D01*
X40598Y65486D01*
X40739Y65204D01*
X40880Y64880D01*
X40937Y64697D01*
X40965Y64500D01*
X40993Y64288D01*
X41007Y64077D01*
Y64049D01*
Y63964D01*
X40993Y63837D01*
X40979Y63682D01*
X40951Y63485D01*
X40908Y63273D01*
X40852Y63048D01*
X40767Y62822D01*
X40753Y62794D01*
X40725Y62723D01*
X40669Y62597D01*
X40584Y62441D01*
X40486Y62258D01*
X40359Y62047D01*
X40204Y61821D01*
X40020Y61582D01*
X40006Y61567D01*
X39950Y61497D01*
X39865Y61398D01*
X39739Y61257D01*
X39569Y61088D01*
X39358Y60863D01*
X39104Y60623D01*
X38794Y60327D01*
X38780Y60313D01*
X38752Y60299D01*
X38709Y60256D01*
X38653Y60200D01*
X38498Y60059D01*
X38315Y59890D01*
X38131Y59707D01*
X37948Y59523D01*
X37779Y59368D01*
X37723Y59298D01*
X37666Y59241D01*
X37652Y59227D01*
X37624Y59199D01*
X37582Y59143D01*
X37525Y59072D01*
X37398Y58917D01*
X37286Y58734D01*
X41007D01*
Y57000D01*
X34452D01*
Y57014D01*
Y57042D01*
X34466Y57099D01*
X34480Y57169D01*
X34494Y57254D01*
X34509Y57352D01*
X34565Y57606D01*
X34649Y57888D01*
X34762Y58198D01*
X34903Y58537D01*
X35086Y58861D01*
Y58875D01*
X35115Y58903D01*
X35143Y58959D01*
X35199Y59016D01*
X35256Y59114D01*
X35340Y59213D01*
X35439Y59340D01*
X35552Y59481D01*
X35679Y59650D01*
X35834Y59819D01*
X36003Y60017D01*
X36200Y60228D01*
X36412Y60440D01*
X36651Y60679D01*
X36905Y60933D01*
X37187Y61201D01*
X37201Y61215D01*
X37243Y61257D01*
X37300Y61314D01*
X37384Y61398D01*
X37497Y61483D01*
X37610Y61596D01*
X37864Y61849D01*
X38117Y62117D01*
X38371Y62385D01*
X38484Y62498D01*
X38597Y62625D01*
X38681Y62723D01*
X38738Y62808D01*
X38752Y62836D01*
X38794Y62907D01*
X38864Y63019D01*
X38935Y63175D01*
X39005Y63344D01*
X39076Y63541D01*
X39118Y63738D01*
X39132Y63950D01*
Y63964D01*
Y63978D01*
Y64049D01*
X39118Y64175D01*
X39090Y64316D01*
X39048Y64471D01*
X38991Y64626D01*
X38907Y64781D01*
X38794Y64922D01*
X38780Y64937D01*
X38738Y64979D01*
X38653Y65035D01*
X38554Y65092D01*
X38413Y65148D01*
X38258Y65204D01*
X38075Y65247D01*
X37864Y65261D01*
X37765D01*
X37652Y65247D01*
X37525Y65219D01*
X37370Y65176D01*
X37215Y65106D01*
X37060Y65021D01*
X36919Y64908D01*
X36905Y64894D01*
X36863Y64838D01*
X36806Y64753D01*
X36750Y64626D01*
X36679Y64471D01*
X36623Y64260D01*
X36567Y64020D01*
X36538Y63738D01*
X34678Y63922D01*
Y63936D01*
X34692Y63992D01*
Y64063D01*
X34720Y64175D01*
X34734Y64302D01*
X34776Y64443D01*
X34819Y64598D01*
X34861Y64781D01*
X35002Y65134D01*
X35171Y65500D01*
X35284Y65684D01*
X35411Y65853D01*
X35552Y65994D01*
X35707Y66135D01*
X35721Y66149D01*
X35749Y66163D01*
X35791Y66191D01*
X35862Y66248D01*
X35946Y66290D01*
X36059Y66346D01*
X36172Y66417D01*
X36313Y66473D01*
X36468Y66544D01*
X36637Y66600D01*
X37004Y66713D01*
X37441Y66783D01*
X37666Y66797D01*
X37906Y66811D01*
X38047D01*
X38145Y66797D01*
D02*
G37*
G36*
X29772Y66741D02*
X30138D01*
X30533Y66713D01*
X30928Y66685D01*
X31097Y66670D01*
X31266Y66656D01*
X31407Y66628D01*
X31520Y66600D01*
X31534D01*
X31562Y66586D01*
X31604Y66572D01*
X31661Y66558D01*
X31816Y66487D01*
X32013Y66403D01*
X32225Y66276D01*
X32464Y66107D01*
X32690Y65895D01*
X32915Y65641D01*
Y65627D01*
X32944Y65613D01*
X32972Y65571D01*
X33000Y65515D01*
X33056Y65430D01*
X33099Y65345D01*
X33155Y65247D01*
X33212Y65134D01*
X33310Y64852D01*
X33409Y64542D01*
X33465Y64161D01*
X33493Y63752D01*
Y63738D01*
Y63710D01*
Y63668D01*
Y63597D01*
X33479Y63527D01*
Y63428D01*
X33451Y63231D01*
X33409Y62991D01*
X33352Y62723D01*
X33268Y62470D01*
X33155Y62230D01*
X33141Y62202D01*
X33099Y62131D01*
X33028Y62018D01*
X32930Y61877D01*
X32817Y61737D01*
X32662Y61567D01*
X32507Y61412D01*
X32323Y61271D01*
X32295Y61257D01*
X32239Y61215D01*
X32140Y61159D01*
X32013Y61088D01*
X31858Y61003D01*
X31689Y60933D01*
X31506Y60863D01*
X31308Y60806D01*
X31280D01*
X31238Y60792D01*
X31182D01*
X31111Y60778D01*
X31012Y60764D01*
X30914Y60750D01*
X30787D01*
X30660Y60736D01*
X30505Y60722D01*
X30336Y60708D01*
X30152Y60693D01*
X29955D01*
X29744Y60679D01*
X27996D01*
Y57000D01*
X26022D01*
Y66755D01*
X29617D01*
X29772Y66741D01*
D02*
G37*
G36*
X24739Y65106D02*
X21864D01*
Y57000D01*
X19890D01*
Y65106D01*
X17000D01*
Y66755D01*
X24739D01*
Y65106D01*
D02*
G37*
G36*
X39471Y81019D02*
X37596D01*
Y88081D01*
X37582Y88067D01*
X37553Y88039D01*
X37497Y87997D01*
X37413Y87926D01*
X37314Y87842D01*
X37201Y87757D01*
X37060Y87658D01*
X36905Y87546D01*
X36736Y87433D01*
X36553Y87320D01*
X36355Y87193D01*
X36144Y87080D01*
X35693Y86869D01*
X35185Y86672D01*
Y88363D01*
X35199D01*
X35213Y88377D01*
X35256Y88392D01*
X35312Y88406D01*
X35453Y88476D01*
X35650Y88561D01*
X35890Y88673D01*
X36158Y88828D01*
X36454Y89026D01*
X36764Y89251D01*
X36778Y89265D01*
X36806Y89280D01*
X36849Y89322D01*
X36905Y89378D01*
X37060Y89519D01*
X37229Y89703D01*
X37427Y89928D01*
X37624Y90210D01*
X37807Y90506D01*
X37948Y90830D01*
X39471D01*
Y81019D01*
D02*
G37*
G36*
X29772Y90760D02*
X30138D01*
X30533Y90732D01*
X30928Y90703D01*
X31097Y90689D01*
X31266Y90675D01*
X31407Y90647D01*
X31520Y90619D01*
X31534D01*
X31562Y90605D01*
X31604Y90591D01*
X31661Y90576D01*
X31816Y90506D01*
X32013Y90421D01*
X32225Y90295D01*
X32464Y90125D01*
X32690Y89914D01*
X32915Y89660D01*
Y89646D01*
X32944Y89632D01*
X32972Y89590D01*
X33000Y89533D01*
X33056Y89449D01*
X33099Y89364D01*
X33155Y89265D01*
X33212Y89153D01*
X33310Y88871D01*
X33409Y88561D01*
X33465Y88180D01*
X33493Y87771D01*
Y87757D01*
Y87729D01*
Y87687D01*
Y87616D01*
X33479Y87546D01*
Y87447D01*
X33451Y87250D01*
X33409Y87010D01*
X33352Y86742D01*
X33268Y86488D01*
X33155Y86249D01*
X33141Y86221D01*
X33099Y86150D01*
X33028Y86037D01*
X32930Y85896D01*
X32817Y85755D01*
X32662Y85586D01*
X32507Y85431D01*
X32324Y85290D01*
X32295Y85276D01*
X32239Y85234D01*
X32140Y85177D01*
X32013Y85107D01*
X31858Y85022D01*
X31689Y84952D01*
X31506Y84881D01*
X31309Y84825D01*
X31280D01*
X31238Y84811D01*
X31182D01*
X31111Y84797D01*
X31012Y84783D01*
X30914Y84769D01*
X30787D01*
X30660Y84754D01*
X30505Y84740D01*
X30336Y84726D01*
X30152Y84712D01*
X29955D01*
X29744Y84698D01*
X27996D01*
Y81019D01*
X26022D01*
Y90774D01*
X29617D01*
X29772Y90760D01*
D02*
G37*
G36*
X24739Y89124D02*
X21864D01*
Y81019D01*
X19890D01*
Y89124D01*
X17000D01*
Y90774D01*
X24739D01*
Y89124D01*
D02*
G37*
%LPC*%
G36*
X275503Y12968D02*
X273234Y9613D01*
X275503D01*
Y12968D01*
D02*
G37*
G36*
X349462Y88308D02*
X347996D01*
Y85531D01*
X349349D01*
X349448Y85545D01*
X349701D01*
X349955Y85559D01*
X350209Y85587D01*
X350434Y85629D01*
X350533Y85644D01*
X350618Y85672D01*
X350632Y85686D01*
X350688Y85700D01*
X350759Y85742D01*
X350843Y85784D01*
X350942Y85855D01*
X351041Y85940D01*
X351153Y86038D01*
X351238Y86151D01*
X351252Y86165D01*
X351280Y86207D01*
X351309Y86278D01*
X351351Y86376D01*
X351393Y86489D01*
X351435Y86616D01*
X351449Y86757D01*
X351464Y86912D01*
Y86940D01*
Y86997D01*
X351449Y87095D01*
X351421Y87222D01*
X351379Y87363D01*
X351323Y87518D01*
X351252Y87659D01*
X351139Y87800D01*
X351125Y87814D01*
X351083Y87857D01*
X351012Y87913D01*
X350928Y87984D01*
X350815Y88068D01*
X350674Y88139D01*
X350519Y88195D01*
X350350Y88237D01*
X350336D01*
X350279Y88251D01*
X350181Y88265D01*
X350040Y88280D01*
X349856D01*
X349730Y88294D01*
X349603D01*
X349462Y88308D01*
D02*
G37*
G36*
X365955Y62950D02*
X363686Y59595D01*
X365955D01*
Y62950D01*
D02*
G37*
G36*
X349462Y64106D02*
X347996D01*
Y61329D01*
X349349D01*
X349448Y61343D01*
X349701D01*
X349955Y61357D01*
X350209Y61385D01*
X350434Y61427D01*
X350533Y61441D01*
X350618Y61470D01*
X350632Y61484D01*
X350688Y61498D01*
X350759Y61540D01*
X350843Y61582D01*
X350942Y61653D01*
X351041Y61737D01*
X351153Y61836D01*
X351238Y61949D01*
X351252Y61963D01*
X351280Y62005D01*
X351309Y62076D01*
X351351Y62175D01*
X351393Y62287D01*
X351435Y62414D01*
X351449Y62555D01*
X351464Y62710D01*
Y62738D01*
Y62795D01*
X351449Y62893D01*
X351421Y63020D01*
X351379Y63161D01*
X351323Y63316D01*
X351252Y63457D01*
X351139Y63598D01*
X351125Y63612D01*
X351083Y63655D01*
X351012Y63711D01*
X350928Y63781D01*
X350815Y63866D01*
X350674Y63937D01*
X350519Y63993D01*
X350350Y64035D01*
X350336D01*
X350279Y64049D01*
X350181Y64064D01*
X350040Y64078D01*
X349856D01*
X349730Y64092D01*
X349603D01*
X349462Y64106D01*
D02*
G37*
G36*
X29462Y65106D02*
X27996D01*
Y62329D01*
X29349D01*
X29448Y62343D01*
X29701D01*
X29955Y62357D01*
X30209Y62385D01*
X30434Y62427D01*
X30533Y62441D01*
X30618Y62470D01*
X30632Y62484D01*
X30688Y62498D01*
X30759Y62540D01*
X30843Y62582D01*
X30942Y62653D01*
X31041Y62737D01*
X31153Y62836D01*
X31238Y62949D01*
X31252Y62963D01*
X31280Y63005D01*
X31308Y63076D01*
X31351Y63175D01*
X31393Y63287D01*
X31435Y63414D01*
X31449Y63555D01*
X31463Y63710D01*
Y63738D01*
Y63795D01*
X31449Y63893D01*
X31421Y64020D01*
X31379Y64161D01*
X31323Y64316D01*
X31252Y64457D01*
X31139Y64598D01*
X31125Y64612D01*
X31083Y64655D01*
X31012Y64711D01*
X30928Y64781D01*
X30815Y64866D01*
X30674Y64937D01*
X30519Y64993D01*
X30350Y65035D01*
X30336D01*
X30279Y65049D01*
X30181Y65064D01*
X30040Y65078D01*
X29857D01*
X29730Y65092D01*
X29603D01*
X29462Y65106D01*
D02*
G37*
G36*
X29462Y89124D02*
X27996D01*
Y86347D01*
X29349D01*
X29448Y86362D01*
X29701D01*
X29955Y86376D01*
X30209Y86404D01*
X30435Y86446D01*
X30533Y86460D01*
X30618Y86488D01*
X30632Y86503D01*
X30688Y86517D01*
X30759Y86559D01*
X30843Y86601D01*
X30942Y86672D01*
X31041Y86756D01*
X31153Y86855D01*
X31238Y86968D01*
X31252Y86982D01*
X31280Y87024D01*
X31309Y87095D01*
X31351Y87193D01*
X31393Y87306D01*
X31435Y87433D01*
X31449Y87574D01*
X31463Y87729D01*
Y87757D01*
Y87814D01*
X31449Y87912D01*
X31421Y88039D01*
X31379Y88180D01*
X31323Y88335D01*
X31252Y88476D01*
X31139Y88617D01*
X31125Y88631D01*
X31083Y88673D01*
X31012Y88730D01*
X30928Y88800D01*
X30815Y88885D01*
X30674Y88955D01*
X30519Y89012D01*
X30350Y89054D01*
X30336D01*
X30279Y89068D01*
X30181Y89082D01*
X30040Y89096D01*
X29857D01*
X29730Y89110D01*
X29603D01*
X29462Y89124D01*
D02*
G37*
%LPD*%
M02*
