G04*
G04 #@! TF.GenerationSoftware,Altium Limited,Altium Designer,24.7.2 (38)*
G04*
G04 Layer_Color=32896*
%FSLAX44Y44*%
%MOMM*%
G71*
G04*
G04 #@! TF.SameCoordinates,215FB70B-008C-4E37-827B-1868BD4F42A1*
G04*
G04*
G04 #@! TF.FilePolarity,Positive*
G04*
G01*
G75*
%ADD23C,0.1500*%
G36*
X40068Y37084D02*
X38636D01*
Y43122D01*
X37127Y37084D01*
X35628D01*
X34118Y43122D01*
X34107Y37084D01*
X32675D01*
Y44765D01*
X35006D01*
X36372Y39515D01*
X37748Y44765D01*
X40068D01*
Y37084D01*
D02*
G37*
G36*
X31099D02*
X29545D01*
Y39981D01*
X28169D01*
X28003Y39992D01*
X27847D01*
X27703Y40003D01*
X27570Y40014D01*
X27448Y40025D01*
X27348Y40037D01*
X27248D01*
X27170Y40048D01*
X27092Y40059D01*
X27037Y40070D01*
X26992D01*
X26959Y40081D01*
X26937D01*
X26781Y40125D01*
X26637Y40181D01*
X26504Y40236D01*
X26382Y40303D01*
X26282Y40358D01*
X26204Y40403D01*
X26160Y40436D01*
X26138Y40447D01*
X25993Y40558D01*
X25871Y40680D01*
X25749Y40813D01*
X25661Y40925D01*
X25583Y41035D01*
X25527Y41124D01*
X25494Y41180D01*
X25483Y41202D01*
X25394Y41391D01*
X25327Y41590D01*
X25283Y41801D01*
X25250Y41990D01*
X25228Y42146D01*
Y42223D01*
X25217Y42279D01*
Y42334D01*
Y42368D01*
Y42390D01*
Y42401D01*
X25239Y42723D01*
X25283Y43022D01*
X25361Y43267D01*
X25438Y43489D01*
X25483Y43577D01*
X25527Y43655D01*
X25561Y43722D01*
X25605Y43788D01*
X25627Y43833D01*
X25649Y43866D01*
X25672Y43877D01*
Y43888D01*
X25849Y44088D01*
X26027Y44254D01*
X26215Y44388D01*
X26382Y44488D01*
X26537Y44554D01*
X26659Y44610D01*
X26704Y44621D01*
X26737Y44632D01*
X26759Y44643D01*
X26770D01*
X26859Y44665D01*
X26970Y44687D01*
X27103Y44699D01*
X27237Y44710D01*
X27547Y44732D01*
X27858Y44754D01*
X28147D01*
X28269Y44765D01*
X31099D01*
Y37084D01*
D02*
G37*
G36*
X24528Y39903D02*
Y38627D01*
X21376D01*
Y37084D01*
X19955D01*
Y38627D01*
X19001D01*
Y39914D01*
X19955D01*
Y44798D01*
X21198D01*
X24528Y39903D01*
D02*
G37*
G36*
X341872Y45052D02*
X342083Y45030D01*
X342283Y44986D01*
X342449Y44941D01*
X342583Y44897D01*
X342694Y44853D01*
X342760Y44830D01*
X342771Y44819D01*
X342783D01*
X342960Y44719D01*
X343127Y44608D01*
X343260Y44497D01*
X343371Y44398D01*
X343460Y44298D01*
X343526Y44220D01*
X343571Y44176D01*
X343582Y44153D01*
X343682Y43987D01*
X343770Y43809D01*
X343837Y43621D01*
X343904Y43443D01*
X343948Y43276D01*
X343981Y43154D01*
X343992Y43099D01*
Y43066D01*
X344003Y43043D01*
Y43032D01*
X342649Y42810D01*
X342616Y42988D01*
X342572Y43143D01*
X342527Y43276D01*
X342472Y43376D01*
X342416Y43465D01*
X342372Y43532D01*
X342338Y43565D01*
X342327Y43576D01*
X342228Y43665D01*
X342117Y43731D01*
X342006Y43776D01*
X341906Y43809D01*
X341817Y43831D01*
X341750Y43843D01*
X341684D01*
X341550Y43831D01*
X341417Y43809D01*
X341317Y43765D01*
X341228Y43731D01*
X341151Y43687D01*
X341106Y43643D01*
X341073Y43621D01*
X341062Y43609D01*
X340984Y43521D01*
X340929Y43410D01*
X340884Y43310D01*
X340862Y43210D01*
X340840Y43121D01*
X340829Y43054D01*
Y43010D01*
Y42988D01*
X340840Y42821D01*
X340873Y42677D01*
X340929Y42555D01*
X340984Y42455D01*
X341051Y42366D01*
X341095Y42311D01*
X341140Y42266D01*
X341151Y42255D01*
X341284Y42166D01*
X341428Y42100D01*
X341584Y42055D01*
X341728Y42022D01*
X341861Y42011D01*
X341972Y42000D01*
X342072D01*
X342228Y40812D01*
X342083Y40845D01*
X341961Y40879D01*
X341839Y40901D01*
X341739Y40912D01*
X341661Y40923D01*
X341550D01*
X341395Y40912D01*
X341262Y40868D01*
X341140Y40823D01*
X341029Y40757D01*
X340951Y40701D01*
X340884Y40646D01*
X340840Y40601D01*
X340829Y40590D01*
X340729Y40457D01*
X340651Y40313D01*
X340596Y40168D01*
X340551Y40024D01*
X340529Y39891D01*
X340518Y39791D01*
Y39725D01*
Y39713D01*
Y39702D01*
X340529Y39491D01*
X340563Y39303D01*
X340618Y39136D01*
X340673Y39003D01*
X340740Y38903D01*
X340784Y38825D01*
X340829Y38770D01*
X340840Y38759D01*
X340962Y38648D01*
X341095Y38559D01*
X341217Y38503D01*
X341339Y38459D01*
X341451Y38437D01*
X341528Y38426D01*
X341584Y38415D01*
X341606D01*
X341761Y38426D01*
X341894Y38459D01*
X342017Y38503D01*
X342128Y38559D01*
X342205Y38603D01*
X342272Y38648D01*
X342316Y38681D01*
X342327Y38692D01*
X342427Y38814D01*
X342516Y38948D01*
X342572Y39092D01*
X342627Y39225D01*
X342660Y39347D01*
X342683Y39447D01*
X342694Y39514D01*
Y39525D01*
Y39536D01*
X344114Y39358D01*
X344092Y39181D01*
X344048Y39014D01*
X343948Y38703D01*
X343826Y38437D01*
X343748Y38326D01*
X343682Y38215D01*
X343615Y38115D01*
X343548Y38037D01*
X343493Y37960D01*
X343437Y37904D01*
X343393Y37860D01*
X343360Y37826D01*
X343338Y37804D01*
X343326Y37793D01*
X343193Y37693D01*
X343049Y37593D01*
X342916Y37516D01*
X342760Y37449D01*
X342472Y37338D01*
X342205Y37271D01*
X342072Y37249D01*
X341961Y37227D01*
X341861Y37216D01*
X341772Y37205D01*
X341695Y37194D01*
X341595D01*
X341395Y37205D01*
X341195Y37227D01*
X341018Y37260D01*
X340840Y37305D01*
X340685Y37360D01*
X340529Y37416D01*
X340385Y37482D01*
X340263Y37549D01*
X340152Y37615D01*
X340041Y37682D01*
X339963Y37738D01*
X339885Y37793D01*
X339830Y37838D01*
X339786Y37871D01*
X339763Y37893D01*
X339752Y37904D01*
X339619Y38037D01*
X339508Y38182D01*
X339408Y38326D01*
X339319Y38470D01*
X339253Y38626D01*
X339186Y38770D01*
X339097Y39036D01*
X339075Y39158D01*
X339053Y39281D01*
X339031Y39380D01*
X339020Y39469D01*
X339009Y39536D01*
Y39591D01*
Y39625D01*
Y39636D01*
X339031Y39891D01*
X339075Y40113D01*
X339131Y40324D01*
X339208Y40490D01*
X339286Y40635D01*
X339342Y40735D01*
X339386Y40801D01*
X339408Y40823D01*
X339564Y40990D01*
X339741Y41134D01*
X339919Y41245D01*
X340085Y41334D01*
X340229Y41400D01*
X340352Y41434D01*
X340396Y41456D01*
X340429D01*
X340452Y41467D01*
X340463D01*
X340263Y41589D01*
X340096Y41711D01*
X339952Y41845D01*
X339819Y41978D01*
X339708Y42111D01*
X339619Y42244D01*
X339552Y42377D01*
X339486Y42499D01*
X339441Y42621D01*
X339408Y42733D01*
X339386Y42832D01*
X339375Y42921D01*
X339364Y42988D01*
X339353Y43043D01*
Y43077D01*
Y43088D01*
X339364Y43221D01*
X339375Y43343D01*
X339441Y43587D01*
X339519Y43809D01*
X339619Y43998D01*
X339719Y44153D01*
X339808Y44264D01*
X339841Y44309D01*
X339874Y44342D01*
X339885Y44353D01*
X339897Y44364D01*
X340019Y44486D01*
X340163Y44597D01*
X340296Y44686D01*
X340440Y44764D01*
X340596Y44841D01*
X340740Y44897D01*
X341018Y44975D01*
X341140Y45008D01*
X341262Y45030D01*
X341362Y45041D01*
X341462Y45052D01*
X341539Y45064D01*
X341639D01*
X341872Y45052D01*
D02*
G37*
G36*
X359854Y37338D02*
X358422D01*
Y43376D01*
X356912Y37338D01*
X355414D01*
X353904Y43376D01*
X353893Y37338D01*
X352462D01*
Y45019D01*
X354793D01*
X356158Y39769D01*
X357534Y45019D01*
X359854D01*
Y37338D01*
D02*
G37*
G36*
X350885D02*
X349331D01*
Y40235D01*
X347955D01*
X347789Y40246D01*
X347633D01*
X347489Y40257D01*
X347356Y40268D01*
X347234Y40279D01*
X347134Y40290D01*
X347034D01*
X346956Y40302D01*
X346878Y40313D01*
X346823Y40324D01*
X346778D01*
X346745Y40335D01*
X346723D01*
X346567Y40379D01*
X346423Y40435D01*
X346290Y40490D01*
X346168Y40557D01*
X346068Y40612D01*
X345990Y40657D01*
X345946Y40690D01*
X345924Y40701D01*
X345779Y40812D01*
X345657Y40934D01*
X345535Y41068D01*
X345447Y41178D01*
X345369Y41290D01*
X345313Y41378D01*
X345280Y41434D01*
X345269Y41456D01*
X345180Y41645D01*
X345113Y41845D01*
X345069Y42055D01*
X345036Y42244D01*
X345014Y42400D01*
Y42477D01*
X345003Y42533D01*
Y42588D01*
Y42621D01*
Y42644D01*
Y42655D01*
X345025Y42977D01*
X345069Y43276D01*
X345147Y43521D01*
X345224Y43743D01*
X345269Y43831D01*
X345313Y43909D01*
X345347Y43976D01*
X345391Y44042D01*
X345413Y44087D01*
X345435Y44120D01*
X345458Y44131D01*
Y44142D01*
X345635Y44342D01*
X345813Y44509D01*
X346001Y44642D01*
X346168Y44742D01*
X346323Y44808D01*
X346445Y44864D01*
X346490Y44875D01*
X346523Y44886D01*
X346545Y44897D01*
X346556D01*
X346645Y44919D01*
X346756Y44941D01*
X346889Y44953D01*
X347023Y44964D01*
X347333Y44986D01*
X347644Y45008D01*
X347933D01*
X348055Y45019D01*
X350885D01*
Y37338D01*
D02*
G37*
G36*
X185301Y25250D02*
X185445Y25017D01*
X185600Y24795D01*
X185756Y24618D01*
X185889Y24473D01*
X186011Y24362D01*
X186056Y24318D01*
X186089Y24285D01*
X186111Y24273D01*
X186122Y24262D01*
X186366Y24085D01*
X186600Y23929D01*
X186810Y23807D01*
X186999Y23718D01*
X187155Y23652D01*
X187265Y23596D01*
X187310Y23585D01*
X187343Y23574D01*
X187354Y23563D01*
X187365D01*
Y22231D01*
X186966Y22386D01*
X186611Y22553D01*
X186444Y22642D01*
X186289Y22742D01*
X186144Y22830D01*
X186011Y22919D01*
X185889Y23008D01*
X185778Y23086D01*
X185689Y23152D01*
X185612Y23219D01*
X185545Y23274D01*
X185501Y23308D01*
X185478Y23330D01*
X185467Y23341D01*
Y17780D01*
X183991D01*
Y25505D01*
X185190D01*
X185301Y25250D01*
D02*
G37*
G36*
X190629Y20477D02*
Y20311D01*
X190640Y20155D01*
X190651Y20022D01*
X190662Y19889D01*
X190684Y19778D01*
X190695Y19678D01*
X190718Y19589D01*
X190740Y19512D01*
X190784Y19389D01*
X190817Y19312D01*
X190840Y19256D01*
X190851Y19245D01*
X190940Y19145D01*
X191050Y19079D01*
X191173Y19023D01*
X191295Y18990D01*
X191395Y18968D01*
X191483Y18957D01*
X191572D01*
X191750Y18979D01*
X191905Y19023D01*
X192038Y19090D01*
X192138Y19167D01*
X192227Y19234D01*
X192283Y19301D01*
X192316Y19345D01*
X192327Y19367D01*
X192383Y19489D01*
X192427Y19623D01*
X192460Y19778D01*
X192482Y19933D01*
X192505Y20078D01*
Y20189D01*
X192516Y20233D01*
Y20266D01*
Y20289D01*
Y20300D01*
X193992Y20133D01*
X193981Y19911D01*
X193970Y19700D01*
X193937Y19500D01*
X193892Y19323D01*
X193848Y19156D01*
X193803Y19001D01*
X193748Y18868D01*
X193681Y18735D01*
X193626Y18635D01*
X193570Y18535D01*
X193526Y18457D01*
X193481Y18391D01*
X193437Y18335D01*
X193404Y18302D01*
X193393Y18280D01*
X193382Y18268D01*
X193259Y18157D01*
X193126Y18058D01*
X192993Y17980D01*
X192849Y17902D01*
X192704Y17847D01*
X192560Y17791D01*
X192271Y17713D01*
X192138Y17691D01*
X192016Y17669D01*
X191916Y17658D01*
X191816Y17647D01*
X191739Y17636D01*
X191628D01*
X191284Y17658D01*
X190973Y17702D01*
X190707Y17758D01*
X190595Y17802D01*
X190485Y17836D01*
X190396Y17869D01*
X190307Y17913D01*
X190240Y17946D01*
X190185Y17969D01*
X190129Y18002D01*
X190096Y18013D01*
X190085Y18035D01*
X190074D01*
X189863Y18202D01*
X189696Y18379D01*
X189552Y18557D01*
X189441Y18723D01*
X189352Y18879D01*
X189297Y19001D01*
X189275Y19045D01*
X189263Y19079D01*
X189252Y19101D01*
Y19112D01*
X189197Y19323D01*
X189153Y19567D01*
X189119Y19811D01*
X189097Y20044D01*
X189086Y20255D01*
X189075Y20355D01*
Y20433D01*
Y20499D01*
Y20544D01*
Y20577D01*
Y20588D01*
Y25461D01*
X190629D01*
Y20477D01*
D02*
G37*
%LPC*%
G36*
X29545Y43466D02*
X28391D01*
X28280Y43455D01*
X28180D01*
X28080Y43444D01*
X27936D01*
X27825Y43433D01*
X27747Y43422D01*
X27703Y43411D01*
X27692D01*
X27559Y43378D01*
X27436Y43333D01*
X27325Y43278D01*
X27237Y43211D01*
X27170Y43156D01*
X27115Y43111D01*
X27081Y43078D01*
X27070Y43067D01*
X26981Y42956D01*
X26926Y42845D01*
X26881Y42723D01*
X26848Y42612D01*
X26826Y42512D01*
X26815Y42434D01*
Y42390D01*
Y42368D01*
X26826Y42245D01*
X26837Y42134D01*
X26870Y42035D01*
X26904Y41946D01*
X26937Y41868D01*
X26959Y41813D01*
X26981Y41779D01*
X26992Y41768D01*
X27059Y41679D01*
X27148Y41602D01*
X27225Y41535D01*
X27303Y41480D01*
X27370Y41446D01*
X27425Y41413D01*
X27470Y41402D01*
X27481Y41391D01*
X27547Y41368D01*
X27625Y41357D01*
X27803Y41324D01*
X28003Y41302D01*
X28202Y41291D01*
X28402D01*
X28480Y41280D01*
X29545D01*
Y43466D01*
D02*
G37*
G36*
X21376Y42556D02*
Y39914D01*
X23163D01*
X21376Y42556D01*
D02*
G37*
G36*
X349331Y43720D02*
X348177D01*
X348066Y43709D01*
X347966D01*
X347866Y43698D01*
X347722D01*
X347611Y43687D01*
X347533Y43676D01*
X347489Y43665D01*
X347478D01*
X347345Y43632D01*
X347222Y43587D01*
X347111Y43532D01*
X347023Y43465D01*
X346956Y43410D01*
X346900Y43365D01*
X346867Y43332D01*
X346856Y43321D01*
X346767Y43210D01*
X346712Y43099D01*
X346667Y42977D01*
X346634Y42866D01*
X346612Y42766D01*
X346601Y42688D01*
Y42644D01*
Y42621D01*
X346612Y42499D01*
X346623Y42388D01*
X346656Y42288D01*
X346690Y42200D01*
X346723Y42122D01*
X346745Y42066D01*
X346767Y42033D01*
X346778Y42022D01*
X346845Y41933D01*
X346934Y41856D01*
X347011Y41789D01*
X347089Y41733D01*
X347156Y41700D01*
X347211Y41667D01*
X347256Y41656D01*
X347267Y41645D01*
X347333Y41623D01*
X347411Y41611D01*
X347589Y41578D01*
X347789Y41556D01*
X347988Y41545D01*
X348188D01*
X348266Y41534D01*
X349331D01*
Y43720D01*
D02*
G37*
%LPD*%
D23*
X49433Y33521D02*
Y48516D01*
X44435Y43518D01*
X39437Y48516D01*
Y33521D01*
X34438D02*
Y48516D01*
X26941D01*
X24442Y46017D01*
Y41019D01*
X26941Y38519D01*
X34438D01*
X11946Y33521D02*
Y48516D01*
X19443Y41019D01*
X9446D01*
X369394Y33521D02*
Y48516D01*
X364395Y43518D01*
X359397Y48516D01*
Y33521D01*
X354398D02*
Y48516D01*
X346901D01*
X344402Y46017D01*
Y41019D01*
X346901Y38519D01*
X354398D01*
X339403Y46017D02*
X336904Y48516D01*
X331906D01*
X329407Y46017D01*
Y43518D01*
X331906Y41019D01*
X334405D01*
X331906D01*
X329407Y38519D01*
Y36020D01*
X331906Y33521D01*
X336904D01*
X339403Y36020D01*
M02*
