G04*
G04 #@! TF.GenerationSoftware,Altium Limited,Altium Designer,24.6.1 (21)*
G04*
G04 Layer_Color=8388736*
%FSLAX44Y44*%
%MOMM*%
G71*
G04*
G04 #@! TF.SameCoordinates,2073C146-9FCF-4336-B162-2FF7CEF17E34*
G04*
G04*
G04 #@! TF.FilePolarity,Negative*
G04*
G01*
G75*
%ADD16C,2.4032*%
%ADD17C,4.2032*%
%ADD18R,1.0032X0.6032*%
%ADD19R,1.0032X0.5032*%
%ADD20C,0.8032*%
D16*
X318000Y101000D02*
D03*
X528000D02*
D03*
Y141000D02*
D03*
X493000Y101000D02*
D03*
Y141000D02*
D03*
X458000Y101000D02*
D03*
Y141000D02*
D03*
X423000Y101000D02*
D03*
Y141000D02*
D03*
X388000Y101000D02*
D03*
Y141000D02*
D03*
X353000Y101000D02*
D03*
X318000Y141000D02*
D03*
X283000Y101000D02*
D03*
Y141000D02*
D03*
X248000Y101000D02*
D03*
Y141000D02*
D03*
X213000Y101000D02*
D03*
Y141000D02*
D03*
X178000Y101000D02*
D03*
Y141000D02*
D03*
X143000Y101000D02*
D03*
Y141000D02*
D03*
X353000Y141000D02*
D03*
D17*
X100000Y320000D02*
D03*
X610000Y35000D02*
D03*
Y320000D02*
D03*
X100000Y35000D02*
D03*
D18*
X682000Y245000D02*
D03*
Y110000D02*
D03*
D19*
X657000Y220000D02*
D03*
Y215000D02*
D03*
Y195000D02*
D03*
Y170000D02*
D03*
Y165000D02*
D03*
Y160000D02*
D03*
Y155000D02*
D03*
Y150000D02*
D03*
Y145000D02*
D03*
Y140000D02*
D03*
Y135000D02*
D03*
Y130000D02*
D03*
Y125000D02*
D03*
Y120000D02*
D03*
Y175000D02*
D03*
Y180000D02*
D03*
Y185000D02*
D03*
Y190000D02*
D03*
Y200000D02*
D03*
Y205000D02*
D03*
Y210000D02*
D03*
Y225000D02*
D03*
Y230000D02*
D03*
Y235000D02*
D03*
D20*
X68000Y213000D02*
D03*
X299000Y27000D02*
D03*
X518000Y337000D02*
D03*
X69000Y130000D02*
D03*
X158000Y325059D02*
D03*
X679000Y40000D02*
D03*
X679000Y331000D02*
D03*
X657000Y287000D02*
D03*
X610000Y80000D02*
D03*
X155000Y56000D02*
D03*
X365000Y60000D02*
D03*
X441000Y31000D02*
D03*
X546000Y34000D02*
D03*
X30000Y48000D02*
D03*
Y105000D02*
D03*
Y162000D02*
D03*
Y219000D02*
D03*
Y276000D02*
D03*
X107000Y106000D02*
D03*
Y163000D02*
D03*
Y220000D02*
D03*
X480000Y60000D02*
D03*
X107000Y277000D02*
D03*
X30000Y333000D02*
D03*
M02*
