G04*
G04 #@! TF.GenerationSoftware,Altium Limited,Altium Designer,24.6.1 (21)*
G04*
G04 Layer_Color=2752767*
%FSLAX44Y44*%
%MOMM*%
G71*
G04*
G04 #@! TF.SameCoordinates,B5874FB5-9B0E-4A86-A12A-78BEF7E9F388*
G04*
G04*
G04 #@! TF.FilePolarity,Positive*
G04*
G01*
G75*
%ADD25C,0.1693*%
D25*
X73080Y213000D02*
G03*
X73080Y213000I-5080J0D01*
G01*
X304080Y27000D02*
G03*
X304080Y27000I-5080J0D01*
G01*
X523080Y337000D02*
G03*
X523080Y337000I-5080J0D01*
G01*
X74080Y130000D02*
G03*
X74080Y130000I-5080J0D01*
G01*
X163080Y325059D02*
G03*
X163080Y325059I-5080J0D01*
G01*
X684080Y40000D02*
G03*
X684080Y40000I-5080J0D01*
G01*
X684080Y331000D02*
G03*
X684080Y331000I-5080J0D01*
G01*
X662080Y287000D02*
G03*
X662080Y287000I-5080J0D01*
G01*
X615080Y80000D02*
G03*
X615080Y80000I-5080J0D01*
G01*
X160080Y56000D02*
G03*
X160080Y56000I-5080J0D01*
G01*
X370080Y60000D02*
G03*
X370080Y60000I-5080J0D01*
G01*
X446080Y31000D02*
G03*
X446080Y31000I-5080J0D01*
G01*
X551080Y34000D02*
G03*
X551080Y34000I-5080J0D01*
G01*
X35080Y48000D02*
G03*
X35080Y48000I-5080J0D01*
G01*
Y105000D02*
G03*
X35080Y105000I-5080J0D01*
G01*
Y162000D02*
G03*
X35080Y162000I-5080J0D01*
G01*
Y219000D02*
G03*
X35080Y219000I-5080J0D01*
G01*
Y276000D02*
G03*
X35080Y276000I-5080J0D01*
G01*
X112080Y106000D02*
G03*
X112080Y106000I-5080J0D01*
G01*
Y163000D02*
G03*
X112080Y163000I-5080J0D01*
G01*
Y220000D02*
G03*
X112080Y220000I-5080J0D01*
G01*
X485080Y60000D02*
G03*
X485080Y60000I-5080J0D01*
G01*
X112080Y277000D02*
G03*
X112080Y277000I-5080J0D01*
G01*
X35080Y333000D02*
G03*
X35080Y333000I-5080J0D01*
G01*
M02*
