G04*
G04 #@! TF.GenerationSoftware,Altium Limited,Altium Designer,24.7.2 (38)*
G04*
G04 Layer_Color=8388736*
%FSLAX44Y44*%
%MOMM*%
G71*
G04*
G04 #@! TF.SameCoordinates,83444293-F6EA-4367-A506-F24F9130AE83*
G04*
G04*
G04 #@! TF.FilePolarity,Positive*
G04*
G01*
G75*
%ADD24C,0.2540*%
G36*
X-54322Y83258D02*
X-54153D01*
X-53970Y83244D01*
X-53773Y83229D01*
X-53321Y83187D01*
X-52856Y83117D01*
X-52405Y83032D01*
X-52194Y82976D01*
X-51982Y82905D01*
X-51968D01*
X-51940Y82891D01*
X-51884Y82863D01*
X-51813Y82835D01*
X-51714Y82807D01*
X-51616Y82750D01*
X-51376Y82637D01*
X-51122Y82496D01*
X-50840Y82313D01*
X-50587Y82102D01*
X-50347Y81848D01*
Y81834D01*
X-50319Y81820D01*
X-50290Y81777D01*
X-50262Y81721D01*
X-50220Y81651D01*
X-50164Y81580D01*
X-50065Y81369D01*
X-49966Y81115D01*
X-49868Y80819D01*
X-49811Y80466D01*
X-49783Y80086D01*
Y79945D01*
X-49797Y79846D01*
X-49811Y79733D01*
X-49839Y79592D01*
X-49868Y79437D01*
X-49910Y79268D01*
X-49966Y79099D01*
X-50023Y78916D01*
X-50107Y78733D01*
X-50206Y78549D01*
X-50319Y78366D01*
X-50460Y78183D01*
X-50615Y78014D01*
X-50784Y77859D01*
X-50798Y77844D01*
X-50840Y77816D01*
X-50911Y77774D01*
X-51024Y77703D01*
X-51150Y77633D01*
X-51320Y77562D01*
X-51517Y77464D01*
X-51743Y77379D01*
X-51996Y77295D01*
X-52292Y77210D01*
X-52617Y77125D01*
X-52983Y77055D01*
X-53378Y76985D01*
X-53801Y76942D01*
X-54266Y76914D01*
X-54759Y76900D01*
X-54773D01*
X-54830D01*
X-54928D01*
X-55041D01*
X-55196Y76914D01*
X-55365D01*
X-55549Y76928D01*
X-55760Y76942D01*
X-56197Y76985D01*
X-56662Y77055D01*
X-57128Y77140D01*
X-57339Y77196D01*
X-57551Y77252D01*
X-57565D01*
X-57593Y77266D01*
X-57649Y77295D01*
X-57720Y77323D01*
X-57818Y77351D01*
X-57917Y77407D01*
X-58157Y77520D01*
X-58410Y77661D01*
X-58678Y77844D01*
X-58946Y78056D01*
X-59172Y78310D01*
Y78324D01*
X-59200Y78338D01*
X-59228Y78380D01*
X-59256Y78436D01*
X-59313Y78507D01*
X-59355Y78591D01*
X-59468Y78803D01*
X-59566Y79057D01*
X-59665Y79353D01*
X-59721Y79705D01*
X-59750Y80086D01*
Y80213D01*
X-59735Y80368D01*
X-59707Y80551D01*
X-59665Y80763D01*
X-59609Y80988D01*
X-59538Y81228D01*
X-59425Y81453D01*
Y81467D01*
X-59411Y81481D01*
X-59369Y81552D01*
X-59299Y81665D01*
X-59200Y81806D01*
X-59059Y81961D01*
X-58904Y82130D01*
X-58720Y82285D01*
X-58509Y82440D01*
X-58481Y82454D01*
X-58410Y82510D01*
X-58284Y82567D01*
X-58100Y82666D01*
X-57889Y82750D01*
X-57649Y82863D01*
X-57367Y82962D01*
X-57057Y83046D01*
X-57043D01*
X-57015Y83060D01*
X-56972Y83074D01*
X-56902Y83089D01*
X-56817Y83103D01*
X-56719Y83117D01*
X-56592Y83145D01*
X-56451Y83159D01*
X-56296Y83187D01*
X-56127Y83201D01*
X-55929Y83215D01*
X-55732Y83244D01*
X-55506Y83258D01*
X-55281D01*
X-55027Y83272D01*
X-54759D01*
X-54745D01*
X-54689D01*
X-54590D01*
X-54477D01*
X-54322Y83258D01*
D02*
G37*
G36*
X-53025Y75772D02*
X-52913Y75758D01*
X-52786Y75744D01*
X-52631Y75716D01*
X-52476Y75688D01*
X-52109Y75603D01*
X-51728Y75462D01*
X-51531Y75377D01*
X-51348Y75265D01*
X-51150Y75152D01*
X-50967Y75011D01*
X-50953Y74997D01*
X-50911Y74969D01*
X-50854Y74912D01*
X-50784Y74842D01*
X-50699Y74743D01*
X-50587Y74630D01*
X-50488Y74489D01*
X-50375Y74334D01*
X-50262Y74165D01*
X-50164Y73968D01*
X-50065Y73756D01*
X-49966Y73531D01*
X-49896Y73291D01*
X-49839Y73023D01*
X-49797Y72741D01*
X-49783Y72445D01*
Y72318D01*
X-49797Y72220D01*
X-49811Y72107D01*
X-49825Y71980D01*
X-49839Y71825D01*
X-49882Y71670D01*
X-49966Y71318D01*
X-50093Y70965D01*
X-50178Y70782D01*
X-50276Y70599D01*
X-50389Y70429D01*
X-50516Y70260D01*
X-50530Y70246D01*
X-50544Y70218D01*
X-50601Y70190D01*
X-50657Y70133D01*
X-50728Y70063D01*
X-50812Y69992D01*
X-50925Y69908D01*
X-51052Y69837D01*
X-51179Y69753D01*
X-51334Y69668D01*
X-51672Y69513D01*
X-52067Y69386D01*
X-52278Y69344D01*
X-52504Y69316D01*
X-52602Y70570D01*
X-52588D01*
X-52560D01*
X-52518Y70584D01*
X-52447Y70599D01*
X-52292Y70641D01*
X-52081Y70697D01*
X-51869Y70782D01*
X-51630Y70895D01*
X-51418Y71035D01*
X-51221Y71205D01*
X-51207Y71233D01*
X-51150Y71289D01*
X-51080Y71402D01*
X-50995Y71557D01*
X-50911Y71726D01*
X-50840Y71938D01*
X-50784Y72177D01*
X-50770Y72445D01*
Y72530D01*
X-50784Y72586D01*
X-50798Y72755D01*
X-50854Y72953D01*
X-50925Y73192D01*
X-51038Y73432D01*
X-51207Y73686D01*
X-51305Y73799D01*
X-51418Y73911D01*
X-51432Y73925D01*
X-51446Y73939D01*
X-51489Y73968D01*
X-51531Y74010D01*
X-51686Y74109D01*
X-51884Y74222D01*
X-52123Y74320D01*
X-52419Y74419D01*
X-52772Y74489D01*
X-52955Y74517D01*
X-53152D01*
X-53166D01*
X-53194D01*
X-53251D01*
X-53321Y74503D01*
X-53406D01*
X-53505Y74489D01*
X-53730Y74447D01*
X-53998Y74377D01*
X-54266Y74278D01*
X-54520Y74137D01*
X-54759Y73939D01*
X-54773D01*
X-54788Y73911D01*
X-54858Y73841D01*
X-54957Y73714D01*
X-55069Y73545D01*
X-55168Y73319D01*
X-55267Y73066D01*
X-55337Y72769D01*
X-55365Y72600D01*
Y72333D01*
X-55351Y72220D01*
X-55337Y72079D01*
X-55295Y71910D01*
X-55253Y71740D01*
X-55182Y71557D01*
X-55098Y71374D01*
X-55083Y71360D01*
X-55055Y71303D01*
X-54985Y71219D01*
X-54914Y71106D01*
X-54816Y70993D01*
X-54689Y70880D01*
X-54562Y70754D01*
X-54407Y70655D01*
X-54562Y69527D01*
X-59580Y70472D01*
Y75321D01*
X-58439D01*
Y71416D01*
X-55802Y70895D01*
X-55817Y70909D01*
X-55831Y70937D01*
X-55859Y70979D01*
X-55901Y71050D01*
X-55943Y71134D01*
X-56000Y71233D01*
X-56113Y71459D01*
X-56225Y71740D01*
X-56324Y72050D01*
X-56395Y72389D01*
X-56423Y72558D01*
Y72868D01*
X-56409Y72953D01*
X-56395Y73066D01*
X-56380Y73192D01*
X-56352Y73333D01*
X-56310Y73488D01*
X-56211Y73827D01*
X-56141Y74010D01*
X-56042Y74193D01*
X-55943Y74377D01*
X-55831Y74560D01*
X-55690Y74729D01*
X-55535Y74898D01*
X-55521Y74912D01*
X-55492Y74940D01*
X-55450Y74983D01*
X-55380Y75039D01*
X-55281Y75110D01*
X-55182Y75180D01*
X-55055Y75265D01*
X-54914Y75349D01*
X-54759Y75420D01*
X-54590Y75504D01*
X-54393Y75575D01*
X-54195Y75645D01*
X-53984Y75702D01*
X-53744Y75744D01*
X-53505Y75772D01*
X-53251Y75786D01*
X-53237D01*
X-53194D01*
X-53124D01*
X-53025Y75772D01*
D02*
G37*
G36*
X-49952Y66200D02*
X-51320D01*
Y67568D01*
X-49952D01*
Y66200D01*
D02*
G37*
G36*
Y57770D02*
X-49966D01*
X-50023D01*
X-50107D01*
X-50220Y57784D01*
X-50347Y57799D01*
X-50488Y57827D01*
X-50629Y57855D01*
X-50784Y57911D01*
X-50798D01*
X-50812Y57925D01*
X-50897Y57954D01*
X-51024Y58010D01*
X-51193Y58095D01*
X-51390Y58207D01*
X-51616Y58348D01*
X-51841Y58503D01*
X-52081Y58701D01*
X-52095D01*
X-52109Y58729D01*
X-52194Y58799D01*
X-52320Y58926D01*
X-52504Y59110D01*
X-52715Y59321D01*
X-52969Y59589D01*
X-53251Y59913D01*
X-53547Y60265D01*
X-53561Y60279D01*
X-53603Y60336D01*
X-53674Y60420D01*
X-53758Y60519D01*
X-53871Y60646D01*
X-53998Y60801D01*
X-54139Y60956D01*
X-54294Y61139D01*
X-54632Y61492D01*
X-54971Y61844D01*
X-55140Y62014D01*
X-55309Y62168D01*
X-55464Y62309D01*
X-55619Y62422D01*
X-55633D01*
X-55647Y62450D01*
X-55690Y62479D01*
X-55746Y62507D01*
X-55901Y62606D01*
X-56084Y62718D01*
X-56310Y62817D01*
X-56550Y62916D01*
X-56817Y62972D01*
X-57071Y63000D01*
X-57085D01*
X-57099D01*
X-57184Y62986D01*
X-57325Y62972D01*
X-57480Y62930D01*
X-57677Y62873D01*
X-57875Y62775D01*
X-58072Y62648D01*
X-58269Y62479D01*
X-58298Y62450D01*
X-58354Y62380D01*
X-58425Y62281D01*
X-58523Y62126D01*
X-58608Y61929D01*
X-58692Y61703D01*
X-58749Y61435D01*
X-58763Y61139D01*
Y61055D01*
X-58749Y60999D01*
X-58735Y60829D01*
X-58692Y60632D01*
X-58636Y60420D01*
X-58537Y60181D01*
X-58410Y59955D01*
X-58241Y59744D01*
X-58213Y59716D01*
X-58143Y59659D01*
X-58030Y59575D01*
X-57861Y59490D01*
X-57663Y59391D01*
X-57410Y59307D01*
X-57128Y59250D01*
X-56803Y59222D01*
X-56930Y57996D01*
X-56944D01*
X-56987Y58010D01*
X-57057D01*
X-57156Y58024D01*
X-57269Y58052D01*
X-57395Y58080D01*
X-57551Y58123D01*
X-57705Y58165D01*
X-58044Y58278D01*
X-58382Y58447D01*
X-58551Y58546D01*
X-58720Y58672D01*
X-58876Y58799D01*
X-59017Y58940D01*
X-59031Y58954D01*
X-59045Y58983D01*
X-59087Y59025D01*
X-59129Y59095D01*
X-59186Y59180D01*
X-59242Y59279D01*
X-59313Y59391D01*
X-59383Y59532D01*
X-59454Y59688D01*
X-59524Y59857D01*
X-59580Y60040D01*
X-59637Y60237D01*
X-59679Y60449D01*
X-59721Y60674D01*
X-59735Y60914D01*
X-59750Y61168D01*
Y61309D01*
X-59735Y61407D01*
X-59721Y61520D01*
X-59707Y61661D01*
X-59679Y61816D01*
X-59651Y61971D01*
X-59552Y62338D01*
X-59411Y62704D01*
X-59327Y62888D01*
X-59228Y63071D01*
X-59101Y63240D01*
X-58960Y63395D01*
X-58946Y63409D01*
X-58932Y63437D01*
X-58876Y63465D01*
X-58819Y63522D01*
X-58749Y63592D01*
X-58650Y63663D01*
X-58551Y63733D01*
X-58425Y63818D01*
X-58157Y63959D01*
X-57818Y64100D01*
X-57649Y64156D01*
X-57452Y64184D01*
X-57254Y64213D01*
X-57043Y64227D01*
X-57015D01*
X-56944D01*
X-56831Y64213D01*
X-56677Y64198D01*
X-56507Y64170D01*
X-56310Y64114D01*
X-56098Y64057D01*
X-55887Y63973D01*
X-55859Y63959D01*
X-55788Y63931D01*
X-55676Y63874D01*
X-55521Y63790D01*
X-55351Y63677D01*
X-55140Y63536D01*
X-54928Y63367D01*
X-54689Y63169D01*
X-54661Y63141D01*
X-54576Y63071D01*
X-54506Y63000D01*
X-54435Y62930D01*
X-54351Y62845D01*
X-54238Y62732D01*
X-54125Y62620D01*
X-53998Y62479D01*
X-53857Y62338D01*
X-53702Y62168D01*
X-53547Y61985D01*
X-53364Y61788D01*
X-53180Y61562D01*
X-52983Y61337D01*
X-52969Y61323D01*
X-52941Y61294D01*
X-52899Y61238D01*
X-52842Y61168D01*
X-52758Y61083D01*
X-52673Y60984D01*
X-52490Y60759D01*
X-52278Y60519D01*
X-52067Y60294D01*
X-51884Y60096D01*
X-51813Y60012D01*
X-51743Y59941D01*
X-51728Y59927D01*
X-51686Y59885D01*
X-51630Y59828D01*
X-51545Y59758D01*
X-51446Y59688D01*
X-51348Y59603D01*
X-51108Y59434D01*
Y64241D01*
X-49952D01*
Y57770D01*
D02*
G37*
G36*
X173870Y-76187D02*
X174053Y-76216D01*
X174279Y-76258D01*
X174533Y-76328D01*
X174787Y-76413D01*
X175040Y-76526D01*
X175054D01*
X175068Y-76540D01*
X175153Y-76582D01*
X175280Y-76667D01*
X175421Y-76765D01*
X175590Y-76906D01*
X175759Y-77061D01*
X175928Y-77245D01*
X176069Y-77456D01*
X176084Y-77484D01*
X176126Y-77555D01*
X176182Y-77682D01*
X176253Y-77837D01*
X176323Y-78020D01*
X176380Y-78231D01*
X176422Y-78471D01*
X176436Y-78711D01*
Y-78739D01*
Y-78823D01*
X176422Y-78936D01*
X176394Y-79091D01*
X176351Y-79275D01*
X176281Y-79472D01*
X176196Y-79669D01*
X176084Y-79867D01*
X176069Y-79895D01*
X176027Y-79951D01*
X175942Y-80050D01*
X175830Y-80163D01*
X175689Y-80290D01*
X175520Y-80430D01*
X175322Y-80557D01*
X175083Y-80684D01*
X175097D01*
X175125Y-80698D01*
X175167Y-80712D01*
X175224Y-80727D01*
X175379Y-80783D01*
X175576Y-80868D01*
X175802Y-80980D01*
X176027Y-81121D01*
X176239Y-81305D01*
X176436Y-81516D01*
X176450Y-81544D01*
X176506Y-81629D01*
X176591Y-81770D01*
X176676Y-81953D01*
X176760Y-82179D01*
X176845Y-82446D01*
X176901Y-82757D01*
X176915Y-83095D01*
Y-83109D01*
Y-83151D01*
Y-83222D01*
X176901Y-83306D01*
X176887Y-83419D01*
X176859Y-83546D01*
X176831Y-83687D01*
X176802Y-83842D01*
X176690Y-84180D01*
X176605Y-84364D01*
X176521Y-84533D01*
X176408Y-84716D01*
X176281Y-84899D01*
X176140Y-85083D01*
X175971Y-85252D01*
X175957Y-85266D01*
X175928Y-85294D01*
X175872Y-85336D01*
X175802Y-85393D01*
X175717Y-85463D01*
X175604Y-85534D01*
X175477Y-85618D01*
X175322Y-85689D01*
X175167Y-85773D01*
X174984Y-85858D01*
X174801Y-85928D01*
X174589Y-85999D01*
X174364Y-86055D01*
X174124Y-86097D01*
X173884Y-86126D01*
X173617Y-86140D01*
X173490D01*
X173405Y-86126D01*
X173292Y-86112D01*
X173165Y-86097D01*
X173024Y-86069D01*
X172869Y-86041D01*
X172531Y-85956D01*
X172179Y-85816D01*
X171995Y-85731D01*
X171826Y-85632D01*
X171657Y-85505D01*
X171488Y-85379D01*
X171474Y-85365D01*
X171446Y-85336D01*
X171403Y-85294D01*
X171361Y-85238D01*
X171290Y-85167D01*
X171220Y-85068D01*
X171135Y-84970D01*
X171051Y-84843D01*
X170966Y-84702D01*
X170882Y-84561D01*
X170727Y-84223D01*
X170600Y-83828D01*
X170557Y-83616D01*
X170529Y-83391D01*
X171728Y-83236D01*
Y-83250D01*
X171742Y-83278D01*
X171756Y-83335D01*
X171770Y-83405D01*
X171784Y-83490D01*
X171812Y-83588D01*
X171883Y-83800D01*
X171981Y-84053D01*
X172108Y-84293D01*
X172249Y-84519D01*
X172418Y-84716D01*
X172446Y-84730D01*
X172503Y-84787D01*
X172616Y-84857D01*
X172757Y-84928D01*
X172926Y-85012D01*
X173137Y-85083D01*
X173377Y-85139D01*
X173631Y-85153D01*
X173715D01*
X173772Y-85139D01*
X173927Y-85125D01*
X174124Y-85083D01*
X174350Y-85012D01*
X174589Y-84913D01*
X174829Y-84772D01*
X175054Y-84575D01*
X175083Y-84547D01*
X175153Y-84462D01*
X175238Y-84335D01*
X175350Y-84166D01*
X175463Y-83955D01*
X175548Y-83715D01*
X175618Y-83433D01*
X175646Y-83123D01*
Y-83109D01*
Y-83081D01*
Y-83039D01*
X175632Y-82982D01*
X175618Y-82827D01*
X175576Y-82644D01*
X175520Y-82418D01*
X175421Y-82193D01*
X175280Y-81967D01*
X175097Y-81756D01*
X175068Y-81727D01*
X174998Y-81671D01*
X174885Y-81587D01*
X174730Y-81488D01*
X174533Y-81389D01*
X174293Y-81305D01*
X174025Y-81248D01*
X173729Y-81220D01*
X173602D01*
X173504Y-81234D01*
X173377Y-81248D01*
X173236Y-81276D01*
X173067Y-81305D01*
X172883Y-81347D01*
X173024Y-80290D01*
X173095D01*
X173151Y-80304D01*
X173335D01*
X173490Y-80275D01*
X173673Y-80247D01*
X173884Y-80205D01*
X174124Y-80134D01*
X174350Y-80036D01*
X174589Y-79909D01*
X174603D01*
X174617Y-79895D01*
X174688Y-79838D01*
X174787Y-79740D01*
X174899Y-79613D01*
X175012Y-79430D01*
X175111Y-79218D01*
X175181Y-78979D01*
X175210Y-78838D01*
Y-78682D01*
Y-78668D01*
Y-78654D01*
Y-78570D01*
X175181Y-78457D01*
X175153Y-78302D01*
X175097Y-78133D01*
X175026Y-77950D01*
X174913Y-77766D01*
X174758Y-77597D01*
X174744Y-77583D01*
X174674Y-77526D01*
X174575Y-77456D01*
X174448Y-77372D01*
X174279Y-77301D01*
X174082Y-77231D01*
X173856Y-77174D01*
X173602Y-77160D01*
X173490D01*
X173363Y-77188D01*
X173194Y-77216D01*
X173010Y-77273D01*
X172827Y-77343D01*
X172630Y-77456D01*
X172446Y-77597D01*
X172432Y-77611D01*
X172376Y-77682D01*
X172291Y-77780D01*
X172193Y-77921D01*
X172094Y-78105D01*
X171995Y-78330D01*
X171911Y-78598D01*
X171854Y-78908D01*
X170656Y-78697D01*
Y-78682D01*
X170670Y-78640D01*
X170684Y-78584D01*
X170698Y-78499D01*
X170727Y-78401D01*
X170769Y-78288D01*
X170854Y-78020D01*
X170994Y-77710D01*
X171164Y-77400D01*
X171375Y-77104D01*
X171643Y-76836D01*
X171657Y-76822D01*
X171685Y-76808D01*
X171728Y-76779D01*
X171784Y-76737D01*
X171854Y-76681D01*
X171953Y-76624D01*
X172052Y-76568D01*
X172179Y-76498D01*
X172461Y-76385D01*
X172785Y-76272D01*
X173165Y-76201D01*
X173363Y-76173D01*
X173715D01*
X173870Y-76187D01*
D02*
G37*
G36*
X192704D02*
X192774D01*
X192873Y-76201D01*
X193113Y-76244D01*
X193381Y-76300D01*
X193676Y-76399D01*
X193973Y-76526D01*
X194269Y-76695D01*
X194283D01*
X194297Y-76723D01*
X194339Y-76751D01*
X194396Y-76793D01*
X194536Y-76906D01*
X194720Y-77061D01*
X194903Y-77273D01*
X195114Y-77526D01*
X195298Y-77823D01*
X195467Y-78161D01*
Y-78175D01*
X195481Y-78203D01*
X195509Y-78260D01*
X195537Y-78330D01*
X195565Y-78429D01*
X195608Y-78556D01*
X195636Y-78697D01*
X195678Y-78852D01*
X195721Y-79035D01*
X195763Y-79246D01*
X195791Y-79472D01*
X195819Y-79712D01*
X195847Y-79979D01*
X195876Y-80261D01*
X195890Y-80571D01*
Y-80896D01*
Y-80910D01*
Y-80980D01*
Y-81079D01*
Y-81206D01*
X195876Y-81361D01*
Y-81544D01*
X195862Y-81756D01*
X195833Y-81967D01*
X195791Y-82446D01*
X195721Y-82954D01*
X195622Y-83433D01*
X195551Y-83673D01*
X195481Y-83884D01*
Y-83898D01*
X195467Y-83927D01*
X195439Y-83983D01*
X195410Y-84067D01*
X195368Y-84152D01*
X195312Y-84265D01*
X195171Y-84505D01*
X195002Y-84772D01*
X194804Y-85054D01*
X194551Y-85322D01*
X194269Y-85562D01*
X194254D01*
X194226Y-85590D01*
X194184Y-85618D01*
X194128Y-85646D01*
X194043Y-85689D01*
X193958Y-85745D01*
X193846Y-85801D01*
X193733Y-85844D01*
X193465Y-85956D01*
X193141Y-86055D01*
X192788Y-86112D01*
X192394Y-86140D01*
X192281D01*
X192211Y-86126D01*
X192112D01*
X191999Y-86112D01*
X191731Y-86055D01*
X191435Y-85985D01*
X191125Y-85872D01*
X190815Y-85717D01*
X190660Y-85618D01*
X190519Y-85505D01*
X190505Y-85491D01*
X190491Y-85477D01*
X190448Y-85435D01*
X190406Y-85393D01*
X190350Y-85322D01*
X190279Y-85238D01*
X190138Y-85040D01*
X189997Y-84787D01*
X189856Y-84476D01*
X189743Y-84124D01*
X189659Y-83715D01*
X190815Y-83616D01*
Y-83631D01*
X190829Y-83659D01*
Y-83687D01*
X190843Y-83743D01*
X190885Y-83898D01*
X190942Y-84067D01*
X191012Y-84265D01*
X191111Y-84462D01*
X191224Y-84646D01*
X191365Y-84801D01*
X191379Y-84815D01*
X191435Y-84857D01*
X191534Y-84913D01*
X191647Y-84970D01*
X191802Y-85040D01*
X191985Y-85097D01*
X192196Y-85139D01*
X192422Y-85153D01*
X192521D01*
X192619Y-85139D01*
X192746Y-85125D01*
X192901Y-85097D01*
X193056Y-85054D01*
X193225Y-84998D01*
X193381Y-84913D01*
X193395Y-84899D01*
X193451Y-84871D01*
X193536Y-84815D01*
X193620Y-84730D01*
X193733Y-84631D01*
X193846Y-84519D01*
X193958Y-84392D01*
X194071Y-84237D01*
X194085Y-84223D01*
X194114Y-84152D01*
X194170Y-84053D01*
X194226Y-83927D01*
X194297Y-83757D01*
X194367Y-83560D01*
X194438Y-83335D01*
X194508Y-83081D01*
Y-83067D01*
X194522Y-83053D01*
Y-83010D01*
X194536Y-82954D01*
X194565Y-82813D01*
X194607Y-82630D01*
X194635Y-82404D01*
X194663Y-82164D01*
X194677Y-81897D01*
X194692Y-81615D01*
Y-81601D01*
Y-81558D01*
Y-81488D01*
Y-81375D01*
X194677Y-81403D01*
X194621Y-81474D01*
X194536Y-81572D01*
X194438Y-81713D01*
X194297Y-81854D01*
X194128Y-82009D01*
X193930Y-82164D01*
X193705Y-82305D01*
X193676Y-82319D01*
X193592Y-82362D01*
X193465Y-82418D01*
X193310Y-82475D01*
X193099Y-82545D01*
X192873Y-82601D01*
X192619Y-82644D01*
X192351Y-82658D01*
X192239D01*
X192154Y-82644D01*
X192041Y-82630D01*
X191929Y-82616D01*
X191788Y-82587D01*
X191647Y-82545D01*
X191322Y-82446D01*
X191153Y-82376D01*
X190984Y-82291D01*
X190801Y-82193D01*
X190632Y-82066D01*
X190462Y-81939D01*
X190307Y-81784D01*
X190293Y-81770D01*
X190265Y-81742D01*
X190237Y-81699D01*
X190180Y-81629D01*
X190110Y-81530D01*
X190040Y-81431D01*
X189969Y-81305D01*
X189899Y-81164D01*
X189814Y-81009D01*
X189743Y-80839D01*
X189673Y-80642D01*
X189603Y-80445D01*
X189546Y-80219D01*
X189518Y-79979D01*
X189490Y-79740D01*
X189476Y-79472D01*
Y-79458D01*
Y-79401D01*
Y-79331D01*
X189490Y-79232D01*
X189504Y-79105D01*
X189518Y-78950D01*
X189546Y-78795D01*
X189588Y-78612D01*
X189687Y-78246D01*
X189758Y-78048D01*
X189842Y-77837D01*
X189941Y-77639D01*
X190068Y-77456D01*
X190195Y-77259D01*
X190350Y-77090D01*
X190364Y-77075D01*
X190392Y-77047D01*
X190434Y-77005D01*
X190505Y-76949D01*
X190589Y-76878D01*
X190702Y-76793D01*
X190815Y-76723D01*
X190956Y-76624D01*
X191097Y-76540D01*
X191266Y-76469D01*
X191647Y-76314D01*
X191844Y-76258D01*
X192069Y-76216D01*
X192295Y-76187D01*
X192535Y-76173D01*
X192633D01*
X192704Y-76187D01*
D02*
G37*
G36*
X187728Y-85971D02*
X186360D01*
Y-84603D01*
X187728D01*
Y-85971D01*
D02*
G37*
G36*
X184499Y-77287D02*
X184485Y-77301D01*
X184457Y-77329D01*
X184401Y-77386D01*
X184344Y-77470D01*
X184260Y-77569D01*
X184147Y-77682D01*
X184034Y-77823D01*
X183907Y-77992D01*
X183780Y-78161D01*
X183625Y-78358D01*
X183470Y-78584D01*
X183315Y-78809D01*
X183146Y-79063D01*
X182977Y-79331D01*
X182808Y-79627D01*
X182639Y-79923D01*
X182624Y-79937D01*
X182596Y-79994D01*
X182554Y-80078D01*
X182484Y-80205D01*
X182413Y-80360D01*
X182328Y-80529D01*
X182230Y-80727D01*
X182131Y-80952D01*
X182018Y-81206D01*
X181891Y-81460D01*
X181779Y-81742D01*
X181666Y-82038D01*
X181440Y-82644D01*
X181229Y-83292D01*
Y-83306D01*
X181215Y-83349D01*
X181201Y-83419D01*
X181173Y-83504D01*
X181144Y-83616D01*
X181116Y-83757D01*
X181074Y-83912D01*
X181046Y-84082D01*
X181003Y-84279D01*
X180961Y-84490D01*
X180891Y-84942D01*
X180820Y-85435D01*
X180778Y-85971D01*
X179551D01*
Y-85956D01*
Y-85914D01*
Y-85858D01*
X179566Y-85773D01*
Y-85660D01*
X179580Y-85520D01*
X179594Y-85365D01*
X179608Y-85195D01*
X179636Y-84998D01*
X179664Y-84801D01*
X179706Y-84561D01*
X179749Y-84321D01*
X179791Y-84067D01*
X179847Y-83786D01*
X179988Y-83208D01*
Y-83194D01*
X180002Y-83137D01*
X180031Y-83053D01*
X180073Y-82926D01*
X180115Y-82785D01*
X180172Y-82616D01*
X180228Y-82418D01*
X180313Y-82207D01*
X180397Y-81967D01*
X180482Y-81727D01*
X180693Y-81192D01*
X180947Y-80628D01*
X181229Y-80064D01*
X181243Y-80050D01*
X181271Y-79994D01*
X181313Y-79923D01*
X181370Y-79810D01*
X181440Y-79683D01*
X181539Y-79528D01*
X181638Y-79359D01*
X181751Y-79176D01*
X182018Y-78767D01*
X182300Y-78344D01*
X182624Y-77907D01*
X182963Y-77498D01*
X178184D01*
Y-76342D01*
X184499D01*
Y-77287D01*
D02*
G37*
G36*
X200528Y-76187D02*
X200711Y-76216D01*
X200922Y-76258D01*
X201148Y-76314D01*
X201388Y-76385D01*
X201613Y-76498D01*
X201627D01*
X201641Y-76512D01*
X201712Y-76554D01*
X201825Y-76624D01*
X201966Y-76723D01*
X202121Y-76864D01*
X202290Y-77019D01*
X202445Y-77202D01*
X202600Y-77414D01*
X202614Y-77442D01*
X202670Y-77512D01*
X202727Y-77639D01*
X202826Y-77823D01*
X202910Y-78034D01*
X203023Y-78274D01*
X203121Y-78556D01*
X203206Y-78866D01*
Y-78880D01*
X203220Y-78908D01*
X203234Y-78950D01*
X203248Y-79021D01*
X203263Y-79105D01*
X203277Y-79204D01*
X203305Y-79331D01*
X203319Y-79472D01*
X203347Y-79627D01*
X203361Y-79796D01*
X203375Y-79994D01*
X203403Y-80191D01*
X203418Y-80416D01*
Y-80642D01*
X203432Y-80896D01*
Y-81164D01*
Y-81178D01*
Y-81234D01*
Y-81333D01*
Y-81446D01*
X203418Y-81601D01*
Y-81770D01*
X203403Y-81953D01*
X203389Y-82150D01*
X203347Y-82601D01*
X203277Y-83067D01*
X203192Y-83518D01*
X203136Y-83729D01*
X203065Y-83941D01*
Y-83955D01*
X203051Y-83983D01*
X203023Y-84039D01*
X202995Y-84110D01*
X202966Y-84208D01*
X202910Y-84307D01*
X202797Y-84547D01*
X202656Y-84801D01*
X202473Y-85083D01*
X202262Y-85336D01*
X202008Y-85576D01*
X201994D01*
X201980Y-85604D01*
X201937Y-85632D01*
X201881Y-85660D01*
X201810Y-85703D01*
X201740Y-85759D01*
X201529Y-85858D01*
X201275Y-85956D01*
X200979Y-86055D01*
X200626Y-86112D01*
X200246Y-86140D01*
X200105D01*
X200006Y-86126D01*
X199893Y-86112D01*
X199752Y-86083D01*
X199597Y-86055D01*
X199428Y-86013D01*
X199259Y-85956D01*
X199076Y-85900D01*
X198892Y-85816D01*
X198709Y-85717D01*
X198526Y-85604D01*
X198343Y-85463D01*
X198174Y-85308D01*
X198018Y-85139D01*
X198004Y-85125D01*
X197976Y-85083D01*
X197934Y-85012D01*
X197863Y-84899D01*
X197793Y-84772D01*
X197722Y-84603D01*
X197624Y-84406D01*
X197539Y-84180D01*
X197454Y-83927D01*
X197370Y-83631D01*
X197285Y-83306D01*
X197215Y-82940D01*
X197144Y-82545D01*
X197102Y-82122D01*
X197074Y-81657D01*
X197060Y-81164D01*
Y-81150D01*
Y-81093D01*
Y-80994D01*
Y-80882D01*
X197074Y-80727D01*
Y-80557D01*
X197088Y-80374D01*
X197102Y-80163D01*
X197144Y-79726D01*
X197215Y-79261D01*
X197299Y-78795D01*
X197356Y-78584D01*
X197412Y-78372D01*
Y-78358D01*
X197426Y-78330D01*
X197454Y-78274D01*
X197483Y-78203D01*
X197511Y-78105D01*
X197567Y-78006D01*
X197680Y-77766D01*
X197821Y-77512D01*
X198004Y-77245D01*
X198216Y-76977D01*
X198470Y-76751D01*
X198484D01*
X198498Y-76723D01*
X198540Y-76695D01*
X198596Y-76667D01*
X198667Y-76610D01*
X198752Y-76568D01*
X198963Y-76455D01*
X199217Y-76357D01*
X199513Y-76258D01*
X199865Y-76201D01*
X200246Y-76173D01*
X200373D01*
X200528Y-76187D01*
D02*
G37*
G36*
X173799Y181640D02*
X173925Y181626D01*
X174052Y181612D01*
X174207Y181584D01*
X174363Y181541D01*
X174715Y181443D01*
X174898Y181372D01*
X175096Y181274D01*
X175279Y181175D01*
X175448Y181062D01*
X175631Y180921D01*
X175786Y180766D01*
X175800Y180752D01*
X175814Y180738D01*
X175857Y180696D01*
X175899Y180639D01*
X176012Y180498D01*
X176139Y180301D01*
X176266Y180061D01*
X176364Y179779D01*
X176449Y179469D01*
X176463Y179314D01*
X176477Y179145D01*
Y179131D01*
Y179088D01*
X176463Y179018D01*
X176449Y178933D01*
X176435Y178821D01*
X176407Y178694D01*
X176364Y178553D01*
X176308Y178398D01*
X176223Y178243D01*
X176139Y178074D01*
X176026Y177904D01*
X175885Y177735D01*
X175716Y177566D01*
X175533Y177397D01*
X175321Y177242D01*
X175067Y177087D01*
X175082D01*
X175110Y177073D01*
X175152D01*
X175208Y177045D01*
X175363Y177002D01*
X175547Y176918D01*
X175758Y176805D01*
X175984Y176664D01*
X176209Y176481D01*
X176407Y176269D01*
X176435Y176241D01*
X176491Y176156D01*
X176562Y176029D01*
X176660Y175846D01*
X176759Y175635D01*
X176829Y175367D01*
X176886Y175085D01*
X176914Y174761D01*
Y174747D01*
Y174704D01*
Y174634D01*
X176900Y174549D01*
X176886Y174436D01*
X176858Y174310D01*
X176829Y174155D01*
X176801Y174000D01*
X176688Y173661D01*
X176604Y173478D01*
X176519Y173281D01*
X176407Y173097D01*
X176280Y172914D01*
X176139Y172731D01*
X175970Y172562D01*
X175956Y172547D01*
X175927Y172519D01*
X175871Y172477D01*
X175800Y172421D01*
X175702Y172350D01*
X175603Y172280D01*
X175462Y172195D01*
X175321Y172111D01*
X175166Y172026D01*
X174983Y171941D01*
X174785Y171871D01*
X174588Y171800D01*
X174363Y171744D01*
X174137Y171702D01*
X173883Y171674D01*
X173629Y171659D01*
X173503D01*
X173404Y171674D01*
X173291Y171688D01*
X173164Y171702D01*
X173023Y171730D01*
X172854Y171758D01*
X172516Y171843D01*
X172149Y171984D01*
X171952Y172068D01*
X171783Y172167D01*
X171600Y172294D01*
X171430Y172421D01*
X171416Y172435D01*
X171388Y172463D01*
X171346Y172505D01*
X171289Y172562D01*
X171219Y172632D01*
X171148Y172731D01*
X171064Y172829D01*
X170979Y172956D01*
X170895Y173097D01*
X170796Y173238D01*
X170641Y173577D01*
X170514Y173971D01*
X170458Y174183D01*
X170429Y174408D01*
X172234Y174634D01*
Y174620D01*
Y174606D01*
X172248Y174521D01*
X172276Y174394D01*
X172318Y174239D01*
X172389Y174070D01*
X172459Y173887D01*
X172572Y173718D01*
X172699Y173563D01*
X172713Y173548D01*
X172770Y173506D01*
X172854Y173450D01*
X172953Y173393D01*
X173094Y173323D01*
X173249Y173267D01*
X173418Y173224D01*
X173615Y173210D01*
X173644D01*
X173714Y173224D01*
X173813Y173238D01*
X173954Y173267D01*
X174109Y173323D01*
X174264Y173393D01*
X174433Y173506D01*
X174588Y173647D01*
X174602Y173661D01*
X174659Y173732D01*
X174715Y173830D01*
X174799Y173957D01*
X174870Y174126D01*
X174940Y174338D01*
X174983Y174578D01*
X174997Y174845D01*
Y174859D01*
Y174874D01*
Y174958D01*
X174983Y175085D01*
X174955Y175254D01*
X174898Y175437D01*
X174828Y175621D01*
X174729Y175804D01*
X174602Y175973D01*
X174588Y175987D01*
X174532Y176044D01*
X174447Y176114D01*
X174348Y176185D01*
X174207Y176269D01*
X174052Y176325D01*
X173883Y176382D01*
X173686Y176396D01*
X173545D01*
X173446Y176382D01*
X173319Y176368D01*
X173164Y176340D01*
X173009Y176297D01*
X172826Y176255D01*
X173023Y177763D01*
X173150D01*
X173291Y177778D01*
X173460Y177792D01*
X173644Y177834D01*
X173841Y177890D01*
X174024Y177975D01*
X174193Y178088D01*
X174207Y178102D01*
X174264Y178158D01*
X174320Y178229D01*
X174405Y178341D01*
X174475Y178468D01*
X174546Y178623D01*
X174588Y178807D01*
X174602Y179018D01*
Y179046D01*
Y179103D01*
X174588Y179187D01*
X174560Y179300D01*
X174532Y179427D01*
X174475Y179554D01*
X174405Y179695D01*
X174306Y179807D01*
X174292Y179822D01*
X174250Y179850D01*
X174193Y179906D01*
X174095Y179963D01*
X173982Y180005D01*
X173855Y180061D01*
X173686Y180089D01*
X173517Y180103D01*
X173432D01*
X173347Y180089D01*
X173235Y180061D01*
X173108Y180019D01*
X172967Y179963D01*
X172826Y179878D01*
X172699Y179765D01*
X172685Y179751D01*
X172643Y179709D01*
X172586Y179624D01*
X172516Y179511D01*
X172445Y179385D01*
X172389Y179215D01*
X172332Y179018D01*
X172290Y178792D01*
X170570Y179074D01*
Y179088D01*
X170585Y179117D01*
Y179159D01*
X170599Y179230D01*
X170641Y179385D01*
X170697Y179596D01*
X170782Y179822D01*
X170867Y180061D01*
X170979Y180287D01*
X171106Y180498D01*
X171120Y180526D01*
X171177Y180583D01*
X171261Y180681D01*
X171374Y180808D01*
X171515Y180935D01*
X171684Y181076D01*
X171896Y181217D01*
X172121Y181344D01*
X172135D01*
X172149Y181358D01*
X172234Y181386D01*
X172375Y181443D01*
X172544Y181499D01*
X172756Y181556D01*
X173009Y181612D01*
X173277Y181640D01*
X173573Y181654D01*
X173700D01*
X173799Y181640D01*
D02*
G37*
G36*
X187938Y171843D02*
X186063D01*
Y173718D01*
X187938D01*
Y171843D01*
D02*
G37*
G36*
X181538Y181640D02*
X181665Y181626D01*
X181806Y181612D01*
X181961Y181584D01*
X182130Y181556D01*
X182496Y181457D01*
X182863Y181316D01*
X183060Y181231D01*
X183230Y181133D01*
X183413Y181006D01*
X183568Y180865D01*
X183582Y180851D01*
X183610Y180837D01*
X183638Y180780D01*
X183695Y180724D01*
X183765Y180653D01*
X183836Y180555D01*
X183906Y180456D01*
X183991Y180329D01*
X184132Y180047D01*
X184273Y179723D01*
X184329Y179540D01*
X184357Y179342D01*
X184386Y179131D01*
X184400Y178919D01*
Y178891D01*
Y178807D01*
X184386Y178680D01*
X184371Y178525D01*
X184343Y178327D01*
X184301Y178116D01*
X184244Y177890D01*
X184160Y177665D01*
X184146Y177637D01*
X184118Y177566D01*
X184061Y177439D01*
X183977Y177284D01*
X183878Y177101D01*
X183751Y176889D01*
X183596Y176664D01*
X183413Y176424D01*
X183399Y176410D01*
X183342Y176340D01*
X183258Y176241D01*
X183131Y176100D01*
X182962Y175931D01*
X182750Y175705D01*
X182496Y175466D01*
X182186Y175170D01*
X182172Y175156D01*
X182144Y175141D01*
X182102Y175099D01*
X182045Y175043D01*
X181890Y174902D01*
X181707Y174732D01*
X181524Y174549D01*
X181341Y174366D01*
X181171Y174211D01*
X181115Y174140D01*
X181059Y174084D01*
X181045Y174070D01*
X181016Y174042D01*
X180974Y173985D01*
X180918Y173915D01*
X180791Y173760D01*
X180678Y173577D01*
X184400D01*
Y171843D01*
X177845D01*
Y171857D01*
Y171885D01*
X177859Y171941D01*
X177873Y172012D01*
X177887Y172096D01*
X177901Y172195D01*
X177957Y172449D01*
X178042Y172731D01*
X178155Y173041D01*
X178296Y173379D01*
X178479Y173703D01*
Y173718D01*
X178507Y173746D01*
X178535Y173802D01*
X178592Y173859D01*
X178648Y173957D01*
X178733Y174056D01*
X178831Y174183D01*
X178944Y174324D01*
X179071Y174493D01*
X179226Y174662D01*
X179395Y174859D01*
X179592Y175071D01*
X179804Y175282D01*
X180044Y175522D01*
X180297Y175776D01*
X180579Y176044D01*
X180593Y176058D01*
X180636Y176100D01*
X180692Y176156D01*
X180777Y176241D01*
X180889Y176325D01*
X181002Y176438D01*
X181256Y176692D01*
X181510Y176960D01*
X181763Y177228D01*
X181876Y177341D01*
X181989Y177467D01*
X182074Y177566D01*
X182130Y177651D01*
X182144Y177679D01*
X182186Y177749D01*
X182257Y177862D01*
X182327Y178017D01*
X182398Y178186D01*
X182468Y178384D01*
X182511Y178581D01*
X182525Y178792D01*
Y178807D01*
Y178821D01*
Y178891D01*
X182511Y179018D01*
X182482Y179159D01*
X182440Y179314D01*
X182384Y179469D01*
X182299Y179624D01*
X182186Y179765D01*
X182172Y179779D01*
X182130Y179822D01*
X182045Y179878D01*
X181947Y179934D01*
X181806Y179991D01*
X181651Y180047D01*
X181467Y180089D01*
X181256Y180103D01*
X181157D01*
X181045Y180089D01*
X180918Y180061D01*
X180763Y180019D01*
X180607Y179948D01*
X180452Y179864D01*
X180312Y179751D01*
X180297Y179737D01*
X180255Y179681D01*
X180199Y179596D01*
X180142Y179469D01*
X180072Y179314D01*
X180015Y179103D01*
X179959Y178863D01*
X179931Y178581D01*
X178070Y178764D01*
Y178778D01*
X178084Y178835D01*
Y178905D01*
X178112Y179018D01*
X178126Y179145D01*
X178169Y179286D01*
X178211Y179441D01*
X178253Y179624D01*
X178394Y179977D01*
X178563Y180343D01*
X178676Y180526D01*
X178803Y180696D01*
X178944Y180837D01*
X179099Y180977D01*
X179113Y180992D01*
X179141Y181006D01*
X179184Y181034D01*
X179254Y181090D01*
X179339Y181133D01*
X179452Y181189D01*
X179564Y181259D01*
X179705Y181316D01*
X179860Y181386D01*
X180030Y181443D01*
X180396Y181556D01*
X180833Y181626D01*
X181059Y181640D01*
X181298Y181654D01*
X181439D01*
X181538Y181640D01*
D02*
G37*
G36*
X200442D02*
X200555Y181626D01*
X200696Y181598D01*
X200837Y181570D01*
X201006Y181527D01*
X201189Y181471D01*
X201358Y181400D01*
X201542Y181330D01*
X201725Y181231D01*
X201908Y181104D01*
X202091Y180977D01*
X202260Y180822D01*
X202416Y180639D01*
X202430Y180625D01*
X202458Y180583D01*
X202500Y180512D01*
X202571Y180414D01*
X202641Y180273D01*
X202726Y180103D01*
X202810Y179920D01*
X202895Y179681D01*
X202979Y179427D01*
X203078Y179131D01*
X203149Y178807D01*
X203219Y178440D01*
X203290Y178045D01*
X203332Y177622D01*
X203360Y177157D01*
X203374Y176650D01*
Y176636D01*
Y176621D01*
Y176579D01*
Y176523D01*
Y176382D01*
X203360Y176199D01*
X203346Y175973D01*
X203318Y175705D01*
X203290Y175423D01*
X203261Y175113D01*
X203205Y174789D01*
X203134Y174451D01*
X203064Y174126D01*
X202965Y173802D01*
X202867Y173478D01*
X202726Y173182D01*
X202585Y172900D01*
X202416Y172660D01*
X202401Y172646D01*
X202373Y172618D01*
X202331Y172562D01*
X202275Y172505D01*
X202190Y172435D01*
X202091Y172350D01*
X201964Y172251D01*
X201838Y172167D01*
X201682Y172068D01*
X201527Y171970D01*
X201344Y171885D01*
X201147Y171814D01*
X200935Y171758D01*
X200696Y171702D01*
X200456Y171674D01*
X200202Y171659D01*
X200146D01*
X200061Y171674D01*
X199963D01*
X199850Y171688D01*
X199709Y171716D01*
X199554Y171744D01*
X199385Y171800D01*
X199201Y171857D01*
X199018Y171927D01*
X198821Y172012D01*
X198638Y172125D01*
X198440Y172237D01*
X198257Y172392D01*
X198074Y172547D01*
X197904Y172745D01*
X197890Y172759D01*
X197862Y172801D01*
X197820Y172872D01*
X197778Y172956D01*
X197707Y173083D01*
X197637Y173238D01*
X197552Y173436D01*
X197482Y173647D01*
X197397Y173901D01*
X197312Y174183D01*
X197242Y174507D01*
X197186Y174859D01*
X197129Y175254D01*
X197087Y175691D01*
X197059Y176156D01*
X197045Y176664D01*
Y176678D01*
Y176692D01*
Y176734D01*
Y176791D01*
Y176932D01*
X197059Y177115D01*
X197073Y177341D01*
X197101Y177608D01*
X197129Y177890D01*
X197157Y178200D01*
X197214Y178525D01*
X197270Y178849D01*
X197355Y179187D01*
X197439Y179511D01*
X197552Y179822D01*
X197679Y180118D01*
X197820Y180399D01*
X197989Y180639D01*
X198003Y180653D01*
X198031Y180681D01*
X198074Y180738D01*
X198144Y180794D01*
X198215Y180879D01*
X198313Y180963D01*
X198440Y181048D01*
X198567Y181147D01*
X198722Y181245D01*
X198877Y181330D01*
X199060Y181415D01*
X199258Y181499D01*
X199469Y181556D01*
X199709Y181612D01*
X199949Y181640D01*
X200202Y181654D01*
X200343D01*
X200442Y181640D01*
D02*
G37*
G36*
X192858D02*
X192971Y181626D01*
X193111Y181598D01*
X193253Y181570D01*
X193422Y181527D01*
X193605Y181471D01*
X193774Y181400D01*
X193957Y181330D01*
X194141Y181231D01*
X194324Y181104D01*
X194507Y180977D01*
X194676Y180822D01*
X194831Y180639D01*
X194846Y180625D01*
X194874Y180583D01*
X194916Y180512D01*
X194986Y180414D01*
X195057Y180273D01*
X195142Y180103D01*
X195226Y179920D01*
X195311Y179681D01*
X195395Y179427D01*
X195494Y179131D01*
X195564Y178807D01*
X195635Y178440D01*
X195705Y178045D01*
X195748Y177622D01*
X195776Y177157D01*
X195790Y176650D01*
Y176636D01*
Y176621D01*
Y176579D01*
Y176523D01*
Y176382D01*
X195776Y176199D01*
X195762Y175973D01*
X195734Y175705D01*
X195705Y175423D01*
X195677Y175113D01*
X195621Y174789D01*
X195550Y174451D01*
X195480Y174126D01*
X195381Y173802D01*
X195282Y173478D01*
X195142Y173182D01*
X195000Y172900D01*
X194831Y172660D01*
X194817Y172646D01*
X194789Y172618D01*
X194747Y172562D01*
X194690Y172505D01*
X194606Y172435D01*
X194507Y172350D01*
X194380Y172251D01*
X194253Y172167D01*
X194098Y172068D01*
X193943Y171970D01*
X193760Y171885D01*
X193563Y171814D01*
X193351Y171758D01*
X193111Y171702D01*
X192872Y171674D01*
X192618Y171659D01*
X192562D01*
X192477Y171674D01*
X192379D01*
X192266Y171688D01*
X192125Y171716D01*
X191970Y171744D01*
X191800Y171800D01*
X191617Y171857D01*
X191434Y171927D01*
X191237Y172012D01*
X191053Y172125D01*
X190856Y172237D01*
X190673Y172392D01*
X190490Y172547D01*
X190320Y172745D01*
X190306Y172759D01*
X190278Y172801D01*
X190236Y172872D01*
X190193Y172956D01*
X190123Y173083D01*
X190053Y173238D01*
X189968Y173436D01*
X189897Y173647D01*
X189813Y173901D01*
X189728Y174183D01*
X189658Y174507D01*
X189601Y174859D01*
X189545Y175254D01*
X189503Y175691D01*
X189475Y176156D01*
X189460Y176664D01*
Y176678D01*
Y176692D01*
Y176734D01*
Y176791D01*
Y176932D01*
X189475Y177115D01*
X189489Y177341D01*
X189517Y177608D01*
X189545Y177890D01*
X189573Y178200D01*
X189630Y178525D01*
X189686Y178849D01*
X189771Y179187D01*
X189855Y179511D01*
X189968Y179822D01*
X190095Y180118D01*
X190236Y180399D01*
X190405Y180639D01*
X190419Y180653D01*
X190447Y180681D01*
X190490Y180738D01*
X190560Y180794D01*
X190630Y180879D01*
X190729Y180963D01*
X190856Y181048D01*
X190983Y181147D01*
X191138Y181245D01*
X191293Y181330D01*
X191476Y181415D01*
X191674Y181499D01*
X191885Y181556D01*
X192125Y181612D01*
X192364Y181640D01*
X192618Y181654D01*
X192759D01*
X192858Y181640D01*
D02*
G37*
G36*
X362557Y-17096D02*
X359019D01*
X358722Y-18759D01*
X358737D01*
X358751Y-18745D01*
X358835Y-18703D01*
X358962Y-18661D01*
X359117Y-18590D01*
X359315Y-18534D01*
X359526Y-18491D01*
X359766Y-18449D01*
X360005Y-18435D01*
X360132D01*
X360217Y-18449D01*
X360316Y-18463D01*
X360442Y-18477D01*
X360583Y-18506D01*
X360738Y-18548D01*
X361063Y-18661D01*
X361246Y-18731D01*
X361415Y-18816D01*
X361598Y-18929D01*
X361782Y-19055D01*
X361951Y-19196D01*
X362120Y-19351D01*
X362134Y-19366D01*
X362162Y-19394D01*
X362205Y-19450D01*
X362261Y-19521D01*
X362317Y-19605D01*
X362402Y-19718D01*
X362472Y-19845D01*
X362557Y-19986D01*
X362641Y-20141D01*
X362712Y-20324D01*
X362797Y-20522D01*
X362853Y-20719D01*
X362909Y-20944D01*
X362952Y-21184D01*
X362980Y-21438D01*
X362994Y-21706D01*
Y-21720D01*
Y-21762D01*
Y-21818D01*
X362980Y-21903D01*
Y-22016D01*
X362952Y-22143D01*
X362938Y-22284D01*
X362909Y-22425D01*
X362825Y-22763D01*
X362698Y-23129D01*
X362613Y-23327D01*
X362529Y-23510D01*
X362416Y-23693D01*
X362289Y-23877D01*
X362275Y-23891D01*
X362247Y-23933D01*
X362190Y-23989D01*
X362120Y-24074D01*
X362021Y-24173D01*
X361894Y-24285D01*
X361753Y-24398D01*
X361598Y-24511D01*
X361415Y-24638D01*
X361218Y-24751D01*
X361006Y-24863D01*
X360767Y-24962D01*
X360513Y-25047D01*
X360245Y-25103D01*
X359949Y-25145D01*
X359639Y-25159D01*
X359512D01*
X359413Y-25145D01*
X359300Y-25131D01*
X359160Y-25117D01*
X359019Y-25103D01*
X358849Y-25075D01*
X358511Y-24990D01*
X358130Y-24849D01*
X357947Y-24779D01*
X357764Y-24680D01*
X357595Y-24567D01*
X357426Y-24440D01*
X357411Y-24426D01*
X357383Y-24412D01*
X357341Y-24370D01*
X357285Y-24314D01*
X357228Y-24229D01*
X357144Y-24144D01*
X357073Y-24046D01*
X356989Y-23933D01*
X356890Y-23792D01*
X356805Y-23651D01*
X356650Y-23313D01*
X356509Y-22932D01*
X356467Y-22721D01*
X356425Y-22495D01*
X358285Y-22298D01*
Y-22326D01*
X358300Y-22396D01*
X358328Y-22523D01*
X358370Y-22664D01*
X358427Y-22819D01*
X358511Y-22988D01*
X358624Y-23143D01*
X358751Y-23299D01*
X358765Y-23313D01*
X358821Y-23355D01*
X358906Y-23411D01*
X359019Y-23482D01*
X359146Y-23552D01*
X359300Y-23609D01*
X359484Y-23651D01*
X359667Y-23665D01*
X359695D01*
X359766Y-23651D01*
X359879Y-23637D01*
X360019Y-23609D01*
X360174Y-23552D01*
X360344Y-23468D01*
X360513Y-23341D01*
X360668Y-23186D01*
X360682Y-23158D01*
X360738Y-23101D01*
X360795Y-22988D01*
X360879Y-22819D01*
X360950Y-22622D01*
X361020Y-22382D01*
X361063Y-22086D01*
X361077Y-21748D01*
Y-21734D01*
Y-21706D01*
Y-21663D01*
Y-21593D01*
X361063Y-21438D01*
X361020Y-21240D01*
X360978Y-21015D01*
X360908Y-20789D01*
X360809Y-20578D01*
X360668Y-20395D01*
X360654Y-20380D01*
X360597Y-20324D01*
X360499Y-20254D01*
X360386Y-20155D01*
X360231Y-20070D01*
X360048Y-20000D01*
X359836Y-19943D01*
X359611Y-19929D01*
X359526D01*
X359470Y-19943D01*
X359329Y-19972D01*
X359131Y-20014D01*
X358906Y-20099D01*
X358666Y-20225D01*
X358539Y-20310D01*
X358412Y-20409D01*
X358285Y-20522D01*
X358159Y-20648D01*
X356650Y-20437D01*
X357609Y-15348D01*
X362557D01*
Y-17096D01*
D02*
G37*
G36*
X343596D02*
X340058D01*
X339762Y-18759D01*
X339776D01*
X339790Y-18745D01*
X339875Y-18703D01*
X340002Y-18661D01*
X340157Y-18590D01*
X340354Y-18534D01*
X340566Y-18491D01*
X340805Y-18449D01*
X341045Y-18435D01*
X341172D01*
X341256Y-18449D01*
X341355Y-18463D01*
X341482Y-18477D01*
X341623Y-18506D01*
X341778Y-18548D01*
X342102Y-18661D01*
X342285Y-18731D01*
X342455Y-18816D01*
X342638Y-18929D01*
X342821Y-19055D01*
X342990Y-19196D01*
X343159Y-19351D01*
X343174Y-19366D01*
X343202Y-19394D01*
X343244Y-19450D01*
X343300Y-19521D01*
X343357Y-19605D01*
X343441Y-19718D01*
X343512Y-19845D01*
X343596Y-19986D01*
X343681Y-20141D01*
X343751Y-20324D01*
X343836Y-20522D01*
X343893Y-20719D01*
X343949Y-20944D01*
X343991Y-21184D01*
X344019Y-21438D01*
X344034Y-21706D01*
Y-21720D01*
Y-21762D01*
Y-21818D01*
X344019Y-21903D01*
Y-22016D01*
X343991Y-22143D01*
X343977Y-22284D01*
X343949Y-22425D01*
X343864Y-22763D01*
X343737Y-23129D01*
X343653Y-23327D01*
X343568Y-23510D01*
X343456Y-23693D01*
X343329Y-23877D01*
X343315Y-23891D01*
X343286Y-23933D01*
X343230Y-23989D01*
X343159Y-24074D01*
X343061Y-24173D01*
X342934Y-24285D01*
X342793Y-24398D01*
X342638Y-24511D01*
X342455Y-24638D01*
X342257Y-24751D01*
X342046Y-24863D01*
X341806Y-24962D01*
X341552Y-25047D01*
X341285Y-25103D01*
X340989Y-25145D01*
X340678Y-25159D01*
X340551D01*
X340453Y-25145D01*
X340340Y-25131D01*
X340199Y-25117D01*
X340058Y-25103D01*
X339889Y-25075D01*
X339551Y-24990D01*
X339170Y-24849D01*
X338987Y-24779D01*
X338803Y-24680D01*
X338634Y-24567D01*
X338465Y-24440D01*
X338451Y-24426D01*
X338423Y-24412D01*
X338381Y-24370D01*
X338324Y-24314D01*
X338268Y-24229D01*
X338183Y-24144D01*
X338113Y-24046D01*
X338028Y-23933D01*
X337929Y-23792D01*
X337845Y-23651D01*
X337690Y-23313D01*
X337549Y-22932D01*
X337507Y-22721D01*
X337464Y-22495D01*
X339325Y-22298D01*
Y-22326D01*
X339339Y-22396D01*
X339367Y-22523D01*
X339410Y-22664D01*
X339466Y-22819D01*
X339551Y-22988D01*
X339663Y-23143D01*
X339790Y-23299D01*
X339804Y-23313D01*
X339861Y-23355D01*
X339945Y-23411D01*
X340058Y-23482D01*
X340185Y-23552D01*
X340340Y-23609D01*
X340523Y-23651D01*
X340707Y-23665D01*
X340735D01*
X340805Y-23651D01*
X340918Y-23637D01*
X341059Y-23609D01*
X341214Y-23552D01*
X341383Y-23468D01*
X341552Y-23341D01*
X341707Y-23186D01*
X341722Y-23158D01*
X341778Y-23101D01*
X341834Y-22988D01*
X341919Y-22819D01*
X341989Y-22622D01*
X342060Y-22382D01*
X342102Y-22086D01*
X342116Y-21748D01*
Y-21734D01*
Y-21706D01*
Y-21663D01*
Y-21593D01*
X342102Y-21438D01*
X342060Y-21240D01*
X342018Y-21015D01*
X341947Y-20789D01*
X341848Y-20578D01*
X341707Y-20395D01*
X341693Y-20380D01*
X341637Y-20324D01*
X341538Y-20254D01*
X341426Y-20155D01*
X341270Y-20070D01*
X341087Y-20000D01*
X340876Y-19943D01*
X340650Y-19929D01*
X340566D01*
X340509Y-19943D01*
X340368Y-19972D01*
X340171Y-20014D01*
X339945Y-20099D01*
X339706Y-20225D01*
X339579Y-20310D01*
X339452Y-20409D01*
X339325Y-20522D01*
X339198Y-20648D01*
X337690Y-20437D01*
X338648Y-15348D01*
X343596D01*
Y-17096D01*
D02*
G37*
G36*
X352266Y-15179D02*
X352393Y-15193D01*
X352534Y-15207D01*
X352689Y-15235D01*
X352858Y-15263D01*
X353225Y-15362D01*
X353591Y-15503D01*
X353789Y-15588D01*
X353958Y-15686D01*
X354141Y-15813D01*
X354296Y-15954D01*
X354310Y-15968D01*
X354338Y-15982D01*
X354367Y-16039D01*
X354423Y-16095D01*
X354493Y-16165D01*
X354564Y-16264D01*
X354634Y-16363D01*
X354719Y-16490D01*
X354860Y-16772D01*
X355001Y-17096D01*
X355057Y-17279D01*
X355085Y-17477D01*
X355114Y-17688D01*
X355128Y-17899D01*
Y-17928D01*
Y-18012D01*
X355114Y-18139D01*
X355100Y-18294D01*
X355071Y-18491D01*
X355029Y-18703D01*
X354973Y-18929D01*
X354888Y-19154D01*
X354874Y-19182D01*
X354846Y-19253D01*
X354790Y-19380D01*
X354705Y-19535D01*
X354606Y-19718D01*
X354479Y-19929D01*
X354324Y-20155D01*
X354141Y-20395D01*
X354127Y-20409D01*
X354071Y-20479D01*
X353986Y-20578D01*
X353859Y-20719D01*
X353690Y-20888D01*
X353479Y-21114D01*
X353225Y-21353D01*
X352915Y-21649D01*
X352901Y-21663D01*
X352872Y-21677D01*
X352830Y-21720D01*
X352774Y-21776D01*
X352618Y-21917D01*
X352435Y-22086D01*
X352252Y-22269D01*
X352069Y-22453D01*
X351900Y-22608D01*
X351843Y-22678D01*
X351787Y-22735D01*
X351773Y-22749D01*
X351744Y-22777D01*
X351702Y-22833D01*
X351646Y-22904D01*
X351519Y-23059D01*
X351406Y-23242D01*
X355128D01*
Y-24976D01*
X348573D01*
Y-24962D01*
Y-24934D01*
X348587Y-24877D01*
X348601Y-24807D01*
X348615Y-24722D01*
X348629Y-24624D01*
X348685Y-24370D01*
X348770Y-24088D01*
X348883Y-23778D01*
X349024Y-23440D01*
X349207Y-23115D01*
Y-23101D01*
X349235Y-23073D01*
X349263Y-23017D01*
X349320Y-22960D01*
X349376Y-22862D01*
X349461Y-22763D01*
X349560Y-22636D01*
X349672Y-22495D01*
X349799Y-22326D01*
X349954Y-22157D01*
X350123Y-21959D01*
X350321Y-21748D01*
X350532Y-21537D01*
X350772Y-21297D01*
X351026Y-21043D01*
X351307Y-20775D01*
X351322Y-20761D01*
X351364Y-20719D01*
X351420Y-20662D01*
X351505Y-20578D01*
X351618Y-20493D01*
X351730Y-20380D01*
X351984Y-20127D01*
X352238Y-19859D01*
X352492Y-19591D01*
X352604Y-19478D01*
X352717Y-19351D01*
X352802Y-19253D01*
X352858Y-19168D01*
X352872Y-19140D01*
X352915Y-19069D01*
X352985Y-18957D01*
X353056Y-18802D01*
X353126Y-18633D01*
X353196Y-18435D01*
X353239Y-18238D01*
X353253Y-18026D01*
Y-18012D01*
Y-17998D01*
Y-17928D01*
X353239Y-17801D01*
X353211Y-17660D01*
X353168Y-17505D01*
X353112Y-17350D01*
X353027Y-17195D01*
X352915Y-17054D01*
X352901Y-17040D01*
X352858Y-16997D01*
X352774Y-16941D01*
X352675Y-16884D01*
X352534Y-16828D01*
X352379Y-16772D01*
X352196Y-16729D01*
X351984Y-16715D01*
X351885D01*
X351773Y-16729D01*
X351646Y-16758D01*
X351491Y-16800D01*
X351336Y-16870D01*
X351181Y-16955D01*
X351040Y-17068D01*
X351026Y-17082D01*
X350983Y-17138D01*
X350927Y-17223D01*
X350871Y-17350D01*
X350800Y-17505D01*
X350744Y-17716D01*
X350687Y-17956D01*
X350659Y-18238D01*
X348798Y-18054D01*
Y-18040D01*
X348812Y-17984D01*
Y-17914D01*
X348841Y-17801D01*
X348855Y-17674D01*
X348897Y-17533D01*
X348939Y-17378D01*
X348982Y-17195D01*
X349123Y-16842D01*
X349292Y-16476D01*
X349404Y-16292D01*
X349531Y-16123D01*
X349672Y-15982D01*
X349827Y-15841D01*
X349841Y-15827D01*
X349870Y-15813D01*
X349912Y-15785D01*
X349982Y-15728D01*
X350067Y-15686D01*
X350180Y-15630D01*
X350293Y-15559D01*
X350434Y-15503D01*
X350589Y-15432D01*
X350758Y-15376D01*
X351124Y-15263D01*
X351561Y-15193D01*
X351787Y-15179D01*
X352026Y-15165D01*
X352167D01*
X352266Y-15179D01*
D02*
G37*
G36*
X347290Y-24976D02*
X345415D01*
Y-23101D01*
X347290D01*
Y-24976D01*
D02*
G37*
G36*
X35476Y-21601D02*
X31571D01*
X31050Y-24237D01*
X31064Y-24223D01*
X31092Y-24209D01*
X31134Y-24181D01*
X31205Y-24138D01*
X31290Y-24096D01*
X31388Y-24040D01*
X31614Y-23927D01*
X31896Y-23814D01*
X32206Y-23716D01*
X32544Y-23645D01*
X32713Y-23617D01*
X33023D01*
X33108Y-23631D01*
X33221Y-23645D01*
X33348Y-23659D01*
X33489Y-23687D01*
X33644Y-23730D01*
X33982Y-23828D01*
X34165Y-23899D01*
X34348Y-23997D01*
X34532Y-24096D01*
X34715Y-24209D01*
X34884Y-24350D01*
X35053Y-24505D01*
X35068Y-24519D01*
X35096Y-24547D01*
X35138Y-24590D01*
X35194Y-24660D01*
X35265Y-24759D01*
X35335Y-24857D01*
X35420Y-24984D01*
X35505Y-25125D01*
X35575Y-25280D01*
X35660Y-25449D01*
X35730Y-25647D01*
X35800Y-25844D01*
X35857Y-26056D01*
X35899Y-26295D01*
X35927Y-26535D01*
X35942Y-26789D01*
Y-26803D01*
Y-26845D01*
Y-26916D01*
X35927Y-27014D01*
X35913Y-27127D01*
X35899Y-27254D01*
X35871Y-27409D01*
X35843Y-27564D01*
X35758Y-27931D01*
X35617Y-28311D01*
X35533Y-28509D01*
X35420Y-28692D01*
X35307Y-28889D01*
X35166Y-29072D01*
X35152Y-29086D01*
X35124Y-29129D01*
X35068Y-29185D01*
X34997Y-29256D01*
X34898Y-29340D01*
X34786Y-29453D01*
X34645Y-29552D01*
X34490Y-29664D01*
X34320Y-29777D01*
X34123Y-29876D01*
X33911Y-29975D01*
X33686Y-30073D01*
X33446Y-30144D01*
X33179Y-30200D01*
X32897Y-30242D01*
X32601Y-30257D01*
X32474D01*
X32375Y-30242D01*
X32262Y-30228D01*
X32135Y-30214D01*
X31980Y-30200D01*
X31825Y-30158D01*
X31473Y-30073D01*
X31120Y-29946D01*
X30937Y-29862D01*
X30754Y-29763D01*
X30585Y-29650D01*
X30415Y-29523D01*
X30401Y-29509D01*
X30373Y-29495D01*
X30345Y-29439D01*
X30289Y-29383D01*
X30218Y-29312D01*
X30148Y-29227D01*
X30063Y-29115D01*
X29993Y-28988D01*
X29908Y-28861D01*
X29823Y-28706D01*
X29668Y-28368D01*
X29541Y-27973D01*
X29499Y-27761D01*
X29471Y-27536D01*
X30726Y-27437D01*
Y-27451D01*
Y-27479D01*
X30740Y-27522D01*
X30754Y-27592D01*
X30796Y-27747D01*
X30852Y-27959D01*
X30937Y-28170D01*
X31050Y-28410D01*
X31191Y-28621D01*
X31360Y-28819D01*
X31388Y-28833D01*
X31445Y-28889D01*
X31557Y-28960D01*
X31712Y-29044D01*
X31882Y-29129D01*
X32093Y-29199D01*
X32333Y-29256D01*
X32601Y-29270D01*
X32685D01*
X32741Y-29256D01*
X32911Y-29241D01*
X33108Y-29185D01*
X33348Y-29115D01*
X33587Y-29002D01*
X33841Y-28833D01*
X33954Y-28734D01*
X34067Y-28621D01*
X34081Y-28607D01*
X34095Y-28593D01*
X34123Y-28551D01*
X34165Y-28509D01*
X34264Y-28353D01*
X34377Y-28156D01*
X34475Y-27916D01*
X34574Y-27620D01*
X34645Y-27268D01*
X34673Y-27085D01*
Y-26887D01*
Y-26873D01*
Y-26845D01*
Y-26789D01*
X34659Y-26718D01*
Y-26634D01*
X34645Y-26535D01*
X34602Y-26309D01*
X34532Y-26042D01*
X34433Y-25774D01*
X34292Y-25520D01*
X34095Y-25280D01*
Y-25266D01*
X34067Y-25252D01*
X33996Y-25182D01*
X33869Y-25083D01*
X33700Y-24970D01*
X33475Y-24871D01*
X33221Y-24773D01*
X32925Y-24702D01*
X32756Y-24674D01*
X32488D01*
X32375Y-24688D01*
X32234Y-24702D01*
X32065Y-24745D01*
X31896Y-24787D01*
X31712Y-24857D01*
X31529Y-24942D01*
X31515Y-24956D01*
X31459Y-24984D01*
X31374Y-25055D01*
X31261Y-25125D01*
X31149Y-25224D01*
X31036Y-25351D01*
X30909Y-25478D01*
X30810Y-25633D01*
X29682Y-25478D01*
X30627Y-20459D01*
X35476D01*
Y-21601D01*
D02*
G37*
G36*
X16516D02*
X12611D01*
X12089Y-24237D01*
X12104Y-24223D01*
X12132Y-24209D01*
X12174Y-24181D01*
X12244Y-24138D01*
X12329Y-24096D01*
X12428Y-24040D01*
X12653Y-23927D01*
X12935Y-23814D01*
X13245Y-23716D01*
X13584Y-23645D01*
X13753Y-23617D01*
X14063D01*
X14147Y-23631D01*
X14260Y-23645D01*
X14387Y-23659D01*
X14528Y-23687D01*
X14683Y-23730D01*
X15022Y-23828D01*
X15205Y-23899D01*
X15388Y-23997D01*
X15571Y-24096D01*
X15755Y-24209D01*
X15924Y-24350D01*
X16093Y-24505D01*
X16107Y-24519D01*
X16135Y-24547D01*
X16178Y-24590D01*
X16234Y-24660D01*
X16304Y-24759D01*
X16375Y-24857D01*
X16459Y-24984D01*
X16544Y-25125D01*
X16615Y-25280D01*
X16699Y-25449D01*
X16770Y-25647D01*
X16840Y-25844D01*
X16897Y-26056D01*
X16939Y-26295D01*
X16967Y-26535D01*
X16981Y-26789D01*
Y-26803D01*
Y-26845D01*
Y-26916D01*
X16967Y-27014D01*
X16953Y-27127D01*
X16939Y-27254D01*
X16911Y-27409D01*
X16882Y-27564D01*
X16798Y-27931D01*
X16657Y-28311D01*
X16572Y-28509D01*
X16459Y-28692D01*
X16347Y-28889D01*
X16206Y-29072D01*
X16192Y-29086D01*
X16163Y-29129D01*
X16107Y-29185D01*
X16036Y-29256D01*
X15938Y-29340D01*
X15825Y-29453D01*
X15684Y-29552D01*
X15529Y-29664D01*
X15360Y-29777D01*
X15163Y-29876D01*
X14951Y-29975D01*
X14726Y-30073D01*
X14486Y-30144D01*
X14218Y-30200D01*
X13936Y-30242D01*
X13640Y-30257D01*
X13513D01*
X13414Y-30242D01*
X13302Y-30228D01*
X13175Y-30214D01*
X13020Y-30200D01*
X12865Y-30158D01*
X12512Y-30073D01*
X12160Y-29946D01*
X11977Y-29862D01*
X11793Y-29763D01*
X11624Y-29650D01*
X11455Y-29523D01*
X11441Y-29509D01*
X11413Y-29495D01*
X11385Y-29439D01*
X11328Y-29383D01*
X11258Y-29312D01*
X11187Y-29227D01*
X11103Y-29115D01*
X11032Y-28988D01*
X10948Y-28861D01*
X10863Y-28706D01*
X10708Y-28368D01*
X10581Y-27973D01*
X10539Y-27761D01*
X10510Y-27536D01*
X11765Y-27437D01*
Y-27451D01*
Y-27479D01*
X11779Y-27522D01*
X11793Y-27592D01*
X11836Y-27747D01*
X11892Y-27959D01*
X11977Y-28170D01*
X12089Y-28410D01*
X12230Y-28621D01*
X12399Y-28819D01*
X12428Y-28833D01*
X12484Y-28889D01*
X12597Y-28960D01*
X12752Y-29044D01*
X12921Y-29129D01*
X13133Y-29199D01*
X13372Y-29256D01*
X13640Y-29270D01*
X13725D01*
X13781Y-29256D01*
X13950Y-29241D01*
X14147Y-29185D01*
X14387Y-29115D01*
X14627Y-29002D01*
X14881Y-28833D01*
X14993Y-28734D01*
X15106Y-28621D01*
X15120Y-28607D01*
X15134Y-28593D01*
X15163Y-28551D01*
X15205Y-28509D01*
X15303Y-28353D01*
X15416Y-28156D01*
X15515Y-27916D01*
X15614Y-27620D01*
X15684Y-27268D01*
X15712Y-27085D01*
Y-26887D01*
Y-26873D01*
Y-26845D01*
Y-26789D01*
X15698Y-26718D01*
Y-26634D01*
X15684Y-26535D01*
X15642Y-26309D01*
X15571Y-26042D01*
X15473Y-25774D01*
X15332Y-25520D01*
X15134Y-25280D01*
Y-25266D01*
X15106Y-25252D01*
X15036Y-25182D01*
X14909Y-25083D01*
X14740Y-24970D01*
X14514Y-24871D01*
X14260Y-24773D01*
X13964Y-24702D01*
X13795Y-24674D01*
X13527D01*
X13414Y-24688D01*
X13274Y-24702D01*
X13104Y-24745D01*
X12935Y-24787D01*
X12752Y-24857D01*
X12569Y-24942D01*
X12555Y-24956D01*
X12498Y-24984D01*
X12414Y-25055D01*
X12301Y-25125D01*
X12188Y-25224D01*
X12075Y-25351D01*
X11948Y-25478D01*
X11850Y-25633D01*
X10722Y-25478D01*
X11667Y-20459D01*
X16516D01*
Y-21601D01*
D02*
G37*
G36*
X26398Y-30087D02*
X25200D01*
Y-22461D01*
X25185Y-22475D01*
X25115Y-22531D01*
X25030Y-22616D01*
X24890Y-22715D01*
X24734Y-22841D01*
X24537Y-22982D01*
X24311Y-23138D01*
X24058Y-23293D01*
X24044D01*
X24030Y-23307D01*
X23945Y-23363D01*
X23804Y-23434D01*
X23635Y-23518D01*
X23438Y-23617D01*
X23226Y-23716D01*
X23015Y-23814D01*
X22803Y-23899D01*
Y-22743D01*
X22817D01*
X22845Y-22715D01*
X22902Y-22701D01*
X22972Y-22658D01*
X23057Y-22616D01*
X23156Y-22559D01*
X23395Y-22419D01*
X23677Y-22264D01*
X23959Y-22066D01*
X24255Y-21841D01*
X24551Y-21601D01*
X24565Y-21587D01*
X24579Y-21573D01*
X24622Y-21530D01*
X24678Y-21488D01*
X24805Y-21347D01*
X24974Y-21178D01*
X25143Y-20981D01*
X25326Y-20755D01*
X25482Y-20530D01*
X25622Y-20290D01*
X26398D01*
Y-30087D01*
D02*
G37*
G36*
X20139D02*
X18771D01*
Y-28720D01*
X20139D01*
Y-30087D01*
D02*
G37*
%LPC*%
G36*
X-54322Y82045D02*
X-54759D01*
X-54773D01*
X-54788D01*
X-54858D01*
X-54985D01*
X-55154Y82031D01*
X-55337D01*
X-55563Y82017D01*
X-55802Y82003D01*
X-56070Y81975D01*
X-56606Y81904D01*
X-56874Y81862D01*
X-57128Y81806D01*
X-57367Y81749D01*
X-57593Y81665D01*
X-57790Y81580D01*
X-57959Y81481D01*
X-57973D01*
X-57987Y81453D01*
X-58030Y81425D01*
X-58086Y81383D01*
X-58213Y81256D01*
X-58368Y81101D01*
X-58509Y80889D01*
X-58636Y80650D01*
X-58692Y80523D01*
X-58735Y80382D01*
X-58749Y80227D01*
X-58763Y80072D01*
Y79987D01*
X-58749Y79931D01*
X-58720Y79776D01*
X-58678Y79592D01*
X-58594Y79381D01*
X-58467Y79155D01*
X-58382Y79043D01*
X-58298Y78930D01*
X-58185Y78831D01*
X-58058Y78733D01*
X-58044D01*
X-58016Y78704D01*
X-57959Y78676D01*
X-57889Y78634D01*
X-57776Y78591D01*
X-57649Y78535D01*
X-57494Y78493D01*
X-57311Y78436D01*
X-57099Y78380D01*
X-56860Y78324D01*
X-56592Y78267D01*
X-56296Y78225D01*
X-55957Y78183D01*
X-55591Y78155D01*
X-55196Y78140D01*
X-54759Y78126D01*
X-54731D01*
X-54661D01*
X-54534D01*
X-54365Y78140D01*
X-54181D01*
X-53956Y78155D01*
X-53716Y78169D01*
X-53462Y78197D01*
X-52913Y78267D01*
X-52645Y78310D01*
X-52391Y78366D01*
X-52151Y78422D01*
X-51926Y78507D01*
X-51728Y78591D01*
X-51559Y78690D01*
X-51545D01*
X-51531Y78718D01*
X-51432Y78789D01*
X-51305Y78916D01*
X-51164Y79071D01*
X-51024Y79282D01*
X-50897Y79522D01*
X-50798Y79790D01*
X-50784Y79931D01*
X-50770Y80086D01*
Y80170D01*
X-50784Y80227D01*
X-50812Y80368D01*
X-50869Y80565D01*
X-50967Y80777D01*
X-51108Y81016D01*
X-51193Y81129D01*
X-51305Y81242D01*
X-51418Y81355D01*
X-51559Y81467D01*
X-51573D01*
X-51602Y81496D01*
X-51644Y81524D01*
X-51714Y81552D01*
X-51813Y81608D01*
X-51940Y81651D01*
X-52081Y81707D01*
X-52250Y81763D01*
X-52462Y81806D01*
X-52687Y81862D01*
X-52955Y81918D01*
X-53237Y81961D01*
X-53575Y81989D01*
X-53928Y82017D01*
X-54322Y82045D01*
D02*
G37*
G36*
X192831Y-77160D02*
X192605D01*
X192549Y-77174D01*
X192394Y-77188D01*
X192211Y-77245D01*
X191985Y-77315D01*
X191745Y-77442D01*
X191506Y-77597D01*
X191393Y-77710D01*
X191280Y-77823D01*
Y-77837D01*
X191252Y-77851D01*
X191224Y-77893D01*
X191196Y-77935D01*
X191097Y-78076D01*
X190998Y-78274D01*
X190885Y-78513D01*
X190787Y-78809D01*
X190730Y-79148D01*
X190702Y-79514D01*
Y-79528D01*
Y-79556D01*
Y-79599D01*
X190716Y-79669D01*
Y-79754D01*
X190730Y-79838D01*
X190773Y-80050D01*
X190843Y-80290D01*
X190928Y-80543D01*
X191069Y-80797D01*
X191252Y-81023D01*
X191280Y-81051D01*
X191350Y-81107D01*
X191477Y-81206D01*
X191632Y-81305D01*
X191844Y-81417D01*
X192084Y-81516D01*
X192351Y-81572D01*
X192647Y-81601D01*
X192732D01*
X192788Y-81587D01*
X192943Y-81572D01*
X193127Y-81530D01*
X193352Y-81460D01*
X193578Y-81361D01*
X193803Y-81220D01*
X194015Y-81023D01*
X194043Y-80994D01*
X194100Y-80910D01*
X194184Y-80783D01*
X194297Y-80600D01*
X194396Y-80374D01*
X194480Y-80106D01*
X194536Y-79782D01*
X194565Y-79415D01*
Y-79401D01*
Y-79373D01*
Y-79317D01*
X194551Y-79246D01*
Y-79148D01*
X194536Y-79049D01*
X194494Y-78823D01*
X194438Y-78556D01*
X194339Y-78274D01*
X194198Y-78006D01*
X194015Y-77766D01*
Y-77752D01*
X193987Y-77738D01*
X193916Y-77667D01*
X193803Y-77569D01*
X193648Y-77456D01*
X193451Y-77357D01*
X193225Y-77259D01*
X192972Y-77188D01*
X192831Y-77160D01*
D02*
G37*
G36*
X200232D02*
X200147D01*
X200091Y-77174D01*
X199936Y-77202D01*
X199752Y-77245D01*
X199541Y-77329D01*
X199315Y-77456D01*
X199203Y-77541D01*
X199090Y-77625D01*
X198991Y-77738D01*
X198892Y-77865D01*
Y-77879D01*
X198864Y-77907D01*
X198836Y-77964D01*
X198794Y-78034D01*
X198752Y-78147D01*
X198695Y-78274D01*
X198653Y-78429D01*
X198596Y-78612D01*
X198540Y-78823D01*
X198484Y-79063D01*
X198427Y-79331D01*
X198385Y-79627D01*
X198343Y-79965D01*
X198314Y-80332D01*
X198300Y-80727D01*
X198286Y-81164D01*
Y-81192D01*
Y-81262D01*
Y-81389D01*
X198300Y-81558D01*
Y-81742D01*
X198314Y-81967D01*
X198329Y-82207D01*
X198357Y-82460D01*
X198427Y-83010D01*
X198470Y-83278D01*
X198526Y-83532D01*
X198582Y-83771D01*
X198667Y-83997D01*
X198752Y-84194D01*
X198850Y-84364D01*
Y-84378D01*
X198878Y-84392D01*
X198949Y-84490D01*
X199076Y-84617D01*
X199231Y-84758D01*
X199442Y-84899D01*
X199682Y-85026D01*
X199950Y-85125D01*
X200091Y-85139D01*
X200246Y-85153D01*
X200330D01*
X200387Y-85139D01*
X200528Y-85111D01*
X200725Y-85054D01*
X200937Y-84956D01*
X201176Y-84815D01*
X201289Y-84730D01*
X201402Y-84617D01*
X201514Y-84505D01*
X201627Y-84364D01*
Y-84349D01*
X201656Y-84321D01*
X201684Y-84279D01*
X201712Y-84208D01*
X201768Y-84110D01*
X201810Y-83983D01*
X201867Y-83842D01*
X201923Y-83673D01*
X201966Y-83461D01*
X202022Y-83236D01*
X202078Y-82968D01*
X202121Y-82686D01*
X202149Y-82348D01*
X202177Y-81995D01*
X202205Y-81601D01*
Y-81164D01*
Y-81150D01*
Y-81135D01*
Y-81065D01*
Y-80938D01*
X202191Y-80769D01*
Y-80586D01*
X202177Y-80360D01*
X202163Y-80120D01*
X202135Y-79852D01*
X202064Y-79317D01*
X202022Y-79049D01*
X201966Y-78795D01*
X201909Y-78556D01*
X201825Y-78330D01*
X201740Y-78133D01*
X201641Y-77964D01*
Y-77950D01*
X201613Y-77935D01*
X201585Y-77893D01*
X201543Y-77837D01*
X201416Y-77710D01*
X201261Y-77555D01*
X201049Y-77414D01*
X200810Y-77287D01*
X200683Y-77231D01*
X200542Y-77188D01*
X200387Y-77174D01*
X200232Y-77160D01*
D02*
G37*
G36*
X200202Y180103D02*
X200146D01*
X200075Y180089D01*
X200005Y180075D01*
X199906Y180047D01*
X199808Y180005D01*
X199695Y179948D01*
X199596Y179878D01*
X199582Y179864D01*
X199554Y179836D01*
X199512Y179779D01*
X199455Y179709D01*
X199385Y179596D01*
X199328Y179469D01*
X199258Y179300D01*
X199201Y179103D01*
Y179088D01*
X199187Y179074D01*
Y179018D01*
X199173Y178962D01*
X199159Y178877D01*
X199145Y178778D01*
X199131Y178666D01*
X199117Y178525D01*
X199089Y178356D01*
X199075Y178186D01*
X199060Y177975D01*
X199046Y177763D01*
X199032Y177510D01*
Y177256D01*
X199018Y176960D01*
Y176650D01*
Y176636D01*
Y176579D01*
Y176481D01*
Y176368D01*
Y176227D01*
X199032Y176072D01*
Y175889D01*
X199046Y175705D01*
X199060Y175310D01*
X199089Y174916D01*
X199103Y174732D01*
X199131Y174563D01*
X199159Y174408D01*
X199187Y174267D01*
X199201Y174239D01*
X199216Y174169D01*
X199258Y174056D01*
X199300Y173929D01*
X199371Y173788D01*
X199441Y173647D01*
X199526Y173520D01*
X199610Y173421D01*
X199624Y173407D01*
X199653Y173393D01*
X199709Y173351D01*
X199779Y173323D01*
X199864Y173281D01*
X199963Y173238D01*
X200075Y173224D01*
X200202Y173210D01*
X200259D01*
X200329Y173224D01*
X200400Y173238D01*
X200498Y173267D01*
X200597Y173295D01*
X200696Y173351D01*
X200794Y173421D01*
X200809Y173436D01*
X200837Y173464D01*
X200893Y173520D01*
X200949Y173605D01*
X201006Y173703D01*
X201076Y173844D01*
X201147Y174000D01*
X201203Y174197D01*
Y174211D01*
X201217Y174225D01*
Y174281D01*
X201231Y174338D01*
X201245Y174422D01*
X201260Y174521D01*
X201288Y174634D01*
X201302Y174775D01*
X201316Y174930D01*
X201344Y175113D01*
X201358Y175310D01*
X201372Y175536D01*
X201387Y175776D01*
Y176044D01*
X201401Y176340D01*
Y176650D01*
Y176664D01*
Y176720D01*
Y176819D01*
Y176932D01*
Y177073D01*
X201387Y177228D01*
Y177411D01*
X201372Y177594D01*
X201358Y177989D01*
X201330Y178370D01*
X201302Y178553D01*
X201274Y178736D01*
X201245Y178891D01*
X201217Y179018D01*
Y179032D01*
X201203Y179046D01*
X201189Y179117D01*
X201147Y179230D01*
X201105Y179370D01*
X201034Y179511D01*
X200964Y179652D01*
X200879Y179779D01*
X200794Y179878D01*
X200780Y179892D01*
X200752Y179920D01*
X200696Y179948D01*
X200625Y179991D01*
X200541Y180033D01*
X200442Y180075D01*
X200329Y180089D01*
X200202Y180103D01*
D02*
G37*
G36*
X192618D02*
X192562D01*
X192491Y180089D01*
X192421Y180075D01*
X192322Y180047D01*
X192223Y180005D01*
X192111Y179948D01*
X192012Y179878D01*
X191998Y179864D01*
X191970Y179836D01*
X191927Y179779D01*
X191871Y179709D01*
X191800Y179596D01*
X191744Y179469D01*
X191674Y179300D01*
X191617Y179103D01*
Y179088D01*
X191603Y179074D01*
Y179018D01*
X191589Y178962D01*
X191575Y178877D01*
X191561Y178778D01*
X191547Y178666D01*
X191533Y178525D01*
X191504Y178356D01*
X191490Y178186D01*
X191476Y177975D01*
X191462Y177763D01*
X191448Y177510D01*
Y177256D01*
X191434Y176960D01*
Y176650D01*
Y176636D01*
Y176579D01*
Y176481D01*
Y176368D01*
Y176227D01*
X191448Y176072D01*
Y175889D01*
X191462Y175705D01*
X191476Y175310D01*
X191504Y174916D01*
X191519Y174732D01*
X191547Y174563D01*
X191575Y174408D01*
X191603Y174267D01*
X191617Y174239D01*
X191631Y174169D01*
X191674Y174056D01*
X191716Y173929D01*
X191786Y173788D01*
X191857Y173647D01*
X191942Y173520D01*
X192026Y173421D01*
X192040Y173407D01*
X192068Y173393D01*
X192125Y173351D01*
X192195Y173323D01*
X192280Y173281D01*
X192379Y173238D01*
X192491Y173224D01*
X192618Y173210D01*
X192675D01*
X192745Y173224D01*
X192815Y173238D01*
X192914Y173267D01*
X193013Y173295D01*
X193111Y173351D01*
X193210Y173421D01*
X193224Y173436D01*
X193253Y173464D01*
X193309Y173520D01*
X193365Y173605D01*
X193422Y173703D01*
X193492Y173844D01*
X193563Y174000D01*
X193619Y174197D01*
Y174211D01*
X193633Y174225D01*
Y174281D01*
X193647Y174338D01*
X193661Y174422D01*
X193675Y174521D01*
X193704Y174634D01*
X193718Y174775D01*
X193732Y174930D01*
X193760Y175113D01*
X193774Y175310D01*
X193788Y175536D01*
X193802Y175776D01*
Y176044D01*
X193816Y176340D01*
Y176650D01*
Y176664D01*
Y176720D01*
Y176819D01*
Y176932D01*
Y177073D01*
X193802Y177228D01*
Y177411D01*
X193788Y177594D01*
X193774Y177989D01*
X193746Y178370D01*
X193718Y178553D01*
X193689Y178736D01*
X193661Y178891D01*
X193633Y179018D01*
Y179032D01*
X193619Y179046D01*
X193605Y179117D01*
X193563Y179230D01*
X193520Y179370D01*
X193450Y179511D01*
X193379Y179652D01*
X193295Y179779D01*
X193210Y179878D01*
X193196Y179892D01*
X193168Y179920D01*
X193111Y179948D01*
X193041Y179991D01*
X192957Y180033D01*
X192858Y180075D01*
X192745Y180089D01*
X192618Y180103D01*
D02*
G37*
%LPD*%
D24*
X-45080Y100759D02*
X-40000Y85519D01*
X-34920Y100759D01*
X-40000Y60519D02*
X-34920Y45279D01*
X-45080D02*
X-40000Y60519D01*
Y85519D02*
Y110919D01*
Y35119D02*
Y60519D01*
X-42540D02*
X66944D01*
X-42540Y85519D02*
X66944D01*
X0Y-80991D02*
X15240Y-75911D01*
X0Y-80991D02*
X15240Y-86071D01*
X363760D02*
X379000Y-80991D01*
X363760Y-75911D02*
X379000Y-80991D01*
X0D02*
X167983D01*
X205924D02*
X379000D01*
X0Y-83531D02*
Y1190D01*
X379000Y-83531D02*
Y1190D01*
X29440Y176819D02*
X44680Y181899D01*
X29440Y176819D02*
X44680Y171739D01*
X334160D02*
X349400Y176819D01*
X334160Y181899D02*
X349400Y176819D01*
X29440D02*
X167883D01*
X205864D02*
X349400D01*
X29440Y66249D02*
Y179359D01*
X349400Y66249D02*
Y179359D01*
X326500Y-20000D02*
X341740Y-14920D01*
X326500Y-20000D02*
X341740Y-25080D01*
X363760D02*
X379000Y-20000D01*
X363760Y-14920D02*
X379000Y-20000D01*
X326500D02*
X334918D01*
X365489D02*
X379000D01*
X326500Y-22540D02*
Y60550D01*
X379000Y-22540D02*
Y1209D01*
X0Y-25111D02*
X15240Y-20031D01*
X0Y-25111D02*
X15240Y-30191D01*
X36260D02*
X51500Y-25111D01*
X36260Y-20031D02*
X51500Y-25111D01*
X0D02*
X7964D01*
X38443D02*
X51500D01*
X0Y-27651D02*
Y1190D01*
X51500Y-27651D02*
Y60519D01*
M02*
