G04*
G04 #@! TF.GenerationSoftware,Altium Limited,Altium Designer,24.7.2 (38)*
G04*
G04 Layer_Color=16711935*
%FSLAX44Y44*%
%MOMM*%
G71*
G04*
G04 #@! TF.SameCoordinates,83444293-F6EA-4367-A506-F24F9130AE83*
G04*
G04*
G04 #@! TF.FilePolarity,Negative*
G04*
G01*
G75*
%ADD14C,0.8032*%
%ADD20R,0.5032X1.0032*%
%ADD21R,0.6032X1.0032*%
%ADD22R,2.5532X3.0532*%
D14*
X70000Y19019D02*
D03*
X81000Y9019D02*
D03*
X307000Y10019D02*
D03*
X198000Y47936D02*
D03*
X216400Y52819D02*
D03*
X262000Y52019D02*
D03*
X242000Y49019D02*
D03*
X183000Y50019D02*
D03*
X138000D02*
D03*
X163000Y51019D02*
D03*
X113000Y45019D02*
D03*
X64000Y74519D02*
D03*
X76500Y47519D02*
D03*
X89000Y74519D02*
D03*
X114000D02*
D03*
X139000D02*
D03*
X164000D02*
D03*
X189000D02*
D03*
X214000D02*
D03*
X239000D02*
D03*
X264000D02*
D03*
X289000D02*
D03*
X301500Y47519D02*
D03*
X314000Y74519D02*
D03*
D20*
X246500Y12019D02*
D03*
X241500D02*
D03*
X236500D02*
D03*
X221500D02*
D03*
X216500D02*
D03*
X211500D02*
D03*
X201500D02*
D03*
X196500D02*
D03*
X191500D02*
D03*
X186500D02*
D03*
X131500D02*
D03*
X136500D02*
D03*
X141500D02*
D03*
X146500D02*
D03*
X151500D02*
D03*
X156500D02*
D03*
X161500D02*
D03*
X166500D02*
D03*
X171500D02*
D03*
X176500D02*
D03*
X181500D02*
D03*
X206500D02*
D03*
X226500D02*
D03*
X231500D02*
D03*
D21*
X121500Y37019D02*
D03*
X256500D02*
D03*
D22*
X15940Y57019D02*
D03*
X42940D02*
D03*
Y25019D02*
D03*
X15940D02*
D03*
X335900Y57019D02*
D03*
X362900D02*
D03*
Y25019D02*
D03*
X335900D02*
D03*
M02*
