M48
;Layer_Color=9474304
;FILE_FORMAT=4:4
METRIC,LZ
;TYPE=PLATED
T01F00S00C0.3000
%
T01
X0007Y00019019
X00081Y00009019
X000765Y00047519
X00113Y00045019
X00138Y00050019
X00139Y00074519
X00114
X00089
X00064
X00164
X00163Y00051019
X00183Y00050019
X00198Y00047936
X002164Y00052819
X00214Y00074519
X00189
X00239
X00264
X00262Y00052019
X00242Y00049019
X003015Y00047519
X00289Y00074519
X00314
X00307Y00010019
M30
