G04*
G04 #@! TF.GenerationSoftware,Altium Limited,Altium Designer,24.7.2 (38)*
G04*
G04 Layer_Color=32768*
%FSLAX44Y44*%
%MOMM*%
G71*
G04*
G04 #@! TF.SameCoordinates,83444293-F6EA-4367-A506-F24F9130AE83*
G04*
G04*
G04 #@! TF.FilePolarity,Positive*
G04*
G01*
G75*
G36*
X349494Y28194D02*
X348052D01*
Y34239D01*
X346526Y28194D01*
X345032D01*
X343511Y34239D01*
Y28194D01*
X342069D01*
Y35879D01*
X344396D01*
X345787Y30636D01*
X347166Y35879D01*
X349494D01*
Y28194D01*
D02*
G37*
G36*
X353358Y35906D02*
X353436Y35900D01*
X353535Y35890D01*
X353644Y35879D01*
X353769Y35859D01*
X353899Y35833D01*
X354040Y35801D01*
X354185Y35760D01*
X354337Y35713D01*
X354487Y35650D01*
X354633Y35583D01*
X354774Y35499D01*
X354915Y35406D01*
X355039Y35296D01*
X355045Y35291D01*
X355065Y35270D01*
X355102Y35234D01*
X355144Y35187D01*
X355190Y35124D01*
X355248Y35052D01*
X355305Y34968D01*
X355368Y34875D01*
X355425Y34770D01*
X355482Y34656D01*
X355539Y34531D01*
X355591Y34395D01*
X355628Y34250D01*
X355664Y34099D01*
X355685Y33937D01*
X355690Y33771D01*
Y33765D01*
Y33750D01*
Y33719D01*
X355685Y33682D01*
Y33635D01*
X355680Y33583D01*
X355675Y33521D01*
X355670Y33453D01*
X355659Y33380D01*
X355643Y33302D01*
X355612Y33135D01*
X355565Y32958D01*
X355503Y32781D01*
Y32776D01*
X355492Y32761D01*
X355482Y32734D01*
X355466Y32698D01*
X355446Y32656D01*
X355425Y32604D01*
X355393Y32547D01*
X355357Y32485D01*
X355321Y32412D01*
X355279Y32334D01*
X355175Y32167D01*
X355055Y31990D01*
X354915Y31797D01*
X354909Y31792D01*
X354904Y31782D01*
X354883Y31761D01*
X354862Y31735D01*
X354831Y31698D01*
X354795Y31657D01*
X354748Y31605D01*
X354691Y31547D01*
X354628Y31485D01*
X354560Y31412D01*
X354482Y31329D01*
X354394Y31240D01*
X354295Y31146D01*
X354185Y31042D01*
X354071Y30933D01*
X353946Y30818D01*
X353941Y30813D01*
X353915Y30792D01*
X353878Y30756D01*
X353837Y30714D01*
X353779Y30662D01*
X353717Y30605D01*
X353649Y30542D01*
X353576Y30475D01*
X353425Y30329D01*
X353279Y30188D01*
X353212Y30126D01*
X353154Y30069D01*
X353102Y30011D01*
X353061Y29970D01*
X353050Y29959D01*
X353030Y29933D01*
X352998Y29892D01*
X352957Y29839D01*
X352910Y29777D01*
X352858Y29709D01*
X352811Y29636D01*
X352764Y29558D01*
X355690D01*
Y28194D01*
X350525D01*
Y28204D01*
X350530Y28230D01*
X350535Y28272D01*
X350546Y28324D01*
X350556Y28397D01*
X350572Y28475D01*
X350593Y28569D01*
X350619Y28668D01*
X350650Y28777D01*
X350686Y28892D01*
X350723Y29017D01*
X350770Y29142D01*
X350822Y29272D01*
X350884Y29402D01*
X350952Y29532D01*
X351025Y29662D01*
X351030Y29673D01*
X351046Y29694D01*
X351072Y29735D01*
X351108Y29787D01*
X351160Y29860D01*
X351223Y29944D01*
X351301Y30043D01*
X351389Y30152D01*
X351493Y30277D01*
X351618Y30417D01*
X351754Y30568D01*
X351905Y30730D01*
X352071Y30907D01*
X352259Y31094D01*
X352462Y31297D01*
X352686Y31506D01*
X352691Y31511D01*
X352696Y31516D01*
X352728Y31547D01*
X352780Y31594D01*
X352847Y31657D01*
X352925Y31730D01*
X353014Y31818D01*
X353108Y31912D01*
X353212Y32011D01*
X353420Y32219D01*
X353524Y32323D01*
X353618Y32427D01*
X353706Y32521D01*
X353790Y32615D01*
X353852Y32693D01*
X353904Y32761D01*
X353909Y32766D01*
X353920Y32781D01*
X353930Y32807D01*
X353951Y32839D01*
X353977Y32880D01*
X354003Y32927D01*
X354029Y32984D01*
X354061Y33047D01*
X354086Y33115D01*
X354113Y33182D01*
X354165Y33338D01*
X354185Y33417D01*
X354196Y33500D01*
X354206Y33583D01*
X354212Y33667D01*
Y33672D01*
Y33687D01*
Y33713D01*
X354206Y33750D01*
X354201Y33786D01*
X354196Y33833D01*
X354180Y33942D01*
X354149Y34067D01*
X354102Y34193D01*
X354071Y34255D01*
X354035Y34312D01*
X353993Y34369D01*
X353946Y34422D01*
X353941Y34427D01*
X353936Y34432D01*
X353920Y34448D01*
X353899Y34463D01*
X353868Y34484D01*
X353837Y34505D01*
X353800Y34531D01*
X353753Y34557D01*
X353706Y34578D01*
X353649Y34604D01*
X353592Y34625D01*
X353524Y34646D01*
X353378Y34677D01*
X353295Y34682D01*
X353212Y34687D01*
X353170D01*
X353134Y34682D01*
X353097Y34677D01*
X353050Y34671D01*
X352946Y34651D01*
X352832Y34619D01*
X352707Y34567D01*
X352649Y34536D01*
X352587Y34500D01*
X352530Y34458D01*
X352478Y34406D01*
X352472Y34401D01*
X352467Y34395D01*
X352452Y34375D01*
X352436Y34354D01*
X352415Y34323D01*
X352389Y34286D01*
X352363Y34239D01*
X352337Y34187D01*
X352311Y34130D01*
X352285Y34062D01*
X352254Y33984D01*
X352233Y33901D01*
X352212Y33807D01*
X352191Y33708D01*
X352176Y33599D01*
X352165Y33484D01*
X350697Y33635D01*
Y33640D01*
Y33651D01*
X350702Y33667D01*
Y33687D01*
X350707Y33719D01*
X350712Y33750D01*
X350728Y33833D01*
X350749Y33932D01*
X350775Y34047D01*
X350806Y34172D01*
X350848Y34307D01*
X350900Y34448D01*
X350957Y34593D01*
X351020Y34739D01*
X351098Y34885D01*
X351186Y35020D01*
X351285Y35151D01*
X351395Y35270D01*
X351520Y35380D01*
X351530Y35385D01*
X351551Y35401D01*
X351592Y35426D01*
X351645Y35463D01*
X351712Y35505D01*
X351796Y35546D01*
X351889Y35598D01*
X351993Y35645D01*
X352113Y35697D01*
X352248Y35744D01*
X352389Y35786D01*
X352540Y35828D01*
X352701Y35864D01*
X352878Y35890D01*
X353061Y35906D01*
X353248Y35911D01*
X353326D01*
X353358Y35906D01*
D02*
G37*
G36*
X31232Y28194D02*
X29790D01*
Y34239D01*
X28264Y28194D01*
X26770D01*
X25249Y34239D01*
Y28194D01*
X23807D01*
Y35879D01*
X26134D01*
X27525Y30636D01*
X28904Y35879D01*
X31232D01*
Y28194D01*
D02*
G37*
G36*
X36220D02*
X34747D01*
Y33745D01*
X34736Y33734D01*
X34710Y33713D01*
X34663Y33672D01*
X34606Y33620D01*
X34528Y33557D01*
X34434Y33484D01*
X34325Y33406D01*
X34205Y33323D01*
X34075Y33234D01*
X33929Y33141D01*
X33773Y33047D01*
X33606Y32953D01*
X33429Y32865D01*
X33242Y32776D01*
X33049Y32698D01*
X32846Y32625D01*
Y33963D01*
X32851D01*
X32872Y33974D01*
X32903Y33984D01*
X32945Y34000D01*
X33002Y34021D01*
X33065Y34052D01*
X33138Y34083D01*
X33216Y34125D01*
X33304Y34166D01*
X33403Y34218D01*
X33507Y34281D01*
X33617Y34344D01*
X33731Y34416D01*
X33846Y34495D01*
X33971Y34583D01*
X34096Y34677D01*
X34106Y34682D01*
X34127Y34703D01*
X34158Y34729D01*
X34205Y34770D01*
X34262Y34822D01*
X34325Y34880D01*
X34393Y34953D01*
X34465Y35031D01*
X34544Y35119D01*
X34622Y35213D01*
X34695Y35312D01*
X34773Y35421D01*
X34846Y35536D01*
X34913Y35656D01*
X34971Y35781D01*
X35023Y35911D01*
X36220D01*
Y28194D01*
D02*
G37*
G36*
X186641Y64356D02*
X186741Y64345D01*
X186852Y64334D01*
X186974Y64312D01*
X187108Y64290D01*
X187396Y64212D01*
X187685Y64101D01*
X187840Y64035D01*
X187973Y63957D01*
X188118Y63857D01*
X188240Y63746D01*
X188251Y63735D01*
X188273Y63724D01*
X188295Y63679D01*
X188340Y63635D01*
X188395Y63579D01*
X188451Y63502D01*
X188506Y63424D01*
X188573Y63324D01*
X188684Y63102D01*
X188795Y62847D01*
X188839Y62702D01*
X188861Y62547D01*
X188883Y62381D01*
X188895Y62214D01*
Y62192D01*
Y62125D01*
X188883Y62025D01*
X188872Y61903D01*
X188850Y61748D01*
X188817Y61581D01*
X188773Y61404D01*
X188706Y61226D01*
X188695Y61204D01*
X188673Y61149D01*
X188628Y61049D01*
X188562Y60926D01*
X188484Y60782D01*
X188384Y60616D01*
X188262Y60438D01*
X188118Y60249D01*
X188107Y60238D01*
X188062Y60183D01*
X187996Y60105D01*
X187896Y59994D01*
X187763Y59861D01*
X187596Y59683D01*
X187396Y59495D01*
X187152Y59262D01*
X187141Y59250D01*
X187119Y59239D01*
X187085Y59206D01*
X187041Y59162D01*
X186919Y59051D01*
X186775Y58917D01*
X186630Y58773D01*
X186486Y58629D01*
X186353Y58507D01*
X186308Y58451D01*
X186264Y58407D01*
X186253Y58396D01*
X186231Y58374D01*
X186197Y58329D01*
X186153Y58274D01*
X186053Y58152D01*
X185964Y58007D01*
X188895D01*
Y56642D01*
X183733D01*
Y56653D01*
Y56675D01*
X183744Y56720D01*
X183755Y56775D01*
X183766Y56842D01*
X183778Y56919D01*
X183822Y57119D01*
X183889Y57341D01*
X183977Y57586D01*
X184088Y57852D01*
X184233Y58107D01*
Y58118D01*
X184255Y58141D01*
X184277Y58185D01*
X184321Y58229D01*
X184366Y58307D01*
X184433Y58385D01*
X184510Y58485D01*
X184599Y58596D01*
X184699Y58729D01*
X184821Y58862D01*
X184954Y59017D01*
X185110Y59184D01*
X185276Y59350D01*
X185465Y59539D01*
X185665Y59739D01*
X185887Y59950D01*
X185898Y59961D01*
X185931Y59994D01*
X185975Y60038D01*
X186042Y60105D01*
X186131Y60172D01*
X186220Y60261D01*
X186419Y60460D01*
X186619Y60671D01*
X186819Y60882D01*
X186908Y60971D01*
X186997Y61071D01*
X187063Y61149D01*
X187108Y61215D01*
X187119Y61237D01*
X187152Y61293D01*
X187208Y61382D01*
X187263Y61504D01*
X187318Y61637D01*
X187374Y61792D01*
X187407Y61948D01*
X187418Y62114D01*
Y62125D01*
Y62136D01*
Y62192D01*
X187407Y62292D01*
X187385Y62403D01*
X187352Y62525D01*
X187307Y62647D01*
X187241Y62769D01*
X187152Y62880D01*
X187141Y62891D01*
X187108Y62924D01*
X187041Y62969D01*
X186963Y63013D01*
X186852Y63058D01*
X186730Y63102D01*
X186586Y63135D01*
X186419Y63147D01*
X186342D01*
X186253Y63135D01*
X186153Y63113D01*
X186031Y63080D01*
X185909Y63024D01*
X185787Y62958D01*
X185676Y62869D01*
X185665Y62858D01*
X185631Y62814D01*
X185587Y62747D01*
X185543Y62647D01*
X185487Y62525D01*
X185443Y62358D01*
X185398Y62170D01*
X185376Y61948D01*
X183911Y62092D01*
Y62103D01*
X183922Y62147D01*
Y62203D01*
X183944Y62292D01*
X183955Y62392D01*
X183988Y62503D01*
X184022Y62625D01*
X184055Y62769D01*
X184166Y63047D01*
X184299Y63335D01*
X184388Y63479D01*
X184488Y63613D01*
X184599Y63724D01*
X184721Y63835D01*
X184732Y63846D01*
X184754Y63857D01*
X184788Y63879D01*
X184843Y63924D01*
X184910Y63957D01*
X184999Y64001D01*
X185087Y64057D01*
X185198Y64101D01*
X185320Y64157D01*
X185454Y64201D01*
X185742Y64290D01*
X186086Y64345D01*
X186264Y64356D01*
X186453Y64367D01*
X186564D01*
X186641Y64356D01*
D02*
G37*
G36*
X181713Y56642D02*
X180237D01*
Y62203D01*
X180226Y62192D01*
X180203Y62170D01*
X180159Y62136D01*
X180093Y62081D01*
X180015Y62014D01*
X179926Y61948D01*
X179815Y61870D01*
X179693Y61781D01*
X179560Y61692D01*
X179415Y61604D01*
X179260Y61504D01*
X179093Y61415D01*
X178738Y61248D01*
X178339Y61093D01*
Y62425D01*
X178350D01*
X178361Y62436D01*
X178394Y62447D01*
X178439Y62458D01*
X178550Y62514D01*
X178705Y62580D01*
X178894Y62669D01*
X179105Y62791D01*
X179338Y62947D01*
X179582Y63124D01*
X179593Y63135D01*
X179615Y63147D01*
X179648Y63180D01*
X179693Y63224D01*
X179815Y63335D01*
X179948Y63479D01*
X180104Y63657D01*
X180259Y63879D01*
X180403Y64112D01*
X180514Y64367D01*
X181713D01*
Y56642D01*
D02*
G37*
G36*
X174076Y64312D02*
X174365D01*
X174676Y64290D01*
X174987Y64268D01*
X175120Y64257D01*
X175253Y64245D01*
X175364Y64223D01*
X175453Y64201D01*
X175464D01*
X175486Y64190D01*
X175519Y64179D01*
X175564Y64168D01*
X175686Y64112D01*
X175841Y64046D01*
X176008Y63946D01*
X176196Y63812D01*
X176374Y63646D01*
X176552Y63446D01*
Y63435D01*
X176574Y63424D01*
X176596Y63391D01*
X176618Y63346D01*
X176663Y63280D01*
X176696Y63213D01*
X176740Y63135D01*
X176785Y63047D01*
X176863Y62825D01*
X176940Y62580D01*
X176985Y62281D01*
X177007Y61959D01*
Y61948D01*
Y61926D01*
Y61892D01*
Y61837D01*
X176996Y61781D01*
Y61704D01*
X176973Y61548D01*
X176940Y61359D01*
X176896Y61149D01*
X176829Y60949D01*
X176740Y60760D01*
X176729Y60738D01*
X176696Y60682D01*
X176640Y60594D01*
X176563Y60483D01*
X176474Y60371D01*
X176352Y60238D01*
X176230Y60116D01*
X176085Y60005D01*
X176063Y59994D01*
X176019Y59961D01*
X175941Y59916D01*
X175841Y59861D01*
X175719Y59794D01*
X175586Y59739D01*
X175442Y59683D01*
X175286Y59639D01*
X175264D01*
X175231Y59628D01*
X175186D01*
X175131Y59617D01*
X175053Y59606D01*
X174975Y59594D01*
X174876D01*
X174776Y59583D01*
X174654Y59572D01*
X174520Y59561D01*
X174376Y59550D01*
X174221D01*
X174054Y59539D01*
X172678D01*
Y56642D01*
X171124D01*
Y64323D01*
X173954D01*
X174076Y64312D01*
D02*
G37*
G36*
X170114Y63024D02*
X167849D01*
Y56642D01*
X166296D01*
Y63024D01*
X164020D01*
Y64323D01*
X170114D01*
Y63024D01*
D02*
G37*
G36*
X338100Y59472D02*
X339054D01*
Y58185D01*
X338100D01*
Y56642D01*
X336679D01*
Y58185D01*
X333527D01*
Y59461D01*
X336857Y64356D01*
X338100D01*
Y59472D01*
D02*
G37*
G36*
X330530Y64356D02*
X330630Y64345D01*
X330741Y64334D01*
X330863Y64312D01*
X330996Y64290D01*
X331284Y64212D01*
X331573Y64101D01*
X331729Y64035D01*
X331862Y63957D01*
X332006Y63857D01*
X332128Y63746D01*
X332139Y63735D01*
X332161Y63724D01*
X332184Y63679D01*
X332228Y63635D01*
X332284Y63579D01*
X332339Y63502D01*
X332394Y63424D01*
X332461Y63324D01*
X332572Y63102D01*
X332683Y62847D01*
X332728Y62702D01*
X332750Y62547D01*
X332772Y62381D01*
X332783Y62214D01*
Y62192D01*
Y62125D01*
X332772Y62025D01*
X332761Y61903D01*
X332739Y61748D01*
X332705Y61581D01*
X332661Y61404D01*
X332594Y61226D01*
X332583Y61204D01*
X332561Y61149D01*
X332517Y61049D01*
X332450Y60926D01*
X332372Y60782D01*
X332272Y60616D01*
X332150Y60438D01*
X332006Y60249D01*
X331995Y60238D01*
X331950Y60183D01*
X331884Y60105D01*
X331784Y59994D01*
X331651Y59861D01*
X331484Y59683D01*
X331284Y59495D01*
X331040Y59262D01*
X331029Y59250D01*
X331007Y59239D01*
X330974Y59206D01*
X330929Y59162D01*
X330807Y59051D01*
X330663Y58917D01*
X330519Y58773D01*
X330374Y58629D01*
X330241Y58507D01*
X330197Y58451D01*
X330152Y58407D01*
X330141Y58396D01*
X330119Y58374D01*
X330086Y58329D01*
X330041Y58274D01*
X329941Y58152D01*
X329853Y58007D01*
X332783D01*
Y56642D01*
X327621D01*
Y56653D01*
Y56675D01*
X327633Y56720D01*
X327644Y56775D01*
X327655Y56842D01*
X327666Y56919D01*
X327710Y57119D01*
X327777Y57341D01*
X327866Y57586D01*
X327977Y57852D01*
X328121Y58107D01*
Y58118D01*
X328143Y58141D01*
X328165Y58185D01*
X328210Y58229D01*
X328254Y58307D01*
X328321Y58385D01*
X328399Y58485D01*
X328487Y58596D01*
X328587Y58729D01*
X328709Y58862D01*
X328843Y59017D01*
X328998Y59184D01*
X329164Y59350D01*
X329353Y59539D01*
X329553Y59739D01*
X329775Y59950D01*
X329786Y59961D01*
X329819Y59994D01*
X329864Y60038D01*
X329930Y60105D01*
X330019Y60172D01*
X330108Y60261D01*
X330308Y60460D01*
X330508Y60671D01*
X330707Y60882D01*
X330796Y60971D01*
X330885Y61071D01*
X330951Y61149D01*
X330996Y61215D01*
X331007Y61237D01*
X331040Y61293D01*
X331096Y61382D01*
X331151Y61504D01*
X331207Y61637D01*
X331262Y61792D01*
X331296Y61948D01*
X331307Y62114D01*
Y62125D01*
Y62136D01*
Y62192D01*
X331296Y62292D01*
X331273Y62403D01*
X331240Y62525D01*
X331196Y62647D01*
X331129Y62769D01*
X331040Y62880D01*
X331029Y62891D01*
X330996Y62924D01*
X330929Y62969D01*
X330852Y63013D01*
X330741Y63058D01*
X330619Y63102D01*
X330474Y63135D01*
X330308Y63147D01*
X330230D01*
X330141Y63135D01*
X330041Y63113D01*
X329919Y63080D01*
X329797Y63024D01*
X329675Y62958D01*
X329564Y62869D01*
X329553Y62858D01*
X329520Y62814D01*
X329475Y62747D01*
X329431Y62647D01*
X329375Y62525D01*
X329331Y62358D01*
X329286Y62170D01*
X329264Y61948D01*
X327799Y62092D01*
Y62103D01*
X327810Y62147D01*
Y62203D01*
X327832Y62292D01*
X327844Y62392D01*
X327877Y62503D01*
X327910Y62625D01*
X327943Y62769D01*
X328054Y63047D01*
X328188Y63335D01*
X328276Y63479D01*
X328376Y63613D01*
X328487Y63724D01*
X328609Y63835D01*
X328620Y63846D01*
X328643Y63857D01*
X328676Y63879D01*
X328731Y63924D01*
X328798Y63957D01*
X328887Y64001D01*
X328976Y64057D01*
X329087Y64101D01*
X329209Y64157D01*
X329342Y64201D01*
X329631Y64290D01*
X329975Y64345D01*
X330152Y64356D01*
X330341Y64367D01*
X330452D01*
X330530Y64356D01*
D02*
G37*
G36*
X323936Y64312D02*
X324225D01*
X324536Y64290D01*
X324847Y64268D01*
X324980Y64257D01*
X325113Y64245D01*
X325224Y64223D01*
X325313Y64201D01*
X325324D01*
X325346Y64190D01*
X325379Y64179D01*
X325424Y64168D01*
X325546Y64112D01*
X325701Y64046D01*
X325868Y63946D01*
X326057Y63812D01*
X326234Y63646D01*
X326412Y63446D01*
Y63435D01*
X326434Y63424D01*
X326456Y63391D01*
X326478Y63346D01*
X326523Y63280D01*
X326556Y63213D01*
X326600Y63135D01*
X326645Y63047D01*
X326722Y62825D01*
X326800Y62580D01*
X326845Y62281D01*
X326867Y61959D01*
Y61948D01*
Y61926D01*
Y61892D01*
Y61837D01*
X326856Y61781D01*
Y61704D01*
X326833Y61548D01*
X326800Y61359D01*
X326756Y61149D01*
X326689Y60949D01*
X326600Y60760D01*
X326589Y60738D01*
X326556Y60682D01*
X326501Y60594D01*
X326423Y60483D01*
X326334Y60371D01*
X326212Y60238D01*
X326090Y60116D01*
X325946Y60005D01*
X325923Y59994D01*
X325879Y59961D01*
X325801Y59916D01*
X325701Y59861D01*
X325579Y59794D01*
X325446Y59739D01*
X325302Y59683D01*
X325146Y59639D01*
X325124D01*
X325091Y59628D01*
X325046D01*
X324991Y59617D01*
X324913Y59606D01*
X324836Y59594D01*
X324736D01*
X324636Y59583D01*
X324514Y59572D01*
X324380Y59561D01*
X324236Y59550D01*
X324081D01*
X323914Y59539D01*
X322538D01*
Y56642D01*
X320984D01*
Y64323D01*
X323814D01*
X323936Y64312D01*
D02*
G37*
G36*
X319974Y63024D02*
X317709D01*
Y56642D01*
X316155D01*
Y63024D01*
X313880D01*
Y64323D01*
X319974D01*
Y63024D01*
D02*
G37*
G36*
X336633Y89502D02*
X336733Y89491D01*
X336833Y89480D01*
X336955Y89458D01*
X337077Y89425D01*
X337355Y89347D01*
X337499Y89291D01*
X337654Y89214D01*
X337799Y89136D01*
X337932Y89047D01*
X338076Y88936D01*
X338198Y88814D01*
X338209Y88803D01*
X338221Y88792D01*
X338254Y88759D01*
X338287Y88714D01*
X338376Y88603D01*
X338476Y88448D01*
X338576Y88259D01*
X338653Y88037D01*
X338720Y87793D01*
X338731Y87671D01*
X338742Y87538D01*
Y87527D01*
Y87493D01*
X338731Y87438D01*
X338720Y87371D01*
X338709Y87282D01*
X338687Y87183D01*
X338653Y87072D01*
X338609Y86949D01*
X338543Y86827D01*
X338476Y86694D01*
X338387Y86561D01*
X338276Y86428D01*
X338143Y86294D01*
X337999Y86161D01*
X337832Y86039D01*
X337632Y85917D01*
X337643D01*
X337666Y85906D01*
X337699D01*
X337743Y85884D01*
X337865Y85850D01*
X338010Y85784D01*
X338176Y85695D01*
X338354Y85584D01*
X338531Y85440D01*
X338687Y85273D01*
X338709Y85251D01*
X338753Y85184D01*
X338809Y85085D01*
X338886Y84940D01*
X338964Y84774D01*
X339020Y84563D01*
X339064Y84341D01*
X339086Y84086D01*
Y84075D01*
Y84041D01*
Y83986D01*
X339075Y83919D01*
X339064Y83830D01*
X339042Y83730D01*
X339020Y83608D01*
X338997Y83486D01*
X338909Y83220D01*
X338842Y83076D01*
X338775Y82920D01*
X338687Y82776D01*
X338587Y82632D01*
X338476Y82487D01*
X338343Y82354D01*
X338332Y82343D01*
X338309Y82321D01*
X338265Y82288D01*
X338209Y82243D01*
X338132Y82188D01*
X338054Y82132D01*
X337943Y82065D01*
X337832Y81999D01*
X337710Y81932D01*
X337566Y81866D01*
X337410Y81810D01*
X337255Y81755D01*
X337077Y81710D01*
X336900Y81677D01*
X336700Y81655D01*
X336500Y81644D01*
X336400D01*
X336323Y81655D01*
X336234Y81666D01*
X336134Y81677D01*
X336023Y81699D01*
X335890Y81721D01*
X335623Y81788D01*
X335335Y81899D01*
X335179Y81966D01*
X335046Y82043D01*
X334902Y82143D01*
X334768Y82243D01*
X334757Y82254D01*
X334735Y82276D01*
X334702Y82310D01*
X334658Y82354D01*
X334602Y82410D01*
X334547Y82487D01*
X334480Y82565D01*
X334413Y82665D01*
X334347Y82776D01*
X334269Y82887D01*
X334147Y83153D01*
X334047Y83464D01*
X334003Y83631D01*
X333980Y83808D01*
X335401Y83986D01*
Y83975D01*
Y83964D01*
X335412Y83897D01*
X335434Y83797D01*
X335468Y83675D01*
X335523Y83542D01*
X335579Y83398D01*
X335668Y83264D01*
X335768Y83142D01*
X335779Y83131D01*
X335823Y83098D01*
X335890Y83053D01*
X335967Y83009D01*
X336078Y82954D01*
X336200Y82909D01*
X336334Y82876D01*
X336489Y82865D01*
X336511D01*
X336567Y82876D01*
X336644Y82887D01*
X336755Y82909D01*
X336878Y82954D01*
X337000Y83009D01*
X337133Y83098D01*
X337255Y83209D01*
X337266Y83220D01*
X337310Y83275D01*
X337355Y83353D01*
X337421Y83453D01*
X337477Y83586D01*
X337532Y83753D01*
X337566Y83941D01*
X337577Y84152D01*
Y84163D01*
Y84174D01*
Y84241D01*
X337566Y84341D01*
X337543Y84474D01*
X337499Y84618D01*
X337444Y84763D01*
X337366Y84907D01*
X337266Y85040D01*
X337255Y85051D01*
X337211Y85096D01*
X337144Y85151D01*
X337066Y85207D01*
X336955Y85273D01*
X336833Y85318D01*
X336700Y85362D01*
X336544Y85373D01*
X336433D01*
X336356Y85362D01*
X336256Y85351D01*
X336134Y85329D01*
X336012Y85295D01*
X335867Y85262D01*
X336023Y86450D01*
X336123D01*
X336234Y86461D01*
X336367Y86472D01*
X336511Y86505D01*
X336667Y86550D01*
X336811Y86616D01*
X336944Y86705D01*
X336955Y86716D01*
X337000Y86761D01*
X337044Y86816D01*
X337111Y86905D01*
X337166Y87005D01*
X337222Y87127D01*
X337255Y87271D01*
X337266Y87438D01*
Y87460D01*
Y87504D01*
X337255Y87571D01*
X337233Y87660D01*
X337211Y87760D01*
X337166Y87860D01*
X337111Y87971D01*
X337033Y88059D01*
X337022Y88070D01*
X336988Y88093D01*
X336944Y88137D01*
X336866Y88181D01*
X336778Y88215D01*
X336678Y88259D01*
X336544Y88281D01*
X336411Y88293D01*
X336345D01*
X336278Y88281D01*
X336189Y88259D01*
X336089Y88226D01*
X335978Y88181D01*
X335867Y88115D01*
X335768Y88026D01*
X335756Y88015D01*
X335723Y87982D01*
X335679Y87915D01*
X335623Y87826D01*
X335568Y87726D01*
X335523Y87593D01*
X335479Y87438D01*
X335446Y87260D01*
X334091Y87482D01*
Y87493D01*
X334103Y87515D01*
Y87549D01*
X334114Y87604D01*
X334147Y87726D01*
X334191Y87893D01*
X334258Y88070D01*
X334324Y88259D01*
X334413Y88437D01*
X334513Y88603D01*
X334524Y88625D01*
X334569Y88670D01*
X334635Y88748D01*
X334724Y88848D01*
X334835Y88947D01*
X334968Y89058D01*
X335135Y89169D01*
X335312Y89269D01*
X335323D01*
X335335Y89280D01*
X335401Y89303D01*
X335512Y89347D01*
X335645Y89391D01*
X335812Y89436D01*
X336012Y89480D01*
X336223Y89502D01*
X336456Y89514D01*
X336556D01*
X336633Y89502D01*
D02*
G37*
G36*
X330784D02*
X330884Y89491D01*
X330995Y89480D01*
X331117Y89458D01*
X331250Y89436D01*
X331539Y89358D01*
X331827Y89247D01*
X331982Y89180D01*
X332116Y89103D01*
X332260Y89003D01*
X332382Y88892D01*
X332393Y88881D01*
X332415Y88870D01*
X332438Y88825D01*
X332482Y88781D01*
X332537Y88725D01*
X332593Y88648D01*
X332649Y88570D01*
X332715Y88470D01*
X332826Y88248D01*
X332937Y87993D01*
X332981Y87849D01*
X333004Y87693D01*
X333026Y87527D01*
X333037Y87360D01*
Y87338D01*
Y87271D01*
X333026Y87171D01*
X333015Y87049D01*
X332993Y86894D01*
X332959Y86727D01*
X332915Y86550D01*
X332848Y86372D01*
X332837Y86350D01*
X332815Y86294D01*
X332771Y86195D01*
X332704Y86073D01*
X332626Y85928D01*
X332526Y85762D01*
X332404Y85584D01*
X332260Y85395D01*
X332249Y85384D01*
X332205Y85329D01*
X332138Y85251D01*
X332038Y85140D01*
X331905Y85007D01*
X331738Y84829D01*
X331539Y84641D01*
X331294Y84408D01*
X331283Y84396D01*
X331261Y84385D01*
X331228Y84352D01*
X331183Y84308D01*
X331061Y84197D01*
X330917Y84064D01*
X330773Y83919D01*
X330628Y83775D01*
X330495Y83653D01*
X330451Y83597D01*
X330406Y83553D01*
X330395Y83542D01*
X330373Y83520D01*
X330340Y83475D01*
X330295Y83420D01*
X330195Y83298D01*
X330107Y83153D01*
X333037D01*
Y81788D01*
X327876D01*
Y81799D01*
Y81821D01*
X327887Y81866D01*
X327898Y81921D01*
X327909Y81988D01*
X327920Y82065D01*
X327964Y82265D01*
X328031Y82487D01*
X328120Y82732D01*
X328231Y82998D01*
X328375Y83253D01*
Y83264D01*
X328397Y83287D01*
X328419Y83331D01*
X328464Y83375D01*
X328508Y83453D01*
X328575Y83531D01*
X328652Y83631D01*
X328741Y83742D01*
X328841Y83875D01*
X328963Y84008D01*
X329096Y84163D01*
X329252Y84330D01*
X329418Y84496D01*
X329607Y84685D01*
X329807Y84885D01*
X330029Y85096D01*
X330040Y85107D01*
X330073Y85140D01*
X330118Y85184D01*
X330184Y85251D01*
X330273Y85318D01*
X330362Y85407D01*
X330562Y85606D01*
X330761Y85817D01*
X330961Y86028D01*
X331050Y86117D01*
X331139Y86217D01*
X331205Y86294D01*
X331250Y86361D01*
X331261Y86383D01*
X331294Y86439D01*
X331350Y86528D01*
X331405Y86650D01*
X331461Y86783D01*
X331516Y86938D01*
X331550Y87094D01*
X331561Y87260D01*
Y87271D01*
Y87282D01*
Y87338D01*
X331550Y87438D01*
X331527Y87549D01*
X331494Y87671D01*
X331450Y87793D01*
X331383Y87915D01*
X331294Y88026D01*
X331283Y88037D01*
X331250Y88070D01*
X331183Y88115D01*
X331106Y88159D01*
X330995Y88204D01*
X330872Y88248D01*
X330728Y88281D01*
X330562Y88293D01*
X330484D01*
X330395Y88281D01*
X330295Y88259D01*
X330173Y88226D01*
X330051Y88170D01*
X329929Y88104D01*
X329818Y88015D01*
X329807Y88004D01*
X329774Y87959D01*
X329729Y87893D01*
X329685Y87793D01*
X329629Y87671D01*
X329585Y87504D01*
X329540Y87316D01*
X329518Y87094D01*
X328053Y87238D01*
Y87249D01*
X328064Y87294D01*
Y87349D01*
X328086Y87438D01*
X328097Y87538D01*
X328131Y87649D01*
X328164Y87771D01*
X328197Y87915D01*
X328308Y88193D01*
X328442Y88481D01*
X328530Y88625D01*
X328630Y88759D01*
X328741Y88870D01*
X328863Y88981D01*
X328875Y88992D01*
X328897Y89003D01*
X328930Y89025D01*
X328985Y89069D01*
X329052Y89103D01*
X329141Y89147D01*
X329230Y89203D01*
X329341Y89247D01*
X329463Y89303D01*
X329596Y89347D01*
X329885Y89436D01*
X330229Y89491D01*
X330406Y89502D01*
X330595Y89514D01*
X330706D01*
X330784Y89502D01*
D02*
G37*
G36*
X324190Y89458D02*
X324479D01*
X324790Y89436D01*
X325101Y89414D01*
X325234Y89403D01*
X325367Y89391D01*
X325478Y89369D01*
X325567Y89347D01*
X325578D01*
X325600Y89336D01*
X325633Y89325D01*
X325678Y89314D01*
X325800Y89258D01*
X325955Y89192D01*
X326122Y89092D01*
X326311Y88959D01*
X326488Y88792D01*
X326666Y88592D01*
Y88581D01*
X326688Y88570D01*
X326710Y88537D01*
X326732Y88492D01*
X326777Y88426D01*
X326810Y88359D01*
X326854Y88281D01*
X326899Y88193D01*
X326977Y87971D01*
X327054Y87726D01*
X327099Y87427D01*
X327121Y87105D01*
Y87094D01*
Y87072D01*
Y87038D01*
Y86983D01*
X327110Y86927D01*
Y86849D01*
X327088Y86694D01*
X327054Y86505D01*
X327010Y86294D01*
X326943Y86095D01*
X326854Y85906D01*
X326843Y85884D01*
X326810Y85828D01*
X326754Y85739D01*
X326677Y85628D01*
X326588Y85518D01*
X326466Y85384D01*
X326344Y85262D01*
X326199Y85151D01*
X326177Y85140D01*
X326133Y85107D01*
X326055Y85062D01*
X325955Y85007D01*
X325833Y84940D01*
X325700Y84885D01*
X325556Y84829D01*
X325400Y84785D01*
X325378D01*
X325345Y84774D01*
X325300D01*
X325245Y84763D01*
X325167Y84752D01*
X325089Y84740D01*
X324990D01*
X324890Y84729D01*
X324768Y84718D01*
X324634Y84707D01*
X324490Y84696D01*
X324335D01*
X324168Y84685D01*
X322792D01*
Y81788D01*
X321238D01*
Y89469D01*
X324068D01*
X324190Y89458D01*
D02*
G37*
G36*
X320228Y88170D02*
X317963D01*
Y81788D01*
X316409D01*
Y88170D01*
X314134D01*
Y89469D01*
X320228D01*
Y88170D01*
D02*
G37*
G36*
X311609Y64356D02*
X311709Y64345D01*
X311820Y64334D01*
X311942Y64312D01*
X312076Y64290D01*
X312364Y64212D01*
X312653Y64101D01*
X312808Y64035D01*
X312941Y63957D01*
X313086Y63857D01*
X313208Y63746D01*
X313219Y63735D01*
X313241Y63724D01*
X313263Y63679D01*
X313308Y63635D01*
X313363Y63579D01*
X313419Y63502D01*
X313474Y63424D01*
X313541Y63324D01*
X313652Y63102D01*
X313763Y62847D01*
X313807Y62702D01*
X313829Y62547D01*
X313852Y62381D01*
X313863Y62214D01*
Y62192D01*
Y62125D01*
X313852Y62025D01*
X313840Y61903D01*
X313818Y61748D01*
X313785Y61581D01*
X313741Y61404D01*
X313674Y61226D01*
X313663Y61204D01*
X313641Y61149D01*
X313596Y61049D01*
X313530Y60926D01*
X313452Y60782D01*
X313352Y60616D01*
X313230Y60438D01*
X313086Y60249D01*
X313075Y60238D01*
X313030Y60183D01*
X312964Y60105D01*
X312864Y59994D01*
X312731Y59861D01*
X312564Y59683D01*
X312364Y59495D01*
X312120Y59262D01*
X312109Y59250D01*
X312087Y59239D01*
X312053Y59206D01*
X312009Y59162D01*
X311887Y59051D01*
X311743Y58917D01*
X311598Y58773D01*
X311454Y58629D01*
X311321Y58507D01*
X311276Y58451D01*
X311232Y58407D01*
X311221Y58396D01*
X311199Y58374D01*
X311165Y58329D01*
X311121Y58274D01*
X311021Y58152D01*
X310932Y58007D01*
X313863D01*
Y56642D01*
X308701D01*
Y56653D01*
Y56675D01*
X308712Y56720D01*
X308723Y56775D01*
X308734Y56842D01*
X308746Y56919D01*
X308790Y57119D01*
X308857Y57341D01*
X308945Y57586D01*
X309056Y57852D01*
X309201Y58107D01*
Y58118D01*
X309223Y58141D01*
X309245Y58185D01*
X309289Y58229D01*
X309334Y58307D01*
X309401Y58385D01*
X309478Y58485D01*
X309567Y58596D01*
X309667Y58729D01*
X309789Y58862D01*
X309922Y59017D01*
X310078Y59184D01*
X310244Y59350D01*
X310433Y59539D01*
X310633Y59739D01*
X310855Y59950D01*
X310866Y59961D01*
X310899Y59994D01*
X310943Y60038D01*
X311010Y60105D01*
X311099Y60172D01*
X311188Y60261D01*
X311387Y60460D01*
X311587Y60671D01*
X311787Y60882D01*
X311876Y60971D01*
X311965Y61071D01*
X312031Y61149D01*
X312076Y61215D01*
X312087Y61237D01*
X312120Y61293D01*
X312176Y61382D01*
X312231Y61504D01*
X312286Y61637D01*
X312342Y61792D01*
X312375Y61948D01*
X312386Y62114D01*
Y62125D01*
Y62136D01*
Y62192D01*
X312375Y62292D01*
X312353Y62403D01*
X312320Y62525D01*
X312275Y62647D01*
X312209Y62769D01*
X312120Y62880D01*
X312109Y62891D01*
X312076Y62924D01*
X312009Y62969D01*
X311931Y63013D01*
X311820Y63058D01*
X311698Y63102D01*
X311554Y63135D01*
X311387Y63147D01*
X311310D01*
X311221Y63135D01*
X311121Y63113D01*
X310999Y63080D01*
X310877Y63024D01*
X310755Y62958D01*
X310644Y62869D01*
X310633Y62858D01*
X310599Y62814D01*
X310555Y62747D01*
X310511Y62647D01*
X310455Y62525D01*
X310411Y62358D01*
X310366Y62170D01*
X310344Y61948D01*
X308879Y62092D01*
Y62103D01*
X308890Y62147D01*
Y62203D01*
X308912Y62292D01*
X308923Y62392D01*
X308957Y62503D01*
X308990Y62625D01*
X309023Y62769D01*
X309134Y63047D01*
X309267Y63335D01*
X309356Y63479D01*
X309456Y63613D01*
X309567Y63724D01*
X309689Y63835D01*
X309700Y63846D01*
X309722Y63857D01*
X309756Y63879D01*
X309811Y63924D01*
X309878Y63957D01*
X309967Y64001D01*
X310055Y64057D01*
X310166Y64101D01*
X310289Y64157D01*
X310422Y64201D01*
X310710Y64290D01*
X311054Y64345D01*
X311232Y64356D01*
X311421Y64367D01*
X311532D01*
X311609Y64356D01*
D02*
G37*
G36*
X305638D02*
X305738Y64345D01*
X305849Y64334D01*
X305971Y64312D01*
X306104Y64290D01*
X306392Y64212D01*
X306681Y64101D01*
X306836Y64035D01*
X306970Y63957D01*
X307114Y63857D01*
X307236Y63746D01*
X307247Y63735D01*
X307269Y63724D01*
X307292Y63679D01*
X307336Y63635D01*
X307391Y63579D01*
X307447Y63502D01*
X307502Y63424D01*
X307569Y63324D01*
X307680Y63102D01*
X307791Y62847D01*
X307836Y62702D01*
X307858Y62547D01*
X307880Y62381D01*
X307891Y62214D01*
Y62192D01*
Y62125D01*
X307880Y62025D01*
X307869Y61903D01*
X307847Y61748D01*
X307813Y61581D01*
X307769Y61404D01*
X307702Y61226D01*
X307691Y61204D01*
X307669Y61149D01*
X307625Y61049D01*
X307558Y60926D01*
X307480Y60782D01*
X307380Y60616D01*
X307258Y60438D01*
X307114Y60249D01*
X307103Y60238D01*
X307059Y60183D01*
X306992Y60105D01*
X306892Y59994D01*
X306759Y59861D01*
X306592Y59683D01*
X306392Y59495D01*
X306148Y59262D01*
X306137Y59250D01*
X306115Y59239D01*
X306082Y59206D01*
X306037Y59162D01*
X305915Y59051D01*
X305771Y58917D01*
X305627Y58773D01*
X305482Y58629D01*
X305349Y58507D01*
X305305Y58451D01*
X305260Y58407D01*
X305249Y58396D01*
X305227Y58374D01*
X305194Y58329D01*
X305149Y58274D01*
X305049Y58152D01*
X304961Y58007D01*
X307891D01*
Y56642D01*
X302729D01*
Y56653D01*
Y56675D01*
X302741Y56720D01*
X302752Y56775D01*
X302763Y56842D01*
X302774Y56919D01*
X302818Y57119D01*
X302885Y57341D01*
X302974Y57586D01*
X303085Y57852D01*
X303229Y58107D01*
Y58118D01*
X303251Y58141D01*
X303273Y58185D01*
X303318Y58229D01*
X303362Y58307D01*
X303429Y58385D01*
X303507Y58485D01*
X303595Y58596D01*
X303695Y58729D01*
X303817Y58862D01*
X303951Y59017D01*
X304106Y59184D01*
X304272Y59350D01*
X304461Y59539D01*
X304661Y59739D01*
X304883Y59950D01*
X304894Y59961D01*
X304927Y59994D01*
X304972Y60038D01*
X305038Y60105D01*
X305127Y60172D01*
X305216Y60261D01*
X305416Y60460D01*
X305616Y60671D01*
X305815Y60882D01*
X305904Y60971D01*
X305993Y61071D01*
X306059Y61149D01*
X306104Y61215D01*
X306115Y61237D01*
X306148Y61293D01*
X306204Y61382D01*
X306259Y61504D01*
X306315Y61637D01*
X306370Y61792D01*
X306404Y61948D01*
X306415Y62114D01*
Y62125D01*
Y62136D01*
Y62192D01*
X306404Y62292D01*
X306381Y62403D01*
X306348Y62525D01*
X306304Y62647D01*
X306237Y62769D01*
X306148Y62880D01*
X306137Y62891D01*
X306104Y62924D01*
X306037Y62969D01*
X305960Y63013D01*
X305849Y63058D01*
X305727Y63102D01*
X305582Y63135D01*
X305416Y63147D01*
X305338D01*
X305249Y63135D01*
X305149Y63113D01*
X305027Y63080D01*
X304905Y63024D01*
X304783Y62958D01*
X304672Y62869D01*
X304661Y62858D01*
X304628Y62814D01*
X304583Y62747D01*
X304539Y62647D01*
X304483Y62525D01*
X304439Y62358D01*
X304394Y62170D01*
X304372Y61948D01*
X302907Y62092D01*
Y62103D01*
X302918Y62147D01*
Y62203D01*
X302940Y62292D01*
X302952Y62392D01*
X302985Y62503D01*
X303018Y62625D01*
X303051Y62769D01*
X303162Y63047D01*
X303296Y63335D01*
X303384Y63479D01*
X303484Y63613D01*
X303595Y63724D01*
X303717Y63835D01*
X303729Y63846D01*
X303751Y63857D01*
X303784Y63879D01*
X303839Y63924D01*
X303906Y63957D01*
X303995Y64001D01*
X304084Y64057D01*
X304195Y64101D01*
X304317Y64157D01*
X304450Y64201D01*
X304739Y64290D01*
X305083Y64345D01*
X305260Y64356D01*
X305449Y64367D01*
X305560D01*
X305638Y64356D01*
D02*
G37*
G36*
X299044Y64312D02*
X299333D01*
X299644Y64290D01*
X299955Y64268D01*
X300088Y64257D01*
X300221Y64245D01*
X300332Y64223D01*
X300421Y64201D01*
X300432D01*
X300454Y64190D01*
X300487Y64179D01*
X300532Y64168D01*
X300654Y64112D01*
X300809Y64046D01*
X300976Y63946D01*
X301164Y63812D01*
X301342Y63646D01*
X301520Y63446D01*
Y63435D01*
X301542Y63424D01*
X301564Y63391D01*
X301586Y63346D01*
X301631Y63280D01*
X301664Y63213D01*
X301708Y63135D01*
X301753Y63047D01*
X301831Y62825D01*
X301908Y62580D01*
X301953Y62281D01*
X301975Y61959D01*
Y61948D01*
Y61926D01*
Y61892D01*
Y61837D01*
X301964Y61781D01*
Y61704D01*
X301942Y61548D01*
X301908Y61359D01*
X301864Y61149D01*
X301797Y60949D01*
X301708Y60760D01*
X301697Y60738D01*
X301664Y60682D01*
X301609Y60594D01*
X301531Y60483D01*
X301442Y60371D01*
X301320Y60238D01*
X301198Y60116D01*
X301054Y60005D01*
X301031Y59994D01*
X300987Y59961D01*
X300909Y59916D01*
X300809Y59861D01*
X300687Y59794D01*
X300554Y59739D01*
X300410Y59683D01*
X300254Y59639D01*
X300232D01*
X300199Y59628D01*
X300154D01*
X300099Y59617D01*
X300021Y59606D01*
X299944Y59594D01*
X299844D01*
X299744Y59583D01*
X299622Y59572D01*
X299488Y59561D01*
X299344Y59550D01*
X299189D01*
X299022Y59539D01*
X297646D01*
Y56642D01*
X296092D01*
Y64323D01*
X298922D01*
X299044Y64312D01*
D02*
G37*
G36*
X295082Y63024D02*
X292817D01*
Y56642D01*
X291264D01*
Y63024D01*
X288988D01*
Y64323D01*
X295082D01*
Y63024D01*
D02*
G37*
G36*
X313415Y81534D02*
X311938D01*
Y87095D01*
X311927Y87084D01*
X311905Y87062D01*
X311861Y87028D01*
X311794Y86973D01*
X311716Y86906D01*
X311628Y86840D01*
X311517Y86762D01*
X311395Y86673D01*
X311261Y86584D01*
X311117Y86496D01*
X310962Y86396D01*
X310795Y86307D01*
X310440Y86140D01*
X310040Y85985D01*
Y87317D01*
X310051D01*
X310063Y87328D01*
X310096Y87339D01*
X310140Y87350D01*
X310251Y87406D01*
X310407Y87472D01*
X310595Y87561D01*
X310806Y87683D01*
X311039Y87839D01*
X311284Y88016D01*
X311295Y88027D01*
X311317Y88039D01*
X311350Y88072D01*
X311395Y88116D01*
X311517Y88227D01*
X311650Y88371D01*
X311805Y88549D01*
X311961Y88771D01*
X312105Y89004D01*
X312216Y89260D01*
X313415D01*
Y81534D01*
D02*
G37*
G36*
X306400Y89248D02*
X306500Y89237D01*
X306611Y89226D01*
X306733Y89204D01*
X306866Y89182D01*
X307155Y89104D01*
X307443Y88993D01*
X307598Y88926D01*
X307732Y88849D01*
X307876Y88749D01*
X307998Y88638D01*
X308009Y88627D01*
X308031Y88616D01*
X308054Y88571D01*
X308098Y88527D01*
X308153Y88471D01*
X308209Y88394D01*
X308265Y88316D01*
X308331Y88216D01*
X308442Y87994D01*
X308553Y87739D01*
X308598Y87594D01*
X308620Y87439D01*
X308642Y87273D01*
X308653Y87106D01*
Y87084D01*
Y87017D01*
X308642Y86917D01*
X308631Y86795D01*
X308609Y86640D01*
X308575Y86473D01*
X308531Y86296D01*
X308464Y86118D01*
X308453Y86096D01*
X308431Y86040D01*
X308387Y85941D01*
X308320Y85819D01*
X308242Y85674D01*
X308142Y85508D01*
X308020Y85330D01*
X307876Y85141D01*
X307865Y85130D01*
X307820Y85075D01*
X307754Y84997D01*
X307654Y84886D01*
X307521Y84753D01*
X307354Y84575D01*
X307155Y84387D01*
X306910Y84154D01*
X306899Y84143D01*
X306877Y84131D01*
X306844Y84098D01*
X306799Y84054D01*
X306677Y83943D01*
X306533Y83809D01*
X306389Y83665D01*
X306244Y83521D01*
X306111Y83399D01*
X306067Y83343D01*
X306022Y83299D01*
X306011Y83288D01*
X305989Y83266D01*
X305956Y83221D01*
X305911Y83166D01*
X305811Y83044D01*
X305723Y82899D01*
X308653D01*
Y81534D01*
X303491D01*
Y81545D01*
Y81567D01*
X303503Y81612D01*
X303514Y81667D01*
X303525Y81734D01*
X303536Y81812D01*
X303580Y82011D01*
X303647Y82233D01*
X303736Y82478D01*
X303847Y82744D01*
X303991Y82999D01*
Y83010D01*
X304013Y83033D01*
X304035Y83077D01*
X304080Y83121D01*
X304124Y83199D01*
X304191Y83277D01*
X304268Y83377D01*
X304357Y83488D01*
X304457Y83621D01*
X304579Y83754D01*
X304713Y83909D01*
X304868Y84076D01*
X305034Y84242D01*
X305223Y84431D01*
X305423Y84631D01*
X305645Y84842D01*
X305656Y84853D01*
X305689Y84886D01*
X305734Y84930D01*
X305800Y84997D01*
X305889Y85064D01*
X305978Y85153D01*
X306178Y85352D01*
X306378Y85563D01*
X306577Y85774D01*
X306666Y85863D01*
X306755Y85963D01*
X306821Y86040D01*
X306866Y86107D01*
X306877Y86129D01*
X306910Y86185D01*
X306966Y86274D01*
X307021Y86396D01*
X307077Y86529D01*
X307132Y86684D01*
X307166Y86840D01*
X307177Y87006D01*
Y87017D01*
Y87028D01*
Y87084D01*
X307166Y87184D01*
X307143Y87295D01*
X307110Y87417D01*
X307066Y87539D01*
X306999Y87661D01*
X306910Y87772D01*
X306899Y87783D01*
X306866Y87816D01*
X306799Y87861D01*
X306722Y87905D01*
X306611Y87950D01*
X306488Y87994D01*
X306344Y88027D01*
X306178Y88039D01*
X306100D01*
X306011Y88027D01*
X305911Y88005D01*
X305789Y87972D01*
X305667Y87916D01*
X305545Y87850D01*
X305434Y87761D01*
X305423Y87750D01*
X305390Y87705D01*
X305345Y87639D01*
X305301Y87539D01*
X305245Y87417D01*
X305201Y87250D01*
X305156Y87062D01*
X305134Y86840D01*
X303669Y86984D01*
Y86995D01*
X303680Y87039D01*
Y87095D01*
X303702Y87184D01*
X303713Y87284D01*
X303747Y87395D01*
X303780Y87517D01*
X303813Y87661D01*
X303924Y87939D01*
X304058Y88227D01*
X304146Y88371D01*
X304246Y88505D01*
X304357Y88616D01*
X304479Y88727D01*
X304491Y88738D01*
X304513Y88749D01*
X304546Y88771D01*
X304601Y88815D01*
X304668Y88849D01*
X304757Y88893D01*
X304846Y88949D01*
X304957Y88993D01*
X305079Y89049D01*
X305212Y89093D01*
X305501Y89182D01*
X305845Y89237D01*
X306022Y89248D01*
X306211Y89260D01*
X306322D01*
X306400Y89248D01*
D02*
G37*
G36*
X299806Y89204D02*
X300095D01*
X300406Y89182D01*
X300717Y89160D01*
X300850Y89149D01*
X300983Y89137D01*
X301094Y89115D01*
X301183Y89093D01*
X301194D01*
X301216Y89082D01*
X301249Y89071D01*
X301294Y89060D01*
X301416Y89004D01*
X301571Y88938D01*
X301738Y88838D01*
X301926Y88705D01*
X302104Y88538D01*
X302282Y88338D01*
Y88327D01*
X302304Y88316D01*
X302326Y88283D01*
X302348Y88238D01*
X302393Y88172D01*
X302426Y88105D01*
X302470Y88027D01*
X302515Y87939D01*
X302593Y87717D01*
X302670Y87472D01*
X302715Y87173D01*
X302737Y86851D01*
Y86840D01*
Y86818D01*
Y86784D01*
Y86729D01*
X302726Y86673D01*
Y86595D01*
X302703Y86440D01*
X302670Y86251D01*
X302626Y86040D01*
X302559Y85841D01*
X302470Y85652D01*
X302459Y85630D01*
X302426Y85574D01*
X302370Y85485D01*
X302293Y85374D01*
X302204Y85264D01*
X302082Y85130D01*
X301960Y85008D01*
X301815Y84897D01*
X301793Y84886D01*
X301749Y84853D01*
X301671Y84808D01*
X301571Y84753D01*
X301449Y84686D01*
X301316Y84631D01*
X301172Y84575D01*
X301016Y84531D01*
X300994D01*
X300961Y84520D01*
X300916D01*
X300861Y84509D01*
X300783Y84498D01*
X300706Y84487D01*
X300606D01*
X300506Y84475D01*
X300384Y84464D01*
X300250Y84453D01*
X300106Y84442D01*
X299951D01*
X299784Y84431D01*
X298408D01*
Y81534D01*
X296854D01*
Y89215D01*
X299684D01*
X299806Y89204D01*
D02*
G37*
G36*
X295844Y87916D02*
X293579D01*
Y81534D01*
X292026D01*
Y87916D01*
X289750D01*
Y89215D01*
X295844D01*
Y87916D01*
D02*
G37*
G36*
X280746Y64356D02*
X280846Y64345D01*
X280957Y64334D01*
X281079Y64312D01*
X281212Y64290D01*
X281500Y64212D01*
X281789Y64101D01*
X281945Y64035D01*
X282078Y63957D01*
X282222Y63857D01*
X282344Y63746D01*
X282355Y63735D01*
X282377Y63724D01*
X282400Y63679D01*
X282444Y63635D01*
X282500Y63579D01*
X282555Y63502D01*
X282610Y63424D01*
X282677Y63324D01*
X282788Y63102D01*
X282899Y62847D01*
X282943Y62702D01*
X282966Y62547D01*
X282988Y62381D01*
X282999Y62214D01*
Y62192D01*
Y62125D01*
X282988Y62025D01*
X282977Y61903D01*
X282955Y61748D01*
X282921Y61581D01*
X282877Y61404D01*
X282810Y61226D01*
X282799Y61204D01*
X282777Y61149D01*
X282733Y61049D01*
X282666Y60926D01*
X282588Y60782D01*
X282488Y60616D01*
X282366Y60438D01*
X282222Y60249D01*
X282211Y60238D01*
X282167Y60183D01*
X282100Y60105D01*
X282000Y59994D01*
X281867Y59861D01*
X281700Y59683D01*
X281500Y59495D01*
X281256Y59262D01*
X281245Y59250D01*
X281223Y59239D01*
X281190Y59206D01*
X281145Y59162D01*
X281023Y59051D01*
X280879Y58917D01*
X280735Y58773D01*
X280590Y58629D01*
X280457Y58507D01*
X280413Y58451D01*
X280368Y58407D01*
X280357Y58396D01*
X280335Y58374D01*
X280302Y58329D01*
X280257Y58274D01*
X280157Y58152D01*
X280069Y58007D01*
X282999D01*
Y56642D01*
X277838D01*
Y56653D01*
Y56675D01*
X277849Y56720D01*
X277860Y56775D01*
X277871Y56842D01*
X277882Y56919D01*
X277926Y57119D01*
X277993Y57341D01*
X278082Y57586D01*
X278193Y57852D01*
X278337Y58107D01*
Y58118D01*
X278359Y58141D01*
X278381Y58185D01*
X278426Y58229D01*
X278470Y58307D01*
X278537Y58385D01*
X278615Y58485D01*
X278703Y58596D01*
X278803Y58729D01*
X278925Y58862D01*
X279058Y59017D01*
X279214Y59184D01*
X279380Y59350D01*
X279569Y59539D01*
X279769Y59739D01*
X279991Y59950D01*
X280002Y59961D01*
X280035Y59994D01*
X280080Y60038D01*
X280146Y60105D01*
X280235Y60172D01*
X280324Y60261D01*
X280524Y60460D01*
X280723Y60671D01*
X280923Y60882D01*
X281012Y60971D01*
X281101Y61071D01*
X281168Y61149D01*
X281212Y61215D01*
X281223Y61237D01*
X281256Y61293D01*
X281312Y61382D01*
X281367Y61504D01*
X281423Y61637D01*
X281478Y61792D01*
X281512Y61948D01*
X281523Y62114D01*
Y62125D01*
Y62136D01*
Y62192D01*
X281512Y62292D01*
X281489Y62403D01*
X281456Y62525D01*
X281412Y62647D01*
X281345Y62769D01*
X281256Y62880D01*
X281245Y62891D01*
X281212Y62924D01*
X281145Y62969D01*
X281068Y63013D01*
X280957Y63058D01*
X280835Y63102D01*
X280690Y63135D01*
X280524Y63147D01*
X280446D01*
X280357Y63135D01*
X280257Y63113D01*
X280135Y63080D01*
X280013Y63024D01*
X279891Y62958D01*
X279780Y62869D01*
X279769Y62858D01*
X279736Y62814D01*
X279691Y62747D01*
X279647Y62647D01*
X279591Y62525D01*
X279547Y62358D01*
X279503Y62170D01*
X279480Y61948D01*
X278015Y62092D01*
Y62103D01*
X278026Y62147D01*
Y62203D01*
X278048Y62292D01*
X278060Y62392D01*
X278093Y62503D01*
X278126Y62625D01*
X278159Y62769D01*
X278270Y63047D01*
X278404Y63335D01*
X278492Y63479D01*
X278592Y63613D01*
X278703Y63724D01*
X278825Y63835D01*
X278836Y63846D01*
X278859Y63857D01*
X278892Y63879D01*
X278948Y63924D01*
X279014Y63957D01*
X279103Y64001D01*
X279192Y64057D01*
X279303Y64101D01*
X279425Y64157D01*
X279558Y64201D01*
X279847Y64290D01*
X280191Y64345D01*
X280368Y64356D01*
X280557Y64367D01*
X280668D01*
X280746Y64356D01*
D02*
G37*
G36*
X274152Y64312D02*
X274441D01*
X274752Y64290D01*
X275063Y64268D01*
X275196Y64257D01*
X275329Y64245D01*
X275440Y64223D01*
X275529Y64201D01*
X275540D01*
X275562Y64190D01*
X275595Y64179D01*
X275640Y64168D01*
X275762Y64112D01*
X275917Y64046D01*
X276084Y63946D01*
X276273Y63812D01*
X276450Y63646D01*
X276628Y63446D01*
Y63435D01*
X276650Y63424D01*
X276672Y63391D01*
X276694Y63346D01*
X276739Y63280D01*
X276772Y63213D01*
X276816Y63135D01*
X276861Y63047D01*
X276938Y62825D01*
X277016Y62580D01*
X277061Y62281D01*
X277083Y61959D01*
Y61948D01*
Y61926D01*
Y61892D01*
Y61837D01*
X277072Y61781D01*
Y61704D01*
X277050Y61548D01*
X277016Y61359D01*
X276972Y61149D01*
X276905Y60949D01*
X276816Y60760D01*
X276805Y60738D01*
X276772Y60682D01*
X276716Y60594D01*
X276639Y60483D01*
X276550Y60371D01*
X276428Y60238D01*
X276306Y60116D01*
X276161Y60005D01*
X276139Y59994D01*
X276095Y59961D01*
X276017Y59916D01*
X275917Y59861D01*
X275795Y59794D01*
X275662Y59739D01*
X275518Y59683D01*
X275362Y59639D01*
X275340D01*
X275307Y59628D01*
X275262D01*
X275207Y59617D01*
X275129Y59606D01*
X275051Y59594D01*
X274952D01*
X274852Y59583D01*
X274730Y59572D01*
X274596Y59561D01*
X274452Y59550D01*
X274297D01*
X274130Y59539D01*
X272754D01*
Y56642D01*
X271200D01*
Y64323D01*
X274030D01*
X274152Y64312D01*
D02*
G37*
G36*
X270190Y63024D02*
X267925D01*
Y56642D01*
X266371D01*
Y63024D01*
X264096D01*
Y64323D01*
X270190D01*
Y63024D01*
D02*
G37*
G36*
X286673Y64356D02*
X286762Y64345D01*
X286873Y64323D01*
X286984Y64301D01*
X287117Y64268D01*
X287261Y64223D01*
X287395Y64168D01*
X287539Y64112D01*
X287683Y64035D01*
X287827Y63935D01*
X287972Y63835D01*
X288105Y63713D01*
X288227Y63568D01*
X288238Y63557D01*
X288260Y63524D01*
X288294Y63468D01*
X288349Y63391D01*
X288405Y63280D01*
X288471Y63147D01*
X288538Y63002D01*
X288604Y62814D01*
X288671Y62614D01*
X288749Y62381D01*
X288804Y62125D01*
X288860Y61837D01*
X288915Y61526D01*
X288948Y61193D01*
X288971Y60827D01*
X288982Y60427D01*
Y60416D01*
Y60405D01*
Y60371D01*
Y60327D01*
Y60216D01*
X288971Y60072D01*
X288960Y59894D01*
X288937Y59683D01*
X288915Y59461D01*
X288893Y59217D01*
X288848Y58962D01*
X288793Y58696D01*
X288738Y58440D01*
X288660Y58185D01*
X288582Y57930D01*
X288471Y57696D01*
X288360Y57474D01*
X288227Y57286D01*
X288216Y57275D01*
X288194Y57252D01*
X288160Y57208D01*
X288116Y57164D01*
X288049Y57108D01*
X287972Y57042D01*
X287872Y56964D01*
X287772Y56897D01*
X287650Y56820D01*
X287528Y56742D01*
X287383Y56675D01*
X287228Y56620D01*
X287062Y56575D01*
X286873Y56531D01*
X286684Y56509D01*
X286484Y56498D01*
X286440D01*
X286373Y56509D01*
X286296D01*
X286207Y56520D01*
X286096Y56542D01*
X285974Y56564D01*
X285840Y56609D01*
X285696Y56653D01*
X285552Y56709D01*
X285396Y56775D01*
X285252Y56864D01*
X285097Y56953D01*
X284953Y57075D01*
X284808Y57197D01*
X284675Y57352D01*
X284664Y57364D01*
X284642Y57397D01*
X284608Y57452D01*
X284575Y57519D01*
X284520Y57619D01*
X284464Y57741D01*
X284398Y57896D01*
X284342Y58063D01*
X284275Y58263D01*
X284209Y58485D01*
X284153Y58740D01*
X284109Y59017D01*
X284065Y59328D01*
X284031Y59672D01*
X284009Y60038D01*
X283998Y60438D01*
Y60449D01*
Y60460D01*
Y60494D01*
Y60538D01*
Y60649D01*
X284009Y60793D01*
X284020Y60971D01*
X284042Y61182D01*
X284065Y61404D01*
X284087Y61648D01*
X284131Y61903D01*
X284175Y62159D01*
X284242Y62425D01*
X284309Y62680D01*
X284398Y62924D01*
X284497Y63158D01*
X284608Y63380D01*
X284742Y63568D01*
X284753Y63579D01*
X284775Y63602D01*
X284808Y63646D01*
X284864Y63690D01*
X284919Y63757D01*
X284997Y63824D01*
X285097Y63890D01*
X285197Y63968D01*
X285319Y64046D01*
X285441Y64112D01*
X285585Y64179D01*
X285741Y64245D01*
X285907Y64290D01*
X286096Y64334D01*
X286285Y64356D01*
X286484Y64367D01*
X286595D01*
X286673Y64356D01*
D02*
G37*
G36*
X286451Y89502D02*
X286540D01*
X286640Y89491D01*
X286751Y89469D01*
X286884Y89436D01*
X287017Y89403D01*
X287173Y89347D01*
X287328Y89291D01*
X287483Y89214D01*
X287650Y89125D01*
X287805Y89025D01*
X287961Y88903D01*
X288116Y88759D01*
X288260Y88603D01*
X288271Y88592D01*
X288294Y88559D01*
X288327Y88503D01*
X288382Y88426D01*
X288438Y88326D01*
X288505Y88204D01*
X288571Y88059D01*
X288638Y87893D01*
X288704Y87693D01*
X288782Y87471D01*
X288837Y87227D01*
X288893Y86960D01*
X288948Y86661D01*
X288982Y86339D01*
X289004Y85995D01*
X289015Y85617D01*
Y85606D01*
Y85595D01*
Y85562D01*
Y85529D01*
Y85418D01*
X289004Y85273D01*
X288993Y85096D01*
X288971Y84896D01*
X288948Y84685D01*
X288915Y84452D01*
X288871Y84197D01*
X288826Y83953D01*
X288760Y83697D01*
X288682Y83442D01*
X288593Y83209D01*
X288482Y82976D01*
X288371Y82765D01*
X288227Y82576D01*
X288216Y82565D01*
X288194Y82532D01*
X288149Y82487D01*
X288083Y82432D01*
X288005Y82365D01*
X287916Y82276D01*
X287805Y82199D01*
X287683Y82110D01*
X287550Y82021D01*
X287395Y81943D01*
X287228Y81866D01*
X287050Y81788D01*
X286851Y81733D01*
X286651Y81688D01*
X286440Y81655D01*
X286207Y81644D01*
X286118D01*
X286063Y81655D01*
X285985D01*
X285896Y81666D01*
X285685Y81699D01*
X285452Y81766D01*
X285219Y81844D01*
X284975Y81966D01*
X284864Y82032D01*
X284753Y82121D01*
X284742Y82132D01*
X284730Y82143D01*
X284697Y82177D01*
X284664Y82210D01*
X284620Y82265D01*
X284564Y82321D01*
X284520Y82399D01*
X284453Y82476D01*
X284398Y82576D01*
X284331Y82676D01*
X284275Y82798D01*
X284220Y82931D01*
X284164Y83064D01*
X284120Y83220D01*
X284076Y83375D01*
X284042Y83553D01*
X285463Y83719D01*
Y83697D01*
X285474Y83642D01*
X285485Y83564D01*
X285519Y83475D01*
X285552Y83364D01*
X285596Y83253D01*
X285652Y83153D01*
X285730Y83064D01*
X285741Y83053D01*
X285774Y83031D01*
X285818Y82998D01*
X285885Y82965D01*
X285974Y82931D01*
X286063Y82898D01*
X286185Y82876D01*
X286307Y82865D01*
X286329D01*
X286384Y82876D01*
X286462Y82887D01*
X286573Y82920D01*
X286695Y82965D01*
X286817Y83042D01*
X286950Y83142D01*
X287073Y83275D01*
X287084Y83298D01*
X287106Y83320D01*
X287128Y83364D01*
X287150Y83409D01*
X287184Y83475D01*
X287206Y83553D01*
X287250Y83653D01*
X287283Y83764D01*
X287317Y83886D01*
X287350Y84030D01*
X287383Y84186D01*
X287417Y84363D01*
X287439Y84563D01*
X287461Y84785D01*
X287483Y85018D01*
X287472Y85007D01*
X287461Y84996D01*
X287428Y84963D01*
X287383Y84918D01*
X287328Y84874D01*
X287261Y84818D01*
X287106Y84696D01*
X286906Y84574D01*
X286662Y84474D01*
X286529Y84430D01*
X286395Y84408D01*
X286251Y84385D01*
X286096Y84374D01*
X286007D01*
X285940Y84385D01*
X285863Y84396D01*
X285774Y84408D01*
X285563Y84463D01*
X285319Y84541D01*
X285197Y84607D01*
X285063Y84674D01*
X284930Y84752D01*
X284797Y84840D01*
X284664Y84951D01*
X284542Y85073D01*
X284531Y85085D01*
X284508Y85107D01*
X284486Y85151D01*
X284442Y85196D01*
X284386Y85273D01*
X284331Y85351D01*
X284275Y85451D01*
X284220Y85562D01*
X284153Y85684D01*
X284098Y85828D01*
X284042Y85973D01*
X283987Y86139D01*
X283942Y86306D01*
X283920Y86494D01*
X283898Y86694D01*
X283887Y86894D01*
Y86905D01*
Y86949D01*
Y87005D01*
X283898Y87094D01*
X283909Y87194D01*
X283920Y87305D01*
X283942Y87438D01*
X283976Y87571D01*
X284053Y87871D01*
X284109Y88037D01*
X284175Y88193D01*
X284253Y88348D01*
X284353Y88503D01*
X284453Y88648D01*
X284575Y88792D01*
X284586Y88803D01*
X284608Y88825D01*
X284642Y88859D01*
X284697Y88903D01*
X284775Y88959D01*
X284853Y89025D01*
X284953Y89081D01*
X285063Y89158D01*
X285175Y89225D01*
X285319Y89280D01*
X285463Y89347D01*
X285618Y89403D01*
X285785Y89447D01*
X285963Y89480D01*
X286140Y89502D01*
X286340Y89514D01*
X286395D01*
X286451Y89502D01*
D02*
G37*
G36*
X281789Y81788D02*
X280313D01*
Y87349D01*
X280302Y87338D01*
X280280Y87316D01*
X280235Y87282D01*
X280168Y87227D01*
X280091Y87160D01*
X280002Y87094D01*
X279891Y87016D01*
X279769Y86927D01*
X279636Y86838D01*
X279491Y86750D01*
X279336Y86650D01*
X279170Y86561D01*
X278814Y86394D01*
X278415Y86239D01*
Y87571D01*
X278426D01*
X278437Y87582D01*
X278470Y87593D01*
X278515Y87604D01*
X278626Y87660D01*
X278781Y87726D01*
X278970Y87815D01*
X279181Y87937D01*
X279414Y88093D01*
X279658Y88270D01*
X279669Y88281D01*
X279691Y88293D01*
X279725Y88326D01*
X279769Y88370D01*
X279891Y88481D01*
X280024Y88625D01*
X280180Y88803D01*
X280335Y89025D01*
X280479Y89258D01*
X280590Y89514D01*
X281789D01*
Y81788D01*
D02*
G37*
G36*
X274152Y89458D02*
X274441D01*
X274752Y89436D01*
X275063Y89414D01*
X275196Y89403D01*
X275329Y89391D01*
X275440Y89369D01*
X275529Y89347D01*
X275540D01*
X275562Y89336D01*
X275595Y89325D01*
X275640Y89314D01*
X275762Y89258D01*
X275917Y89192D01*
X276084Y89092D01*
X276273Y88959D01*
X276450Y88792D01*
X276628Y88592D01*
Y88581D01*
X276650Y88570D01*
X276672Y88537D01*
X276694Y88492D01*
X276739Y88426D01*
X276772Y88359D01*
X276816Y88281D01*
X276861Y88193D01*
X276938Y87971D01*
X277016Y87726D01*
X277061Y87427D01*
X277083Y87105D01*
Y87094D01*
Y87072D01*
Y87038D01*
Y86983D01*
X277072Y86927D01*
Y86849D01*
X277050Y86694D01*
X277016Y86505D01*
X276972Y86294D01*
X276905Y86095D01*
X276816Y85906D01*
X276805Y85884D01*
X276772Y85828D01*
X276716Y85739D01*
X276639Y85628D01*
X276550Y85518D01*
X276428Y85384D01*
X276306Y85262D01*
X276161Y85151D01*
X276139Y85140D01*
X276095Y85107D01*
X276017Y85062D01*
X275917Y85007D01*
X275795Y84940D01*
X275662Y84885D01*
X275518Y84829D01*
X275362Y84785D01*
X275340D01*
X275307Y84774D01*
X275262D01*
X275207Y84763D01*
X275129Y84752D01*
X275051Y84740D01*
X274952D01*
X274852Y84729D01*
X274730Y84718D01*
X274596Y84707D01*
X274452Y84696D01*
X274297D01*
X274130Y84685D01*
X272754D01*
Y81788D01*
X271200D01*
Y89469D01*
X274030D01*
X274152Y89458D01*
D02*
G37*
G36*
X270190Y88170D02*
X267925D01*
Y81788D01*
X266371D01*
Y88170D01*
X264096D01*
Y89469D01*
X270190D01*
Y88170D01*
D02*
G37*
G36*
X256643Y56642D02*
X255167D01*
Y62203D01*
X255156Y62192D01*
X255133Y62170D01*
X255089Y62136D01*
X255023Y62081D01*
X254945Y62014D01*
X254856Y61948D01*
X254745Y61870D01*
X254623Y61781D01*
X254490Y61692D01*
X254345Y61604D01*
X254190Y61504D01*
X254023Y61415D01*
X253668Y61248D01*
X253269Y61093D01*
Y62425D01*
X253280D01*
X253291Y62436D01*
X253324Y62447D01*
X253369Y62458D01*
X253480Y62514D01*
X253635Y62580D01*
X253824Y62669D01*
X254035Y62791D01*
X254268Y62947D01*
X254512Y63124D01*
X254523Y63135D01*
X254545Y63147D01*
X254578Y63180D01*
X254623Y63224D01*
X254745Y63335D01*
X254878Y63479D01*
X255034Y63657D01*
X255189Y63879D01*
X255333Y64112D01*
X255444Y64367D01*
X256643D01*
Y56642D01*
D02*
G37*
G36*
X249006Y64312D02*
X249295D01*
X249606Y64290D01*
X249917Y64268D01*
X250050Y64257D01*
X250183Y64245D01*
X250294Y64223D01*
X250383Y64201D01*
X250394D01*
X250416Y64190D01*
X250449Y64179D01*
X250494Y64168D01*
X250616Y64112D01*
X250771Y64046D01*
X250938Y63946D01*
X251126Y63812D01*
X251304Y63646D01*
X251482Y63446D01*
Y63435D01*
X251504Y63424D01*
X251526Y63391D01*
X251548Y63346D01*
X251593Y63280D01*
X251626Y63213D01*
X251670Y63135D01*
X251715Y63047D01*
X251793Y62825D01*
X251870Y62580D01*
X251915Y62281D01*
X251937Y61959D01*
Y61948D01*
Y61926D01*
Y61892D01*
Y61837D01*
X251926Y61781D01*
Y61704D01*
X251903Y61548D01*
X251870Y61359D01*
X251826Y61149D01*
X251759Y60949D01*
X251670Y60760D01*
X251659Y60738D01*
X251626Y60682D01*
X251570Y60594D01*
X251493Y60483D01*
X251404Y60371D01*
X251282Y60238D01*
X251160Y60116D01*
X251015Y60005D01*
X250993Y59994D01*
X250949Y59961D01*
X250871Y59916D01*
X250771Y59861D01*
X250649Y59794D01*
X250516Y59739D01*
X250372Y59683D01*
X250216Y59639D01*
X250194D01*
X250161Y59628D01*
X250116D01*
X250061Y59617D01*
X249983Y59606D01*
X249905Y59594D01*
X249806D01*
X249706Y59583D01*
X249584Y59572D01*
X249450Y59561D01*
X249306Y59550D01*
X249151D01*
X248984Y59539D01*
X247608D01*
Y56642D01*
X246054D01*
Y64323D01*
X248884D01*
X249006Y64312D01*
D02*
G37*
G36*
X245044Y63024D02*
X242779D01*
Y56642D01*
X241225D01*
Y63024D01*
X238950D01*
Y64323D01*
X245044D01*
Y63024D01*
D02*
G37*
G36*
X261505Y64356D02*
X261605Y64345D01*
X261705Y64334D01*
X261827Y64323D01*
X261949Y64301D01*
X262226Y64234D01*
X262515Y64134D01*
X262648Y64068D01*
X262792Y63990D01*
X262915Y63901D01*
X263037Y63801D01*
X263048Y63790D01*
X263059Y63779D01*
X263092Y63746D01*
X263137Y63702D01*
X263181Y63646D01*
X263225Y63579D01*
X263347Y63413D01*
X263458Y63202D01*
X263547Y62969D01*
X263625Y62691D01*
X263636Y62536D01*
X263647Y62381D01*
Y62369D01*
Y62358D01*
Y62292D01*
X263636Y62192D01*
X263614Y62059D01*
X263580Y61914D01*
X263525Y61759D01*
X263458Y61592D01*
X263358Y61426D01*
X263347Y61404D01*
X263303Y61359D01*
X263248Y61282D01*
X263159Y61193D01*
X263048Y61082D01*
X262915Y60982D01*
X262759Y60882D01*
X262582Y60793D01*
X262593D01*
X262615Y60782D01*
X262648Y60771D01*
X262693Y60749D01*
X262803Y60682D01*
X262948Y60594D01*
X263103Y60494D01*
X263270Y60360D01*
X263425Y60205D01*
X263558Y60027D01*
X263569Y60005D01*
X263614Y59939D01*
X263669Y59839D01*
X263725Y59706D01*
X263791Y59539D01*
X263836Y59339D01*
X263880Y59128D01*
X263891Y58895D01*
Y58884D01*
Y58851D01*
Y58795D01*
X263880Y58718D01*
X263869Y58629D01*
X263858Y58518D01*
X263836Y58407D01*
X263802Y58285D01*
X263725Y58007D01*
X263669Y57863D01*
X263603Y57719D01*
X263525Y57574D01*
X263425Y57430D01*
X263325Y57297D01*
X263203Y57164D01*
X263192Y57153D01*
X263170Y57130D01*
X263137Y57097D01*
X263081Y57064D01*
X263014Y57008D01*
X262926Y56953D01*
X262837Y56897D01*
X262726Y56831D01*
X262604Y56764D01*
X262459Y56709D01*
X262315Y56653D01*
X262160Y56598D01*
X261982Y56564D01*
X261793Y56531D01*
X261605Y56509D01*
X261394Y56498D01*
X261294D01*
X261216Y56509D01*
X261127Y56520D01*
X261028Y56531D01*
X260917Y56542D01*
X260783Y56564D01*
X260506Y56631D01*
X260217Y56731D01*
X260073Y56786D01*
X259929Y56864D01*
X259784Y56942D01*
X259651Y57042D01*
X259640Y57053D01*
X259618Y57075D01*
X259573Y57108D01*
X259518Y57164D01*
X259462Y57230D01*
X259396Y57308D01*
X259318Y57408D01*
X259240Y57508D01*
X259163Y57630D01*
X259085Y57763D01*
X259018Y57907D01*
X258963Y58074D01*
X258907Y58240D01*
X258863Y58429D01*
X258841Y58618D01*
X258830Y58829D01*
Y58840D01*
Y58862D01*
Y58895D01*
Y58940D01*
X258841Y59062D01*
X258863Y59206D01*
X258907Y59384D01*
X258952Y59583D01*
X259030Y59783D01*
X259129Y59983D01*
Y59994D01*
X259140Y60005D01*
X259185Y60072D01*
X259263Y60161D01*
X259374Y60283D01*
X259507Y60416D01*
X259673Y60549D01*
X259873Y60671D01*
X260106Y60793D01*
X260095D01*
X260084Y60804D01*
X260017Y60838D01*
X259918Y60893D01*
X259795Y60960D01*
X259651Y61060D01*
X259518Y61171D01*
X259385Y61304D01*
X259274Y61448D01*
X259263Y61470D01*
X259229Y61526D01*
X259196Y61604D01*
X259152Y61726D01*
X259096Y61859D01*
X259063Y62025D01*
X259030Y62192D01*
X259018Y62381D01*
Y62392D01*
Y62414D01*
Y62458D01*
X259030Y62525D01*
X259041Y62592D01*
X259052Y62680D01*
X259096Y62880D01*
X259163Y63102D01*
X259274Y63346D01*
X259340Y63457D01*
X259418Y63579D01*
X259518Y63690D01*
X259618Y63801D01*
X259629Y63812D01*
X259651Y63824D01*
X259684Y63857D01*
X259729Y63890D01*
X259795Y63935D01*
X259862Y63979D01*
X259951Y64035D01*
X260062Y64090D01*
X260173Y64134D01*
X260295Y64190D01*
X260439Y64234D01*
X260595Y64279D01*
X260761Y64312D01*
X260939Y64345D01*
X261127Y64356D01*
X261327Y64367D01*
X261438D01*
X261505Y64356D01*
D02*
G37*
G36*
X263891Y88050D02*
X263880Y88039D01*
X263858Y88016D01*
X263825Y87983D01*
X263780Y87939D01*
X263725Y87872D01*
X263658Y87794D01*
X263580Y87705D01*
X263492Y87594D01*
X263403Y87472D01*
X263303Y87339D01*
X263192Y87195D01*
X263081Y87039D01*
X262970Y86862D01*
X262859Y86684D01*
X262737Y86484D01*
X262615Y86274D01*
X262604Y86263D01*
X262582Y86218D01*
X262548Y86163D01*
X262504Y86074D01*
X262459Y85974D01*
X262393Y85841D01*
X262326Y85696D01*
X262248Y85541D01*
X262171Y85363D01*
X262093Y85175D01*
X262004Y84975D01*
X261927Y84764D01*
X261771Y84309D01*
X261627Y83832D01*
Y83821D01*
X261616Y83776D01*
X261594Y83710D01*
X261571Y83610D01*
X261549Y83499D01*
X261527Y83377D01*
X261494Y83221D01*
X261460Y83066D01*
X261427Y82888D01*
X261405Y82711D01*
X261349Y82322D01*
X261316Y81923D01*
X261305Y81534D01*
X259884D01*
Y81556D01*
Y81601D01*
X259895Y81689D01*
Y81812D01*
X259906Y81956D01*
X259929Y82122D01*
X259951Y82322D01*
X259984Y82533D01*
X260017Y82766D01*
X260062Y83021D01*
X260117Y83288D01*
X260173Y83576D01*
X260250Y83865D01*
X260328Y84165D01*
X260428Y84464D01*
X260539Y84775D01*
X260550Y84797D01*
X260572Y84853D01*
X260606Y84942D01*
X260650Y85053D01*
X260717Y85197D01*
X260794Y85374D01*
X260883Y85563D01*
X260983Y85774D01*
X261094Y85996D01*
X261216Y86229D01*
X261349Y86484D01*
X261505Y86729D01*
X261827Y87250D01*
X262193Y87750D01*
X258852D01*
Y89115D01*
X263891D01*
Y88050D01*
D02*
G37*
G36*
X256643Y81534D02*
X255167D01*
Y87095D01*
X255156Y87084D01*
X255133Y87062D01*
X255089Y87028D01*
X255023Y86973D01*
X254945Y86906D01*
X254856Y86840D01*
X254745Y86762D01*
X254623Y86673D01*
X254490Y86584D01*
X254345Y86496D01*
X254190Y86396D01*
X254023Y86307D01*
X253668Y86140D01*
X253269Y85985D01*
Y87317D01*
X253280D01*
X253291Y87328D01*
X253324Y87339D01*
X253369Y87350D01*
X253480Y87406D01*
X253635Y87472D01*
X253824Y87561D01*
X254035Y87683D01*
X254268Y87839D01*
X254512Y88016D01*
X254523Y88027D01*
X254545Y88039D01*
X254578Y88072D01*
X254623Y88116D01*
X254745Y88227D01*
X254878Y88371D01*
X255034Y88549D01*
X255189Y88771D01*
X255333Y89004D01*
X255444Y89260D01*
X256643D01*
Y81534D01*
D02*
G37*
G36*
X249006Y89204D02*
X249295D01*
X249606Y89182D01*
X249917Y89160D01*
X250050Y89149D01*
X250183Y89137D01*
X250294Y89115D01*
X250383Y89093D01*
X250394D01*
X250416Y89082D01*
X250449Y89071D01*
X250494Y89060D01*
X250616Y89004D01*
X250771Y88938D01*
X250938Y88838D01*
X251126Y88705D01*
X251304Y88538D01*
X251482Y88338D01*
Y88327D01*
X251504Y88316D01*
X251526Y88283D01*
X251548Y88238D01*
X251593Y88172D01*
X251626Y88105D01*
X251670Y88027D01*
X251715Y87939D01*
X251793Y87717D01*
X251870Y87472D01*
X251915Y87173D01*
X251937Y86851D01*
Y86840D01*
Y86818D01*
Y86784D01*
Y86729D01*
X251926Y86673D01*
Y86595D01*
X251903Y86440D01*
X251870Y86251D01*
X251826Y86040D01*
X251759Y85841D01*
X251670Y85652D01*
X251659Y85630D01*
X251626Y85574D01*
X251570Y85485D01*
X251493Y85374D01*
X251404Y85264D01*
X251282Y85130D01*
X251160Y85008D01*
X251015Y84897D01*
X250993Y84886D01*
X250949Y84853D01*
X250871Y84808D01*
X250771Y84753D01*
X250649Y84686D01*
X250516Y84631D01*
X250372Y84575D01*
X250216Y84531D01*
X250194D01*
X250161Y84520D01*
X250116D01*
X250061Y84509D01*
X249983Y84498D01*
X249905Y84487D01*
X249806D01*
X249706Y84475D01*
X249584Y84464D01*
X249450Y84453D01*
X249306Y84442D01*
X249151D01*
X248984Y84431D01*
X247608D01*
Y81534D01*
X246054D01*
Y89215D01*
X248884D01*
X249006Y89204D01*
D02*
G37*
G36*
X245044Y87916D02*
X242779D01*
Y81534D01*
X241225D01*
Y87916D01*
X238950D01*
Y89215D01*
X245044D01*
Y87916D01*
D02*
G37*
G36*
X236912Y64356D02*
X236990D01*
X237079Y64345D01*
X237279Y64301D01*
X237501Y64245D01*
X237745Y64157D01*
X237989Y64035D01*
X238100Y63957D01*
X238211Y63868D01*
X238222D01*
X238233Y63846D01*
X238267Y63812D01*
X238300Y63779D01*
X238356Y63724D01*
X238400Y63668D01*
X238522Y63513D01*
X238644Y63302D01*
X238766Y63058D01*
X238877Y62780D01*
X238955Y62447D01*
X237534Y62292D01*
Y62314D01*
X237523Y62358D01*
X237501Y62436D01*
X237479Y62536D01*
X237445Y62636D01*
X237390Y62747D01*
X237334Y62847D01*
X237257Y62936D01*
X237246Y62947D01*
X237212Y62969D01*
X237168Y63002D01*
X237101Y63047D01*
X237024Y63080D01*
X236924Y63113D01*
X236801Y63135D01*
X236679Y63147D01*
X236657D01*
X236602Y63135D01*
X236513Y63124D01*
X236402Y63091D01*
X236280Y63047D01*
X236147Y62969D01*
X236013Y62869D01*
X235891Y62725D01*
X235880Y62702D01*
X235858Y62680D01*
X235836Y62636D01*
X235814Y62592D01*
X235780Y62525D01*
X235758Y62447D01*
X235725Y62347D01*
X235680Y62236D01*
X235647Y62114D01*
X235614Y61970D01*
X235581Y61814D01*
X235547Y61637D01*
X235525Y61437D01*
X235503Y61215D01*
X235481Y60982D01*
X235492Y60993D01*
X235503Y61015D01*
X235536Y61038D01*
X235581Y61082D01*
X235636Y61137D01*
X235703Y61193D01*
X235858Y61315D01*
X236058Y61426D01*
X236291Y61537D01*
X236424Y61581D01*
X236557Y61604D01*
X236702Y61626D01*
X236857Y61637D01*
X236946D01*
X237012Y61626D01*
X237090Y61615D01*
X237179Y61604D01*
X237290Y61581D01*
X237401Y61548D01*
X237645Y61459D01*
X237778Y61404D01*
X237911Y61337D01*
X238045Y61259D01*
X238178Y61160D01*
X238311Y61049D01*
X238433Y60926D01*
X238444Y60915D01*
X238466Y60893D01*
X238500Y60860D01*
X238533Y60804D01*
X238589Y60727D01*
X238644Y60649D01*
X238699Y60549D01*
X238766Y60438D01*
X238833Y60316D01*
X238888Y60172D01*
X238944Y60027D01*
X238999Y59861D01*
X239032Y59694D01*
X239066Y59506D01*
X239088Y59317D01*
X239099Y59106D01*
Y59095D01*
Y59051D01*
Y58995D01*
X239088Y58906D01*
X239077Y58807D01*
X239066Y58696D01*
X239044Y58562D01*
X239010Y58429D01*
X238933Y58118D01*
X238877Y57963D01*
X238799Y57807D01*
X238722Y57652D01*
X238633Y57497D01*
X238522Y57341D01*
X238400Y57208D01*
X238389Y57197D01*
X238367Y57175D01*
X238333Y57141D01*
X238278Y57097D01*
X238211Y57042D01*
X238122Y56986D01*
X238034Y56919D01*
X237923Y56853D01*
X237801Y56786D01*
X237667Y56720D01*
X237523Y56664D01*
X237356Y56609D01*
X237190Y56564D01*
X237012Y56531D01*
X236824Y56509D01*
X236624Y56498D01*
X236568D01*
X236513Y56509D01*
X236435D01*
X236335Y56531D01*
X236213Y56542D01*
X236091Y56575D01*
X235947Y56609D01*
X235802Y56653D01*
X235647Y56720D01*
X235481Y56786D01*
X235325Y56875D01*
X235159Y56975D01*
X235003Y57097D01*
X234848Y57241D01*
X234704Y57397D01*
X234692Y57408D01*
X234670Y57441D01*
X234637Y57497D01*
X234593Y57574D01*
X234526Y57674D01*
X234471Y57796D01*
X234404Y57941D01*
X234337Y58107D01*
X234260Y58307D01*
X234193Y58518D01*
X234137Y58762D01*
X234082Y59040D01*
X234027Y59328D01*
X233993Y59650D01*
X233971Y59994D01*
X233960Y60371D01*
Y60383D01*
Y60394D01*
Y60427D01*
Y60460D01*
Y60571D01*
X233971Y60716D01*
X233982Y60893D01*
X234004Y61093D01*
X234027Y61315D01*
X234060Y61548D01*
X234093Y61792D01*
X234149Y62048D01*
X234215Y62303D01*
X234293Y62558D01*
X234382Y62791D01*
X234482Y63024D01*
X234604Y63235D01*
X234737Y63424D01*
X234748Y63435D01*
X234770Y63468D01*
X234815Y63513D01*
X234881Y63568D01*
X234959Y63646D01*
X235048Y63724D01*
X235159Y63812D01*
X235281Y63901D01*
X235425Y63979D01*
X235569Y64068D01*
X235747Y64145D01*
X235925Y64223D01*
X236113Y64279D01*
X236324Y64323D01*
X236535Y64356D01*
X236768Y64367D01*
X236857D01*
X236912Y64356D01*
D02*
G37*
G36*
X231751Y56642D02*
X230275D01*
Y62203D01*
X230264Y62192D01*
X230242Y62170D01*
X230197Y62136D01*
X230131Y62081D01*
X230053Y62014D01*
X229964Y61948D01*
X229853Y61870D01*
X229731Y61781D01*
X229598Y61692D01*
X229453Y61604D01*
X229298Y61504D01*
X229132Y61415D01*
X228776Y61248D01*
X228377Y61093D01*
Y62425D01*
X228388D01*
X228399Y62436D01*
X228432Y62447D01*
X228477Y62458D01*
X228588Y62514D01*
X228743Y62580D01*
X228932Y62669D01*
X229143Y62791D01*
X229376Y62947D01*
X229620Y63124D01*
X229631Y63135D01*
X229653Y63147D01*
X229687Y63180D01*
X229731Y63224D01*
X229853Y63335D01*
X229986Y63479D01*
X230142Y63657D01*
X230297Y63879D01*
X230441Y64112D01*
X230552Y64367D01*
X231751D01*
Y56642D01*
D02*
G37*
G36*
X224114Y64312D02*
X224403D01*
X224714Y64290D01*
X225025Y64268D01*
X225158Y64257D01*
X225291Y64245D01*
X225402Y64223D01*
X225491Y64201D01*
X225502D01*
X225524Y64190D01*
X225557Y64179D01*
X225602Y64168D01*
X225724Y64112D01*
X225879Y64046D01*
X226046Y63946D01*
X226234Y63812D01*
X226412Y63646D01*
X226590Y63446D01*
Y63435D01*
X226612Y63424D01*
X226634Y63391D01*
X226656Y63346D01*
X226701Y63280D01*
X226734Y63213D01*
X226778Y63135D01*
X226823Y63047D01*
X226901Y62825D01*
X226978Y62580D01*
X227023Y62281D01*
X227045Y61959D01*
Y61948D01*
Y61926D01*
Y61892D01*
Y61837D01*
X227034Y61781D01*
Y61704D01*
X227012Y61548D01*
X226978Y61359D01*
X226934Y61149D01*
X226867Y60949D01*
X226778Y60760D01*
X226767Y60738D01*
X226734Y60682D01*
X226679Y60594D01*
X226601Y60483D01*
X226512Y60371D01*
X226390Y60238D01*
X226268Y60116D01*
X226124Y60005D01*
X226101Y59994D01*
X226057Y59961D01*
X225979Y59916D01*
X225879Y59861D01*
X225757Y59794D01*
X225624Y59739D01*
X225480Y59683D01*
X225324Y59639D01*
X225302D01*
X225269Y59628D01*
X225224D01*
X225169Y59617D01*
X225091Y59606D01*
X225014Y59594D01*
X224914D01*
X224814Y59583D01*
X224692Y59572D01*
X224558Y59561D01*
X224414Y59550D01*
X224259D01*
X224092Y59539D01*
X222716D01*
Y56642D01*
X221162D01*
Y64323D01*
X223992D01*
X224114Y64312D01*
D02*
G37*
G36*
X220152Y63024D02*
X217887D01*
Y56642D01*
X216334D01*
Y63024D01*
X214058D01*
Y64323D01*
X220152D01*
Y63024D01*
D02*
G37*
G36*
X238811Y87993D02*
X236024D01*
X235791Y86683D01*
X235802D01*
X235814Y86694D01*
X235880Y86727D01*
X235980Y86761D01*
X236102Y86816D01*
X236258Y86861D01*
X236424Y86894D01*
X236613Y86927D01*
X236801Y86938D01*
X236901D01*
X236968Y86927D01*
X237046Y86916D01*
X237146Y86905D01*
X237257Y86883D01*
X237379Y86849D01*
X237634Y86761D01*
X237778Y86705D01*
X237911Y86639D01*
X238056Y86550D01*
X238200Y86450D01*
X238333Y86339D01*
X238466Y86217D01*
X238478Y86206D01*
X238500Y86184D01*
X238533Y86139D01*
X238577Y86084D01*
X238622Y86017D01*
X238688Y85928D01*
X238744Y85828D01*
X238811Y85717D01*
X238877Y85595D01*
X238933Y85451D01*
X238999Y85295D01*
X239044Y85140D01*
X239088Y84963D01*
X239121Y84774D01*
X239144Y84574D01*
X239155Y84363D01*
Y84352D01*
Y84319D01*
Y84274D01*
X239144Y84208D01*
Y84119D01*
X239121Y84019D01*
X239110Y83908D01*
X239088Y83797D01*
X239021Y83531D01*
X238922Y83242D01*
X238855Y83087D01*
X238788Y82942D01*
X238699Y82798D01*
X238600Y82654D01*
X238589Y82643D01*
X238566Y82609D01*
X238522Y82565D01*
X238466Y82498D01*
X238389Y82421D01*
X238289Y82332D01*
X238178Y82243D01*
X238056Y82154D01*
X237911Y82054D01*
X237756Y81966D01*
X237590Y81877D01*
X237401Y81799D01*
X237201Y81733D01*
X236990Y81688D01*
X236757Y81655D01*
X236513Y81644D01*
X236413D01*
X236335Y81655D01*
X236246Y81666D01*
X236136Y81677D01*
X236024Y81688D01*
X235891Y81710D01*
X235625Y81777D01*
X235325Y81888D01*
X235181Y81943D01*
X235037Y82021D01*
X234903Y82110D01*
X234770Y82210D01*
X234759Y82221D01*
X234737Y82232D01*
X234704Y82265D01*
X234659Y82310D01*
X234615Y82376D01*
X234548Y82443D01*
X234493Y82521D01*
X234426Y82609D01*
X234348Y82720D01*
X234282Y82831D01*
X234160Y83098D01*
X234049Y83398D01*
X234015Y83564D01*
X233982Y83742D01*
X235447Y83897D01*
Y83875D01*
X235458Y83819D01*
X235481Y83719D01*
X235514Y83608D01*
X235558Y83486D01*
X235625Y83353D01*
X235714Y83231D01*
X235814Y83109D01*
X235825Y83098D01*
X235869Y83064D01*
X235936Y83020D01*
X236024Y82965D01*
X236124Y82909D01*
X236246Y82865D01*
X236391Y82831D01*
X236535Y82820D01*
X236557D01*
X236613Y82831D01*
X236702Y82843D01*
X236813Y82865D01*
X236935Y82909D01*
X237068Y82976D01*
X237201Y83076D01*
X237323Y83198D01*
X237334Y83220D01*
X237379Y83264D01*
X237423Y83353D01*
X237490Y83486D01*
X237545Y83642D01*
X237601Y83830D01*
X237634Y84064D01*
X237645Y84330D01*
Y84341D01*
Y84363D01*
Y84396D01*
Y84452D01*
X237634Y84574D01*
X237601Y84729D01*
X237567Y84907D01*
X237512Y85085D01*
X237434Y85251D01*
X237323Y85395D01*
X237312Y85407D01*
X237268Y85451D01*
X237190Y85506D01*
X237101Y85584D01*
X236979Y85651D01*
X236835Y85706D01*
X236668Y85751D01*
X236491Y85762D01*
X236424D01*
X236380Y85751D01*
X236269Y85728D01*
X236113Y85695D01*
X235936Y85628D01*
X235747Y85529D01*
X235647Y85462D01*
X235547Y85384D01*
X235447Y85295D01*
X235347Y85196D01*
X234160Y85362D01*
X234914Y89369D01*
X238811D01*
Y87993D01*
D02*
G37*
G36*
X231751Y81788D02*
X230275D01*
Y87349D01*
X230264Y87338D01*
X230242Y87316D01*
X230197Y87282D01*
X230131Y87227D01*
X230053Y87160D01*
X229964Y87094D01*
X229853Y87016D01*
X229731Y86927D01*
X229598Y86838D01*
X229453Y86750D01*
X229298Y86650D01*
X229132Y86561D01*
X228776Y86394D01*
X228377Y86239D01*
Y87571D01*
X228388D01*
X228399Y87582D01*
X228432Y87593D01*
X228477Y87604D01*
X228588Y87660D01*
X228743Y87726D01*
X228932Y87815D01*
X229143Y87937D01*
X229376Y88093D01*
X229620Y88270D01*
X229631Y88281D01*
X229653Y88293D01*
X229687Y88326D01*
X229731Y88370D01*
X229853Y88481D01*
X229986Y88625D01*
X230142Y88803D01*
X230297Y89025D01*
X230441Y89258D01*
X230552Y89514D01*
X231751D01*
Y81788D01*
D02*
G37*
G36*
X224114Y89458D02*
X224403D01*
X224714Y89436D01*
X225025Y89414D01*
X225158Y89403D01*
X225291Y89391D01*
X225402Y89369D01*
X225491Y89347D01*
X225502D01*
X225524Y89336D01*
X225557Y89325D01*
X225602Y89314D01*
X225724Y89258D01*
X225879Y89192D01*
X226046Y89092D01*
X226234Y88959D01*
X226412Y88792D01*
X226590Y88592D01*
Y88581D01*
X226612Y88570D01*
X226634Y88537D01*
X226656Y88492D01*
X226701Y88426D01*
X226734Y88359D01*
X226778Y88281D01*
X226823Y88193D01*
X226901Y87971D01*
X226978Y87726D01*
X227023Y87427D01*
X227045Y87105D01*
Y87094D01*
Y87072D01*
Y87038D01*
Y86983D01*
X227034Y86927D01*
Y86849D01*
X227012Y86694D01*
X226978Y86505D01*
X226934Y86294D01*
X226867Y86095D01*
X226778Y85906D01*
X226767Y85884D01*
X226734Y85828D01*
X226679Y85739D01*
X226601Y85628D01*
X226512Y85518D01*
X226390Y85384D01*
X226268Y85262D01*
X226124Y85151D01*
X226101Y85140D01*
X226057Y85107D01*
X225979Y85062D01*
X225879Y85007D01*
X225757Y84940D01*
X225624Y84885D01*
X225480Y84829D01*
X225324Y84785D01*
X225302D01*
X225269Y84774D01*
X225224D01*
X225169Y84763D01*
X225091Y84752D01*
X225014Y84740D01*
X224914D01*
X224814Y84729D01*
X224692Y84718D01*
X224558Y84707D01*
X224414Y84696D01*
X224259D01*
X224092Y84685D01*
X222716D01*
Y81788D01*
X221162D01*
Y89469D01*
X223992D01*
X224114Y89458D01*
D02*
G37*
G36*
X220152Y88170D02*
X217887D01*
Y81788D01*
X216334D01*
Y88170D01*
X214058D01*
Y89469D01*
X220152D01*
Y88170D01*
D02*
G37*
G36*
X213132Y59472D02*
X214086D01*
Y58185D01*
X213132D01*
Y56642D01*
X211711D01*
Y58185D01*
X208559D01*
Y59461D01*
X211889Y64356D01*
X213132D01*
Y59472D01*
D02*
G37*
G36*
X206605Y56642D02*
X205129D01*
Y62203D01*
X205118Y62192D01*
X205096Y62170D01*
X205051Y62136D01*
X204984Y62081D01*
X204907Y62014D01*
X204818Y61948D01*
X204707Y61870D01*
X204585Y61781D01*
X204452Y61692D01*
X204307Y61604D01*
X204152Y61504D01*
X203986Y61415D01*
X203630Y61248D01*
X203231Y61093D01*
Y62425D01*
X203242D01*
X203253Y62436D01*
X203286Y62447D01*
X203331Y62458D01*
X203442Y62514D01*
X203597Y62580D01*
X203786Y62669D01*
X203997Y62791D01*
X204230Y62947D01*
X204474Y63124D01*
X204485Y63135D01*
X204507Y63147D01*
X204541Y63180D01*
X204585Y63224D01*
X204707Y63335D01*
X204840Y63479D01*
X204996Y63657D01*
X205151Y63879D01*
X205295Y64112D01*
X205406Y64367D01*
X206605D01*
Y56642D01*
D02*
G37*
G36*
X198968Y64312D02*
X199257D01*
X199568Y64290D01*
X199879Y64268D01*
X200012Y64257D01*
X200145Y64245D01*
X200256Y64223D01*
X200345Y64201D01*
X200356D01*
X200378Y64190D01*
X200411Y64179D01*
X200456Y64168D01*
X200578Y64112D01*
X200733Y64046D01*
X200900Y63946D01*
X201089Y63812D01*
X201266Y63646D01*
X201444Y63446D01*
Y63435D01*
X201466Y63424D01*
X201488Y63391D01*
X201510Y63346D01*
X201555Y63280D01*
X201588Y63213D01*
X201632Y63135D01*
X201677Y63047D01*
X201754Y62825D01*
X201832Y62580D01*
X201877Y62281D01*
X201899Y61959D01*
Y61948D01*
Y61926D01*
Y61892D01*
Y61837D01*
X201888Y61781D01*
Y61704D01*
X201866Y61548D01*
X201832Y61359D01*
X201788Y61149D01*
X201721Y60949D01*
X201632Y60760D01*
X201621Y60738D01*
X201588Y60682D01*
X201532Y60594D01*
X201455Y60483D01*
X201366Y60371D01*
X201244Y60238D01*
X201122Y60116D01*
X200977Y60005D01*
X200955Y59994D01*
X200911Y59961D01*
X200833Y59916D01*
X200733Y59861D01*
X200611Y59794D01*
X200478Y59739D01*
X200334Y59683D01*
X200178Y59639D01*
X200156D01*
X200123Y59628D01*
X200078D01*
X200023Y59617D01*
X199945Y59606D01*
X199867Y59594D01*
X199768D01*
X199668Y59583D01*
X199546Y59572D01*
X199412Y59561D01*
X199268Y59550D01*
X199113D01*
X198946Y59539D01*
X197570D01*
Y56642D01*
X196016D01*
Y64323D01*
X198846D01*
X198968Y64312D01*
D02*
G37*
G36*
X195006Y63024D02*
X192741D01*
Y56642D01*
X191187D01*
Y63024D01*
X188912D01*
Y64323D01*
X195006D01*
Y63024D01*
D02*
G37*
G36*
X211411Y89502D02*
X211511Y89491D01*
X211611Y89480D01*
X211733Y89458D01*
X211855Y89425D01*
X212133Y89347D01*
X212277Y89291D01*
X212432Y89214D01*
X212577Y89136D01*
X212710Y89047D01*
X212854Y88936D01*
X212976Y88814D01*
X212987Y88803D01*
X212999Y88792D01*
X213032Y88759D01*
X213065Y88714D01*
X213154Y88603D01*
X213254Y88448D01*
X213354Y88259D01*
X213431Y88037D01*
X213498Y87793D01*
X213509Y87671D01*
X213520Y87538D01*
Y87527D01*
Y87493D01*
X213509Y87438D01*
X213498Y87371D01*
X213487Y87282D01*
X213465Y87183D01*
X213431Y87072D01*
X213387Y86949D01*
X213321Y86827D01*
X213254Y86694D01*
X213165Y86561D01*
X213054Y86428D01*
X212921Y86294D01*
X212777Y86161D01*
X212610Y86039D01*
X212410Y85917D01*
X212421D01*
X212444Y85906D01*
X212477D01*
X212521Y85884D01*
X212643Y85850D01*
X212788Y85784D01*
X212954Y85695D01*
X213132Y85584D01*
X213309Y85440D01*
X213465Y85273D01*
X213487Y85251D01*
X213531Y85184D01*
X213587Y85085D01*
X213664Y84940D01*
X213742Y84774D01*
X213798Y84563D01*
X213842Y84341D01*
X213864Y84086D01*
Y84075D01*
Y84041D01*
Y83986D01*
X213853Y83919D01*
X213842Y83830D01*
X213820Y83730D01*
X213798Y83608D01*
X213776Y83486D01*
X213687Y83220D01*
X213620Y83076D01*
X213554Y82920D01*
X213465Y82776D01*
X213365Y82632D01*
X213254Y82487D01*
X213121Y82354D01*
X213110Y82343D01*
X213087Y82321D01*
X213043Y82288D01*
X212987Y82243D01*
X212910Y82188D01*
X212832Y82132D01*
X212721Y82065D01*
X212610Y81999D01*
X212488Y81932D01*
X212344Y81866D01*
X212188Y81810D01*
X212033Y81755D01*
X211855Y81710D01*
X211678Y81677D01*
X211478Y81655D01*
X211278Y81644D01*
X211178D01*
X211101Y81655D01*
X211012Y81666D01*
X210912Y81677D01*
X210801Y81699D01*
X210668Y81721D01*
X210401Y81788D01*
X210113Y81899D01*
X209957Y81966D01*
X209824Y82043D01*
X209680Y82143D01*
X209547Y82243D01*
X209535Y82254D01*
X209513Y82276D01*
X209480Y82310D01*
X209436Y82354D01*
X209380Y82410D01*
X209324Y82487D01*
X209258Y82565D01*
X209191Y82665D01*
X209125Y82776D01*
X209047Y82887D01*
X208925Y83153D01*
X208825Y83464D01*
X208781Y83631D01*
X208758Y83808D01*
X210179Y83986D01*
Y83975D01*
Y83964D01*
X210190Y83897D01*
X210212Y83797D01*
X210246Y83675D01*
X210301Y83542D01*
X210357Y83398D01*
X210446Y83264D01*
X210546Y83142D01*
X210557Y83131D01*
X210601Y83098D01*
X210668Y83053D01*
X210745Y83009D01*
X210856Y82954D01*
X210978Y82909D01*
X211112Y82876D01*
X211267Y82865D01*
X211289D01*
X211345Y82876D01*
X211422Y82887D01*
X211533Y82909D01*
X211656Y82954D01*
X211778Y83009D01*
X211911Y83098D01*
X212033Y83209D01*
X212044Y83220D01*
X212088Y83275D01*
X212133Y83353D01*
X212199Y83453D01*
X212255Y83586D01*
X212310Y83753D01*
X212344Y83941D01*
X212355Y84152D01*
Y84163D01*
Y84174D01*
Y84241D01*
X212344Y84341D01*
X212321Y84474D01*
X212277Y84618D01*
X212222Y84763D01*
X212144Y84907D01*
X212044Y85040D01*
X212033Y85051D01*
X211989Y85096D01*
X211922Y85151D01*
X211844Y85207D01*
X211733Y85273D01*
X211611Y85318D01*
X211478Y85362D01*
X211322Y85373D01*
X211211D01*
X211134Y85362D01*
X211034Y85351D01*
X210912Y85329D01*
X210790Y85295D01*
X210645Y85262D01*
X210801Y86450D01*
X210901D01*
X211012Y86461D01*
X211145Y86472D01*
X211289Y86505D01*
X211445Y86550D01*
X211589Y86616D01*
X211722Y86705D01*
X211733Y86716D01*
X211778Y86761D01*
X211822Y86816D01*
X211889Y86905D01*
X211944Y87005D01*
X212000Y87127D01*
X212033Y87271D01*
X212044Y87438D01*
Y87460D01*
Y87504D01*
X212033Y87571D01*
X212011Y87660D01*
X211989Y87760D01*
X211944Y87860D01*
X211889Y87971D01*
X211811Y88059D01*
X211800Y88070D01*
X211766Y88093D01*
X211722Y88137D01*
X211644Y88181D01*
X211556Y88215D01*
X211456Y88259D01*
X211322Y88281D01*
X211189Y88293D01*
X211123D01*
X211056Y88281D01*
X210967Y88259D01*
X210867Y88226D01*
X210756Y88181D01*
X210645Y88115D01*
X210546Y88026D01*
X210534Y88015D01*
X210501Y87982D01*
X210457Y87915D01*
X210401Y87826D01*
X210346Y87726D01*
X210301Y87593D01*
X210257Y87438D01*
X210224Y87260D01*
X208869Y87482D01*
Y87493D01*
X208881Y87515D01*
Y87549D01*
X208892Y87604D01*
X208925Y87726D01*
X208969Y87893D01*
X209036Y88070D01*
X209102Y88259D01*
X209191Y88437D01*
X209291Y88603D01*
X209302Y88625D01*
X209347Y88670D01*
X209413Y88748D01*
X209502Y88848D01*
X209613Y88947D01*
X209746Y89058D01*
X209913Y89169D01*
X210090Y89269D01*
X210102D01*
X210113Y89280D01*
X210179Y89303D01*
X210290Y89347D01*
X210423Y89391D01*
X210590Y89436D01*
X210790Y89480D01*
X211001Y89502D01*
X211234Y89514D01*
X211334D01*
X211411Y89502D01*
D02*
G37*
G36*
X206605Y81788D02*
X205129D01*
Y87349D01*
X205118Y87338D01*
X205096Y87316D01*
X205051Y87282D01*
X204984Y87227D01*
X204907Y87160D01*
X204818Y87094D01*
X204707Y87016D01*
X204585Y86927D01*
X204452Y86838D01*
X204307Y86750D01*
X204152Y86650D01*
X203986Y86561D01*
X203630Y86394D01*
X203231Y86239D01*
Y87571D01*
X203242D01*
X203253Y87582D01*
X203286Y87593D01*
X203331Y87604D01*
X203442Y87660D01*
X203597Y87726D01*
X203786Y87815D01*
X203997Y87937D01*
X204230Y88093D01*
X204474Y88270D01*
X204485Y88281D01*
X204507Y88293D01*
X204541Y88326D01*
X204585Y88370D01*
X204707Y88481D01*
X204840Y88625D01*
X204996Y88803D01*
X205151Y89025D01*
X205295Y89258D01*
X205406Y89514D01*
X206605D01*
Y81788D01*
D02*
G37*
G36*
X198968Y89458D02*
X199257D01*
X199568Y89436D01*
X199879Y89414D01*
X200012Y89403D01*
X200145Y89391D01*
X200256Y89369D01*
X200345Y89347D01*
X200356D01*
X200378Y89336D01*
X200411Y89325D01*
X200456Y89314D01*
X200578Y89258D01*
X200733Y89192D01*
X200900Y89092D01*
X201089Y88959D01*
X201266Y88792D01*
X201444Y88592D01*
Y88581D01*
X201466Y88570D01*
X201488Y88537D01*
X201510Y88492D01*
X201555Y88426D01*
X201588Y88359D01*
X201632Y88281D01*
X201677Y88193D01*
X201754Y87971D01*
X201832Y87726D01*
X201877Y87427D01*
X201899Y87105D01*
Y87094D01*
Y87072D01*
Y87038D01*
Y86983D01*
X201888Y86927D01*
Y86849D01*
X201866Y86694D01*
X201832Y86505D01*
X201788Y86294D01*
X201721Y86095D01*
X201632Y85906D01*
X201621Y85884D01*
X201588Y85828D01*
X201532Y85739D01*
X201455Y85628D01*
X201366Y85518D01*
X201244Y85384D01*
X201122Y85262D01*
X200977Y85151D01*
X200955Y85140D01*
X200911Y85107D01*
X200833Y85062D01*
X200733Y85007D01*
X200611Y84940D01*
X200478Y84885D01*
X200334Y84829D01*
X200178Y84785D01*
X200156D01*
X200123Y84774D01*
X200078D01*
X200023Y84763D01*
X199945Y84752D01*
X199867Y84740D01*
X199768D01*
X199668Y84729D01*
X199546Y84718D01*
X199412Y84707D01*
X199268Y84696D01*
X199113D01*
X198946Y84685D01*
X197570D01*
Y81788D01*
X196016D01*
Y89469D01*
X198846D01*
X198968Y89458D01*
D02*
G37*
G36*
X195006Y88170D02*
X192741D01*
Y81788D01*
X191187D01*
Y88170D01*
X188912D01*
Y89469D01*
X195006D01*
Y88170D01*
D02*
G37*
G36*
X188447Y81534D02*
X186971D01*
Y87095D01*
X186959Y87084D01*
X186937Y87062D01*
X186893Y87028D01*
X186826Y86973D01*
X186749Y86906D01*
X186660Y86840D01*
X186549Y86762D01*
X186427Y86673D01*
X186293Y86584D01*
X186149Y86496D01*
X185994Y86396D01*
X185827Y86307D01*
X185472Y86140D01*
X185072Y85985D01*
Y87317D01*
X185084D01*
X185095Y87328D01*
X185128Y87339D01*
X185172Y87350D01*
X185283Y87406D01*
X185439Y87472D01*
X185627Y87561D01*
X185838Y87683D01*
X186071Y87839D01*
X186316Y88016D01*
X186327Y88027D01*
X186349Y88039D01*
X186382Y88072D01*
X186427Y88116D01*
X186549Y88227D01*
X186682Y88371D01*
X186837Y88549D01*
X186993Y88771D01*
X187137Y89004D01*
X187248Y89260D01*
X188447D01*
Y81534D01*
D02*
G37*
G36*
X182475D02*
X180999D01*
Y87095D01*
X180988Y87084D01*
X180965Y87062D01*
X180921Y87028D01*
X180854Y86973D01*
X180777Y86906D01*
X180688Y86840D01*
X180577Y86762D01*
X180455Y86673D01*
X180322Y86584D01*
X180177Y86496D01*
X180022Y86396D01*
X179855Y86307D01*
X179500Y86140D01*
X179101Y85985D01*
Y87317D01*
X179112D01*
X179123Y87328D01*
X179156Y87339D01*
X179201Y87350D01*
X179312Y87406D01*
X179467Y87472D01*
X179656Y87561D01*
X179867Y87683D01*
X180100Y87839D01*
X180344Y88016D01*
X180355Y88027D01*
X180377Y88039D01*
X180410Y88072D01*
X180455Y88116D01*
X180577Y88227D01*
X180710Y88371D01*
X180866Y88549D01*
X181021Y88771D01*
X181165Y89004D01*
X181276Y89260D01*
X182475D01*
Y81534D01*
D02*
G37*
G36*
X174838Y89204D02*
X175127D01*
X175438Y89182D01*
X175749Y89160D01*
X175882Y89149D01*
X176015Y89137D01*
X176126Y89115D01*
X176215Y89093D01*
X176226D01*
X176248Y89082D01*
X176281Y89071D01*
X176326Y89060D01*
X176448Y89004D01*
X176603Y88938D01*
X176770Y88838D01*
X176959Y88705D01*
X177136Y88538D01*
X177314Y88338D01*
Y88327D01*
X177336Y88316D01*
X177358Y88283D01*
X177380Y88238D01*
X177425Y88172D01*
X177458Y88105D01*
X177502Y88027D01*
X177547Y87939D01*
X177624Y87717D01*
X177702Y87472D01*
X177747Y87173D01*
X177769Y86851D01*
Y86840D01*
Y86818D01*
Y86784D01*
Y86729D01*
X177758Y86673D01*
Y86595D01*
X177736Y86440D01*
X177702Y86251D01*
X177658Y86040D01*
X177591Y85841D01*
X177502Y85652D01*
X177491Y85630D01*
X177458Y85574D01*
X177402Y85485D01*
X177325Y85374D01*
X177236Y85264D01*
X177114Y85130D01*
X176992Y85008D01*
X176847Y84897D01*
X176825Y84886D01*
X176781Y84853D01*
X176703Y84808D01*
X176603Y84753D01*
X176481Y84686D01*
X176348Y84631D01*
X176204Y84575D01*
X176048Y84531D01*
X176026D01*
X175993Y84520D01*
X175948D01*
X175893Y84509D01*
X175815Y84498D01*
X175737Y84487D01*
X175638D01*
X175538Y84475D01*
X175416Y84464D01*
X175282Y84453D01*
X175138Y84442D01*
X174983D01*
X174816Y84431D01*
X173440D01*
Y81534D01*
X171886D01*
Y89215D01*
X174716D01*
X174838Y89204D01*
D02*
G37*
G36*
X170876Y87916D02*
X168611D01*
Y81534D01*
X167057D01*
Y87916D01*
X164782D01*
Y89215D01*
X170876D01*
Y87916D01*
D02*
G37*
G36*
X156821Y56642D02*
X155345D01*
Y62203D01*
X155334Y62192D01*
X155311Y62170D01*
X155267Y62136D01*
X155201Y62081D01*
X155123Y62014D01*
X155034Y61948D01*
X154923Y61870D01*
X154801Y61781D01*
X154668Y61692D01*
X154523Y61604D01*
X154368Y61504D01*
X154201Y61415D01*
X153846Y61248D01*
X153447Y61093D01*
Y62425D01*
X153458D01*
X153469Y62436D01*
X153502Y62447D01*
X153547Y62458D01*
X153658Y62514D01*
X153813Y62580D01*
X154002Y62669D01*
X154213Y62791D01*
X154446Y62947D01*
X154690Y63124D01*
X154701Y63135D01*
X154723Y63147D01*
X154756Y63180D01*
X154801Y63224D01*
X154923Y63335D01*
X155056Y63479D01*
X155212Y63657D01*
X155367Y63879D01*
X155511Y64112D01*
X155622Y64367D01*
X156821D01*
Y56642D01*
D02*
G37*
G36*
X149184Y64312D02*
X149473D01*
X149784Y64290D01*
X150095Y64268D01*
X150228Y64257D01*
X150361Y64245D01*
X150472Y64223D01*
X150561Y64201D01*
X150572D01*
X150594Y64190D01*
X150627Y64179D01*
X150672Y64168D01*
X150794Y64112D01*
X150949Y64046D01*
X151116Y63946D01*
X151305Y63812D01*
X151482Y63646D01*
X151660Y63446D01*
Y63435D01*
X151682Y63424D01*
X151704Y63391D01*
X151726Y63346D01*
X151771Y63280D01*
X151804Y63213D01*
X151848Y63135D01*
X151893Y63047D01*
X151971Y62825D01*
X152048Y62580D01*
X152093Y62281D01*
X152115Y61959D01*
Y61948D01*
Y61926D01*
Y61892D01*
Y61837D01*
X152104Y61781D01*
Y61704D01*
X152081Y61548D01*
X152048Y61359D01*
X152004Y61149D01*
X151937Y60949D01*
X151848Y60760D01*
X151837Y60738D01*
X151804Y60682D01*
X151749Y60594D01*
X151671Y60483D01*
X151582Y60371D01*
X151460Y60238D01*
X151338Y60116D01*
X151194Y60005D01*
X151171Y59994D01*
X151127Y59961D01*
X151049Y59916D01*
X150949Y59861D01*
X150827Y59794D01*
X150694Y59739D01*
X150550Y59683D01*
X150394Y59639D01*
X150372D01*
X150339Y59628D01*
X150294D01*
X150239Y59617D01*
X150161Y59606D01*
X150084Y59594D01*
X149984D01*
X149884Y59583D01*
X149762Y59572D01*
X149628Y59561D01*
X149484Y59550D01*
X149329D01*
X149162Y59539D01*
X147786D01*
Y56642D01*
X146232D01*
Y64323D01*
X149062D01*
X149184Y64312D01*
D02*
G37*
G36*
X145222Y63024D02*
X142957D01*
Y56642D01*
X141404D01*
Y63024D01*
X139128D01*
Y64323D01*
X145222D01*
Y63024D01*
D02*
G37*
G36*
X161705Y64356D02*
X161794Y64345D01*
X161905Y64323D01*
X162016Y64301D01*
X162149Y64268D01*
X162293Y64223D01*
X162426Y64168D01*
X162571Y64112D01*
X162715Y64035D01*
X162859Y63935D01*
X163004Y63835D01*
X163137Y63713D01*
X163259Y63568D01*
X163270Y63557D01*
X163292Y63524D01*
X163326Y63468D01*
X163381Y63391D01*
X163437Y63280D01*
X163503Y63147D01*
X163570Y63002D01*
X163636Y62814D01*
X163703Y62614D01*
X163781Y62381D01*
X163836Y62125D01*
X163892Y61837D01*
X163947Y61526D01*
X163980Y61193D01*
X164003Y60827D01*
X164014Y60427D01*
Y60416D01*
Y60405D01*
Y60371D01*
Y60327D01*
Y60216D01*
X164003Y60072D01*
X163992Y59894D01*
X163969Y59683D01*
X163947Y59461D01*
X163925Y59217D01*
X163881Y58962D01*
X163825Y58696D01*
X163769Y58440D01*
X163692Y58185D01*
X163614Y57930D01*
X163503Y57696D01*
X163392Y57474D01*
X163259Y57286D01*
X163248Y57275D01*
X163226Y57252D01*
X163192Y57208D01*
X163148Y57164D01*
X163081Y57108D01*
X163004Y57042D01*
X162904Y56964D01*
X162804Y56897D01*
X162682Y56820D01*
X162560Y56742D01*
X162415Y56675D01*
X162260Y56620D01*
X162094Y56575D01*
X161905Y56531D01*
X161716Y56509D01*
X161516Y56498D01*
X161472D01*
X161405Y56509D01*
X161328D01*
X161239Y56520D01*
X161128Y56542D01*
X161006Y56564D01*
X160872Y56609D01*
X160728Y56653D01*
X160584Y56709D01*
X160429Y56775D01*
X160284Y56864D01*
X160129Y56953D01*
X159985Y57075D01*
X159840Y57197D01*
X159707Y57352D01*
X159696Y57364D01*
X159674Y57397D01*
X159640Y57452D01*
X159607Y57519D01*
X159552Y57619D01*
X159496Y57741D01*
X159430Y57896D01*
X159374Y58063D01*
X159307Y58263D01*
X159241Y58485D01*
X159185Y58740D01*
X159141Y59017D01*
X159096Y59328D01*
X159063Y59672D01*
X159041Y60038D01*
X159030Y60438D01*
Y60449D01*
Y60460D01*
Y60494D01*
Y60538D01*
Y60649D01*
X159041Y60793D01*
X159052Y60971D01*
X159074Y61182D01*
X159096Y61404D01*
X159119Y61648D01*
X159163Y61903D01*
X159207Y62159D01*
X159274Y62425D01*
X159341Y62680D01*
X159430Y62924D01*
X159529Y63158D01*
X159640Y63380D01*
X159774Y63568D01*
X159785Y63579D01*
X159807Y63602D01*
X159840Y63646D01*
X159896Y63690D01*
X159951Y63757D01*
X160029Y63824D01*
X160129Y63890D01*
X160229Y63968D01*
X160351Y64046D01*
X160473Y64112D01*
X160617Y64179D01*
X160773Y64245D01*
X160939Y64290D01*
X161128Y64334D01*
X161317Y64356D01*
X161516Y64367D01*
X161627D01*
X161705Y64356D01*
D02*
G37*
G36*
X158305Y89502D02*
X158394D01*
X158494Y89491D01*
X158605Y89469D01*
X158738Y89436D01*
X158871Y89403D01*
X159027Y89347D01*
X159182Y89291D01*
X159338Y89214D01*
X159504Y89125D01*
X159660Y89025D01*
X159815Y88903D01*
X159970Y88759D01*
X160115Y88603D01*
X160126Y88592D01*
X160148Y88559D01*
X160181Y88503D01*
X160237Y88426D01*
X160292Y88326D01*
X160359Y88204D01*
X160425Y88059D01*
X160492Y87893D01*
X160559Y87693D01*
X160636Y87471D01*
X160692Y87227D01*
X160747Y86960D01*
X160803Y86661D01*
X160836Y86339D01*
X160858Y85995D01*
X160869Y85617D01*
Y85606D01*
Y85595D01*
Y85562D01*
Y85529D01*
Y85418D01*
X160858Y85273D01*
X160847Y85096D01*
X160825Y84896D01*
X160803Y84685D01*
X160770Y84452D01*
X160725Y84197D01*
X160681Y83953D01*
X160614Y83697D01*
X160536Y83442D01*
X160448Y83209D01*
X160337Y82976D01*
X160226Y82765D01*
X160081Y82576D01*
X160070Y82565D01*
X160048Y82532D01*
X160004Y82487D01*
X159937Y82432D01*
X159859Y82365D01*
X159770Y82276D01*
X159660Y82199D01*
X159537Y82110D01*
X159404Y82021D01*
X159249Y81943D01*
X159082Y81866D01*
X158905Y81788D01*
X158705Y81733D01*
X158505Y81688D01*
X158294Y81655D01*
X158061Y81644D01*
X157972D01*
X157917Y81655D01*
X157839D01*
X157750Y81666D01*
X157539Y81699D01*
X157306Y81766D01*
X157073Y81844D01*
X156829Y81966D01*
X156718Y82032D01*
X156607Y82121D01*
X156596Y82132D01*
X156585Y82143D01*
X156552Y82177D01*
X156518Y82210D01*
X156474Y82265D01*
X156418Y82321D01*
X156374Y82399D01*
X156307Y82476D01*
X156252Y82576D01*
X156185Y82676D01*
X156130Y82798D01*
X156074Y82931D01*
X156019Y83064D01*
X155974Y83220D01*
X155930Y83375D01*
X155897Y83553D01*
X157317Y83719D01*
Y83697D01*
X157329Y83642D01*
X157340Y83564D01*
X157373Y83475D01*
X157406Y83364D01*
X157451Y83253D01*
X157506Y83153D01*
X157584Y83064D01*
X157595Y83053D01*
X157628Y83031D01*
X157673Y82998D01*
X157739Y82965D01*
X157828Y82931D01*
X157917Y82898D01*
X158039Y82876D01*
X158161Y82865D01*
X158183D01*
X158239Y82876D01*
X158316Y82887D01*
X158427Y82920D01*
X158549Y82965D01*
X158672Y83042D01*
X158805Y83142D01*
X158927Y83275D01*
X158938Y83298D01*
X158960Y83320D01*
X158982Y83364D01*
X159005Y83409D01*
X159038Y83475D01*
X159060Y83553D01*
X159104Y83653D01*
X159138Y83764D01*
X159171Y83886D01*
X159204Y84030D01*
X159238Y84186D01*
X159271Y84363D01*
X159293Y84563D01*
X159315Y84785D01*
X159338Y85018D01*
X159326Y85007D01*
X159315Y84996D01*
X159282Y84963D01*
X159238Y84918D01*
X159182Y84874D01*
X159116Y84818D01*
X158960Y84696D01*
X158760Y84574D01*
X158516Y84474D01*
X158383Y84430D01*
X158250Y84408D01*
X158105Y84385D01*
X157950Y84374D01*
X157861D01*
X157795Y84385D01*
X157717Y84396D01*
X157628Y84408D01*
X157417Y84463D01*
X157173Y84541D01*
X157051Y84607D01*
X156918Y84674D01*
X156785Y84752D01*
X156651Y84840D01*
X156518Y84951D01*
X156396Y85073D01*
X156385Y85085D01*
X156363Y85107D01*
X156341Y85151D01*
X156296Y85196D01*
X156241Y85273D01*
X156185Y85351D01*
X156130Y85451D01*
X156074Y85562D01*
X156008Y85684D01*
X155952Y85828D01*
X155897Y85973D01*
X155841Y86139D01*
X155797Y86306D01*
X155774Y86494D01*
X155752Y86694D01*
X155741Y86894D01*
Y86905D01*
Y86949D01*
Y87005D01*
X155752Y87094D01*
X155763Y87194D01*
X155774Y87305D01*
X155797Y87438D01*
X155830Y87571D01*
X155908Y87871D01*
X155963Y88037D01*
X156030Y88193D01*
X156108Y88348D01*
X156207Y88503D01*
X156307Y88648D01*
X156429Y88792D01*
X156440Y88803D01*
X156463Y88825D01*
X156496Y88859D01*
X156552Y88903D01*
X156629Y88959D01*
X156707Y89025D01*
X156807Y89081D01*
X156918Y89158D01*
X157029Y89225D01*
X157173Y89280D01*
X157317Y89347D01*
X157473Y89403D01*
X157639Y89447D01*
X157817Y89480D01*
X157994Y89502D01*
X158194Y89514D01*
X158250D01*
X158305Y89502D01*
D02*
G37*
G36*
X151978Y89458D02*
X152267D01*
X152578Y89436D01*
X152889Y89414D01*
X153022Y89403D01*
X153155Y89391D01*
X153266Y89369D01*
X153355Y89347D01*
X153366D01*
X153388Y89336D01*
X153421Y89325D01*
X153466Y89314D01*
X153588Y89258D01*
X153743Y89192D01*
X153910Y89092D01*
X154099Y88959D01*
X154276Y88792D01*
X154454Y88592D01*
Y88581D01*
X154476Y88570D01*
X154498Y88537D01*
X154520Y88492D01*
X154565Y88426D01*
X154598Y88359D01*
X154642Y88281D01*
X154687Y88193D01*
X154764Y87971D01*
X154842Y87726D01*
X154887Y87427D01*
X154909Y87105D01*
Y87094D01*
Y87072D01*
Y87038D01*
Y86983D01*
X154898Y86927D01*
Y86849D01*
X154875Y86694D01*
X154842Y86505D01*
X154798Y86294D01*
X154731Y86095D01*
X154642Y85906D01*
X154631Y85884D01*
X154598Y85828D01*
X154543Y85739D01*
X154465Y85628D01*
X154376Y85518D01*
X154254Y85384D01*
X154132Y85262D01*
X153988Y85151D01*
X153965Y85140D01*
X153921Y85107D01*
X153843Y85062D01*
X153743Y85007D01*
X153621Y84940D01*
X153488Y84885D01*
X153344Y84829D01*
X153188Y84785D01*
X153166D01*
X153133Y84774D01*
X153088D01*
X153033Y84763D01*
X152955Y84752D01*
X152878Y84740D01*
X152778D01*
X152678Y84729D01*
X152556Y84718D01*
X152422Y84707D01*
X152278Y84696D01*
X152123D01*
X151956Y84685D01*
X150580D01*
Y81788D01*
X149026D01*
Y89469D01*
X151856D01*
X151978Y89458D01*
D02*
G37*
G36*
X148016Y88170D02*
X145751D01*
Y81788D01*
X144198D01*
Y88170D01*
X141922D01*
Y89469D01*
X148016D01*
Y88170D01*
D02*
G37*
G36*
X127086Y64312D02*
X127375D01*
X127686Y64290D01*
X127997Y64268D01*
X128130Y64257D01*
X128263Y64245D01*
X128374Y64223D01*
X128463Y64201D01*
X128474D01*
X128496Y64190D01*
X128529Y64179D01*
X128574Y64168D01*
X128696Y64112D01*
X128851Y64046D01*
X129018Y63946D01*
X129206Y63812D01*
X129384Y63646D01*
X129562Y63446D01*
Y63435D01*
X129584Y63424D01*
X129606Y63391D01*
X129628Y63346D01*
X129673Y63280D01*
X129706Y63213D01*
X129750Y63135D01*
X129795Y63047D01*
X129873Y62825D01*
X129950Y62580D01*
X129995Y62281D01*
X130017Y61959D01*
Y61948D01*
Y61926D01*
Y61892D01*
Y61837D01*
X130006Y61781D01*
Y61704D01*
X129984Y61548D01*
X129950Y61359D01*
X129906Y61149D01*
X129839Y60949D01*
X129750Y60760D01*
X129739Y60738D01*
X129706Y60682D01*
X129650Y60594D01*
X129573Y60483D01*
X129484Y60371D01*
X129362Y60238D01*
X129240Y60116D01*
X129095Y60005D01*
X129073Y59994D01*
X129029Y59961D01*
X128951Y59916D01*
X128851Y59861D01*
X128729Y59794D01*
X128596Y59739D01*
X128452Y59683D01*
X128296Y59639D01*
X128274D01*
X128241Y59628D01*
X128196D01*
X128141Y59617D01*
X128063Y59606D01*
X127985Y59594D01*
X127886D01*
X127786Y59583D01*
X127664Y59572D01*
X127530Y59561D01*
X127386Y59550D01*
X127231D01*
X127064Y59539D01*
X125688D01*
Y56642D01*
X124134D01*
Y64323D01*
X126964D01*
X127086Y64312D01*
D02*
G37*
G36*
X123124Y63024D02*
X120859D01*
Y56642D01*
X119305D01*
Y63024D01*
X117030D01*
Y64323D01*
X123124D01*
Y63024D01*
D02*
G37*
G36*
X133613Y64356D02*
X133713Y64345D01*
X133813Y64334D01*
X133935Y64323D01*
X134057Y64301D01*
X134335Y64234D01*
X134623Y64134D01*
X134756Y64068D01*
X134901Y63990D01*
X135023Y63901D01*
X135145Y63801D01*
X135156Y63790D01*
X135167Y63779D01*
X135200Y63746D01*
X135245Y63702D01*
X135289Y63646D01*
X135334Y63579D01*
X135456Y63413D01*
X135567Y63202D01*
X135655Y62969D01*
X135733Y62691D01*
X135744Y62536D01*
X135755Y62381D01*
Y62369D01*
Y62358D01*
Y62292D01*
X135744Y62192D01*
X135722Y62059D01*
X135689Y61914D01*
X135633Y61759D01*
X135567Y61592D01*
X135467Y61426D01*
X135456Y61404D01*
X135411Y61359D01*
X135356Y61282D01*
X135267Y61193D01*
X135156Y61082D01*
X135023Y60982D01*
X134867Y60882D01*
X134690Y60793D01*
X134701D01*
X134723Y60782D01*
X134756Y60771D01*
X134801Y60749D01*
X134912Y60682D01*
X135056Y60594D01*
X135211Y60494D01*
X135378Y60360D01*
X135533Y60205D01*
X135667Y60027D01*
X135678Y60005D01*
X135722Y59939D01*
X135778Y59839D01*
X135833Y59706D01*
X135900Y59539D01*
X135944Y59339D01*
X135989Y59128D01*
X136000Y58895D01*
Y58884D01*
Y58851D01*
Y58795D01*
X135989Y58718D01*
X135977Y58629D01*
X135966Y58518D01*
X135944Y58407D01*
X135911Y58285D01*
X135833Y58007D01*
X135778Y57863D01*
X135711Y57719D01*
X135633Y57574D01*
X135533Y57430D01*
X135434Y57297D01*
X135311Y57164D01*
X135300Y57153D01*
X135278Y57130D01*
X135245Y57097D01*
X135189Y57064D01*
X135123Y57008D01*
X135034Y56953D01*
X134945Y56897D01*
X134834Y56831D01*
X134712Y56764D01*
X134568Y56709D01*
X134423Y56653D01*
X134268Y56598D01*
X134090Y56564D01*
X133902Y56531D01*
X133713Y56509D01*
X133502Y56498D01*
X133402D01*
X133324Y56509D01*
X133236Y56520D01*
X133136Y56531D01*
X133025Y56542D01*
X132892Y56564D01*
X132614Y56631D01*
X132325Y56731D01*
X132181Y56786D01*
X132037Y56864D01*
X131893Y56942D01*
X131759Y57042D01*
X131748Y57053D01*
X131726Y57075D01*
X131682Y57108D01*
X131626Y57164D01*
X131571Y57230D01*
X131504Y57308D01*
X131426Y57408D01*
X131349Y57508D01*
X131271Y57630D01*
X131193Y57763D01*
X131127Y57907D01*
X131071Y58074D01*
X131016Y58240D01*
X130971Y58429D01*
X130949Y58618D01*
X130938Y58829D01*
Y58840D01*
Y58862D01*
Y58895D01*
Y58940D01*
X130949Y59062D01*
X130971Y59206D01*
X131016Y59384D01*
X131060Y59583D01*
X131138Y59783D01*
X131238Y59983D01*
Y59994D01*
X131249Y60005D01*
X131293Y60072D01*
X131371Y60161D01*
X131482Y60283D01*
X131615Y60416D01*
X131782Y60549D01*
X131981Y60671D01*
X132214Y60793D01*
X132203D01*
X132192Y60804D01*
X132126Y60838D01*
X132026Y60893D01*
X131904Y60960D01*
X131759Y61060D01*
X131626Y61171D01*
X131493Y61304D01*
X131382Y61448D01*
X131371Y61470D01*
X131338Y61526D01*
X131304Y61604D01*
X131260Y61726D01*
X131204Y61859D01*
X131171Y62025D01*
X131138Y62192D01*
X131127Y62381D01*
Y62392D01*
Y62414D01*
Y62458D01*
X131138Y62525D01*
X131149Y62592D01*
X131160Y62680D01*
X131204Y62880D01*
X131271Y63102D01*
X131382Y63346D01*
X131449Y63457D01*
X131526Y63579D01*
X131626Y63690D01*
X131726Y63801D01*
X131737Y63812D01*
X131759Y63824D01*
X131793Y63857D01*
X131837Y63890D01*
X131904Y63935D01*
X131970Y63979D01*
X132059Y64035D01*
X132170Y64090D01*
X132281Y64134D01*
X132403Y64190D01*
X132548Y64234D01*
X132703Y64279D01*
X132869Y64312D01*
X133047Y64345D01*
X133236Y64356D01*
X133435Y64367D01*
X133546D01*
X133613Y64356D01*
D02*
G37*
G36*
X136000Y88304D02*
X135989Y88293D01*
X135966Y88270D01*
X135933Y88237D01*
X135889Y88193D01*
X135833Y88126D01*
X135766Y88048D01*
X135689Y87959D01*
X135600Y87849D01*
X135511Y87726D01*
X135411Y87593D01*
X135300Y87449D01*
X135189Y87294D01*
X135078Y87116D01*
X134967Y86938D01*
X134845Y86739D01*
X134723Y86528D01*
X134712Y86517D01*
X134690Y86472D01*
X134656Y86417D01*
X134612Y86328D01*
X134568Y86228D01*
X134501Y86095D01*
X134434Y85950D01*
X134357Y85795D01*
X134279Y85617D01*
X134201Y85429D01*
X134113Y85229D01*
X134035Y85018D01*
X133879Y84563D01*
X133735Y84086D01*
Y84075D01*
X133724Y84030D01*
X133702Y83964D01*
X133680Y83864D01*
X133658Y83753D01*
X133635Y83631D01*
X133602Y83475D01*
X133569Y83320D01*
X133535Y83142D01*
X133513Y82965D01*
X133458Y82576D01*
X133424Y82177D01*
X133413Y81788D01*
X131993D01*
Y81810D01*
Y81855D01*
X132004Y81943D01*
Y82065D01*
X132015Y82210D01*
X132037Y82376D01*
X132059Y82576D01*
X132092Y82787D01*
X132126Y83020D01*
X132170Y83275D01*
X132226Y83542D01*
X132281Y83830D01*
X132359Y84119D01*
X132437Y84419D01*
X132536Y84718D01*
X132647Y85029D01*
X132659Y85051D01*
X132681Y85107D01*
X132714Y85196D01*
X132758Y85307D01*
X132825Y85451D01*
X132903Y85628D01*
X132992Y85817D01*
X133091Y86028D01*
X133202Y86250D01*
X133324Y86483D01*
X133458Y86739D01*
X133613Y86983D01*
X133935Y87504D01*
X134301Y88004D01*
X130960D01*
Y89369D01*
X136000D01*
Y88304D01*
D02*
G37*
G36*
X127086Y89458D02*
X127375D01*
X127686Y89436D01*
X127997Y89414D01*
X128130Y89403D01*
X128263Y89391D01*
X128374Y89369D01*
X128463Y89347D01*
X128474D01*
X128496Y89336D01*
X128529Y89325D01*
X128574Y89314D01*
X128696Y89258D01*
X128851Y89192D01*
X129018Y89092D01*
X129206Y88959D01*
X129384Y88792D01*
X129562Y88592D01*
Y88581D01*
X129584Y88570D01*
X129606Y88537D01*
X129628Y88492D01*
X129673Y88426D01*
X129706Y88359D01*
X129750Y88281D01*
X129795Y88193D01*
X129873Y87971D01*
X129950Y87726D01*
X129995Y87427D01*
X130017Y87105D01*
Y87094D01*
Y87072D01*
Y87038D01*
Y86983D01*
X130006Y86927D01*
Y86849D01*
X129984Y86694D01*
X129950Y86505D01*
X129906Y86294D01*
X129839Y86095D01*
X129750Y85906D01*
X129739Y85884D01*
X129706Y85828D01*
X129650Y85739D01*
X129573Y85628D01*
X129484Y85518D01*
X129362Y85384D01*
X129240Y85262D01*
X129095Y85151D01*
X129073Y85140D01*
X129029Y85107D01*
X128951Y85062D01*
X128851Y85007D01*
X128729Y84940D01*
X128596Y84885D01*
X128452Y84829D01*
X128296Y84785D01*
X128274D01*
X128241Y84774D01*
X128196D01*
X128141Y84763D01*
X128063Y84752D01*
X127985Y84740D01*
X127886D01*
X127786Y84729D01*
X127664Y84718D01*
X127530Y84707D01*
X127386Y84696D01*
X127231D01*
X127064Y84685D01*
X125688D01*
Y81788D01*
X124134D01*
Y89469D01*
X126964D01*
X127086Y89458D01*
D02*
G37*
G36*
X123124Y88170D02*
X120859D01*
Y81788D01*
X119305D01*
Y88170D01*
X117030D01*
Y89469D01*
X123124D01*
Y88170D01*
D02*
G37*
G36*
X108767Y64356D02*
X108844D01*
X108933Y64345D01*
X109133Y64301D01*
X109355Y64245D01*
X109599Y64157D01*
X109844Y64035D01*
X109955Y63957D01*
X110065Y63868D01*
X110077D01*
X110088Y63846D01*
X110121Y63812D01*
X110154Y63779D01*
X110210Y63724D01*
X110254Y63668D01*
X110376Y63513D01*
X110498Y63302D01*
X110620Y63058D01*
X110731Y62780D01*
X110809Y62447D01*
X109388Y62292D01*
Y62314D01*
X109377Y62358D01*
X109355Y62436D01*
X109333Y62536D01*
X109300Y62636D01*
X109244Y62747D01*
X109189Y62847D01*
X109111Y62936D01*
X109100Y62947D01*
X109066Y62969D01*
X109022Y63002D01*
X108955Y63047D01*
X108878Y63080D01*
X108778Y63113D01*
X108656Y63135D01*
X108534Y63147D01*
X108511D01*
X108456Y63135D01*
X108367Y63124D01*
X108256Y63091D01*
X108134Y63047D01*
X108001Y62969D01*
X107868Y62869D01*
X107746Y62725D01*
X107734Y62702D01*
X107712Y62680D01*
X107690Y62636D01*
X107668Y62592D01*
X107635Y62525D01*
X107612Y62447D01*
X107579Y62347D01*
X107535Y62236D01*
X107501Y62114D01*
X107468Y61970D01*
X107435Y61814D01*
X107402Y61637D01*
X107379Y61437D01*
X107357Y61215D01*
X107335Y60982D01*
X107346Y60993D01*
X107357Y61015D01*
X107390Y61038D01*
X107435Y61082D01*
X107490Y61137D01*
X107557Y61193D01*
X107712Y61315D01*
X107912Y61426D01*
X108145Y61537D01*
X108278Y61581D01*
X108412Y61604D01*
X108556Y61626D01*
X108711Y61637D01*
X108800D01*
X108867Y61626D01*
X108944Y61615D01*
X109033Y61604D01*
X109144Y61581D01*
X109255Y61548D01*
X109499Y61459D01*
X109633Y61404D01*
X109766Y61337D01*
X109899Y61259D01*
X110032Y61160D01*
X110165Y61049D01*
X110288Y60926D01*
X110299Y60915D01*
X110321Y60893D01*
X110354Y60860D01*
X110387Y60804D01*
X110443Y60727D01*
X110498Y60649D01*
X110554Y60549D01*
X110620Y60438D01*
X110687Y60316D01*
X110743Y60172D01*
X110798Y60027D01*
X110854Y59861D01*
X110887Y59694D01*
X110920Y59506D01*
X110942Y59317D01*
X110953Y59106D01*
Y59095D01*
Y59051D01*
Y58995D01*
X110942Y58906D01*
X110931Y58807D01*
X110920Y58696D01*
X110898Y58562D01*
X110865Y58429D01*
X110787Y58118D01*
X110731Y57963D01*
X110654Y57807D01*
X110576Y57652D01*
X110487Y57497D01*
X110376Y57341D01*
X110254Y57208D01*
X110243Y57197D01*
X110221Y57175D01*
X110188Y57141D01*
X110132Y57097D01*
X110065Y57042D01*
X109977Y56986D01*
X109888Y56919D01*
X109777Y56853D01*
X109655Y56786D01*
X109522Y56720D01*
X109377Y56664D01*
X109211Y56609D01*
X109044Y56564D01*
X108867Y56531D01*
X108678Y56509D01*
X108478Y56498D01*
X108423D01*
X108367Y56509D01*
X108289D01*
X108190Y56531D01*
X108068Y56542D01*
X107945Y56575D01*
X107801Y56609D01*
X107657Y56653D01*
X107501Y56720D01*
X107335Y56786D01*
X107179Y56875D01*
X107013Y56975D01*
X106858Y57097D01*
X106702Y57241D01*
X106558Y57397D01*
X106547Y57408D01*
X106525Y57441D01*
X106491Y57497D01*
X106447Y57574D01*
X106380Y57674D01*
X106325Y57796D01*
X106258Y57941D01*
X106192Y58107D01*
X106114Y58307D01*
X106047Y58518D01*
X105992Y58762D01*
X105936Y59040D01*
X105881Y59328D01*
X105848Y59650D01*
X105825Y59994D01*
X105814Y60371D01*
Y60383D01*
Y60394D01*
Y60427D01*
Y60460D01*
Y60571D01*
X105825Y60716D01*
X105836Y60893D01*
X105859Y61093D01*
X105881Y61315D01*
X105914Y61548D01*
X105947Y61792D01*
X106003Y62048D01*
X106069Y62303D01*
X106147Y62558D01*
X106236Y62791D01*
X106336Y63024D01*
X106458Y63235D01*
X106591Y63424D01*
X106602Y63435D01*
X106624Y63468D01*
X106669Y63513D01*
X106735Y63568D01*
X106813Y63646D01*
X106902Y63724D01*
X107013Y63812D01*
X107135Y63901D01*
X107279Y63979D01*
X107424Y64068D01*
X107601Y64145D01*
X107779Y64223D01*
X107968Y64279D01*
X108179Y64323D01*
X108389Y64356D01*
X108623Y64367D01*
X108711D01*
X108767Y64356D01*
D02*
G37*
G36*
X101940Y64312D02*
X102229D01*
X102540Y64290D01*
X102851Y64268D01*
X102984Y64257D01*
X103117Y64245D01*
X103228Y64223D01*
X103317Y64201D01*
X103328D01*
X103350Y64190D01*
X103383Y64179D01*
X103428Y64168D01*
X103550Y64112D01*
X103705Y64046D01*
X103872Y63946D01*
X104060Y63812D01*
X104238Y63646D01*
X104416Y63446D01*
Y63435D01*
X104438Y63424D01*
X104460Y63391D01*
X104482Y63346D01*
X104527Y63280D01*
X104560Y63213D01*
X104604Y63135D01*
X104649Y63047D01*
X104726Y62825D01*
X104804Y62580D01*
X104849Y62281D01*
X104871Y61959D01*
Y61948D01*
Y61926D01*
Y61892D01*
Y61837D01*
X104860Y61781D01*
Y61704D01*
X104838Y61548D01*
X104804Y61359D01*
X104760Y61149D01*
X104693Y60949D01*
X104604Y60760D01*
X104593Y60738D01*
X104560Y60682D01*
X104504Y60594D01*
X104427Y60483D01*
X104338Y60371D01*
X104216Y60238D01*
X104094Y60116D01*
X103949Y60005D01*
X103927Y59994D01*
X103883Y59961D01*
X103805Y59916D01*
X103705Y59861D01*
X103583Y59794D01*
X103450Y59739D01*
X103306Y59683D01*
X103150Y59639D01*
X103128D01*
X103095Y59628D01*
X103050D01*
X102995Y59617D01*
X102917Y59606D01*
X102839Y59594D01*
X102740D01*
X102640Y59583D01*
X102518Y59572D01*
X102384Y59561D01*
X102240Y59550D01*
X102085D01*
X101918Y59539D01*
X100542D01*
Y56642D01*
X98988D01*
Y64323D01*
X101818D01*
X101940Y64312D01*
D02*
G37*
G36*
X97978Y63024D02*
X95713D01*
Y56642D01*
X94159D01*
Y63024D01*
X91884D01*
Y64323D01*
X97978D01*
Y63024D01*
D02*
G37*
G36*
X110665Y87993D02*
X107879D01*
X107646Y86683D01*
X107657D01*
X107668Y86694D01*
X107734Y86727D01*
X107834Y86761D01*
X107956Y86816D01*
X108112Y86861D01*
X108278Y86894D01*
X108467Y86927D01*
X108656Y86938D01*
X108756D01*
X108822Y86927D01*
X108900Y86916D01*
X109000Y86905D01*
X109111Y86883D01*
X109233Y86849D01*
X109488Y86761D01*
X109633Y86705D01*
X109766Y86639D01*
X109910Y86550D01*
X110054Y86450D01*
X110188Y86339D01*
X110321Y86217D01*
X110332Y86206D01*
X110354Y86184D01*
X110387Y86139D01*
X110432Y86084D01*
X110476Y86017D01*
X110543Y85928D01*
X110598Y85828D01*
X110665Y85717D01*
X110731Y85595D01*
X110787Y85451D01*
X110854Y85295D01*
X110898Y85140D01*
X110942Y84963D01*
X110976Y84774D01*
X110998Y84574D01*
X111009Y84363D01*
Y84352D01*
Y84319D01*
Y84274D01*
X110998Y84208D01*
Y84119D01*
X110976Y84019D01*
X110964Y83908D01*
X110942Y83797D01*
X110876Y83531D01*
X110776Y83242D01*
X110709Y83087D01*
X110643Y82942D01*
X110554Y82798D01*
X110454Y82654D01*
X110443Y82643D01*
X110421Y82609D01*
X110376Y82565D01*
X110321Y82498D01*
X110243Y82421D01*
X110143Y82332D01*
X110032Y82243D01*
X109910Y82154D01*
X109766Y82054D01*
X109610Y81966D01*
X109444Y81877D01*
X109255Y81799D01*
X109055Y81733D01*
X108844Y81688D01*
X108611Y81655D01*
X108367Y81644D01*
X108267D01*
X108190Y81655D01*
X108101Y81666D01*
X107990Y81677D01*
X107879Y81688D01*
X107746Y81710D01*
X107479Y81777D01*
X107179Y81888D01*
X107035Y81943D01*
X106891Y82021D01*
X106758Y82110D01*
X106624Y82210D01*
X106613Y82221D01*
X106591Y82232D01*
X106558Y82265D01*
X106514Y82310D01*
X106469Y82376D01*
X106403Y82443D01*
X106347Y82521D01*
X106280Y82609D01*
X106203Y82720D01*
X106136Y82831D01*
X106014Y83098D01*
X105903Y83398D01*
X105870Y83564D01*
X105836Y83742D01*
X107302Y83897D01*
Y83875D01*
X107313Y83819D01*
X107335Y83719D01*
X107368Y83608D01*
X107413Y83486D01*
X107479Y83353D01*
X107568Y83231D01*
X107668Y83109D01*
X107679Y83098D01*
X107723Y83064D01*
X107790Y83020D01*
X107879Y82965D01*
X107979Y82909D01*
X108101Y82865D01*
X108245Y82831D01*
X108389Y82820D01*
X108412D01*
X108467Y82831D01*
X108556Y82843D01*
X108667Y82865D01*
X108789Y82909D01*
X108922Y82976D01*
X109055Y83076D01*
X109178Y83198D01*
X109189Y83220D01*
X109233Y83264D01*
X109277Y83353D01*
X109344Y83486D01*
X109399Y83642D01*
X109455Y83830D01*
X109488Y84064D01*
X109499Y84330D01*
Y84341D01*
Y84363D01*
Y84396D01*
Y84452D01*
X109488Y84574D01*
X109455Y84729D01*
X109422Y84907D01*
X109366Y85085D01*
X109289Y85251D01*
X109178Y85395D01*
X109166Y85407D01*
X109122Y85451D01*
X109044Y85506D01*
X108955Y85584D01*
X108833Y85651D01*
X108689Y85706D01*
X108523Y85751D01*
X108345Y85762D01*
X108278D01*
X108234Y85751D01*
X108123Y85728D01*
X107968Y85695D01*
X107790Y85628D01*
X107601Y85529D01*
X107501Y85462D01*
X107402Y85384D01*
X107302Y85295D01*
X107202Y85196D01*
X106014Y85362D01*
X106769Y89369D01*
X110665D01*
Y87993D01*
D02*
G37*
G36*
X101940Y89458D02*
X102229D01*
X102540Y89436D01*
X102851Y89414D01*
X102984Y89403D01*
X103117Y89391D01*
X103228Y89369D01*
X103317Y89347D01*
X103328D01*
X103350Y89336D01*
X103383Y89325D01*
X103428Y89314D01*
X103550Y89258D01*
X103705Y89192D01*
X103872Y89092D01*
X104060Y88959D01*
X104238Y88792D01*
X104416Y88592D01*
Y88581D01*
X104438Y88570D01*
X104460Y88537D01*
X104482Y88492D01*
X104527Y88426D01*
X104560Y88359D01*
X104604Y88281D01*
X104649Y88193D01*
X104726Y87971D01*
X104804Y87726D01*
X104849Y87427D01*
X104871Y87105D01*
Y87094D01*
Y87072D01*
Y87038D01*
Y86983D01*
X104860Y86927D01*
Y86849D01*
X104838Y86694D01*
X104804Y86505D01*
X104760Y86294D01*
X104693Y86095D01*
X104604Y85906D01*
X104593Y85884D01*
X104560Y85828D01*
X104504Y85739D01*
X104427Y85628D01*
X104338Y85518D01*
X104216Y85384D01*
X104094Y85262D01*
X103949Y85151D01*
X103927Y85140D01*
X103883Y85107D01*
X103805Y85062D01*
X103705Y85007D01*
X103583Y84940D01*
X103450Y84885D01*
X103306Y84829D01*
X103150Y84785D01*
X103128D01*
X103095Y84774D01*
X103050D01*
X102995Y84763D01*
X102917Y84752D01*
X102839Y84740D01*
X102740D01*
X102640Y84729D01*
X102518Y84718D01*
X102384Y84707D01*
X102240Y84696D01*
X102085D01*
X101918Y84685D01*
X100542D01*
Y81788D01*
X98988D01*
Y89469D01*
X101818D01*
X101940Y89458D01*
D02*
G37*
G36*
X97978Y88170D02*
X95713D01*
Y81788D01*
X94159D01*
Y88170D01*
X91884D01*
Y89469D01*
X97978D01*
Y88170D01*
D02*
G37*
G36*
X85240Y59472D02*
X86195D01*
Y58185D01*
X85240D01*
Y56642D01*
X83819D01*
Y58185D01*
X80667D01*
Y59461D01*
X83997Y64356D01*
X85240D01*
Y59472D01*
D02*
G37*
G36*
X77048Y64312D02*
X77337D01*
X77648Y64290D01*
X77959Y64268D01*
X78092Y64257D01*
X78225Y64245D01*
X78336Y64223D01*
X78425Y64201D01*
X78436D01*
X78458Y64190D01*
X78491Y64179D01*
X78536Y64168D01*
X78658Y64112D01*
X78813Y64046D01*
X78980Y63946D01*
X79169Y63812D01*
X79346Y63646D01*
X79524Y63446D01*
Y63435D01*
X79546Y63424D01*
X79568Y63391D01*
X79590Y63346D01*
X79635Y63280D01*
X79668Y63213D01*
X79712Y63135D01*
X79757Y63047D01*
X79834Y62825D01*
X79912Y62580D01*
X79957Y62281D01*
X79979Y61959D01*
Y61948D01*
Y61926D01*
Y61892D01*
Y61837D01*
X79968Y61781D01*
Y61704D01*
X79946Y61548D01*
X79912Y61359D01*
X79868Y61149D01*
X79801Y60949D01*
X79712Y60760D01*
X79701Y60738D01*
X79668Y60682D01*
X79612Y60594D01*
X79535Y60483D01*
X79446Y60371D01*
X79324Y60238D01*
X79202Y60116D01*
X79057Y60005D01*
X79035Y59994D01*
X78991Y59961D01*
X78913Y59916D01*
X78813Y59861D01*
X78691Y59794D01*
X78558Y59739D01*
X78414Y59683D01*
X78258Y59639D01*
X78236D01*
X78203Y59628D01*
X78158D01*
X78103Y59617D01*
X78025Y59606D01*
X77948Y59594D01*
X77848D01*
X77748Y59583D01*
X77626Y59572D01*
X77492Y59561D01*
X77348Y59550D01*
X77193D01*
X77026Y59539D01*
X75650D01*
Y56642D01*
X74096D01*
Y64323D01*
X76926D01*
X77048Y64312D01*
D02*
G37*
G36*
X73086Y63024D02*
X70821D01*
Y56642D01*
X69268D01*
Y63024D01*
X66992D01*
Y64323D01*
X73086D01*
Y63024D01*
D02*
G37*
G36*
X83520Y89502D02*
X83619Y89491D01*
X83719Y89480D01*
X83841Y89458D01*
X83964Y89425D01*
X84241Y89347D01*
X84385Y89291D01*
X84541Y89214D01*
X84685Y89136D01*
X84818Y89047D01*
X84963Y88936D01*
X85085Y88814D01*
X85096Y88803D01*
X85107Y88792D01*
X85140Y88759D01*
X85174Y88714D01*
X85262Y88603D01*
X85362Y88448D01*
X85462Y88259D01*
X85540Y88037D01*
X85606Y87793D01*
X85618Y87671D01*
X85629Y87538D01*
Y87527D01*
Y87493D01*
X85618Y87438D01*
X85606Y87371D01*
X85595Y87282D01*
X85573Y87183D01*
X85540Y87072D01*
X85495Y86949D01*
X85429Y86827D01*
X85362Y86694D01*
X85273Y86561D01*
X85162Y86428D01*
X85029Y86294D01*
X84885Y86161D01*
X84718Y86039D01*
X84519Y85917D01*
X84530D01*
X84552Y85906D01*
X84585D01*
X84630Y85884D01*
X84752Y85850D01*
X84896Y85784D01*
X85063Y85695D01*
X85240Y85584D01*
X85418Y85440D01*
X85573Y85273D01*
X85595Y85251D01*
X85640Y85184D01*
X85695Y85085D01*
X85773Y84940D01*
X85851Y84774D01*
X85906Y84563D01*
X85950Y84341D01*
X85973Y84086D01*
Y84075D01*
Y84041D01*
Y83986D01*
X85962Y83919D01*
X85950Y83830D01*
X85928Y83730D01*
X85906Y83608D01*
X85884Y83486D01*
X85795Y83220D01*
X85729Y83076D01*
X85662Y82920D01*
X85573Y82776D01*
X85473Y82632D01*
X85362Y82487D01*
X85229Y82354D01*
X85218Y82343D01*
X85196Y82321D01*
X85151Y82288D01*
X85096Y82243D01*
X85018Y82188D01*
X84940Y82132D01*
X84829Y82065D01*
X84718Y81999D01*
X84596Y81932D01*
X84452Y81866D01*
X84297Y81810D01*
X84141Y81755D01*
X83964Y81710D01*
X83786Y81677D01*
X83586Y81655D01*
X83386Y81644D01*
X83287D01*
X83209Y81655D01*
X83120Y81666D01*
X83020Y81677D01*
X82909Y81699D01*
X82776Y81721D01*
X82509Y81788D01*
X82221Y81899D01*
X82065Y81966D01*
X81932Y82043D01*
X81788Y82143D01*
X81655Y82243D01*
X81644Y82254D01*
X81622Y82276D01*
X81588Y82310D01*
X81544Y82354D01*
X81488Y82410D01*
X81433Y82487D01*
X81366Y82565D01*
X81300Y82665D01*
X81233Y82776D01*
X81155Y82887D01*
X81033Y83153D01*
X80933Y83464D01*
X80889Y83631D01*
X80867Y83808D01*
X82288Y83986D01*
Y83975D01*
Y83964D01*
X82299Y83897D01*
X82321Y83797D01*
X82354Y83675D01*
X82410Y83542D01*
X82465Y83398D01*
X82554Y83264D01*
X82654Y83142D01*
X82665Y83131D01*
X82709Y83098D01*
X82776Y83053D01*
X82854Y83009D01*
X82965Y82954D01*
X83087Y82909D01*
X83220Y82876D01*
X83375Y82865D01*
X83398D01*
X83453Y82876D01*
X83531Y82887D01*
X83642Y82909D01*
X83764Y82954D01*
X83886Y83009D01*
X84019Y83098D01*
X84141Y83209D01*
X84152Y83220D01*
X84197Y83275D01*
X84241Y83353D01*
X84308Y83453D01*
X84363Y83586D01*
X84419Y83753D01*
X84452Y83941D01*
X84463Y84152D01*
Y84163D01*
Y84174D01*
Y84241D01*
X84452Y84341D01*
X84430Y84474D01*
X84385Y84618D01*
X84330Y84763D01*
X84252Y84907D01*
X84152Y85040D01*
X84141Y85051D01*
X84097Y85096D01*
X84030Y85151D01*
X83953Y85207D01*
X83841Y85273D01*
X83719Y85318D01*
X83586Y85362D01*
X83431Y85373D01*
X83320D01*
X83242Y85362D01*
X83142Y85351D01*
X83020Y85329D01*
X82898Y85295D01*
X82754Y85262D01*
X82909Y86450D01*
X83009D01*
X83120Y86461D01*
X83253Y86472D01*
X83398Y86505D01*
X83553Y86550D01*
X83697Y86616D01*
X83830Y86705D01*
X83841Y86716D01*
X83886Y86761D01*
X83930Y86816D01*
X83997Y86905D01*
X84052Y87005D01*
X84108Y87127D01*
X84141Y87271D01*
X84152Y87438D01*
Y87460D01*
Y87504D01*
X84141Y87571D01*
X84119Y87660D01*
X84097Y87760D01*
X84052Y87860D01*
X83997Y87971D01*
X83919Y88059D01*
X83908Y88070D01*
X83875Y88093D01*
X83830Y88137D01*
X83753Y88181D01*
X83664Y88215D01*
X83564Y88259D01*
X83431Y88281D01*
X83298Y88293D01*
X83231D01*
X83164Y88281D01*
X83076Y88259D01*
X82976Y88226D01*
X82865Y88181D01*
X82754Y88115D01*
X82654Y88026D01*
X82643Y88015D01*
X82609Y87982D01*
X82565Y87915D01*
X82509Y87826D01*
X82454Y87726D01*
X82410Y87593D01*
X82365Y87438D01*
X82332Y87260D01*
X80978Y87482D01*
Y87493D01*
X80989Y87515D01*
Y87549D01*
X81000Y87604D01*
X81033Y87726D01*
X81078Y87893D01*
X81144Y88070D01*
X81211Y88259D01*
X81300Y88437D01*
X81399Y88603D01*
X81411Y88625D01*
X81455Y88670D01*
X81522Y88748D01*
X81610Y88848D01*
X81721Y88947D01*
X81855Y89058D01*
X82021Y89169D01*
X82199Y89269D01*
X82210D01*
X82221Y89280D01*
X82288Y89303D01*
X82399Y89347D01*
X82532Y89391D01*
X82698Y89436D01*
X82898Y89480D01*
X83109Y89502D01*
X83342Y89514D01*
X83442D01*
X83520Y89502D01*
D02*
G37*
G36*
X77048Y89458D02*
X77337D01*
X77648Y89436D01*
X77959Y89414D01*
X78092Y89403D01*
X78225Y89391D01*
X78336Y89369D01*
X78425Y89347D01*
X78436D01*
X78458Y89336D01*
X78491Y89325D01*
X78536Y89314D01*
X78658Y89258D01*
X78813Y89192D01*
X78980Y89092D01*
X79169Y88959D01*
X79346Y88792D01*
X79524Y88592D01*
Y88581D01*
X79546Y88570D01*
X79568Y88537D01*
X79590Y88492D01*
X79635Y88426D01*
X79668Y88359D01*
X79712Y88281D01*
X79757Y88193D01*
X79834Y87971D01*
X79912Y87726D01*
X79957Y87427D01*
X79979Y87105D01*
Y87094D01*
Y87072D01*
Y87038D01*
Y86983D01*
X79968Y86927D01*
Y86849D01*
X79946Y86694D01*
X79912Y86505D01*
X79868Y86294D01*
X79801Y86095D01*
X79712Y85906D01*
X79701Y85884D01*
X79668Y85828D01*
X79612Y85739D01*
X79535Y85628D01*
X79446Y85518D01*
X79324Y85384D01*
X79202Y85262D01*
X79057Y85151D01*
X79035Y85140D01*
X78991Y85107D01*
X78913Y85062D01*
X78813Y85007D01*
X78691Y84940D01*
X78558Y84885D01*
X78414Y84829D01*
X78258Y84785D01*
X78236D01*
X78203Y84774D01*
X78158D01*
X78103Y84763D01*
X78025Y84752D01*
X77948Y84740D01*
X77848D01*
X77748Y84729D01*
X77626Y84718D01*
X77492Y84707D01*
X77348Y84696D01*
X77193D01*
X77026Y84685D01*
X75650D01*
Y81788D01*
X74096D01*
Y89469D01*
X76926D01*
X77048Y89458D01*
D02*
G37*
G36*
X73086Y88170D02*
X70821D01*
Y81788D01*
X69268D01*
Y88170D01*
X66992D01*
Y89469D01*
X73086D01*
Y88170D01*
D02*
G37*
G36*
X58750Y64356D02*
X58850Y64345D01*
X58961Y64334D01*
X59083Y64312D01*
X59216Y64290D01*
X59504Y64212D01*
X59793Y64101D01*
X59949Y64035D01*
X60082Y63957D01*
X60226Y63857D01*
X60348Y63746D01*
X60359Y63735D01*
X60381Y63724D01*
X60404Y63679D01*
X60448Y63635D01*
X60504Y63579D01*
X60559Y63502D01*
X60615Y63424D01*
X60681Y63324D01*
X60792Y63102D01*
X60903Y62847D01*
X60947Y62702D01*
X60970Y62547D01*
X60992Y62381D01*
X61003Y62214D01*
Y62192D01*
Y62125D01*
X60992Y62025D01*
X60981Y61903D01*
X60959Y61748D01*
X60925Y61581D01*
X60881Y61404D01*
X60814Y61226D01*
X60803Y61204D01*
X60781Y61149D01*
X60737Y61049D01*
X60670Y60926D01*
X60592Y60782D01*
X60492Y60616D01*
X60370Y60438D01*
X60226Y60249D01*
X60215Y60238D01*
X60170Y60183D01*
X60104Y60105D01*
X60004Y59994D01*
X59871Y59861D01*
X59704Y59683D01*
X59504Y59495D01*
X59260Y59262D01*
X59249Y59250D01*
X59227Y59239D01*
X59194Y59206D01*
X59149Y59162D01*
X59027Y59051D01*
X58883Y58917D01*
X58739Y58773D01*
X58594Y58629D01*
X58461Y58507D01*
X58417Y58451D01*
X58372Y58407D01*
X58361Y58396D01*
X58339Y58374D01*
X58306Y58329D01*
X58261Y58274D01*
X58161Y58152D01*
X58073Y58007D01*
X61003D01*
Y56642D01*
X55841D01*
Y56653D01*
Y56675D01*
X55853Y56720D01*
X55864Y56775D01*
X55875Y56842D01*
X55886Y56919D01*
X55930Y57119D01*
X55997Y57341D01*
X56086Y57586D01*
X56197Y57852D01*
X56341Y58107D01*
Y58118D01*
X56363Y58141D01*
X56385Y58185D01*
X56430Y58229D01*
X56474Y58307D01*
X56541Y58385D01*
X56618Y58485D01*
X56707Y58596D01*
X56807Y58729D01*
X56929Y58862D01*
X57063Y59017D01*
X57218Y59184D01*
X57384Y59350D01*
X57573Y59539D01*
X57773Y59739D01*
X57995Y59950D01*
X58006Y59961D01*
X58039Y59994D01*
X58084Y60038D01*
X58150Y60105D01*
X58239Y60172D01*
X58328Y60261D01*
X58528Y60460D01*
X58727Y60671D01*
X58927Y60882D01*
X59016Y60971D01*
X59105Y61071D01*
X59172Y61149D01*
X59216Y61215D01*
X59227Y61237D01*
X59260Y61293D01*
X59316Y61382D01*
X59371Y61504D01*
X59427Y61637D01*
X59482Y61792D01*
X59516Y61948D01*
X59527Y62114D01*
Y62125D01*
Y62136D01*
Y62192D01*
X59516Y62292D01*
X59493Y62403D01*
X59460Y62525D01*
X59416Y62647D01*
X59349Y62769D01*
X59260Y62880D01*
X59249Y62891D01*
X59216Y62924D01*
X59149Y62969D01*
X59072Y63013D01*
X58961Y63058D01*
X58839Y63102D01*
X58694Y63135D01*
X58528Y63147D01*
X58450D01*
X58361Y63135D01*
X58261Y63113D01*
X58139Y63080D01*
X58017Y63024D01*
X57895Y62958D01*
X57784Y62869D01*
X57773Y62858D01*
X57740Y62814D01*
X57695Y62747D01*
X57651Y62647D01*
X57595Y62525D01*
X57551Y62358D01*
X57506Y62170D01*
X57484Y61948D01*
X56019Y62092D01*
Y62103D01*
X56030Y62147D01*
Y62203D01*
X56052Y62292D01*
X56063Y62392D01*
X56097Y62503D01*
X56130Y62625D01*
X56163Y62769D01*
X56274Y63047D01*
X56408Y63335D01*
X56496Y63479D01*
X56596Y63613D01*
X56707Y63724D01*
X56829Y63835D01*
X56841Y63846D01*
X56863Y63857D01*
X56896Y63879D01*
X56951Y63924D01*
X57018Y63957D01*
X57107Y64001D01*
X57196Y64057D01*
X57307Y64101D01*
X57429Y64157D01*
X57562Y64201D01*
X57851Y64290D01*
X58195Y64345D01*
X58372Y64356D01*
X58561Y64367D01*
X58672D01*
X58750Y64356D01*
D02*
G37*
G36*
X52156Y64312D02*
X52445D01*
X52756Y64290D01*
X53067Y64268D01*
X53200Y64257D01*
X53333Y64245D01*
X53444Y64223D01*
X53533Y64201D01*
X53544D01*
X53566Y64190D01*
X53599Y64179D01*
X53644Y64168D01*
X53766Y64112D01*
X53921Y64046D01*
X54088Y63946D01*
X54276Y63812D01*
X54454Y63646D01*
X54632Y63446D01*
Y63435D01*
X54654Y63424D01*
X54676Y63391D01*
X54698Y63346D01*
X54743Y63280D01*
X54776Y63213D01*
X54820Y63135D01*
X54865Y63047D01*
X54942Y62825D01*
X55020Y62580D01*
X55065Y62281D01*
X55087Y61959D01*
Y61948D01*
Y61926D01*
Y61892D01*
Y61837D01*
X55076Y61781D01*
Y61704D01*
X55054Y61548D01*
X55020Y61359D01*
X54976Y61149D01*
X54909Y60949D01*
X54820Y60760D01*
X54809Y60738D01*
X54776Y60682D01*
X54721Y60594D01*
X54643Y60483D01*
X54554Y60371D01*
X54432Y60238D01*
X54310Y60116D01*
X54166Y60005D01*
X54143Y59994D01*
X54099Y59961D01*
X54021Y59916D01*
X53921Y59861D01*
X53799Y59794D01*
X53666Y59739D01*
X53522Y59683D01*
X53366Y59639D01*
X53344D01*
X53311Y59628D01*
X53266D01*
X53211Y59617D01*
X53133Y59606D01*
X53056Y59594D01*
X52956D01*
X52856Y59583D01*
X52734Y59572D01*
X52600Y59561D01*
X52456Y59550D01*
X52301D01*
X52134Y59539D01*
X50758D01*
Y56642D01*
X49204D01*
Y64323D01*
X52034D01*
X52156Y64312D01*
D02*
G37*
G36*
X48194Y63024D02*
X45929D01*
Y56642D01*
X44376D01*
Y63024D01*
X42100D01*
Y64323D01*
X48194D01*
Y63024D01*
D02*
G37*
G36*
X60301Y81534D02*
X58825D01*
Y87095D01*
X58814Y87084D01*
X58791Y87062D01*
X58747Y87028D01*
X58681Y86973D01*
X58603Y86906D01*
X58514Y86840D01*
X58403Y86762D01*
X58281Y86673D01*
X58148Y86584D01*
X58003Y86496D01*
X57848Y86396D01*
X57681Y86307D01*
X57326Y86140D01*
X56927Y85985D01*
Y87317D01*
X56938D01*
X56949Y87328D01*
X56982Y87339D01*
X57027Y87350D01*
X57138Y87406D01*
X57293Y87472D01*
X57482Y87561D01*
X57693Y87683D01*
X57926Y87839D01*
X58170Y88016D01*
X58181Y88027D01*
X58203Y88039D01*
X58236Y88072D01*
X58281Y88116D01*
X58403Y88227D01*
X58536Y88371D01*
X58692Y88549D01*
X58847Y88771D01*
X58991Y89004D01*
X59102Y89260D01*
X60301D01*
Y81534D01*
D02*
G37*
G36*
X52664Y89204D02*
X52953D01*
X53264Y89182D01*
X53575Y89160D01*
X53708Y89149D01*
X53841Y89137D01*
X53952Y89115D01*
X54041Y89093D01*
X54052D01*
X54074Y89082D01*
X54107Y89071D01*
X54152Y89060D01*
X54274Y89004D01*
X54429Y88938D01*
X54596Y88838D01*
X54784Y88705D01*
X54962Y88538D01*
X55140Y88338D01*
Y88327D01*
X55162Y88316D01*
X55184Y88283D01*
X55206Y88238D01*
X55251Y88172D01*
X55284Y88105D01*
X55328Y88027D01*
X55373Y87939D01*
X55451Y87717D01*
X55528Y87472D01*
X55573Y87173D01*
X55595Y86851D01*
Y86840D01*
Y86818D01*
Y86784D01*
Y86729D01*
X55584Y86673D01*
Y86595D01*
X55561Y86440D01*
X55528Y86251D01*
X55484Y86040D01*
X55417Y85841D01*
X55328Y85652D01*
X55317Y85630D01*
X55284Y85574D01*
X55229Y85485D01*
X55151Y85374D01*
X55062Y85264D01*
X54940Y85130D01*
X54818Y85008D01*
X54674Y84897D01*
X54651Y84886D01*
X54607Y84853D01*
X54529Y84808D01*
X54429Y84753D01*
X54307Y84686D01*
X54174Y84631D01*
X54030Y84575D01*
X53874Y84531D01*
X53852D01*
X53819Y84520D01*
X53774D01*
X53719Y84509D01*
X53641Y84498D01*
X53563Y84487D01*
X53464D01*
X53364Y84475D01*
X53242Y84464D01*
X53108Y84453D01*
X52964Y84442D01*
X52809D01*
X52642Y84431D01*
X51266D01*
Y81534D01*
X49712D01*
Y89215D01*
X52542D01*
X52664Y89204D01*
D02*
G37*
G36*
X48702Y87916D02*
X46437D01*
Y81534D01*
X44883D01*
Y87916D01*
X42608D01*
Y89215D01*
X48702D01*
Y87916D01*
D02*
G37*
%LPC*%
G36*
X173832Y63024D02*
X172678D01*
Y60838D01*
X173743D01*
X173821Y60849D01*
X174021D01*
X174221Y60860D01*
X174421Y60882D01*
X174598Y60915D01*
X174676Y60926D01*
X174742Y60949D01*
X174753Y60960D01*
X174798Y60971D01*
X174853Y61004D01*
X174920Y61038D01*
X174998Y61093D01*
X175075Y61160D01*
X175164Y61237D01*
X175231Y61326D01*
X175242Y61337D01*
X175264Y61371D01*
X175286Y61426D01*
X175320Y61504D01*
X175353Y61592D01*
X175386Y61692D01*
X175397Y61803D01*
X175408Y61926D01*
Y61948D01*
Y61992D01*
X175397Y62070D01*
X175375Y62170D01*
X175342Y62281D01*
X175297Y62403D01*
X175242Y62514D01*
X175153Y62625D01*
X175142Y62636D01*
X175109Y62669D01*
X175053Y62714D01*
X174987Y62769D01*
X174898Y62836D01*
X174787Y62891D01*
X174665Y62936D01*
X174531Y62969D01*
X174520D01*
X174476Y62980D01*
X174398Y62991D01*
X174287Y63002D01*
X174143D01*
X174043Y63013D01*
X173943D01*
X173832Y63024D01*
D02*
G37*
G36*
X336679Y62114D02*
X334892Y59472D01*
X336679D01*
Y62114D01*
D02*
G37*
G36*
X323692Y63024D02*
X322538D01*
Y60838D01*
X323603D01*
X323681Y60849D01*
X323881D01*
X324081Y60860D01*
X324281Y60882D01*
X324458Y60915D01*
X324536Y60926D01*
X324602Y60949D01*
X324613Y60960D01*
X324658Y60971D01*
X324713Y61004D01*
X324780Y61038D01*
X324858Y61093D01*
X324935Y61160D01*
X325024Y61237D01*
X325091Y61326D01*
X325102Y61337D01*
X325124Y61371D01*
X325146Y61426D01*
X325180Y61504D01*
X325213Y61592D01*
X325246Y61692D01*
X325257Y61803D01*
X325268Y61926D01*
Y61948D01*
Y61992D01*
X325257Y62070D01*
X325235Y62170D01*
X325202Y62281D01*
X325157Y62403D01*
X325102Y62514D01*
X325013Y62625D01*
X325002Y62636D01*
X324969Y62669D01*
X324913Y62714D01*
X324847Y62769D01*
X324758Y62836D01*
X324647Y62891D01*
X324525Y62936D01*
X324392Y62969D01*
X324380D01*
X324336Y62980D01*
X324258Y62991D01*
X324147Y63002D01*
X324003D01*
X323903Y63013D01*
X323803D01*
X323692Y63024D01*
D02*
G37*
G36*
X323946Y88170D02*
X322792D01*
Y85984D01*
X323857D01*
X323935Y85995D01*
X324135D01*
X324335Y86006D01*
X324534Y86028D01*
X324712Y86061D01*
X324790Y86073D01*
X324856Y86095D01*
X324868Y86106D01*
X324912Y86117D01*
X324967Y86150D01*
X325034Y86184D01*
X325112Y86239D01*
X325189Y86306D01*
X325278Y86383D01*
X325345Y86472D01*
X325356Y86483D01*
X325378Y86517D01*
X325400Y86572D01*
X325434Y86650D01*
X325467Y86739D01*
X325500Y86838D01*
X325511Y86949D01*
X325522Y87072D01*
Y87094D01*
Y87138D01*
X325511Y87216D01*
X325489Y87316D01*
X325456Y87427D01*
X325411Y87549D01*
X325356Y87660D01*
X325267Y87771D01*
X325256Y87782D01*
X325223Y87815D01*
X325167Y87860D01*
X325101Y87915D01*
X325012Y87982D01*
X324901Y88037D01*
X324779Y88082D01*
X324646Y88115D01*
X324634D01*
X324590Y88126D01*
X324512Y88137D01*
X324401Y88148D01*
X324257D01*
X324157Y88159D01*
X324057D01*
X323946Y88170D01*
D02*
G37*
G36*
X298800Y63024D02*
X297646D01*
Y60838D01*
X298711D01*
X298789Y60849D01*
X298989D01*
X299189Y60860D01*
X299389Y60882D01*
X299566Y60915D01*
X299644Y60926D01*
X299710Y60949D01*
X299722Y60960D01*
X299766Y60971D01*
X299821Y61004D01*
X299888Y61038D01*
X299966Y61093D01*
X300043Y61160D01*
X300132Y61237D01*
X300199Y61326D01*
X300210Y61337D01*
X300232Y61371D01*
X300254Y61426D01*
X300288Y61504D01*
X300321Y61592D01*
X300354Y61692D01*
X300365Y61803D01*
X300376Y61926D01*
Y61948D01*
Y61992D01*
X300365Y62070D01*
X300343Y62170D01*
X300310Y62281D01*
X300265Y62403D01*
X300210Y62514D01*
X300121Y62625D01*
X300110Y62636D01*
X300077Y62669D01*
X300021Y62714D01*
X299955Y62769D01*
X299866Y62836D01*
X299755Y62891D01*
X299633Y62936D01*
X299499Y62969D01*
X299488D01*
X299444Y62980D01*
X299366Y62991D01*
X299255Y63002D01*
X299111D01*
X299011Y63013D01*
X298911D01*
X298800Y63024D01*
D02*
G37*
G36*
X299562Y87916D02*
X298408D01*
Y85730D01*
X299473D01*
X299551Y85741D01*
X299751D01*
X299951Y85752D01*
X300151Y85774D01*
X300328Y85807D01*
X300406Y85819D01*
X300472Y85841D01*
X300483Y85852D01*
X300528Y85863D01*
X300583Y85896D01*
X300650Y85929D01*
X300728Y85985D01*
X300805Y86052D01*
X300894Y86129D01*
X300961Y86218D01*
X300972Y86229D01*
X300994Y86263D01*
X301016Y86318D01*
X301050Y86396D01*
X301083Y86484D01*
X301116Y86584D01*
X301127Y86695D01*
X301138Y86818D01*
Y86840D01*
Y86884D01*
X301127Y86962D01*
X301105Y87062D01*
X301072Y87173D01*
X301027Y87295D01*
X300972Y87406D01*
X300883Y87517D01*
X300872Y87528D01*
X300839Y87561D01*
X300783Y87606D01*
X300717Y87661D01*
X300628Y87728D01*
X300517Y87783D01*
X300395Y87828D01*
X300261Y87861D01*
X300250D01*
X300206Y87872D01*
X300128Y87883D01*
X300017Y87894D01*
X299873D01*
X299773Y87905D01*
X299673D01*
X299562Y87916D01*
D02*
G37*
G36*
X273908Y63024D02*
X272754D01*
Y60838D01*
X273819D01*
X273897Y60849D01*
X274097D01*
X274297Y60860D01*
X274496Y60882D01*
X274674Y60915D01*
X274752Y60926D01*
X274818Y60949D01*
X274830Y60960D01*
X274874Y60971D01*
X274929Y61004D01*
X274996Y61038D01*
X275074Y61093D01*
X275151Y61160D01*
X275240Y61237D01*
X275307Y61326D01*
X275318Y61337D01*
X275340Y61371D01*
X275362Y61426D01*
X275396Y61504D01*
X275429Y61592D01*
X275462Y61692D01*
X275473Y61803D01*
X275484Y61926D01*
Y61948D01*
Y61992D01*
X275473Y62070D01*
X275451Y62170D01*
X275418Y62281D01*
X275373Y62403D01*
X275318Y62514D01*
X275229Y62625D01*
X275218Y62636D01*
X275185Y62669D01*
X275129Y62714D01*
X275063Y62769D01*
X274974Y62836D01*
X274863Y62891D01*
X274741Y62936D01*
X274608Y62969D01*
X274596D01*
X274552Y62980D01*
X274474Y62991D01*
X274363Y63002D01*
X274219D01*
X274119Y63013D01*
X274019D01*
X273908Y63024D01*
D02*
G37*
G36*
X286484Y63147D02*
X286440D01*
X286384Y63135D01*
X286329Y63124D01*
X286251Y63102D01*
X286173Y63069D01*
X286085Y63024D01*
X286007Y62969D01*
X285996Y62958D01*
X285974Y62936D01*
X285940Y62891D01*
X285896Y62836D01*
X285840Y62747D01*
X285796Y62647D01*
X285741Y62514D01*
X285696Y62358D01*
Y62347D01*
X285685Y62336D01*
Y62292D01*
X285674Y62247D01*
X285663Y62181D01*
X285652Y62103D01*
X285641Y62014D01*
X285630Y61903D01*
X285607Y61770D01*
X285596Y61637D01*
X285585Y61470D01*
X285574Y61304D01*
X285563Y61104D01*
Y60904D01*
X285552Y60671D01*
Y60427D01*
Y60416D01*
Y60371D01*
Y60294D01*
Y60205D01*
Y60094D01*
X285563Y59972D01*
Y59828D01*
X285574Y59683D01*
X285585Y59373D01*
X285607Y59062D01*
X285618Y58917D01*
X285641Y58784D01*
X285663Y58662D01*
X285685Y58551D01*
X285696Y58529D01*
X285707Y58474D01*
X285741Y58385D01*
X285774Y58285D01*
X285829Y58174D01*
X285885Y58063D01*
X285951Y57963D01*
X286018Y57885D01*
X286029Y57874D01*
X286051Y57863D01*
X286096Y57830D01*
X286151Y57807D01*
X286218Y57774D01*
X286296Y57741D01*
X286384Y57730D01*
X286484Y57719D01*
X286529D01*
X286584Y57730D01*
X286640Y57741D01*
X286717Y57763D01*
X286795Y57785D01*
X286873Y57830D01*
X286950Y57885D01*
X286962Y57896D01*
X286984Y57919D01*
X287028Y57963D01*
X287073Y58029D01*
X287117Y58107D01*
X287173Y58218D01*
X287228Y58340D01*
X287272Y58496D01*
Y58507D01*
X287283Y58518D01*
Y58562D01*
X287295Y58607D01*
X287306Y58673D01*
X287317Y58751D01*
X287339Y58840D01*
X287350Y58951D01*
X287361Y59073D01*
X287383Y59217D01*
X287395Y59373D01*
X287406Y59550D01*
X287417Y59739D01*
Y59950D01*
X287428Y60183D01*
Y60427D01*
Y60438D01*
Y60483D01*
Y60560D01*
Y60649D01*
Y60760D01*
X287417Y60882D01*
Y61026D01*
X287406Y61171D01*
X287395Y61481D01*
X287372Y61781D01*
X287350Y61926D01*
X287328Y62070D01*
X287306Y62192D01*
X287283Y62292D01*
Y62303D01*
X287272Y62314D01*
X287261Y62369D01*
X287228Y62458D01*
X287195Y62569D01*
X287139Y62680D01*
X287084Y62791D01*
X287017Y62891D01*
X286950Y62969D01*
X286939Y62980D01*
X286917Y63002D01*
X286873Y63024D01*
X286817Y63058D01*
X286751Y63091D01*
X286673Y63124D01*
X286584Y63135D01*
X286484Y63147D01*
D02*
G37*
G36*
X286273Y88293D02*
X286207D01*
X286129Y88270D01*
X286040Y88248D01*
X285929Y88215D01*
X285818Y88148D01*
X285707Y88070D01*
X285596Y87959D01*
X285585Y87948D01*
X285552Y87893D01*
X285508Y87815D01*
X285463Y87704D01*
X285419Y87560D01*
X285374Y87371D01*
X285341Y87149D01*
X285330Y86894D01*
Y86883D01*
Y86861D01*
Y86827D01*
Y86772D01*
X285341Y86639D01*
X285363Y86483D01*
X285396Y86294D01*
X285452Y86117D01*
X285519Y85939D01*
X285618Y85795D01*
X285630Y85784D01*
X285674Y85739D01*
X285730Y85684D01*
X285818Y85628D01*
X285929Y85562D01*
X286051Y85506D01*
X286196Y85462D01*
X286351Y85451D01*
X286373D01*
X286418Y85462D01*
X286495Y85473D01*
X286595Y85495D01*
X286706Y85529D01*
X286828Y85595D01*
X286950Y85673D01*
X287062Y85784D01*
X287073Y85795D01*
X287106Y85850D01*
X287161Y85928D01*
X287217Y86028D01*
X287261Y86172D01*
X287317Y86339D01*
X287350Y86539D01*
X287361Y86772D01*
Y86783D01*
Y86805D01*
Y86838D01*
Y86894D01*
X287339Y87016D01*
X287317Y87183D01*
X287283Y87360D01*
X287217Y87549D01*
X287139Y87726D01*
X287028Y87893D01*
X287017Y87915D01*
X286973Y87959D01*
X286906Y88015D01*
X286817Y88093D01*
X286706Y88170D01*
X286573Y88226D01*
X286429Y88270D01*
X286273Y88293D01*
D02*
G37*
G36*
X273908Y88170D02*
X272754D01*
Y85984D01*
X273819D01*
X273897Y85995D01*
X274097D01*
X274297Y86006D01*
X274496Y86028D01*
X274674Y86061D01*
X274752Y86073D01*
X274818Y86095D01*
X274830Y86106D01*
X274874Y86117D01*
X274929Y86150D01*
X274996Y86184D01*
X275074Y86239D01*
X275151Y86306D01*
X275240Y86383D01*
X275307Y86472D01*
X275318Y86483D01*
X275340Y86517D01*
X275362Y86572D01*
X275396Y86650D01*
X275429Y86739D01*
X275462Y86838D01*
X275473Y86949D01*
X275484Y87072D01*
Y87094D01*
Y87138D01*
X275473Y87216D01*
X275451Y87316D01*
X275418Y87427D01*
X275373Y87549D01*
X275318Y87660D01*
X275229Y87771D01*
X275218Y87782D01*
X275185Y87815D01*
X275129Y87860D01*
X275063Y87915D01*
X274974Y87982D01*
X274863Y88037D01*
X274741Y88082D01*
X274608Y88115D01*
X274596D01*
X274552Y88126D01*
X274474Y88137D01*
X274363Y88148D01*
X274219D01*
X274119Y88159D01*
X274019D01*
X273908Y88170D01*
D02*
G37*
G36*
X248762Y63024D02*
X247608D01*
Y60838D01*
X248673D01*
X248751Y60849D01*
X248951D01*
X249151Y60860D01*
X249350Y60882D01*
X249528Y60915D01*
X249606Y60926D01*
X249672Y60949D01*
X249683Y60960D01*
X249728Y60971D01*
X249783Y61004D01*
X249850Y61038D01*
X249928Y61093D01*
X250005Y61160D01*
X250094Y61237D01*
X250161Y61326D01*
X250172Y61337D01*
X250194Y61371D01*
X250216Y61426D01*
X250250Y61504D01*
X250283Y61592D01*
X250316Y61692D01*
X250327Y61803D01*
X250338Y61926D01*
Y61948D01*
Y61992D01*
X250327Y62070D01*
X250305Y62170D01*
X250272Y62281D01*
X250227Y62403D01*
X250172Y62514D01*
X250083Y62625D01*
X250072Y62636D01*
X250039Y62669D01*
X249983Y62714D01*
X249917Y62769D01*
X249828Y62836D01*
X249717Y62891D01*
X249595Y62936D01*
X249461Y62969D01*
X249450D01*
X249406Y62980D01*
X249328Y62991D01*
X249217Y63002D01*
X249073D01*
X248973Y63013D01*
X248873D01*
X248762Y63024D01*
D02*
G37*
G36*
X261338Y63202D02*
X261272D01*
X261194Y63191D01*
X261094Y63169D01*
X260983Y63135D01*
X260872Y63091D01*
X260761Y63035D01*
X260661Y62947D01*
X260650Y62936D01*
X260628Y62902D01*
X260583Y62847D01*
X260539Y62769D01*
X260495Y62669D01*
X260450Y62558D01*
X260428Y62425D01*
X260417Y62270D01*
Y62247D01*
Y62192D01*
X260428Y62114D01*
X260450Y62014D01*
X260473Y61903D01*
X260517Y61792D01*
X260583Y61681D01*
X260661Y61581D01*
X260672Y61570D01*
X260706Y61548D01*
X260761Y61504D01*
X260839Y61459D01*
X260939Y61415D01*
X261050Y61371D01*
X261183Y61348D01*
X261327Y61337D01*
X261394D01*
X261472Y61348D01*
X261571Y61371D01*
X261682Y61393D01*
X261793Y61437D01*
X261904Y61504D01*
X262004Y61581D01*
X262015Y61592D01*
X262049Y61626D01*
X262082Y61681D01*
X262138Y61770D01*
X262182Y61870D01*
X262215Y61981D01*
X262248Y62125D01*
X262260Y62281D01*
Y62303D01*
Y62347D01*
X262248Y62425D01*
X262226Y62514D01*
X262193Y62625D01*
X262149Y62736D01*
X262093Y62847D01*
X262004Y62947D01*
X261993Y62958D01*
X261960Y62991D01*
X261904Y63024D01*
X261827Y63080D01*
X261727Y63124D01*
X261616Y63158D01*
X261483Y63191D01*
X261338Y63202D01*
D02*
G37*
G36*
X261349Y60172D02*
X261261D01*
X261161Y60149D01*
X261050Y60127D01*
X260917Y60083D01*
X260783Y60016D01*
X260650Y59916D01*
X260539Y59794D01*
X260528Y59772D01*
X260495Y59728D01*
X260461Y59650D01*
X260417Y59550D01*
X260361Y59428D01*
X260328Y59295D01*
X260295Y59139D01*
X260284Y58984D01*
Y58973D01*
Y58962D01*
Y58929D01*
Y58884D01*
X260306Y58773D01*
X260328Y58629D01*
X260361Y58474D01*
X260417Y58318D01*
X260495Y58163D01*
X260595Y58018D01*
X260606Y58007D01*
X260650Y57963D01*
X260717Y57919D01*
X260805Y57852D01*
X260917Y57796D01*
X261050Y57741D01*
X261205Y57696D01*
X261372Y57685D01*
X261449D01*
X261527Y57708D01*
X261638Y57730D01*
X261760Y57763D01*
X261882Y57819D01*
X262004Y57896D01*
X262126Y58007D01*
X262138Y58018D01*
X262171Y58074D01*
X262226Y58141D01*
X262282Y58252D01*
X262337Y58385D01*
X262393Y58551D01*
X262426Y58740D01*
X262437Y58962D01*
Y58973D01*
Y58984D01*
Y59051D01*
X262426Y59151D01*
X262404Y59273D01*
X262360Y59417D01*
X262304Y59561D01*
X262226Y59706D01*
X262126Y59839D01*
X262115Y59850D01*
X262071Y59894D01*
X262004Y59950D01*
X261915Y60005D01*
X261805Y60072D01*
X261671Y60116D01*
X261516Y60161D01*
X261349Y60172D01*
D02*
G37*
G36*
X248762Y87916D02*
X247608D01*
Y85730D01*
X248673D01*
X248751Y85741D01*
X248951D01*
X249151Y85752D01*
X249350Y85774D01*
X249528Y85807D01*
X249606Y85819D01*
X249672Y85841D01*
X249683Y85852D01*
X249728Y85863D01*
X249783Y85896D01*
X249850Y85929D01*
X249928Y85985D01*
X250005Y86052D01*
X250094Y86129D01*
X250161Y86218D01*
X250172Y86229D01*
X250194Y86263D01*
X250216Y86318D01*
X250250Y86396D01*
X250283Y86484D01*
X250316Y86584D01*
X250327Y86695D01*
X250338Y86818D01*
Y86840D01*
Y86884D01*
X250327Y86962D01*
X250305Y87062D01*
X250272Y87173D01*
X250227Y87295D01*
X250172Y87406D01*
X250083Y87517D01*
X250072Y87528D01*
X250039Y87561D01*
X249983Y87606D01*
X249917Y87661D01*
X249828Y87728D01*
X249717Y87783D01*
X249595Y87828D01*
X249461Y87861D01*
X249450D01*
X249406Y87872D01*
X249328Y87883D01*
X249217Y87894D01*
X249073D01*
X248973Y87905D01*
X248873D01*
X248762Y87916D01*
D02*
G37*
G36*
X236624Y60549D02*
X236557D01*
X236469Y60527D01*
X236369Y60505D01*
X236258Y60460D01*
X236136Y60405D01*
X236013Y60316D01*
X235902Y60205D01*
X235891Y60194D01*
X235858Y60138D01*
X235814Y60061D01*
X235758Y59961D01*
X235703Y59816D01*
X235658Y59650D01*
X235625Y59450D01*
X235614Y59217D01*
Y59206D01*
Y59184D01*
Y59151D01*
Y59095D01*
X235636Y58973D01*
X235658Y58807D01*
X235692Y58629D01*
X235747Y58440D01*
X235825Y58263D01*
X235936Y58107D01*
X235947Y58096D01*
X235991Y58052D01*
X236069Y57985D01*
X236158Y57919D01*
X236269Y57841D01*
X236391Y57785D01*
X236535Y57741D01*
X236691Y57719D01*
X236757D01*
X236835Y57741D01*
X236935Y57763D01*
X237035Y57796D01*
X237157Y57852D01*
X237268Y57930D01*
X237379Y58029D01*
X237390Y58041D01*
X237423Y58096D01*
X237467Y58174D01*
X237523Y58285D01*
X237567Y58429D01*
X237612Y58607D01*
X237645Y58829D01*
X237656Y59084D01*
Y59095D01*
Y59117D01*
Y59162D01*
Y59206D01*
X237645Y59339D01*
X237623Y59506D01*
X237579Y59683D01*
X237534Y59872D01*
X237456Y60050D01*
X237356Y60194D01*
X237345Y60205D01*
X237301Y60249D01*
X237246Y60305D01*
X237157Y60371D01*
X237046Y60438D01*
X236924Y60494D01*
X236779Y60538D01*
X236624Y60549D01*
D02*
G37*
G36*
X223870Y63024D02*
X222716D01*
Y60838D01*
X223781D01*
X223859Y60849D01*
X224059D01*
X224259Y60860D01*
X224459Y60882D01*
X224636Y60915D01*
X224714Y60926D01*
X224780Y60949D01*
X224792Y60960D01*
X224836Y60971D01*
X224891Y61004D01*
X224958Y61038D01*
X225036Y61093D01*
X225113Y61160D01*
X225202Y61237D01*
X225269Y61326D01*
X225280Y61337D01*
X225302Y61371D01*
X225324Y61426D01*
X225358Y61504D01*
X225391Y61592D01*
X225424Y61692D01*
X225435Y61803D01*
X225446Y61926D01*
Y61948D01*
Y61992D01*
X225435Y62070D01*
X225413Y62170D01*
X225380Y62281D01*
X225335Y62403D01*
X225280Y62514D01*
X225191Y62625D01*
X225180Y62636D01*
X225147Y62669D01*
X225091Y62714D01*
X225025Y62769D01*
X224936Y62836D01*
X224825Y62891D01*
X224703Y62936D01*
X224569Y62969D01*
X224558D01*
X224514Y62980D01*
X224436Y62991D01*
X224325Y63002D01*
X224181D01*
X224081Y63013D01*
X223981D01*
X223870Y63024D01*
D02*
G37*
G36*
Y88170D02*
X222716D01*
Y85984D01*
X223781D01*
X223859Y85995D01*
X224059D01*
X224259Y86006D01*
X224459Y86028D01*
X224636Y86061D01*
X224714Y86073D01*
X224780Y86095D01*
X224792Y86106D01*
X224836Y86117D01*
X224891Y86150D01*
X224958Y86184D01*
X225036Y86239D01*
X225113Y86306D01*
X225202Y86383D01*
X225269Y86472D01*
X225280Y86483D01*
X225302Y86517D01*
X225324Y86572D01*
X225358Y86650D01*
X225391Y86739D01*
X225424Y86838D01*
X225435Y86949D01*
X225446Y87072D01*
Y87094D01*
Y87138D01*
X225435Y87216D01*
X225413Y87316D01*
X225380Y87427D01*
X225335Y87549D01*
X225280Y87660D01*
X225191Y87771D01*
X225180Y87782D01*
X225147Y87815D01*
X225091Y87860D01*
X225025Y87915D01*
X224936Y87982D01*
X224825Y88037D01*
X224703Y88082D01*
X224569Y88115D01*
X224558D01*
X224514Y88126D01*
X224436Y88137D01*
X224325Y88148D01*
X224181D01*
X224081Y88159D01*
X223981D01*
X223870Y88170D01*
D02*
G37*
G36*
X211711Y62114D02*
X209924Y59472D01*
X211711D01*
Y62114D01*
D02*
G37*
G36*
X198724Y63024D02*
X197570D01*
Y60838D01*
X198635D01*
X198713Y60849D01*
X198913D01*
X199113Y60860D01*
X199312Y60882D01*
X199490Y60915D01*
X199568Y60926D01*
X199634Y60949D01*
X199646Y60960D01*
X199690Y60971D01*
X199745Y61004D01*
X199812Y61038D01*
X199890Y61093D01*
X199967Y61160D01*
X200056Y61237D01*
X200123Y61326D01*
X200134Y61337D01*
X200156Y61371D01*
X200178Y61426D01*
X200212Y61504D01*
X200245Y61592D01*
X200278Y61692D01*
X200289Y61803D01*
X200300Y61926D01*
Y61948D01*
Y61992D01*
X200289Y62070D01*
X200267Y62170D01*
X200234Y62281D01*
X200189Y62403D01*
X200134Y62514D01*
X200045Y62625D01*
X200034Y62636D01*
X200001Y62669D01*
X199945Y62714D01*
X199879Y62769D01*
X199790Y62836D01*
X199679Y62891D01*
X199557Y62936D01*
X199424Y62969D01*
X199412D01*
X199368Y62980D01*
X199290Y62991D01*
X199179Y63002D01*
X199035D01*
X198935Y63013D01*
X198835D01*
X198724Y63024D01*
D02*
G37*
G36*
Y88170D02*
X197570D01*
Y85984D01*
X198635D01*
X198713Y85995D01*
X198913D01*
X199113Y86006D01*
X199312Y86028D01*
X199490Y86061D01*
X199568Y86073D01*
X199634Y86095D01*
X199646Y86106D01*
X199690Y86117D01*
X199745Y86150D01*
X199812Y86184D01*
X199890Y86239D01*
X199967Y86306D01*
X200056Y86383D01*
X200123Y86472D01*
X200134Y86483D01*
X200156Y86517D01*
X200178Y86572D01*
X200212Y86650D01*
X200245Y86739D01*
X200278Y86838D01*
X200289Y86949D01*
X200300Y87072D01*
Y87094D01*
Y87138D01*
X200289Y87216D01*
X200267Y87316D01*
X200234Y87427D01*
X200189Y87549D01*
X200134Y87660D01*
X200045Y87771D01*
X200034Y87782D01*
X200001Y87815D01*
X199945Y87860D01*
X199879Y87915D01*
X199790Y87982D01*
X199679Y88037D01*
X199557Y88082D01*
X199424Y88115D01*
X199412D01*
X199368Y88126D01*
X199290Y88137D01*
X199179Y88148D01*
X199035D01*
X198935Y88159D01*
X198835D01*
X198724Y88170D01*
D02*
G37*
G36*
X174594Y87916D02*
X173440D01*
Y85730D01*
X174505D01*
X174583Y85741D01*
X174783D01*
X174983Y85752D01*
X175182Y85774D01*
X175360Y85807D01*
X175438Y85819D01*
X175504Y85841D01*
X175515Y85852D01*
X175560Y85863D01*
X175615Y85896D01*
X175682Y85929D01*
X175760Y85985D01*
X175837Y86052D01*
X175926Y86129D01*
X175993Y86218D01*
X176004Y86229D01*
X176026Y86263D01*
X176048Y86318D01*
X176082Y86396D01*
X176115Y86484D01*
X176148Y86584D01*
X176159Y86695D01*
X176170Y86818D01*
Y86840D01*
Y86884D01*
X176159Y86962D01*
X176137Y87062D01*
X176104Y87173D01*
X176059Y87295D01*
X176004Y87406D01*
X175915Y87517D01*
X175904Y87528D01*
X175871Y87561D01*
X175815Y87606D01*
X175749Y87661D01*
X175660Y87728D01*
X175549Y87783D01*
X175427Y87828D01*
X175294Y87861D01*
X175282D01*
X175238Y87872D01*
X175160Y87883D01*
X175049Y87894D01*
X174905D01*
X174805Y87905D01*
X174705D01*
X174594Y87916D01*
D02*
G37*
G36*
X148940Y63024D02*
X147786D01*
Y60838D01*
X148851D01*
X148929Y60849D01*
X149129D01*
X149329Y60860D01*
X149529Y60882D01*
X149706Y60915D01*
X149784Y60926D01*
X149850Y60949D01*
X149861Y60960D01*
X149906Y60971D01*
X149961Y61004D01*
X150028Y61038D01*
X150106Y61093D01*
X150183Y61160D01*
X150272Y61237D01*
X150339Y61326D01*
X150350Y61337D01*
X150372Y61371D01*
X150394Y61426D01*
X150428Y61504D01*
X150461Y61592D01*
X150494Y61692D01*
X150505Y61803D01*
X150516Y61926D01*
Y61948D01*
Y61992D01*
X150505Y62070D01*
X150483Y62170D01*
X150450Y62281D01*
X150405Y62403D01*
X150350Y62514D01*
X150261Y62625D01*
X150250Y62636D01*
X150217Y62669D01*
X150161Y62714D01*
X150095Y62769D01*
X150006Y62836D01*
X149895Y62891D01*
X149773Y62936D01*
X149640Y62969D01*
X149628D01*
X149584Y62980D01*
X149506Y62991D01*
X149395Y63002D01*
X149251D01*
X149151Y63013D01*
X149051D01*
X148940Y63024D01*
D02*
G37*
G36*
X161516Y63147D02*
X161472D01*
X161416Y63135D01*
X161361Y63124D01*
X161283Y63102D01*
X161206Y63069D01*
X161117Y63024D01*
X161039Y62969D01*
X161028Y62958D01*
X161006Y62936D01*
X160972Y62891D01*
X160928Y62836D01*
X160872Y62747D01*
X160828Y62647D01*
X160773Y62514D01*
X160728Y62358D01*
Y62347D01*
X160717Y62336D01*
Y62292D01*
X160706Y62247D01*
X160695Y62181D01*
X160684Y62103D01*
X160673Y62014D01*
X160662Y61903D01*
X160639Y61770D01*
X160628Y61637D01*
X160617Y61470D01*
X160606Y61304D01*
X160595Y61104D01*
Y60904D01*
X160584Y60671D01*
Y60427D01*
Y60416D01*
Y60371D01*
Y60294D01*
Y60205D01*
Y60094D01*
X160595Y59972D01*
Y59828D01*
X160606Y59683D01*
X160617Y59373D01*
X160639Y59062D01*
X160651Y58917D01*
X160673Y58784D01*
X160695Y58662D01*
X160717Y58551D01*
X160728Y58529D01*
X160739Y58474D01*
X160773Y58385D01*
X160806Y58285D01*
X160861Y58174D01*
X160917Y58063D01*
X160984Y57963D01*
X161050Y57885D01*
X161061Y57874D01*
X161083Y57863D01*
X161128Y57830D01*
X161183Y57807D01*
X161250Y57774D01*
X161328Y57741D01*
X161416Y57730D01*
X161516Y57719D01*
X161561D01*
X161616Y57730D01*
X161672Y57741D01*
X161749Y57763D01*
X161827Y57785D01*
X161905Y57830D01*
X161982Y57885D01*
X161994Y57896D01*
X162016Y57919D01*
X162060Y57963D01*
X162105Y58029D01*
X162149Y58107D01*
X162204Y58218D01*
X162260Y58340D01*
X162304Y58496D01*
Y58507D01*
X162316Y58518D01*
Y58562D01*
X162327Y58607D01*
X162338Y58673D01*
X162349Y58751D01*
X162371Y58840D01*
X162382Y58951D01*
X162393Y59073D01*
X162415Y59217D01*
X162426Y59373D01*
X162438Y59550D01*
X162449Y59739D01*
Y59950D01*
X162460Y60183D01*
Y60427D01*
Y60438D01*
Y60483D01*
Y60560D01*
Y60649D01*
Y60760D01*
X162449Y60882D01*
Y61026D01*
X162438Y61171D01*
X162426Y61481D01*
X162404Y61781D01*
X162382Y61926D01*
X162360Y62070D01*
X162338Y62192D01*
X162316Y62292D01*
Y62303D01*
X162304Y62314D01*
X162293Y62369D01*
X162260Y62458D01*
X162227Y62569D01*
X162171Y62680D01*
X162116Y62791D01*
X162049Y62891D01*
X161982Y62969D01*
X161971Y62980D01*
X161949Y63002D01*
X161905Y63024D01*
X161849Y63058D01*
X161783Y63091D01*
X161705Y63124D01*
X161616Y63135D01*
X161516Y63147D01*
D02*
G37*
G36*
X158128Y88293D02*
X158061D01*
X157983Y88270D01*
X157895Y88248D01*
X157784Y88215D01*
X157673Y88148D01*
X157562Y88070D01*
X157451Y87959D01*
X157439Y87948D01*
X157406Y87893D01*
X157362Y87815D01*
X157317Y87704D01*
X157273Y87560D01*
X157229Y87371D01*
X157195Y87149D01*
X157184Y86894D01*
Y86883D01*
Y86861D01*
Y86827D01*
Y86772D01*
X157195Y86639D01*
X157218Y86483D01*
X157251Y86294D01*
X157306Y86117D01*
X157373Y85939D01*
X157473Y85795D01*
X157484Y85784D01*
X157528Y85739D01*
X157584Y85684D01*
X157673Y85628D01*
X157784Y85562D01*
X157906Y85506D01*
X158050Y85462D01*
X158205Y85451D01*
X158228D01*
X158272Y85462D01*
X158350Y85473D01*
X158450Y85495D01*
X158561Y85529D01*
X158683Y85595D01*
X158805Y85673D01*
X158916Y85784D01*
X158927Y85795D01*
X158960Y85850D01*
X159016Y85928D01*
X159071Y86028D01*
X159116Y86172D01*
X159171Y86339D01*
X159204Y86539D01*
X159215Y86772D01*
Y86783D01*
Y86805D01*
Y86838D01*
Y86894D01*
X159193Y87016D01*
X159171Y87183D01*
X159138Y87360D01*
X159071Y87549D01*
X158994Y87726D01*
X158883Y87893D01*
X158871Y87915D01*
X158827Y87959D01*
X158760Y88015D01*
X158672Y88093D01*
X158561Y88170D01*
X158427Y88226D01*
X158283Y88270D01*
X158128Y88293D01*
D02*
G37*
G36*
X151734Y88170D02*
X150580D01*
Y85984D01*
X151645D01*
X151723Y85995D01*
X151923D01*
X152123Y86006D01*
X152323Y86028D01*
X152500Y86061D01*
X152578Y86073D01*
X152644Y86095D01*
X152655Y86106D01*
X152700Y86117D01*
X152755Y86150D01*
X152822Y86184D01*
X152900Y86239D01*
X152977Y86306D01*
X153066Y86383D01*
X153133Y86472D01*
X153144Y86483D01*
X153166Y86517D01*
X153188Y86572D01*
X153222Y86650D01*
X153255Y86739D01*
X153288Y86838D01*
X153299Y86949D01*
X153310Y87072D01*
Y87094D01*
Y87138D01*
X153299Y87216D01*
X153277Y87316D01*
X153244Y87427D01*
X153199Y87549D01*
X153144Y87660D01*
X153055Y87771D01*
X153044Y87782D01*
X153011Y87815D01*
X152955Y87860D01*
X152889Y87915D01*
X152800Y87982D01*
X152689Y88037D01*
X152567Y88082D01*
X152434Y88115D01*
X152422D01*
X152378Y88126D01*
X152300Y88137D01*
X152189Y88148D01*
X152045D01*
X151945Y88159D01*
X151845D01*
X151734Y88170D01*
D02*
G37*
G36*
X126842Y63024D02*
X125688D01*
Y60838D01*
X126753D01*
X126831Y60849D01*
X127031D01*
X127231Y60860D01*
X127430Y60882D01*
X127608Y60915D01*
X127686Y60926D01*
X127752Y60949D01*
X127764Y60960D01*
X127808Y60971D01*
X127863Y61004D01*
X127930Y61038D01*
X128008Y61093D01*
X128085Y61160D01*
X128174Y61237D01*
X128241Y61326D01*
X128252Y61337D01*
X128274Y61371D01*
X128296Y61426D01*
X128330Y61504D01*
X128363Y61592D01*
X128396Y61692D01*
X128407Y61803D01*
X128418Y61926D01*
Y61948D01*
Y61992D01*
X128407Y62070D01*
X128385Y62170D01*
X128352Y62281D01*
X128307Y62403D01*
X128252Y62514D01*
X128163Y62625D01*
X128152Y62636D01*
X128119Y62669D01*
X128063Y62714D01*
X127997Y62769D01*
X127908Y62836D01*
X127797Y62891D01*
X127675Y62936D01*
X127542Y62969D01*
X127530D01*
X127486Y62980D01*
X127408Y62991D01*
X127297Y63002D01*
X127153D01*
X127053Y63013D01*
X126953D01*
X126842Y63024D01*
D02*
G37*
G36*
X133447Y63202D02*
X133380D01*
X133302Y63191D01*
X133202Y63169D01*
X133091Y63135D01*
X132980Y63091D01*
X132869Y63035D01*
X132769Y62947D01*
X132758Y62936D01*
X132736Y62902D01*
X132692Y62847D01*
X132647Y62769D01*
X132603Y62669D01*
X132559Y62558D01*
X132536Y62425D01*
X132525Y62270D01*
Y62247D01*
Y62192D01*
X132536Y62114D01*
X132559Y62014D01*
X132581Y61903D01*
X132625Y61792D01*
X132692Y61681D01*
X132769Y61581D01*
X132781Y61570D01*
X132814Y61548D01*
X132869Y61504D01*
X132947Y61459D01*
X133047Y61415D01*
X133158Y61371D01*
X133291Y61348D01*
X133435Y61337D01*
X133502D01*
X133580Y61348D01*
X133680Y61371D01*
X133791Y61393D01*
X133902Y61437D01*
X134013Y61504D01*
X134113Y61581D01*
X134124Y61592D01*
X134157Y61626D01*
X134190Y61681D01*
X134246Y61770D01*
X134290Y61870D01*
X134324Y61981D01*
X134357Y62125D01*
X134368Y62281D01*
Y62303D01*
Y62347D01*
X134357Y62425D01*
X134335Y62514D01*
X134301Y62625D01*
X134257Y62736D01*
X134201Y62847D01*
X134113Y62947D01*
X134101Y62958D01*
X134068Y62991D01*
X134013Y63024D01*
X133935Y63080D01*
X133835Y63124D01*
X133724Y63158D01*
X133591Y63191D01*
X133447Y63202D01*
D02*
G37*
G36*
X133458Y60172D02*
X133369D01*
X133269Y60149D01*
X133158Y60127D01*
X133025Y60083D01*
X132892Y60016D01*
X132758Y59916D01*
X132647Y59794D01*
X132636Y59772D01*
X132603Y59728D01*
X132570Y59650D01*
X132525Y59550D01*
X132470Y59428D01*
X132437Y59295D01*
X132403Y59139D01*
X132392Y58984D01*
Y58973D01*
Y58962D01*
Y58929D01*
Y58884D01*
X132414Y58773D01*
X132437Y58629D01*
X132470Y58474D01*
X132525Y58318D01*
X132603Y58163D01*
X132703Y58018D01*
X132714Y58007D01*
X132758Y57963D01*
X132825Y57919D01*
X132914Y57852D01*
X133025Y57796D01*
X133158Y57741D01*
X133313Y57696D01*
X133480Y57685D01*
X133558D01*
X133635Y57708D01*
X133746Y57730D01*
X133868Y57763D01*
X133990Y57819D01*
X134113Y57896D01*
X134235Y58007D01*
X134246Y58018D01*
X134279Y58074D01*
X134335Y58141D01*
X134390Y58252D01*
X134446Y58385D01*
X134501Y58551D01*
X134534Y58740D01*
X134545Y58962D01*
Y58973D01*
Y58984D01*
Y59051D01*
X134534Y59151D01*
X134512Y59273D01*
X134468Y59417D01*
X134412Y59561D01*
X134335Y59706D01*
X134235Y59839D01*
X134224Y59850D01*
X134179Y59894D01*
X134113Y59950D01*
X134024Y60005D01*
X133913Y60072D01*
X133780Y60116D01*
X133624Y60161D01*
X133458Y60172D01*
D02*
G37*
G36*
X126842Y88170D02*
X125688D01*
Y85984D01*
X126753D01*
X126831Y85995D01*
X127031D01*
X127231Y86006D01*
X127430Y86028D01*
X127608Y86061D01*
X127686Y86073D01*
X127752Y86095D01*
X127764Y86106D01*
X127808Y86117D01*
X127863Y86150D01*
X127930Y86184D01*
X128008Y86239D01*
X128085Y86306D01*
X128174Y86383D01*
X128241Y86472D01*
X128252Y86483D01*
X128274Y86517D01*
X128296Y86572D01*
X128330Y86650D01*
X128363Y86739D01*
X128396Y86838D01*
X128407Y86949D01*
X128418Y87072D01*
Y87094D01*
Y87138D01*
X128407Y87216D01*
X128385Y87316D01*
X128352Y87427D01*
X128307Y87549D01*
X128252Y87660D01*
X128163Y87771D01*
X128152Y87782D01*
X128119Y87815D01*
X128063Y87860D01*
X127997Y87915D01*
X127908Y87982D01*
X127797Y88037D01*
X127675Y88082D01*
X127542Y88115D01*
X127530D01*
X127486Y88126D01*
X127408Y88137D01*
X127297Y88148D01*
X127153D01*
X127053Y88159D01*
X126953D01*
X126842Y88170D01*
D02*
G37*
G36*
X108478Y60549D02*
X108412D01*
X108323Y60527D01*
X108223Y60505D01*
X108112Y60460D01*
X107990Y60405D01*
X107868Y60316D01*
X107757Y60205D01*
X107746Y60194D01*
X107712Y60138D01*
X107668Y60061D01*
X107612Y59961D01*
X107557Y59816D01*
X107513Y59650D01*
X107479Y59450D01*
X107468Y59217D01*
Y59206D01*
Y59184D01*
Y59151D01*
Y59095D01*
X107490Y58973D01*
X107513Y58807D01*
X107546Y58629D01*
X107601Y58440D01*
X107679Y58263D01*
X107790Y58107D01*
X107801Y58096D01*
X107845Y58052D01*
X107923Y57985D01*
X108012Y57919D01*
X108123Y57841D01*
X108245Y57785D01*
X108389Y57741D01*
X108545Y57719D01*
X108611D01*
X108689Y57741D01*
X108789Y57763D01*
X108889Y57796D01*
X109011Y57852D01*
X109122Y57930D01*
X109233Y58029D01*
X109244Y58041D01*
X109277Y58096D01*
X109322Y58174D01*
X109377Y58285D01*
X109422Y58429D01*
X109466Y58607D01*
X109499Y58829D01*
X109510Y59084D01*
Y59095D01*
Y59117D01*
Y59162D01*
Y59206D01*
X109499Y59339D01*
X109477Y59506D01*
X109433Y59683D01*
X109388Y59872D01*
X109311Y60050D01*
X109211Y60194D01*
X109200Y60205D01*
X109155Y60249D01*
X109100Y60305D01*
X109011Y60371D01*
X108900Y60438D01*
X108778Y60494D01*
X108634Y60538D01*
X108478Y60549D01*
D02*
G37*
G36*
X101696Y63024D02*
X100542D01*
Y60838D01*
X101607D01*
X101685Y60849D01*
X101885D01*
X102085Y60860D01*
X102284Y60882D01*
X102462Y60915D01*
X102540Y60926D01*
X102606Y60949D01*
X102618Y60960D01*
X102662Y60971D01*
X102717Y61004D01*
X102784Y61038D01*
X102862Y61093D01*
X102939Y61160D01*
X103028Y61237D01*
X103095Y61326D01*
X103106Y61337D01*
X103128Y61371D01*
X103150Y61426D01*
X103184Y61504D01*
X103217Y61592D01*
X103250Y61692D01*
X103261Y61803D01*
X103272Y61926D01*
Y61948D01*
Y61992D01*
X103261Y62070D01*
X103239Y62170D01*
X103206Y62281D01*
X103161Y62403D01*
X103106Y62514D01*
X103017Y62625D01*
X103006Y62636D01*
X102973Y62669D01*
X102917Y62714D01*
X102851Y62769D01*
X102762Y62836D01*
X102651Y62891D01*
X102529Y62936D01*
X102395Y62969D01*
X102384D01*
X102340Y62980D01*
X102262Y62991D01*
X102151Y63002D01*
X102007D01*
X101907Y63013D01*
X101807D01*
X101696Y63024D01*
D02*
G37*
G36*
Y88170D02*
X100542D01*
Y85984D01*
X101607D01*
X101685Y85995D01*
X101885D01*
X102085Y86006D01*
X102284Y86028D01*
X102462Y86061D01*
X102540Y86073D01*
X102606Y86095D01*
X102618Y86106D01*
X102662Y86117D01*
X102717Y86150D01*
X102784Y86184D01*
X102862Y86239D01*
X102939Y86306D01*
X103028Y86383D01*
X103095Y86472D01*
X103106Y86483D01*
X103128Y86517D01*
X103150Y86572D01*
X103184Y86650D01*
X103217Y86739D01*
X103250Y86838D01*
X103261Y86949D01*
X103272Y87072D01*
Y87094D01*
Y87138D01*
X103261Y87216D01*
X103239Y87316D01*
X103206Y87427D01*
X103161Y87549D01*
X103106Y87660D01*
X103017Y87771D01*
X103006Y87782D01*
X102973Y87815D01*
X102917Y87860D01*
X102851Y87915D01*
X102762Y87982D01*
X102651Y88037D01*
X102529Y88082D01*
X102395Y88115D01*
X102384D01*
X102340Y88126D01*
X102262Y88137D01*
X102151Y88148D01*
X102007D01*
X101907Y88159D01*
X101807D01*
X101696Y88170D01*
D02*
G37*
G36*
X83819Y62114D02*
X82032Y59472D01*
X83819D01*
Y62114D01*
D02*
G37*
G36*
X76804Y63024D02*
X75650D01*
Y60838D01*
X76715D01*
X76793Y60849D01*
X76993D01*
X77193Y60860D01*
X77393Y60882D01*
X77570Y60915D01*
X77648Y60926D01*
X77714Y60949D01*
X77726Y60960D01*
X77770Y60971D01*
X77825Y61004D01*
X77892Y61038D01*
X77970Y61093D01*
X78047Y61160D01*
X78136Y61237D01*
X78203Y61326D01*
X78214Y61337D01*
X78236Y61371D01*
X78258Y61426D01*
X78292Y61504D01*
X78325Y61592D01*
X78358Y61692D01*
X78369Y61803D01*
X78380Y61926D01*
Y61948D01*
Y61992D01*
X78369Y62070D01*
X78347Y62170D01*
X78314Y62281D01*
X78269Y62403D01*
X78214Y62514D01*
X78125Y62625D01*
X78114Y62636D01*
X78081Y62669D01*
X78025Y62714D01*
X77959Y62769D01*
X77870Y62836D01*
X77759Y62891D01*
X77637Y62936D01*
X77503Y62969D01*
X77492D01*
X77448Y62980D01*
X77370Y62991D01*
X77259Y63002D01*
X77115D01*
X77015Y63013D01*
X76915D01*
X76804Y63024D01*
D02*
G37*
G36*
Y88170D02*
X75650D01*
Y85984D01*
X76715D01*
X76793Y85995D01*
X76993D01*
X77193Y86006D01*
X77393Y86028D01*
X77570Y86061D01*
X77648Y86073D01*
X77714Y86095D01*
X77726Y86106D01*
X77770Y86117D01*
X77825Y86150D01*
X77892Y86184D01*
X77970Y86239D01*
X78047Y86306D01*
X78136Y86383D01*
X78203Y86472D01*
X78214Y86483D01*
X78236Y86517D01*
X78258Y86572D01*
X78292Y86650D01*
X78325Y86739D01*
X78358Y86838D01*
X78369Y86949D01*
X78380Y87072D01*
Y87094D01*
Y87138D01*
X78369Y87216D01*
X78347Y87316D01*
X78314Y87427D01*
X78269Y87549D01*
X78214Y87660D01*
X78125Y87771D01*
X78114Y87782D01*
X78081Y87815D01*
X78025Y87860D01*
X77959Y87915D01*
X77870Y87982D01*
X77759Y88037D01*
X77637Y88082D01*
X77503Y88115D01*
X77492D01*
X77448Y88126D01*
X77370Y88137D01*
X77259Y88148D01*
X77115D01*
X77015Y88159D01*
X76915D01*
X76804Y88170D01*
D02*
G37*
G36*
X51912Y63024D02*
X50758D01*
Y60838D01*
X51823D01*
X51901Y60849D01*
X52101D01*
X52301Y60860D01*
X52501Y60882D01*
X52678Y60915D01*
X52756Y60926D01*
X52822Y60949D01*
X52833Y60960D01*
X52878Y60971D01*
X52933Y61004D01*
X53000Y61038D01*
X53078Y61093D01*
X53155Y61160D01*
X53244Y61237D01*
X53311Y61326D01*
X53322Y61337D01*
X53344Y61371D01*
X53366Y61426D01*
X53400Y61504D01*
X53433Y61592D01*
X53466Y61692D01*
X53477Y61803D01*
X53488Y61926D01*
Y61948D01*
Y61992D01*
X53477Y62070D01*
X53455Y62170D01*
X53422Y62281D01*
X53377Y62403D01*
X53322Y62514D01*
X53233Y62625D01*
X53222Y62636D01*
X53189Y62669D01*
X53133Y62714D01*
X53067Y62769D01*
X52978Y62836D01*
X52867Y62891D01*
X52745Y62936D01*
X52611Y62969D01*
X52600D01*
X52556Y62980D01*
X52478Y62991D01*
X52367Y63002D01*
X52223D01*
X52123Y63013D01*
X52023D01*
X51912Y63024D01*
D02*
G37*
G36*
X52420Y87916D02*
X51266D01*
Y85730D01*
X52331D01*
X52409Y85741D01*
X52609D01*
X52809Y85752D01*
X53008Y85774D01*
X53186Y85807D01*
X53264Y85819D01*
X53330Y85841D01*
X53341Y85852D01*
X53386Y85863D01*
X53441Y85896D01*
X53508Y85929D01*
X53586Y85985D01*
X53663Y86052D01*
X53752Y86129D01*
X53819Y86218D01*
X53830Y86229D01*
X53852Y86263D01*
X53874Y86318D01*
X53908Y86396D01*
X53941Y86484D01*
X53974Y86584D01*
X53985Y86695D01*
X53996Y86818D01*
Y86840D01*
Y86884D01*
X53985Y86962D01*
X53963Y87062D01*
X53930Y87173D01*
X53885Y87295D01*
X53830Y87406D01*
X53741Y87517D01*
X53730Y87528D01*
X53697Y87561D01*
X53641Y87606D01*
X53575Y87661D01*
X53486Y87728D01*
X53375Y87783D01*
X53253Y87828D01*
X53120Y87861D01*
X53108D01*
X53064Y87872D01*
X52986Y87883D01*
X52875Y87894D01*
X52731D01*
X52631Y87905D01*
X52531D01*
X52420Y87916D01*
D02*
G37*
%LPD*%
M02*
